%TF.GenerationSoftware,KiCad,Pcbnew,(5.1.6)-1*%
%TF.CreationDate,2020-09-27T16:08:55-04:00*%
%TF.ProjectId,keybored_plate,6b657962-6f72-4656-945f-706c6174652e,rev?*%
%TF.SameCoordinates,Original*%
%TF.FileFunction,Legend,Bot*%
%TF.FilePolarity,Positive*%
%FSLAX46Y46*%
G04 Gerber Fmt 4.6, Leading zero omitted, Abs format (unit mm)*
G04 Created by KiCad (PCBNEW (5.1.6)-1) date 2020-09-27 16:08:55*
%MOMM*%
%LPD*%
G01*
G04 APERTURE LIST*
%ADD10C,0.300000*%
G04 APERTURE END LIST*
D10*
X195857142Y-203535714D02*
X195928571Y-203607142D01*
X196142857Y-203678571D01*
X196285714Y-203678571D01*
X196500000Y-203607142D01*
X196642857Y-203464285D01*
X196714285Y-203321428D01*
X196785714Y-203035714D01*
X196785714Y-202821428D01*
X196714285Y-202535714D01*
X196642857Y-202392857D01*
X196500000Y-202250000D01*
X196285714Y-202178571D01*
X196142857Y-202178571D01*
X195928571Y-202250000D01*
X195857142Y-202321428D01*
X194571428Y-203678571D02*
X194571428Y-202892857D01*
X194642857Y-202750000D01*
X194785714Y-202678571D01*
X195071428Y-202678571D01*
X195214285Y-202750000D01*
X194571428Y-203607142D02*
X194714285Y-203678571D01*
X195071428Y-203678571D01*
X195214285Y-203607142D01*
X195285714Y-203464285D01*
X195285714Y-203321428D01*
X195214285Y-203178571D01*
X195071428Y-203107142D01*
X194714285Y-203107142D01*
X194571428Y-203035714D01*
X193928571Y-203607142D02*
X193785714Y-203678571D01*
X193500000Y-203678571D01*
X193357142Y-203607142D01*
X193285714Y-203464285D01*
X193285714Y-203392857D01*
X193357142Y-203250000D01*
X193500000Y-203178571D01*
X193714285Y-203178571D01*
X193857142Y-203107142D01*
X193928571Y-202964285D01*
X193928571Y-202892857D01*
X193857142Y-202750000D01*
X193714285Y-202678571D01*
X193500000Y-202678571D01*
X193357142Y-202750000D01*
X192071428Y-203607142D02*
X192214285Y-203678571D01*
X192500000Y-203678571D01*
X192642857Y-203607142D01*
X192714285Y-203464285D01*
X192714285Y-202892857D01*
X192642857Y-202750000D01*
X192500000Y-202678571D01*
X192214285Y-202678571D01*
X192071428Y-202750000D01*
X192000000Y-202892857D01*
X192000000Y-203035714D01*
X192714285Y-203178571D01*
X191357142Y-203535714D02*
X191285714Y-203607142D01*
X191357142Y-203678571D01*
X191428571Y-203607142D01*
X191357142Y-203535714D01*
X191357142Y-203678571D01*
X191357142Y-202750000D02*
X191285714Y-202821428D01*
X191357142Y-202892857D01*
X191428571Y-202821428D01*
X191357142Y-202750000D01*
X191357142Y-202892857D01*
X189571428Y-203607142D02*
X189357142Y-203678571D01*
X189000000Y-203678571D01*
X188857142Y-203607142D01*
X188785714Y-203535714D01*
X188714285Y-203392857D01*
X188714285Y-203250000D01*
X188785714Y-203107142D01*
X188857142Y-203035714D01*
X189000000Y-202964285D01*
X189285714Y-202892857D01*
X189428571Y-202821428D01*
X189500000Y-202750000D01*
X189571428Y-202607142D01*
X189571428Y-202464285D01*
X189500000Y-202321428D01*
X189428571Y-202250000D01*
X189285714Y-202178571D01*
X188928571Y-202178571D01*
X188714285Y-202250000D01*
X187428571Y-203678571D02*
X187428571Y-202892857D01*
X187500000Y-202750000D01*
X187642857Y-202678571D01*
X187928571Y-202678571D01*
X188071428Y-202750000D01*
X187428571Y-203607142D02*
X187571428Y-203678571D01*
X187928571Y-203678571D01*
X188071428Y-203607142D01*
X188142857Y-203464285D01*
X188142857Y-203321428D01*
X188071428Y-203178571D01*
X187928571Y-203107142D01*
X187571428Y-203107142D01*
X187428571Y-203035714D01*
X186071428Y-202678571D02*
X186071428Y-203892857D01*
X186142857Y-204035714D01*
X186214285Y-204107142D01*
X186357142Y-204178571D01*
X186571428Y-204178571D01*
X186714285Y-204107142D01*
X186071428Y-203607142D02*
X186214285Y-203678571D01*
X186500000Y-203678571D01*
X186642857Y-203607142D01*
X186714285Y-203535714D01*
X186785714Y-203392857D01*
X186785714Y-202964285D01*
X186714285Y-202821428D01*
X186642857Y-202750000D01*
X186500000Y-202678571D01*
X186214285Y-202678571D01*
X186071428Y-202750000D01*
X184714285Y-203678571D02*
X184714285Y-202892857D01*
X184785714Y-202750000D01*
X184928571Y-202678571D01*
X185214285Y-202678571D01*
X185357142Y-202750000D01*
X184714285Y-203607142D02*
X184857142Y-203678571D01*
X185214285Y-203678571D01*
X185357142Y-203607142D01*
X185428571Y-203464285D01*
X185428571Y-203321428D01*
X185357142Y-203178571D01*
X185214285Y-203107142D01*
X184857142Y-203107142D01*
X184714285Y-203035714D01*
X184000000Y-203678571D02*
X184000000Y-202678571D01*
X184000000Y-202964285D02*
X183928571Y-202821428D01*
X183857142Y-202750000D01*
X183714285Y-202678571D01*
X183571428Y-202678571D01*
X181928571Y-203678571D02*
X181928571Y-202178571D01*
X181571428Y-202178571D01*
X181357142Y-202250000D01*
X181214285Y-202392857D01*
X181142857Y-202535714D01*
X181071428Y-202821428D01*
X181071428Y-203035714D01*
X181142857Y-203321428D01*
X181214285Y-203464285D01*
X181357142Y-203607142D01*
X181571428Y-203678571D01*
X181928571Y-203678571D01*
X180428571Y-203678571D02*
X180428571Y-202678571D01*
X180428571Y-202178571D02*
X180500000Y-202250000D01*
X180428571Y-202321428D01*
X180357142Y-202250000D01*
X180428571Y-202178571D01*
X180428571Y-202321428D01*
X179071428Y-202678571D02*
X179071428Y-203892857D01*
X179142857Y-204035714D01*
X179214285Y-204107142D01*
X179357142Y-204178571D01*
X179571428Y-204178571D01*
X179714285Y-204107142D01*
X179071428Y-203607142D02*
X179214285Y-203678571D01*
X179500000Y-203678571D01*
X179642857Y-203607142D01*
X179714285Y-203535714D01*
X179785714Y-203392857D01*
X179785714Y-202964285D01*
X179714285Y-202821428D01*
X179642857Y-202750000D01*
X179500000Y-202678571D01*
X179214285Y-202678571D01*
X179071428Y-202750000D01*
X178357142Y-203678571D02*
X178357142Y-202178571D01*
X177714285Y-203678571D02*
X177714285Y-202892857D01*
X177785714Y-202750000D01*
X177928571Y-202678571D01*
X178142857Y-202678571D01*
X178285714Y-202750000D01*
X178357142Y-202821428D01*
X176428571Y-203607142D02*
X176571428Y-203678571D01*
X176857142Y-203678571D01*
X177000000Y-203607142D01*
X177071428Y-203464285D01*
X177071428Y-202892857D01*
X177000000Y-202750000D01*
X176857142Y-202678571D01*
X176571428Y-202678571D01*
X176428571Y-202750000D01*
X176357142Y-202892857D01*
X176357142Y-203035714D01*
X177071428Y-203178571D01*
X196571428Y-200678571D02*
X196571428Y-199178571D01*
X196000000Y-199178571D01*
X195857142Y-199250000D01*
X195785714Y-199321428D01*
X195714285Y-199464285D01*
X195714285Y-199678571D01*
X195785714Y-199821428D01*
X195857142Y-199892857D01*
X196000000Y-199964285D01*
X196571428Y-199964285D01*
X194214285Y-200535714D02*
X194285714Y-200607142D01*
X194500000Y-200678571D01*
X194642857Y-200678571D01*
X194857142Y-200607142D01*
X195000000Y-200464285D01*
X195071428Y-200321428D01*
X195142857Y-200035714D01*
X195142857Y-199821428D01*
X195071428Y-199535714D01*
X195000000Y-199392857D01*
X194857142Y-199250000D01*
X194642857Y-199178571D01*
X194500000Y-199178571D01*
X194285714Y-199250000D01*
X194214285Y-199321428D01*
X193071428Y-199892857D02*
X192857142Y-199964285D01*
X192785714Y-200035714D01*
X192714285Y-200178571D01*
X192714285Y-200392857D01*
X192785714Y-200535714D01*
X192857142Y-200607142D01*
X193000000Y-200678571D01*
X193571428Y-200678571D01*
X193571428Y-199178571D01*
X193071428Y-199178571D01*
X192928571Y-199250000D01*
X192857142Y-199321428D01*
X192785714Y-199464285D01*
X192785714Y-199607142D01*
X192857142Y-199750000D01*
X192928571Y-199821428D01*
X193071428Y-199892857D01*
X193571428Y-199892857D01*
X192071428Y-200535714D02*
X192000000Y-200607142D01*
X192071428Y-200678571D01*
X192142857Y-200607142D01*
X192071428Y-200535714D01*
X192071428Y-200678571D01*
X192071428Y-199750000D02*
X192000000Y-199821428D01*
X192071428Y-199892857D01*
X192142857Y-199821428D01*
X192071428Y-199750000D01*
X192071428Y-199892857D01*
X190214285Y-199892857D02*
X189714285Y-199892857D01*
X189500000Y-200678571D02*
X190214285Y-200678571D01*
X190214285Y-199178571D01*
X189500000Y-199178571D01*
X188857142Y-200678571D02*
X188857142Y-199678571D01*
X188857142Y-199964285D02*
X188785714Y-199821428D01*
X188714285Y-199750000D01*
X188571428Y-199678571D01*
X188428571Y-199678571D01*
X187928571Y-200678571D02*
X187928571Y-199678571D01*
X187928571Y-199178571D02*
X188000000Y-199250000D01*
X187928571Y-199321428D01*
X187857142Y-199250000D01*
X187928571Y-199178571D01*
X187928571Y-199321428D01*
X186571428Y-200607142D02*
X186714285Y-200678571D01*
X187000000Y-200678571D01*
X187142857Y-200607142D01*
X187214285Y-200535714D01*
X187285714Y-200392857D01*
X187285714Y-199964285D01*
X187214285Y-199821428D01*
X187142857Y-199750000D01*
X187000000Y-199678571D01*
X186714285Y-199678571D01*
X186571428Y-199750000D01*
X184071428Y-200678571D02*
X184785714Y-200678571D01*
X184785714Y-199178571D01*
X183571428Y-200678571D02*
X183571428Y-199678571D01*
X183571428Y-199178571D02*
X183642857Y-199250000D01*
X183571428Y-199321428D01*
X183500000Y-199250000D01*
X183571428Y-199178571D01*
X183571428Y-199321428D01*
M02*
