%TF.GenerationSoftware,KiCad,Pcbnew,(5.1.6)-1*%
%TF.CreationDate,2020-09-27T16:08:55-04:00*%
%TF.ProjectId,keybored_plate,6b657962-6f72-4656-945f-706c6174652e,rev?*%
%TF.SameCoordinates,Original*%
%TF.FileFunction,Profile,NP*%
%FSLAX46Y46*%
G04 Gerber Fmt 4.6, Leading zero omitted, Abs format (unit mm)*
G04 Created by KiCad (PCBNEW (5.1.6)-1) date 2020-09-27 16:08:55*
%MOMM*%
%LPD*%
G01*
G04 APERTURE LIST*
%TA.AperFunction,Profile*%
%ADD10C,0.050000*%
%TD*%
%TA.AperFunction,Profile*%
%ADD11C,0.200000*%
%TD*%
G04 APERTURE END LIST*
D10*
X305682500Y-211168750D02*
X327682500Y-211168750D01*
X328682500Y-210168750D02*
G75*
G02*
X327682500Y-211168750I-1000000J0D01*
G01*
X305682500Y-211168750D02*
G75*
G02*
X304682500Y-210168750I0J1000000D01*
G01*
X204462500Y-211168750D02*
X226462500Y-211168750D01*
X227462500Y-210168750D02*
G75*
G02*
X226462500Y-211168750I-1000000J0D01*
G01*
X204462500Y-211168750D02*
G75*
G02*
X203462500Y-210168750I0J1000000D01*
G01*
X103202500Y-211168750D02*
G75*
G02*
X102202500Y-210168750I0J1000000D01*
G01*
X126202500Y-210168750D02*
G75*
G02*
X125202500Y-211168750I-1000000J0D01*
G01*
X379562500Y-174808750D02*
X379562500Y-159808750D01*
X379562500Y-174808750D02*
G75*
G02*
X378562500Y-175808750I-1000000J0D01*
G01*
X378562500Y-158808750D02*
G75*
G02*
X379562500Y-159808750I0J-1000000D01*
G01*
X378562500Y-103118750D02*
G75*
G02*
X379562500Y-104118750I0J-1000000D01*
G01*
X379562500Y-121118750D02*
G75*
G02*
X378562500Y-122118750I-1000000J0D01*
G01*
X51462500Y-159808750D02*
G75*
G02*
X52462500Y-158808750I1000000J0D01*
G01*
X52469990Y-175808722D02*
G75*
G02*
X51462500Y-174808750I-7490J999972D01*
G01*
X51462500Y-159808750D02*
X51462500Y-174808750D01*
X52462500Y-122118750D02*
G75*
G02*
X51462500Y-121118750I0J1000000D01*
G01*
X51462500Y-108156250D02*
G75*
G02*
X52462500Y-107156250I1000000J0D01*
G01*
D11*
X196502500Y-183500002D02*
G75*
G02*
X197502499Y-184500001I0J-999999D01*
G01*
X183502499Y-184500001D02*
G75*
G02*
X184502499Y-183500001I1000000J0D01*
G01*
X197502499Y-184500001D02*
X197502499Y-196500002D01*
X197502499Y-196500002D02*
G75*
G02*
X196502500Y-197500001I-999999J0D01*
G01*
X183502499Y-184500001D02*
X183502499Y-196500002D01*
X184502499Y-197500002D02*
G75*
G02*
X183502499Y-196500002I0J1000000D01*
G01*
X184502499Y-183500001D02*
X196502500Y-183500001D01*
X184502499Y-197500001D02*
X196502500Y-197500001D01*
X143002500Y-196500001D02*
X138002500Y-196500001D01*
X243002500Y-196500001D02*
X238002500Y-196500001D01*
X143002500Y-181500001D02*
G75*
G02*
X144002500Y-182500001I0J-1000000D01*
G01*
X143002500Y-181500001D02*
X138002500Y-181500001D01*
X137002500Y-182500001D02*
G75*
G02*
X138002500Y-181500001I1000000J0D01*
G01*
X144002500Y-195500001D02*
G75*
G02*
X143002500Y-196500001I-1000000J0D01*
G01*
X244002500Y-195500001D02*
G75*
G02*
X243002500Y-196500001I-1000000J0D01*
G01*
X243002500Y-181500001D02*
G75*
G02*
X244002500Y-182500001I0J-1000000D01*
G01*
X243002500Y-181500001D02*
X238002500Y-181500001D01*
X137002500Y-195500001D02*
X137002500Y-182500001D01*
X138002500Y-196500001D02*
G75*
G02*
X137002500Y-195500001I0J1000000D01*
G01*
X244002500Y-195500001D02*
X244002500Y-182500001D01*
X237002500Y-182500001D02*
G75*
G02*
X238002500Y-181500001I1000000J0D01*
G01*
X237002500Y-195500001D02*
X237002500Y-182500001D01*
X144002500Y-195500001D02*
X144002500Y-182500001D01*
X238002500Y-196500001D02*
G75*
G02*
X237002500Y-195500001I0J1000000D01*
G01*
D10*
X57462500Y-107156250D02*
X57462500Y-103118750D01*
X57462500Y-107156250D02*
X52462500Y-107156250D01*
D11*
X333290499Y-161400002D02*
G75*
G02*
X332290499Y-160400002I0J1000000D01*
G01*
X310795749Y-109300002D02*
G75*
G02*
X311795749Y-108300002I1000000J0D01*
G01*
X315414499Y-160400002D02*
G75*
G02*
X314414499Y-161400002I-1000000J0D01*
G01*
X338290499Y-146400002D02*
X331584549Y-146400001D01*
X316986474Y-145900001D02*
G75*
G02*
X317852499Y-145400001I866025J-500000D01*
G01*
X332233749Y-107300001D02*
G75*
G02*
X333099774Y-107800001I0J-1000000D01*
G01*
X317795748Y-122300002D02*
G75*
G02*
X318795749Y-121300001I1000001J0D01*
G01*
X341671749Y-122300002D02*
G75*
G02*
X340671749Y-123300002I-1000000J0D01*
G01*
X311795749Y-123300002D02*
X316795749Y-123300002D01*
D10*
X328682500Y-210168750D02*
X328682500Y-207168750D01*
X304682500Y-207168750D02*
X304682500Y-210168750D01*
D11*
X340671749Y-108300002D02*
G75*
G02*
X341671749Y-109300002I0J-1000000D01*
G01*
X318795749Y-121300001D02*
X333671749Y-121300001D01*
X339290499Y-160400002D02*
G75*
G02*
X338290499Y-161400002I-1000000J0D01*
G01*
X334671749Y-122300002D02*
X334671749Y-122300002D01*
X317795749Y-122300002D02*
X317795749Y-122300002D01*
X317852499Y-145400001D02*
X329852499Y-145400001D01*
X333671749Y-121300002D02*
G75*
G02*
X334671749Y-122300002I0J-1000000D01*
G01*
X311795749Y-108300002D02*
X318501698Y-108300001D01*
X315414499Y-160400002D02*
X315414499Y-160400002D01*
X308414499Y-147400002D02*
G75*
G02*
X309414499Y-146400002I1000000J0D01*
G01*
X309414499Y-161400002D02*
X314414499Y-161400002D01*
X331584549Y-146400001D02*
G75*
G02*
X330718524Y-145900001I0J1000000D01*
G01*
X316986473Y-145900001D02*
G75*
G02*
X316120448Y-146400001I-866025J500000D01*
G01*
X308414499Y-147400002D02*
X308414499Y-160400002D01*
X309414499Y-161400002D02*
G75*
G02*
X308414499Y-160400002I0J1000000D01*
G01*
X333290499Y-161400002D02*
X338290499Y-161400002D01*
X333965799Y-108300001D02*
G75*
G02*
X333099774Y-107800001I0J1000000D01*
G01*
X341671749Y-109300002D02*
X341671749Y-122300002D01*
X319367723Y-107800001D02*
G75*
G02*
X318501698Y-108300001I-866025J500000D01*
G01*
X317795749Y-122300002D02*
G75*
G02*
X316795749Y-123300002I-1000000J0D01*
G01*
X311795749Y-123300002D02*
G75*
G02*
X310795749Y-122300002I0J1000000D01*
G01*
X340671749Y-108300002D02*
X333965799Y-108300001D01*
X319367724Y-107800001D02*
G75*
G02*
X320233749Y-107300001I866025J-500000D01*
G01*
X310795749Y-109300002D02*
X310795749Y-122300002D01*
X335671749Y-123300002D02*
G75*
G02*
X334671749Y-122300002I0J1000000D01*
G01*
X320233749Y-107300001D02*
X332233749Y-107300001D01*
X335671749Y-123300002D02*
X340671749Y-123300002D01*
X309414499Y-146400002D02*
X316120448Y-146400001D01*
X95402999Y-165450002D02*
G75*
G02*
X96402999Y-166450002I0J-1000000D01*
G01*
X90402999Y-180450002D02*
X95402999Y-180450002D01*
X65526999Y-166450002D02*
X65526999Y-179450002D01*
X89402999Y-179450002D02*
X89402999Y-179450002D01*
X74098973Y-164950001D02*
G75*
G02*
X73232948Y-165450001I-866025J500000D01*
G01*
X96402999Y-179450002D02*
G75*
G02*
X95402999Y-180450002I-1000000J0D01*
G01*
X73526999Y-178450001D02*
X88402999Y-178450001D01*
X332290499Y-160400002D02*
X332290499Y-160400002D01*
X331290499Y-159400002D02*
G75*
G02*
X332290499Y-160400002I0J-1000000D01*
G01*
X66526999Y-180450002D02*
X71526999Y-180450002D01*
X74964999Y-164450001D02*
X86964999Y-164450001D01*
X66526999Y-180450002D02*
G75*
G02*
X65526999Y-179450002I0J1000000D01*
G01*
X316414499Y-159400001D02*
X331290499Y-159400001D01*
X315414498Y-160400002D02*
G75*
G02*
X316414499Y-159400001I1000001J0D01*
G01*
X96402999Y-166450002D02*
X96402999Y-179450002D01*
X338290499Y-146400002D02*
G75*
G02*
X339290499Y-147400002I0J-1000000D01*
G01*
X90402999Y-180450002D02*
G75*
G02*
X89402999Y-179450002I0J1000000D01*
G01*
X88402999Y-178450002D02*
G75*
G02*
X89402999Y-179450002I0J-1000000D01*
G01*
X72526999Y-179450002D02*
X72526999Y-179450002D01*
X86964999Y-164450001D02*
G75*
G02*
X87831024Y-164950001I0J-1000000D01*
G01*
X72526999Y-179450002D02*
G75*
G02*
X71526999Y-180450002I-1000000J0D01*
G01*
X66526999Y-165450002D02*
X73232948Y-165450001D01*
X329852499Y-145400001D02*
G75*
G02*
X330718524Y-145900001I0J-1000000D01*
G01*
X88697049Y-165450001D02*
G75*
G02*
X87831024Y-164950001I0J1000000D01*
G01*
X65526999Y-166450002D02*
G75*
G02*
X66526999Y-165450002I1000000J0D01*
G01*
X339290499Y-147400002D02*
X339290499Y-160400002D01*
X72526998Y-179450002D02*
G75*
G02*
X73526999Y-178450001I1000001J0D01*
G01*
X95402999Y-165450002D02*
X88697049Y-165450001D01*
X74098974Y-164950001D02*
G75*
G02*
X74964999Y-164450001I866025J-500000D01*
G01*
X368952499Y-201262502D02*
G75*
G02*
X367952500Y-202262501I-999999J0D01*
G01*
X335902499Y-189262501D02*
X335902499Y-201262502D01*
X100158749Y-108300001D02*
X100158749Y-120300002D01*
X348902500Y-169212502D02*
G75*
G02*
X349902499Y-170212501I0J-999999D01*
G01*
X303564999Y-164450001D02*
X315565000Y-164450001D01*
X303564999Y-178450001D02*
X315565000Y-178450001D01*
X303564999Y-178450002D02*
G75*
G02*
X302564999Y-177450002I0J1000000D01*
G01*
X336902499Y-183212501D02*
X348902500Y-183212501D01*
X335902499Y-170212501D02*
G75*
G02*
X336902499Y-169212501I1000000J0D01*
G01*
X348902500Y-188262502D02*
G75*
G02*
X349902499Y-189262501I0J-999999D01*
G01*
X329852500Y-188262502D02*
G75*
G02*
X330852499Y-189262501I0J-999999D01*
G01*
X349902499Y-189262501D02*
X349902499Y-201262502D01*
X317852499Y-202262502D02*
G75*
G02*
X316852499Y-201262502I0J1000000D01*
G01*
X62058749Y-108300001D02*
G75*
G02*
X63058749Y-107300001I1000000J0D01*
G01*
X63058749Y-107300001D02*
X75058750Y-107300001D01*
X114158749Y-120300002D02*
G75*
G02*
X113158750Y-121300001I-999999J0D01*
G01*
X82108749Y-107300001D02*
X94108750Y-107300001D01*
X367952500Y-188262502D02*
G75*
G02*
X368952499Y-189262501I0J-999999D01*
G01*
X336902499Y-183212502D02*
G75*
G02*
X335902499Y-182212502I0J1000000D01*
G01*
X354952499Y-189262501D02*
G75*
G02*
X355952499Y-188262501I1000000J0D01*
G01*
X355952499Y-202262501D02*
X367952500Y-202262501D01*
X330852499Y-189262501D02*
X330852499Y-201262502D01*
X368952499Y-189262501D02*
X368952499Y-201262502D01*
X114158749Y-108300001D02*
X114158749Y-120300002D01*
X101158749Y-121300002D02*
G75*
G02*
X100158749Y-120300002I0J1000000D01*
G01*
X330852499Y-201262502D02*
G75*
G02*
X329852500Y-202262501I-999999J0D01*
G01*
X355952499Y-188262501D02*
X367952500Y-188262501D01*
X100158749Y-108300001D02*
G75*
G02*
X101158749Y-107300001I1000000J0D01*
G01*
X95108749Y-108300001D02*
X95108749Y-120300002D01*
X302564999Y-165450001D02*
X302564999Y-177450002D01*
X335902499Y-170212501D02*
X335902499Y-182212502D01*
X317852499Y-188262501D02*
X329852500Y-188262501D01*
X82108749Y-121300001D02*
X94108750Y-121300001D01*
X336902499Y-188262501D02*
X348902500Y-188262501D01*
X317852499Y-202262501D02*
X329852500Y-202262501D01*
X316564999Y-165450001D02*
X316564999Y-177450002D01*
X76058749Y-108300001D02*
X76058749Y-120300002D01*
X349902499Y-182212502D02*
G75*
G02*
X348902500Y-183212501I-999999J0D01*
G01*
X349902499Y-170212501D02*
X349902499Y-182212502D01*
X94108750Y-107300002D02*
G75*
G02*
X95108749Y-108300001I0J-999999D01*
G01*
X336902499Y-202262502D02*
G75*
G02*
X335902499Y-201262502I0J1000000D01*
G01*
X113158750Y-107300002D02*
G75*
G02*
X114158749Y-108300001I0J-999999D01*
G01*
X101158749Y-121300001D02*
X113158750Y-121300001D01*
X316564999Y-177450002D02*
G75*
G02*
X315565000Y-178450001I-999999J0D01*
G01*
X336902499Y-169212501D02*
X348902500Y-169212501D01*
X316852499Y-189262501D02*
G75*
G02*
X317852499Y-188262501I1000000J0D01*
G01*
X101158749Y-107300001D02*
X113158750Y-107300001D01*
X82108749Y-121300002D02*
G75*
G02*
X81108749Y-120300002I0J1000000D01*
G01*
X316852499Y-189262501D02*
X316852499Y-201262502D01*
X354952499Y-189262501D02*
X354952499Y-201262502D01*
X355952499Y-202262502D02*
G75*
G02*
X354952499Y-201262502I0J1000000D01*
G01*
X76058749Y-120300002D02*
G75*
G02*
X75058750Y-121300001I-999999J0D01*
G01*
X75058750Y-107300002D02*
G75*
G02*
X76058749Y-108300001I0J-999999D01*
G01*
X349902499Y-201262502D02*
G75*
G02*
X348902500Y-202262501I-999999J0D01*
G01*
X63058749Y-121300002D02*
G75*
G02*
X62058749Y-120300002I0J1000000D01*
G01*
X62058749Y-108300001D02*
X62058749Y-120300002D01*
X315565000Y-164450002D02*
G75*
G02*
X316564999Y-165450001I0J-999999D01*
G01*
X302564999Y-165450001D02*
G75*
G02*
X303564999Y-164450001I1000000J0D01*
G01*
X336902499Y-202262501D02*
X348902500Y-202262501D01*
X335902499Y-189262501D02*
G75*
G02*
X336902499Y-188262501I1000000J0D01*
G01*
D10*
X227462500Y-210168750D02*
X227462500Y-207168750D01*
X52469990Y-175808722D02*
X57462500Y-175808750D01*
X203462500Y-207168750D02*
X126202500Y-207168750D01*
X102202500Y-207168750D02*
X102202500Y-210168750D01*
X51462500Y-121118750D02*
X51462500Y-108156250D01*
X57462500Y-207168750D02*
X102202500Y-207168750D01*
X373562500Y-175808750D02*
X373562500Y-207168750D01*
X379562500Y-104118750D02*
X379562500Y-121118750D01*
X378562500Y-122118750D02*
X373562500Y-122118750D01*
X57462500Y-158808750D02*
X52462500Y-158808750D01*
X378562500Y-175808750D02*
X373562500Y-175808750D01*
X203462500Y-207168750D02*
X203462500Y-210168750D01*
X373562500Y-122118750D02*
X373562500Y-158808750D01*
X57462500Y-175808750D02*
X57462500Y-207168750D01*
X373562500Y-158808750D02*
X378562500Y-158808750D01*
X57462500Y-122118750D02*
X52462500Y-122118750D01*
X227462500Y-207168750D02*
X304682500Y-207168750D01*
X126202500Y-210168750D02*
X126202500Y-207168750D01*
X103202500Y-211168750D02*
X125202500Y-211168750D01*
X57462500Y-103118750D02*
X378562500Y-103118750D01*
X57462500Y-122118750D02*
X57462500Y-158808750D01*
X373562500Y-207168750D02*
X328682500Y-207168750D01*
D11*
X285896249Y-184500001D02*
X285896249Y-196500002D01*
X276371249Y-165450001D02*
G75*
G02*
X277371249Y-164450001I1000000J0D01*
G01*
X290371249Y-177450002D02*
G75*
G02*
X289371250Y-178450001I-999999J0D01*
G01*
X276371249Y-165450001D02*
X276371249Y-177450002D01*
X286896249Y-197500001D02*
X298896250Y-197500001D01*
X299896249Y-184500001D02*
X299896249Y-196500002D01*
X289371250Y-164450002D02*
G75*
G02*
X290371249Y-165450001I0J-999999D01*
G01*
X290371249Y-165450001D02*
X290371249Y-177450002D01*
X270321250Y-183500002D02*
G75*
G02*
X271321249Y-184500001I0J-999999D01*
G01*
X257321249Y-184500001D02*
G75*
G02*
X258321249Y-183500001I1000000J0D01*
G01*
X286896249Y-197500002D02*
G75*
G02*
X285896249Y-196500002I0J1000000D01*
G01*
X258321249Y-183500001D02*
X270321250Y-183500001D01*
X271321249Y-196500002D02*
G75*
G02*
X270321250Y-197500001I-999999J0D01*
G01*
X257321249Y-184500001D02*
X257321249Y-196500002D01*
X258321249Y-197500001D02*
X270321250Y-197500001D01*
X271321249Y-184500001D02*
X271321249Y-196500002D01*
X277371249Y-164450001D02*
X289371250Y-164450001D01*
X299896249Y-196500002D02*
G75*
G02*
X298896250Y-197500001I-999999J0D01*
G01*
X277371249Y-178450002D02*
G75*
G02*
X276371249Y-177450002I0J1000000D01*
G01*
X277371249Y-178450001D02*
X289371250Y-178450001D01*
X298896250Y-183500002D02*
G75*
G02*
X299896249Y-184500001I0J-999999D01*
G01*
X258321249Y-197500002D02*
G75*
G02*
X257321249Y-196500002I0J1000000D01*
G01*
X286896249Y-183500001D02*
X298896250Y-183500001D01*
X285896249Y-184500001D02*
G75*
G02*
X286896249Y-183500001I1000000J0D01*
G01*
X66821249Y-127350001D02*
X66821249Y-139350002D01*
X355952499Y-140350001D02*
X367952500Y-140350001D01*
X67821249Y-126350001D02*
X79821250Y-126350001D01*
X355952499Y-140350002D02*
G75*
G02*
X354952499Y-139350002I0J1000000D01*
G01*
X324996249Y-140350002D02*
G75*
G02*
X323996249Y-139350002I0J1000000D01*
G01*
X355952499Y-126350001D02*
X367952500Y-126350001D01*
X354952499Y-108300001D02*
X354952499Y-120300002D01*
X336996250Y-126350002D02*
G75*
G02*
X337996249Y-127350001I0J-999999D01*
G01*
X368952499Y-120300002D02*
G75*
G02*
X367952500Y-121300001I-999999J0D01*
G01*
X367952500Y-145400002D02*
G75*
G02*
X368952499Y-146400001I0J-999999D01*
G01*
X368952499Y-108300001D02*
X368952499Y-120300002D01*
X291658749Y-121300002D02*
G75*
G02*
X290658749Y-120300002I0J1000000D01*
G01*
X354952499Y-127350001D02*
X354952499Y-139350002D01*
X303658750Y-107300002D02*
G75*
G02*
X304658749Y-108300001I0J-999999D01*
G01*
X355952499Y-145400001D02*
X367952500Y-145400001D01*
X354952499Y-146400001D02*
X354952499Y-158400002D01*
X290658749Y-108300001D02*
G75*
G02*
X291658749Y-107300001I1000000J0D01*
G01*
X80821249Y-139350002D02*
G75*
G02*
X79821250Y-140350001I-999999J0D01*
G01*
X291658749Y-107300001D02*
X303658750Y-107300001D01*
X80821249Y-127350001D02*
X80821249Y-139350002D01*
X66821249Y-127350001D02*
G75*
G02*
X67821249Y-126350001I1000000J0D01*
G01*
X368952499Y-127350001D02*
X368952499Y-139350002D01*
X290658749Y-108300001D02*
X290658749Y-120300002D01*
X354952499Y-108300001D02*
G75*
G02*
X355952499Y-107300001I1000000J0D01*
G01*
X367952500Y-126350002D02*
G75*
G02*
X368952499Y-127350001I0J-999999D01*
G01*
X67821249Y-140350001D02*
X79821250Y-140350001D01*
X354952499Y-146400001D02*
G75*
G02*
X355952499Y-145400001I1000000J0D01*
G01*
X337996249Y-139350002D02*
G75*
G02*
X336996250Y-140350001I-999999J0D01*
G01*
X355952499Y-121300002D02*
G75*
G02*
X354952499Y-120300002I0J1000000D01*
G01*
X324996249Y-126350001D02*
X336996250Y-126350002D01*
X368952499Y-158400002D02*
G75*
G02*
X367952500Y-159400001I-999999J0D01*
G01*
X368952499Y-146400001D02*
X368952499Y-158400002D01*
X367952500Y-107300002D02*
G75*
G02*
X368952499Y-108300001I0J-999999D01*
G01*
X368952499Y-139350002D02*
G75*
G02*
X367952500Y-140350001I-999999J0D01*
G01*
X324996249Y-140350001D02*
X336996250Y-140350001D01*
X67821249Y-140350002D02*
G75*
G02*
X66821249Y-139350002I0J1000000D01*
G01*
X355952499Y-159400002D02*
G75*
G02*
X354952499Y-158400002I0J1000000D01*
G01*
X304658749Y-120300002D02*
G75*
G02*
X303658750Y-121300001I-999999J0D01*
G01*
X291658749Y-121300001D02*
X303658750Y-121300001D01*
X304658749Y-108300001D02*
X304658749Y-120300002D01*
X355952499Y-121300001D02*
X367952500Y-121300001D01*
X323996249Y-127350001D02*
X323996249Y-139350002D01*
X355952499Y-159400001D02*
X367952500Y-159400001D01*
X323996249Y-127350001D02*
G75*
G02*
X324996249Y-126350001I1000000J0D01*
G01*
X354952499Y-127350001D02*
G75*
G02*
X355952499Y-126350001I1000000J0D01*
G01*
X337996249Y-127350001D02*
X337996249Y-139350002D01*
X355952499Y-107300001D02*
X367952500Y-107300001D01*
X79821250Y-126350002D02*
G75*
G02*
X80821249Y-127350001I0J-999999D01*
G01*
X242746249Y-158400002D02*
G75*
G02*
X241746250Y-159400001I-999999J0D01*
G01*
X204933749Y-127350001D02*
X204933749Y-139350002D01*
X218933749Y-127350001D02*
X218933749Y-139350002D01*
X223983749Y-127350001D02*
G75*
G02*
X224983749Y-126350001I1000000J0D01*
G01*
X223983749Y-127350001D02*
X223983749Y-139350002D01*
X223696249Y-158400002D02*
G75*
G02*
X222696250Y-159400001I-999999J0D01*
G01*
X243033749Y-127350001D02*
G75*
G02*
X244033749Y-126350001I1000000J0D01*
G01*
X300183749Y-127350001D02*
G75*
G02*
X301183749Y-126350001I1000000J0D01*
G01*
X228746249Y-146400001D02*
X228746249Y-158400002D01*
X219221249Y-165450001D02*
X219221249Y-177450002D01*
X209696249Y-146400001D02*
G75*
G02*
X210696249Y-145400001I1000000J0D01*
G01*
X236983750Y-126350002D02*
G75*
G02*
X237983749Y-127350001I0J-999999D01*
G01*
X204933749Y-127350001D02*
G75*
G02*
X205933749Y-126350001I1000000J0D01*
G01*
X247796249Y-146400001D02*
G75*
G02*
X248796249Y-145400001I1000000J0D01*
G01*
X242746249Y-146400001D02*
X242746249Y-158400002D01*
X233221249Y-165450001D02*
X233221249Y-177450002D01*
X252271249Y-177450002D02*
G75*
G02*
X251271250Y-178450001I-999999J0D01*
G01*
X210696249Y-145400001D02*
X222696250Y-145400001D01*
X228746249Y-146400001D02*
G75*
G02*
X229746249Y-145400001I1000000J0D01*
G01*
X257033749Y-127350001D02*
X257033749Y-139350002D01*
X244033749Y-140350001D02*
X256033750Y-140350001D01*
X229746249Y-159400001D02*
X241746250Y-159400001D01*
X229746249Y-145400001D02*
X241746250Y-145400001D01*
X224983749Y-126350001D02*
X236983750Y-126350001D01*
X238271249Y-165450001D02*
X238271249Y-177450002D01*
X205933749Y-140350001D02*
X217933750Y-140350001D01*
X210696249Y-159400002D02*
G75*
G02*
X209696249Y-158400002I0J1000000D01*
G01*
X257033749Y-139350002D02*
G75*
G02*
X256033750Y-140350001I-999999J0D01*
G01*
X261796249Y-158400002D02*
G75*
G02*
X260796250Y-159400001I-999999J0D01*
G01*
X209696249Y-146400001D02*
X209696249Y-158400002D01*
X256033750Y-126350002D02*
G75*
G02*
X257033749Y-127350001I0J-999999D01*
G01*
X205933749Y-126350001D02*
X217933750Y-126350001D01*
X205933749Y-140350002D02*
G75*
G02*
X204933749Y-139350002I0J1000000D01*
G01*
X313183750Y-126350002D02*
G75*
G02*
X314183749Y-127350001I0J-999999D01*
G01*
X260796250Y-145400002D02*
G75*
G02*
X261796249Y-146400001I0J-999999D01*
G01*
X244033749Y-126350001D02*
X256033750Y-126350001D01*
X241746250Y-145400002D02*
G75*
G02*
X242746249Y-146400001I0J-999999D01*
G01*
X224983749Y-140350002D02*
G75*
G02*
X223983749Y-139350002I0J1000000D01*
G01*
X237983749Y-127350001D02*
X237983749Y-139350002D01*
X271321249Y-177450002D02*
G75*
G02*
X270321250Y-178450001I-999999J0D01*
G01*
X220221249Y-164450001D02*
X232221250Y-164450001D01*
X232221250Y-164450002D02*
G75*
G02*
X233221249Y-165450001I0J-999999D01*
G01*
X224983749Y-140350001D02*
X236983750Y-140350001D01*
X239271249Y-164450001D02*
X251271250Y-164450001D01*
X217933750Y-126350002D02*
G75*
G02*
X218933749Y-127350001I0J-999999D01*
G01*
X248796249Y-159400002D02*
G75*
G02*
X247796249Y-158400002I0J1000000D01*
G01*
X248796249Y-145400001D02*
X260796250Y-145400001D01*
X248796249Y-159400001D02*
X260796250Y-159400001D01*
X218933749Y-139350002D02*
G75*
G02*
X217933750Y-140350001I-999999J0D01*
G01*
X238271249Y-165450001D02*
G75*
G02*
X239271249Y-164450001I1000000J0D01*
G01*
X220221249Y-178450001D02*
X232221250Y-178450001D01*
X261796249Y-146400001D02*
X261796249Y-158400002D01*
X229746249Y-159400002D02*
G75*
G02*
X228746249Y-158400002I0J1000000D01*
G01*
X247796249Y-146400001D02*
X247796249Y-158400002D01*
X301183749Y-140350002D02*
G75*
G02*
X300183749Y-139350002I0J1000000D01*
G01*
X210696249Y-159400001D02*
X222696250Y-159400001D01*
X244033749Y-140350002D02*
G75*
G02*
X243033749Y-139350002I0J1000000D01*
G01*
X243033749Y-127350001D02*
X243033749Y-139350002D01*
X237983749Y-139350002D02*
G75*
G02*
X236983750Y-140350001I-999999J0D01*
G01*
X222696250Y-145400002D02*
G75*
G02*
X223696249Y-146400001I0J-999999D01*
G01*
X223696249Y-146400001D02*
X223696249Y-158400002D01*
X294133750Y-126350002D02*
G75*
G02*
X295133749Y-127350001I0J-999999D01*
G01*
X314183749Y-139350002D02*
G75*
G02*
X313183750Y-140350001I-999999J0D01*
G01*
X301183749Y-126350001D02*
X313183750Y-126350001D01*
X262083749Y-127350001D02*
X262083749Y-139350002D01*
X301183749Y-140350001D02*
X313183750Y-140350001D01*
X300183749Y-127350001D02*
X300183749Y-139350002D01*
X295133749Y-127350001D02*
X295133749Y-139350002D01*
X276083749Y-127350001D02*
X276083749Y-139350002D01*
X281133749Y-127350001D02*
G75*
G02*
X282133749Y-126350001I1000000J0D01*
G01*
X282133749Y-140350001D02*
X294133750Y-140350001D01*
X263083749Y-126350001D02*
X275083750Y-126350001D01*
X262083749Y-127350001D02*
G75*
G02*
X263083749Y-126350001I1000000J0D01*
G01*
X314183749Y-127350001D02*
X314183749Y-139350002D01*
X263083749Y-140350002D02*
G75*
G02*
X262083749Y-139350002I0J1000000D01*
G01*
X275083750Y-126350002D02*
G75*
G02*
X276083749Y-127350001I0J-999999D01*
G01*
X282133749Y-140350002D02*
G75*
G02*
X281133749Y-139350002I0J1000000D01*
G01*
X276083749Y-139350002D02*
G75*
G02*
X275083750Y-140350001I-999999J0D01*
G01*
X282133749Y-126350001D02*
X294133750Y-126350001D01*
X78439999Y-196500002D02*
G75*
G02*
X77440000Y-197500001I-999999J0D01*
G01*
X83202499Y-158400002D02*
G75*
G02*
X82202500Y-159400001I-999999J0D01*
G01*
X69202499Y-146400001D02*
X69202499Y-158400002D01*
X65439999Y-183500001D02*
X77440000Y-183500001D01*
X263083749Y-140350001D02*
X275083750Y-140350001D01*
X295133749Y-139350002D02*
G75*
G02*
X294133750Y-140350001I-999999J0D01*
G01*
X281133749Y-127350001D02*
X281133749Y-139350002D01*
X299896249Y-158400002D02*
G75*
G02*
X298896250Y-159400001I-999999J0D01*
G01*
X88252499Y-184500001D02*
X88252499Y-196500002D01*
X89252499Y-197500001D02*
X101252500Y-197500001D01*
X113064999Y-197500001D02*
X125065000Y-197500001D01*
X298896250Y-145400002D02*
G75*
G02*
X299896249Y-146400001I0J-999999D01*
G01*
X89252499Y-183500001D02*
X101252500Y-183500001D01*
X70202499Y-145400001D02*
X82202500Y-145400001D01*
X89252499Y-197500002D02*
G75*
G02*
X88252499Y-196500002I0J1000000D01*
G01*
X113064999Y-197500002D02*
G75*
G02*
X112064999Y-196500002I0J1000000D01*
G01*
X286896249Y-159400001D02*
X298896250Y-159400001D01*
X266846249Y-146400001D02*
G75*
G02*
X267846249Y-145400001I1000000J0D01*
G01*
X286896249Y-159400002D02*
G75*
G02*
X285896249Y-158400002I0J1000000D01*
G01*
X267846249Y-159400002D02*
G75*
G02*
X266846249Y-158400002I0J1000000D01*
G01*
X77440000Y-183500002D02*
G75*
G02*
X78439999Y-184500001I0J-999999D01*
G01*
X65439999Y-197500002D02*
G75*
G02*
X64439999Y-196500002I0J1000000D01*
G01*
X286896249Y-145400001D02*
X298896250Y-145400001D01*
X112064999Y-184500001D02*
X112064999Y-196500002D01*
X126064999Y-184500001D02*
X126064999Y-196500002D01*
X113064999Y-183500001D02*
X125065000Y-183500001D01*
X280846249Y-158400002D02*
G75*
G02*
X279846250Y-159400001I-999999J0D01*
G01*
X299896249Y-146400001D02*
X299896249Y-158400002D01*
X279846250Y-145400002D02*
G75*
G02*
X280846249Y-146400001I0J-999999D01*
G01*
X65439999Y-197500001D02*
X77440000Y-197500001D01*
X70202499Y-159400002D02*
G75*
G02*
X69202499Y-158400002I0J1000000D01*
G01*
X280846249Y-146400001D02*
X280846249Y-158400002D01*
X101252500Y-183500002D02*
G75*
G02*
X102252499Y-184500001I0J-999999D01*
G01*
X64439999Y-184500001D02*
G75*
G02*
X65439999Y-183500001I1000000J0D01*
G01*
X102252499Y-184500001D02*
X102252499Y-196500002D01*
X126064999Y-196500002D02*
G75*
G02*
X125065000Y-197500001I-999999J0D01*
G01*
X112064999Y-184500001D02*
G75*
G02*
X113064999Y-183500001I1000000J0D01*
G01*
X70202499Y-159400001D02*
X82202500Y-159400001D01*
X266846249Y-146400001D02*
X266846249Y-158400002D01*
X267846249Y-145400001D02*
X279846250Y-145400001D01*
X285896249Y-146400001D02*
G75*
G02*
X286896249Y-145400001I1000000J0D01*
G01*
X285896249Y-146400001D02*
X285896249Y-158400002D01*
X64439999Y-184500001D02*
X64439999Y-196500002D01*
X88252499Y-184500001D02*
G75*
G02*
X89252499Y-183500001I1000000J0D01*
G01*
X69202499Y-146400001D02*
G75*
G02*
X70202499Y-145400001I1000000J0D01*
G01*
X82202500Y-145400002D02*
G75*
G02*
X83202499Y-146400001I0J-999999D01*
G01*
X102252499Y-196500002D02*
G75*
G02*
X101252500Y-197500001I-999999J0D01*
G01*
X78439999Y-184500001D02*
X78439999Y-196500002D01*
X267846249Y-159400001D02*
X279846250Y-159400001D01*
X83202499Y-146400001D02*
X83202499Y-158400002D01*
X125065000Y-183500002D02*
G75*
G02*
X126064999Y-184500001I0J-999999D01*
G01*
X137971249Y-165450001D02*
X137971249Y-177450002D01*
X136971250Y-164450002D02*
G75*
G02*
X137971249Y-165450001I0J-999999D01*
G01*
X185596249Y-146400001D02*
X185596249Y-158400002D01*
X153546249Y-159400001D02*
X165546250Y-159400001D01*
X143021249Y-165450001D02*
G75*
G02*
X144021249Y-164450001I1000000J0D01*
G01*
X171596249Y-146400001D02*
G75*
G02*
X172596249Y-145400001I1000000J0D01*
G01*
X124971249Y-178450002D02*
G75*
G02*
X123971249Y-177450002I0J1000000D01*
G01*
X204646249Y-158400002D02*
G75*
G02*
X203646250Y-159400001I-999999J0D01*
G01*
X105921249Y-178450002D02*
G75*
G02*
X104921249Y-177450002I0J1000000D01*
G01*
X166546249Y-158400002D02*
G75*
G02*
X165546250Y-159400001I-999999J0D01*
G01*
X172596249Y-145400001D02*
X184596250Y-145400001D01*
X153546249Y-145400001D02*
X165546250Y-145400001D01*
X153546249Y-159400002D02*
G75*
G02*
X152546249Y-158400002I0J1000000D01*
G01*
X185596249Y-158400002D02*
G75*
G02*
X184596250Y-159400001I-999999J0D01*
G01*
X191646249Y-159400001D02*
X203646250Y-159400001D01*
X190646249Y-146400001D02*
X190646249Y-158400002D01*
X156021250Y-164450002D02*
G75*
G02*
X157021249Y-165450001I0J-999999D01*
G01*
X143021249Y-165450001D02*
X143021249Y-177450002D01*
X184596250Y-145400002D02*
G75*
G02*
X185596249Y-146400001I0J-999999D01*
G01*
X104921249Y-165450001D02*
G75*
G02*
X105921249Y-164450001I1000000J0D01*
G01*
X144021249Y-178450002D02*
G75*
G02*
X143021249Y-177450002I0J1000000D01*
G01*
X165546250Y-145400002D02*
G75*
G02*
X166546249Y-146400001I0J-999999D01*
G01*
X152546249Y-146400001D02*
X152546249Y-158400002D01*
X166546249Y-146400001D02*
X166546249Y-158400002D01*
X157021249Y-165450001D02*
X157021249Y-177450002D01*
X118921249Y-177450002D02*
G75*
G02*
X117921250Y-178450001I-999999J0D01*
G01*
X171596249Y-146400001D02*
X171596249Y-158400002D01*
X144021249Y-164450001D02*
X156021250Y-164450001D01*
X124971249Y-178450001D02*
X136971250Y-178450001D01*
X144021249Y-178450001D02*
X156021250Y-178450001D01*
X199883749Y-127350001D02*
X199883749Y-139350002D01*
X204646249Y-146400001D02*
X204646249Y-158400002D01*
X147496249Y-158400002D02*
G75*
G02*
X146496250Y-159400001I-999999J0D01*
G01*
X115446249Y-145400001D02*
X127446250Y-145400001D01*
X147783749Y-127350001D02*
G75*
G02*
X148783749Y-126350001I1000000J0D01*
G01*
X110683749Y-126350001D02*
X122683750Y-126350001D01*
X90633749Y-127350001D02*
X90633749Y-139350002D01*
X104633749Y-127350001D02*
X104633749Y-139350002D01*
X133496249Y-146400001D02*
X133496249Y-158400002D01*
X167833749Y-126350001D02*
X179833750Y-126350001D01*
X147783749Y-127350001D02*
X147783749Y-139350002D01*
X190646249Y-146400001D02*
G75*
G02*
X191646249Y-145400001I1000000J0D01*
G01*
X91633749Y-126350001D02*
X103633750Y-126350001D01*
X180833749Y-127350001D02*
X180833749Y-139350002D01*
X128446249Y-158400002D02*
G75*
G02*
X127446250Y-159400001I-999999J0D01*
G01*
X127446250Y-145400002D02*
G75*
G02*
X128446249Y-146400001I0J-999999D01*
G01*
X133496249Y-146400001D02*
G75*
G02*
X134496249Y-145400001I1000000J0D01*
G01*
X128446249Y-146400001D02*
X128446249Y-158400002D01*
X161783749Y-127350001D02*
X161783749Y-139350002D01*
X191646249Y-159400002D02*
G75*
G02*
X190646249Y-158400002I0J1000000D01*
G01*
X109683749Y-127350001D02*
G75*
G02*
X110683749Y-126350001I1000000J0D01*
G01*
X91633749Y-140350001D02*
X103633750Y-140350001D01*
X123683749Y-139350002D02*
G75*
G02*
X122683750Y-140350001I-999999J0D01*
G01*
X109683749Y-127350001D02*
X109683749Y-139350002D01*
X161783749Y-139350002D02*
G75*
G02*
X160783750Y-140350001I-999999J0D01*
G01*
X185883749Y-127350001D02*
X185883749Y-139350002D01*
X115446249Y-159400001D02*
X127446250Y-159400001D01*
X96396249Y-159400001D02*
X108396250Y-159400001D01*
X203646250Y-145400002D02*
G75*
G02*
X204646249Y-146400001I0J-999999D01*
G01*
X172596249Y-159400001D02*
X184596250Y-159400001D01*
X172596249Y-159400002D02*
G75*
G02*
X171596249Y-158400002I0J1000000D01*
G01*
X148783749Y-140350001D02*
X160783750Y-140350001D01*
X146496250Y-145400002D02*
G75*
G02*
X147496249Y-146400001I0J-999999D01*
G01*
X134496249Y-159400002D02*
G75*
G02*
X133496249Y-158400002I0J1000000D01*
G01*
X134496249Y-145400001D02*
X146496250Y-145400001D01*
X186883749Y-140350001D02*
X198883750Y-140350001D01*
X109396249Y-146400001D02*
X109396249Y-158400002D01*
X147496249Y-146400001D02*
X147496249Y-158400002D01*
X198883750Y-126350002D02*
G75*
G02*
X199883749Y-127350001I0J-999999D01*
G01*
X148783749Y-126350001D02*
X160783750Y-126350001D01*
X185883749Y-127350001D02*
G75*
G02*
X186883749Y-126350001I1000000J0D01*
G01*
X167833749Y-140350002D02*
G75*
G02*
X166833749Y-139350002I0J1000000D01*
G01*
X166833749Y-127350001D02*
G75*
G02*
X167833749Y-126350001I1000000J0D01*
G01*
X152546249Y-146400001D02*
G75*
G02*
X153546249Y-145400001I1000000J0D01*
G01*
X180833749Y-139350002D02*
G75*
G02*
X179833750Y-140350001I-999999J0D01*
G01*
X166833749Y-127350001D02*
X166833749Y-139350002D01*
X95396249Y-146400001D02*
X95396249Y-158400002D01*
X95396249Y-146400001D02*
G75*
G02*
X96396249Y-145400001I1000000J0D01*
G01*
X115446249Y-159400002D02*
G75*
G02*
X114446249Y-158400002I0J1000000D01*
G01*
X96396249Y-159400002D02*
G75*
G02*
X95396249Y-158400002I0J1000000D01*
G01*
X109396249Y-158400002D02*
G75*
G02*
X108396250Y-159400001I-999999J0D01*
G01*
X114446249Y-146400001D02*
X114446249Y-158400002D01*
X186883749Y-126350001D02*
X198883750Y-126350001D01*
X148783749Y-140350002D02*
G75*
G02*
X147783749Y-139350002I0J1000000D01*
G01*
X160783750Y-126350002D02*
G75*
G02*
X161783749Y-127350001I0J-999999D01*
G01*
X108396250Y-145400002D02*
G75*
G02*
X109396249Y-146400001I0J-999999D01*
G01*
X96396249Y-145400001D02*
X108396250Y-145400001D01*
X186883749Y-140350002D02*
G75*
G02*
X185883749Y-139350002I0J1000000D01*
G01*
X199883749Y-139350002D02*
G75*
G02*
X198883750Y-140350001I-999999J0D01*
G01*
X179833750Y-126350002D02*
G75*
G02*
X180833749Y-127350001I0J-999999D01*
G01*
X167833749Y-140350001D02*
X179833750Y-140350001D01*
X134496249Y-159400001D02*
X146496250Y-159400001D01*
X114446249Y-146400001D02*
G75*
G02*
X115446249Y-145400001I1000000J0D01*
G01*
X191646249Y-145400001D02*
X203646250Y-145400001D01*
X220221249Y-178450002D02*
G75*
G02*
X219221249Y-177450002I0J1000000D01*
G01*
X258321249Y-164450001D02*
X270321250Y-164450001D01*
X219221249Y-165450001D02*
G75*
G02*
X220221249Y-164450001I1000000J0D01*
G01*
X270321250Y-164450002D02*
G75*
G02*
X271321249Y-165450001I0J-999999D01*
G01*
X257321249Y-165450001D02*
X257321249Y-177450002D01*
X258321249Y-178450001D02*
X270321250Y-178450001D01*
X252271249Y-165450001D02*
X252271249Y-177450002D01*
X239271249Y-178450002D02*
G75*
G02*
X238271249Y-177450002I0J1000000D01*
G01*
X257321249Y-165450001D02*
G75*
G02*
X258321249Y-164450001I1000000J0D01*
G01*
X271321249Y-165450001D02*
X271321249Y-177450002D01*
X163071249Y-178450001D02*
X175071250Y-178450001D01*
X181121249Y-165450001D02*
G75*
G02*
X182121249Y-164450001I1000000J0D01*
G01*
X175071250Y-164450002D02*
G75*
G02*
X176071249Y-165450001I0J-999999D01*
G01*
X182121249Y-164450001D02*
X194121250Y-164450001D01*
X162071249Y-165450001D02*
X162071249Y-177450002D01*
X181121249Y-165450001D02*
X181121249Y-177450002D01*
X251271250Y-164450002D02*
G75*
G02*
X252271249Y-165450001I0J-999999D01*
G01*
X233221249Y-177450002D02*
G75*
G02*
X232221250Y-178450001I-999999J0D01*
G01*
X239271249Y-178450001D02*
X251271250Y-178450001D01*
X163071249Y-164450001D02*
X175071250Y-164450001D01*
X176071249Y-165450001D02*
X176071249Y-177450002D01*
X195121249Y-177450002D02*
G75*
G02*
X194121250Y-178450001I-999999J0D01*
G01*
X258321249Y-178450002D02*
G75*
G02*
X257321249Y-177450002I0J1000000D01*
G01*
X194121250Y-164450002D02*
G75*
G02*
X195121249Y-165450001I0J-999999D01*
G01*
X137971249Y-177450002D02*
G75*
G02*
X136971250Y-178450001I-999999J0D01*
G01*
X123971249Y-165450001D02*
X123971249Y-177450002D01*
X182121249Y-178450002D02*
G75*
G02*
X181121249Y-177450002I0J1000000D01*
G01*
X213171250Y-164450002D02*
G75*
G02*
X214171249Y-165450001I0J-999999D01*
G01*
X182121249Y-178450001D02*
X194121250Y-178450001D01*
X163071249Y-178450002D02*
G75*
G02*
X162071249Y-177450002I0J1000000D01*
G01*
X201171249Y-164450001D02*
X213171250Y-164450001D01*
X200171249Y-165450001D02*
G75*
G02*
X201171249Y-164450001I1000000J0D01*
G01*
X214171249Y-165450001D02*
X214171249Y-177450002D01*
X201171249Y-178450002D02*
G75*
G02*
X200171249Y-177450002I0J1000000D01*
G01*
X176071249Y-177450002D02*
G75*
G02*
X175071250Y-178450001I-999999J0D01*
G01*
X214171249Y-177450002D02*
G75*
G02*
X213171250Y-178450001I-999999J0D01*
G01*
X162071249Y-165450001D02*
G75*
G02*
X163071249Y-164450001I1000000J0D01*
G01*
X201171249Y-178450001D02*
X213171250Y-178450001D01*
X200171249Y-165450001D02*
X200171249Y-177450002D01*
X195121249Y-165450001D02*
X195121249Y-177450002D01*
X105921249Y-178450001D02*
X117921250Y-178450001D01*
X119208749Y-108300001D02*
X119208749Y-120300002D01*
X171308749Y-108300001D02*
X171308749Y-120300002D01*
X139258749Y-121300002D02*
G75*
G02*
X138258749Y-120300002I0J1000000D01*
G01*
X133208749Y-108300001D02*
X133208749Y-120300002D01*
X157308749Y-108300001D02*
X157308749Y-120300002D01*
X139258749Y-121300001D02*
X151258750Y-121300001D01*
X152258749Y-120300002D02*
G75*
G02*
X151258750Y-121300001I-999999J0D01*
G01*
X158308749Y-107300001D02*
X170308750Y-107300001D01*
X81108749Y-108300001D02*
G75*
G02*
X82108749Y-107300001I1000000J0D01*
G01*
X63058749Y-121300001D02*
X75058750Y-121300001D01*
X157308749Y-108300001D02*
G75*
G02*
X158308749Y-107300001I1000000J0D01*
G01*
X132208750Y-107300002D02*
G75*
G02*
X133208749Y-108300001I0J-999999D01*
G01*
X158308749Y-121300001D02*
X170308750Y-121300001D01*
X138258749Y-108300001D02*
G75*
G02*
X139258749Y-107300001I1000000J0D01*
G01*
X152258749Y-108300001D02*
X152258749Y-120300002D01*
X171308749Y-120300002D02*
G75*
G02*
X170308750Y-121300001I-999999J0D01*
G01*
X120208749Y-107300001D02*
X132208750Y-107300001D01*
X120208749Y-121300001D02*
X132208750Y-121300001D01*
X139258749Y-107300001D02*
X151258750Y-107300001D01*
X120208749Y-121300002D02*
G75*
G02*
X119208749Y-120300002I0J1000000D01*
G01*
X138258749Y-108300001D02*
X138258749Y-120300002D01*
X95108749Y-120300002D02*
G75*
G02*
X94108750Y-121300001I-999999J0D01*
G01*
X81108749Y-108300001D02*
X81108749Y-120300002D01*
X170308750Y-107300002D02*
G75*
G02*
X171308749Y-108300001I0J-999999D01*
G01*
X158308749Y-121300002D02*
G75*
G02*
X157308749Y-120300002I0J1000000D01*
G01*
X119208749Y-108300001D02*
G75*
G02*
X120208749Y-107300001I1000000J0D01*
G01*
X133208749Y-120300002D02*
G75*
G02*
X132208750Y-121300001I-999999J0D01*
G01*
X151258750Y-107300002D02*
G75*
G02*
X152258749Y-108300001I0J-999999D01*
G01*
X246508750Y-107300002D02*
G75*
G02*
X247508749Y-108300001I0J-999999D01*
G01*
X91633749Y-140350002D02*
G75*
G02*
X90633749Y-139350002I0J1000000D01*
G01*
X233508749Y-108300001D02*
X233508749Y-120300002D01*
X110683749Y-140350001D02*
X122683750Y-140350001D01*
X252558749Y-108300001D02*
G75*
G02*
X253558749Y-107300001I1000000J0D01*
G01*
X129733749Y-140350001D02*
X141733750Y-140350001D01*
X209408749Y-120300002D02*
G75*
G02*
X208408750Y-121300001I-999999J0D01*
G01*
X266558749Y-120300002D02*
G75*
G02*
X265558750Y-121300001I-999999J0D01*
G01*
X195408749Y-108300001D02*
G75*
G02*
X196408749Y-107300001I1000000J0D01*
G01*
X227458750Y-107300002D02*
G75*
G02*
X228458749Y-108300001I0J-999999D01*
G01*
X215458749Y-121300002D02*
G75*
G02*
X214458749Y-120300002I0J1000000D01*
G01*
X272608749Y-121300001D02*
X284608750Y-121300001D01*
X272608749Y-121300002D02*
G75*
G02*
X271608749Y-120300002I0J1000000D01*
G01*
X214458749Y-108300001D02*
G75*
G02*
X215458749Y-107300001I1000000J0D01*
G01*
X214458749Y-108300001D02*
X214458749Y-120300002D01*
X122683750Y-126350002D02*
G75*
G02*
X123683749Y-127350001I0J-999999D01*
G01*
X196408749Y-107300001D02*
X208408750Y-107300001D01*
X110683749Y-140350002D02*
G75*
G02*
X109683749Y-139350002I0J1000000D01*
G01*
X176358749Y-108300001D02*
X176358749Y-120300002D01*
X272608749Y-107300001D02*
X284608750Y-107300001D01*
X285608749Y-108300001D02*
X285608749Y-120300002D01*
X176358749Y-108300001D02*
G75*
G02*
X177358749Y-107300001I1000000J0D01*
G01*
X142733749Y-139350002D02*
G75*
G02*
X141733750Y-140350001I-999999J0D01*
G01*
X209408749Y-108300001D02*
X209408749Y-120300002D01*
X266558749Y-108300001D02*
X266558749Y-120300002D01*
X215458749Y-121300001D02*
X227458750Y-121300001D01*
X247508749Y-108300001D02*
X247508749Y-120300002D01*
X190358749Y-120300002D02*
G75*
G02*
X189358750Y-121300001I-999999J0D01*
G01*
X247508749Y-120300002D02*
G75*
G02*
X246508750Y-121300001I-999999J0D01*
G01*
X228458749Y-120300002D02*
G75*
G02*
X227458750Y-121300001I-999999J0D01*
G01*
X177358749Y-121300001D02*
X189358750Y-121300001D01*
X142733749Y-127350001D02*
X142733749Y-139350002D01*
X253558749Y-107300001D02*
X265558750Y-107300001D01*
X233508749Y-108300001D02*
G75*
G02*
X234508749Y-107300001I1000000J0D01*
G01*
X234508749Y-121300001D02*
X246508750Y-121300001D01*
X284608750Y-107300002D02*
G75*
G02*
X285608749Y-108300001I0J-999999D01*
G01*
X253558749Y-121300001D02*
X265558750Y-121300001D01*
X128733749Y-127350001D02*
G75*
G02*
X129733749Y-126350001I1000000J0D01*
G01*
X123683749Y-127350001D02*
X123683749Y-139350002D01*
X104633749Y-139350002D02*
G75*
G02*
X103633750Y-140350001I-999999J0D01*
G01*
X271608749Y-108300001D02*
X271608749Y-120300002D01*
X215458749Y-107300001D02*
X227458750Y-107300001D01*
X196408749Y-121300001D02*
X208408750Y-121300001D01*
X271608749Y-108300001D02*
G75*
G02*
X272608749Y-107300001I1000000J0D01*
G01*
X90633749Y-127350001D02*
G75*
G02*
X91633749Y-126350001I1000000J0D01*
G01*
X141733750Y-126350002D02*
G75*
G02*
X142733749Y-127350001I0J-999999D01*
G01*
X265558750Y-107300002D02*
G75*
G02*
X266558749Y-108300001I0J-999999D01*
G01*
X228458749Y-108300001D02*
X228458749Y-120300002D01*
X196408749Y-121300002D02*
G75*
G02*
X195408749Y-120300002I0J1000000D01*
G01*
X177358749Y-121300002D02*
G75*
G02*
X176358749Y-120300002I0J1000000D01*
G01*
X234508749Y-121300002D02*
G75*
G02*
X233508749Y-120300002I0J1000000D01*
G01*
X103633750Y-126350002D02*
G75*
G02*
X104633749Y-127350001I0J-999999D01*
G01*
X208408750Y-107300002D02*
G75*
G02*
X209408749Y-108300001I0J-999999D01*
G01*
X189358750Y-107300002D02*
G75*
G02*
X190358749Y-108300001I0J-999999D01*
G01*
X190358749Y-108300001D02*
X190358749Y-120300002D01*
X252558749Y-108300001D02*
X252558749Y-120300002D01*
X128733749Y-127350001D02*
X128733749Y-139350002D01*
X195408749Y-108300001D02*
X195408749Y-120300002D01*
X253558749Y-121300002D02*
G75*
G02*
X252558749Y-120300002I0J1000000D01*
G01*
X234508749Y-107300001D02*
X246508750Y-107300001D01*
X129733749Y-126350001D02*
X141733750Y-126350001D01*
X129733749Y-140350002D02*
G75*
G02*
X128733749Y-139350002I0J1000000D01*
G01*
X177358749Y-107300001D02*
X189358750Y-107300001D01*
X285608749Y-120300002D02*
G75*
G02*
X284608750Y-121300001I-999999J0D01*
G01*
X124971249Y-164450001D02*
X136971250Y-164450001D01*
X123971249Y-165450001D02*
G75*
G02*
X124971249Y-164450001I1000000J0D01*
G01*
X104921249Y-165450001D02*
X104921249Y-177450002D01*
X105921249Y-164450001D02*
X117921250Y-164450001D01*
X157021249Y-177450002D02*
G75*
G02*
X156021250Y-178450001I-999999J0D01*
G01*
X118921249Y-165450001D02*
X118921249Y-177450002D01*
X117921250Y-164450002D02*
G75*
G02*
X118921249Y-165450001I0J-999999D01*
G01*
M02*
