%TF.GenerationSoftware,KiCad,Pcbnew,(5.1.6)-1*%
%TF.CreationDate,2020-09-27T16:08:55-04:00*%
%TF.ProjectId,keybored_plate,6b657962-6f72-4656-945f-706c6174652e,rev?*%
%TF.SameCoordinates,Original*%
%TF.FileFunction,Soldermask,Top*%
%TF.FilePolarity,Negative*%
%FSLAX46Y46*%
G04 Gerber Fmt 4.6, Leading zero omitted, Abs format (unit mm)*
G04 Created by KiCad (PCBNEW (5.1.6)-1) date 2020-09-27 16:08:55*
%MOMM*%
%LPD*%
G01*
G04 APERTURE LIST*
%ADD10C,0.100000*%
%ADD11C,0.150000*%
%ADD12C,0.200000*%
%ADD13C,4.500000*%
G04 APERTURE END LIST*
D10*
G36*
X225500000Y-187000000D02*
G01*
X226000000Y-187000000D01*
X226000000Y-185000000D01*
X227000000Y-185000000D01*
X227000000Y-188000000D01*
X223000000Y-188000000D01*
X223000000Y-185000000D01*
X225500000Y-185000000D01*
X225500000Y-187000000D01*
G37*
X225500000Y-187000000D02*
X226000000Y-187000000D01*
X226000000Y-185000000D01*
X227000000Y-185000000D01*
X227000000Y-188000000D01*
X223000000Y-188000000D01*
X223000000Y-185000000D01*
X225500000Y-185000000D01*
X225500000Y-187000000D01*
D11*
X228000000Y-190000000D02*
X228000000Y-194000000D01*
X221500000Y-190000000D02*
X228000000Y-190000000D01*
X221500000Y-194000000D02*
X221500000Y-190000000D01*
X220000000Y-194000000D02*
X220000000Y-185000000D01*
X229000000Y-194000000D02*
X220000000Y-194000000D01*
D12*
X228000000Y-185000000D02*
X229000000Y-186000000D01*
X220000000Y-185000000D02*
X228000000Y-185000000D01*
X229000000Y-186000000D02*
X229000000Y-194000000D01*
X176500000Y-194000000D02*
X175500000Y-195000000D01*
X150000000Y-195000000D02*
X150000000Y-186000000D01*
X175500000Y-195000000D02*
X150000000Y-195000000D01*
X176500000Y-185000000D02*
X176500000Y-194000000D01*
X151000000Y-185000000D02*
X176500000Y-185000000D01*
X151000000Y-185000000D02*
X150000000Y-186000000D01*
X151119523Y-192404761D02*
X151119523Y-190404761D01*
X151881428Y-190404761D01*
X152071904Y-190500000D01*
X152167142Y-190595238D01*
X152262380Y-190785714D01*
X152262380Y-191071428D01*
X152167142Y-191261904D01*
X152071904Y-191357142D01*
X151881428Y-191452380D01*
X151119523Y-191452380D01*
X153119523Y-192404761D02*
X153119523Y-191071428D01*
X153119523Y-191452380D02*
X153214761Y-191261904D01*
X153310000Y-191166666D01*
X153500476Y-191071428D01*
X153690952Y-191071428D01*
X154643333Y-192404761D02*
X154452857Y-192309523D01*
X154357619Y-192214285D01*
X154262380Y-192023809D01*
X154262380Y-191452380D01*
X154357619Y-191261904D01*
X154452857Y-191166666D01*
X154643333Y-191071428D01*
X154929047Y-191071428D01*
X155119523Y-191166666D01*
X155214761Y-191261904D01*
X155310000Y-191452380D01*
X155310000Y-192023809D01*
X155214761Y-192214285D01*
X155119523Y-192309523D01*
X154929047Y-192404761D01*
X154643333Y-192404761D01*
X155881428Y-191071428D02*
X156643333Y-191071428D01*
X156167142Y-190404761D02*
X156167142Y-192119047D01*
X156262380Y-192309523D01*
X156452857Y-192404761D01*
X156643333Y-192404761D01*
X157595714Y-192404761D02*
X157405238Y-192309523D01*
X157310000Y-192214285D01*
X157214761Y-192023809D01*
X157214761Y-191452380D01*
X157310000Y-191261904D01*
X157405238Y-191166666D01*
X157595714Y-191071428D01*
X157881428Y-191071428D01*
X158071904Y-191166666D01*
X158167142Y-191261904D01*
X158262380Y-191452380D01*
X158262380Y-192023809D01*
X158167142Y-192214285D01*
X158071904Y-192309523D01*
X157881428Y-192404761D01*
X157595714Y-192404761D01*
X158833809Y-191071428D02*
X159595714Y-191071428D01*
X159119523Y-190404761D02*
X159119523Y-192119047D01*
X159214761Y-192309523D01*
X159405238Y-192404761D01*
X159595714Y-192404761D01*
X160071904Y-191071428D02*
X160548095Y-192404761D01*
X161024285Y-191071428D02*
X160548095Y-192404761D01*
X160357619Y-192880952D01*
X160262380Y-192976190D01*
X160071904Y-193071428D01*
X161786190Y-191071428D02*
X161786190Y-193071428D01*
X161786190Y-191166666D02*
X161976666Y-191071428D01*
X162357619Y-191071428D01*
X162548095Y-191166666D01*
X162643333Y-191261904D01*
X162738571Y-191452380D01*
X162738571Y-192023809D01*
X162643333Y-192214285D01*
X162548095Y-192309523D01*
X162357619Y-192404761D01*
X161976666Y-192404761D01*
X161786190Y-192309523D01*
X164357619Y-192309523D02*
X164167142Y-192404761D01*
X163786190Y-192404761D01*
X163595714Y-192309523D01*
X163500476Y-192119047D01*
X163500476Y-191357142D01*
X163595714Y-191166666D01*
X163786190Y-191071428D01*
X164167142Y-191071428D01*
X164357619Y-191166666D01*
X164452857Y-191357142D01*
X164452857Y-191547619D01*
X163500476Y-191738095D01*
X167976666Y-192404761D02*
X167310000Y-191452380D01*
X166833809Y-192404761D02*
X166833809Y-190404761D01*
X167595714Y-190404761D01*
X167786190Y-190500000D01*
X167881428Y-190595238D01*
X167976666Y-190785714D01*
X167976666Y-191071428D01*
X167881428Y-191261904D01*
X167786190Y-191357142D01*
X167595714Y-191452380D01*
X166833809Y-191452380D01*
X169595714Y-192309523D02*
X169405238Y-192404761D01*
X169024285Y-192404761D01*
X168833809Y-192309523D01*
X168738571Y-192119047D01*
X168738571Y-191357142D01*
X168833809Y-191166666D01*
X169024285Y-191071428D01*
X169405238Y-191071428D01*
X169595714Y-191166666D01*
X169690952Y-191357142D01*
X169690952Y-191547619D01*
X168738571Y-191738095D01*
X170357619Y-191071428D02*
X170833809Y-192404761D01*
X171310000Y-191071428D01*
X172071904Y-192214285D02*
X172167142Y-192309523D01*
X172071904Y-192404761D01*
X171976666Y-192309523D01*
X172071904Y-192214285D01*
X172071904Y-192404761D01*
X175595714Y-192404761D02*
X174452857Y-192404761D01*
X175024285Y-192404761D02*
X175024285Y-190404761D01*
X174833809Y-190690476D01*
X174643333Y-190880952D01*
X174452857Y-190976190D01*
X154500476Y-188809523D02*
X154786190Y-188904761D01*
X155262380Y-188904761D01*
X155452857Y-188809523D01*
X155548095Y-188714285D01*
X155643333Y-188523809D01*
X155643333Y-188333333D01*
X155548095Y-188142857D01*
X155452857Y-188047619D01*
X155262380Y-187952380D01*
X154881428Y-187857142D01*
X154690952Y-187761904D01*
X154595714Y-187666666D01*
X154500476Y-187476190D01*
X154500476Y-187285714D01*
X154595714Y-187095238D01*
X154690952Y-187000000D01*
X154881428Y-186904761D01*
X155357619Y-186904761D01*
X155643333Y-187000000D01*
X156214761Y-187571428D02*
X156976666Y-187571428D01*
X156500476Y-186904761D02*
X156500476Y-188619047D01*
X156595714Y-188809523D01*
X156786190Y-188904761D01*
X156976666Y-188904761D01*
X158500476Y-188904761D02*
X158500476Y-187857142D01*
X158405238Y-187666666D01*
X158214761Y-187571428D01*
X157833809Y-187571428D01*
X157643333Y-187666666D01*
X158500476Y-188809523D02*
X158310000Y-188904761D01*
X157833809Y-188904761D01*
X157643333Y-188809523D01*
X157548095Y-188619047D01*
X157548095Y-188428571D01*
X157643333Y-188238095D01*
X157833809Y-188142857D01*
X158310000Y-188142857D01*
X158500476Y-188047619D01*
X160310000Y-188809523D02*
X160119523Y-188904761D01*
X159738571Y-188904761D01*
X159548095Y-188809523D01*
X159452857Y-188714285D01*
X159357619Y-188523809D01*
X159357619Y-187952380D01*
X159452857Y-187761904D01*
X159548095Y-187666666D01*
X159738571Y-187571428D01*
X160119523Y-187571428D01*
X160310000Y-187666666D01*
X162024285Y-188809523D02*
X161833809Y-188904761D01*
X161452857Y-188904761D01*
X161262380Y-188809523D01*
X161167142Y-188714285D01*
X161071904Y-188523809D01*
X161071904Y-187952380D01*
X161167142Y-187761904D01*
X161262380Y-187666666D01*
X161452857Y-187571428D01*
X161833809Y-187571428D01*
X162024285Y-187666666D01*
X163738571Y-188904761D02*
X163738571Y-187857142D01*
X163643333Y-187666666D01*
X163452857Y-187571428D01*
X163071904Y-187571428D01*
X162881428Y-187666666D01*
X163738571Y-188809523D02*
X163548095Y-188904761D01*
X163071904Y-188904761D01*
X162881428Y-188809523D01*
X162786190Y-188619047D01*
X162786190Y-188428571D01*
X162881428Y-188238095D01*
X163071904Y-188142857D01*
X163548095Y-188142857D01*
X163738571Y-188047619D01*
X164405238Y-187571428D02*
X165167142Y-187571428D01*
X164690952Y-186904761D02*
X164690952Y-188619047D01*
X164786190Y-188809523D01*
X164976666Y-188904761D01*
X165167142Y-188904761D01*
X166119523Y-188904761D02*
X165929047Y-188809523D01*
X165833809Y-188714285D01*
X165738571Y-188523809D01*
X165738571Y-187952380D01*
X165833809Y-187761904D01*
X165929047Y-187666666D01*
X166119523Y-187571428D01*
X166405238Y-187571428D01*
X166595714Y-187666666D01*
X166690952Y-187761904D01*
X166786190Y-187952380D01*
X166786190Y-188523809D01*
X166690952Y-188714285D01*
X166595714Y-188809523D01*
X166405238Y-188904761D01*
X166119523Y-188904761D01*
X170024285Y-186904761D02*
X169643333Y-186904761D01*
X169452857Y-187000000D01*
X169357619Y-187095238D01*
X169167142Y-187380952D01*
X169071904Y-187761904D01*
X169071904Y-188523809D01*
X169167142Y-188714285D01*
X169262380Y-188809523D01*
X169452857Y-188904761D01*
X169833809Y-188904761D01*
X170024285Y-188809523D01*
X170119523Y-188714285D01*
X170214761Y-188523809D01*
X170214761Y-188047619D01*
X170119523Y-187857142D01*
X170024285Y-187761904D01*
X169833809Y-187666666D01*
X169452857Y-187666666D01*
X169262380Y-187761904D01*
X169167142Y-187857142D01*
X169071904Y-188047619D01*
X172024285Y-186904761D02*
X171071904Y-186904761D01*
X170976666Y-187857142D01*
X171071904Y-187761904D01*
X171262380Y-187666666D01*
X171738571Y-187666666D01*
X171929047Y-187761904D01*
X172024285Y-187857142D01*
X172119523Y-188047619D01*
X172119523Y-188523809D01*
X172024285Y-188714285D01*
X171929047Y-188809523D01*
X171738571Y-188904761D01*
X171262380Y-188904761D01*
X171071904Y-188809523D01*
X170976666Y-188714285D01*
D13*
%TO.C,REF\u002A\u002A*%
X316697500Y-208618750D03*
%TD*%
%TO.C,REF\u002A\u002A*%
X215457500Y-208618750D03*
%TD*%
%TO.C,REF\u002A\u002A*%
X100012500Y-171450000D03*
%TD*%
%TO.C,REF\u002A\u002A*%
X86000000Y-133350000D03*
%TD*%
%TO.C,REF\u002A\u002A*%
X130968750Y-192881250D03*
%TD*%
%TO.C,REF\u002A\u002A*%
X309562500Y-193000000D03*
%TD*%
%TO.C,REF\u002A\u002A*%
X375577500Y-167278750D03*
%TD*%
%TO.C,REF\u002A\u002A*%
X304800000Y-154781250D03*
%TD*%
%TO.C,REF\u002A\u002A*%
X55347500Y-113628750D03*
%TD*%
%TO.C,REF\u002A\u002A*%
X361950000Y-173831250D03*
%TD*%
%TO.C,REF\u002A\u002A*%
X308000000Y-122000000D03*
%TD*%
%TO.C,REF\u002A\u002A*%
X210000000Y-193000000D03*
%TD*%
%TO.C,REF\u002A\u002A*%
X375577500Y-113648750D03*
%TD*%
%TO.C,REF\u002A\u002A*%
X55347500Y-167258750D03*
%TD*%
%TO.C,REF\u002A\u002A*%
X114227500Y-208618750D03*
%TD*%
M02*
