%TF.GenerationSoftware,KiCad,Pcbnew,(5.1.6)-1*%
%TF.CreationDate,2020-08-12T01:37:34-04:00*%
%TF.ProjectId,keybored,6b657962-6f72-4656-942e-6b696361645f,rev?*%
%TF.SameCoordinates,Original*%
%TF.FileFunction,Legend,Top*%
%TF.FilePolarity,Positive*%
%FSLAX46Y46*%
G04 Gerber Fmt 4.6, Leading zero omitted, Abs format (unit mm)*
G04 Created by KiCad (PCBNEW (5.1.6)-1) date 2020-08-12 01:37:34*
%MOMM*%
%LPD*%
G01*
G04 APERTURE LIST*
%ADD10C,0.200000*%
%ADD11C,0.150000*%
%ADD12C,0.120000*%
G04 APERTURE END LIST*
D10*
X75000000Y-85000000D02*
X252500000Y-85000000D01*
D11*
%TO.C,J1*%
X345281250Y-76200000D02*
X345281250Y-77470000D01*
X349756250Y-73690000D02*
X349761250Y-74450000D01*
X349756250Y-73690000D02*
X340806250Y-73690000D01*
X340801250Y-74450000D02*
X340806250Y-73690000D01*
X349756250Y-82860000D02*
X340806250Y-82860000D01*
X349906250Y-76200000D02*
X340656250Y-76200000D01*
D12*
%TO.C,C13*%
X352910000Y-80086252D02*
X352910000Y-79563748D01*
X351490000Y-80086252D02*
X351490000Y-79563748D01*
D11*
%TO.C,K4*%
X133206250Y-107300000D02*
X133206250Y-108300000D01*
X132206250Y-121300000D02*
X133206250Y-121300000D01*
X133206250Y-107300000D02*
X132206250Y-107300000D01*
X133206250Y-120300000D02*
X133206250Y-121300000D01*
X119206250Y-121300000D02*
X119206250Y-120300000D01*
X120206250Y-107300000D02*
X119206250Y-107300000D01*
X119206250Y-121300000D02*
X120206250Y-121300000D01*
X119206250Y-108300000D02*
X119206250Y-107300000D01*
%TO.C,D37*%
G36*
X182016000Y-93218000D02*
G01*
X182016000Y-93726000D01*
X179984000Y-93726000D01*
X179984000Y-93218000D01*
X182016000Y-93218000D01*
G37*
X182016000Y-93218000D02*
X182016000Y-93726000D01*
X179984000Y-93726000D01*
X179984000Y-93218000D01*
X182016000Y-93218000D01*
X181000000Y-94996000D02*
X181000000Y-94234000D01*
X181000000Y-96266000D02*
X181000000Y-95504000D01*
X181508000Y-94996000D02*
X180492000Y-94996000D01*
G36*
X181508000Y-95504000D02*
G01*
X181000000Y-94996000D01*
X180492000Y-95504000D01*
X181508000Y-95504000D01*
G37*
X181508000Y-95504000D02*
X181000000Y-94996000D01*
X180492000Y-95504000D01*
X181508000Y-95504000D01*
X182016000Y-97282000D02*
X182016000Y-93218000D01*
X179984000Y-97282000D02*
X182016000Y-97282000D01*
X179984000Y-93218000D02*
X179984000Y-97282000D01*
X182016000Y-93218000D02*
X179984000Y-93218000D01*
%TO.C,K7*%
X190356250Y-107300000D02*
X190356250Y-108300000D01*
X189356250Y-121300000D02*
X190356250Y-121300000D01*
X190356250Y-107300000D02*
X189356250Y-107300000D01*
X190356250Y-120300000D02*
X190356250Y-121300000D01*
X176356250Y-121300000D02*
X176356250Y-120300000D01*
X177356250Y-107300000D02*
X176356250Y-107300000D01*
X176356250Y-121300000D02*
X177356250Y-121300000D01*
X176356250Y-108300000D02*
X176356250Y-107300000D01*
%TO.C,K29*%
X69200000Y-146400000D02*
X69200000Y-145400000D01*
X69200000Y-159400000D02*
X70200000Y-159400000D01*
X70200000Y-145400000D02*
X69200000Y-145400000D01*
X69200000Y-159400000D02*
X69200000Y-158400000D01*
X83200000Y-158400000D02*
X83200000Y-159400000D01*
X83200000Y-145400000D02*
X82200000Y-145400000D01*
X82200000Y-159400000D02*
X83200000Y-159400000D01*
X83200000Y-145400000D02*
X83200000Y-146400000D01*
%TO.C,K3*%
X114156250Y-107300000D02*
X114156250Y-108300000D01*
X113156250Y-121300000D02*
X114156250Y-121300000D01*
X114156250Y-107300000D02*
X113156250Y-107300000D01*
X114156250Y-120300000D02*
X114156250Y-121300000D01*
X100156250Y-121300000D02*
X100156250Y-120300000D01*
X101156250Y-107300000D02*
X100156250Y-107300000D01*
X100156250Y-121300000D02*
X101156250Y-121300000D01*
X100156250Y-108300000D02*
X100156250Y-107300000D01*
%TO.C,K16*%
X104631250Y-126350000D02*
X104631250Y-127350000D01*
X103631250Y-140350000D02*
X104631250Y-140350000D01*
X104631250Y-126350000D02*
X103631250Y-126350000D01*
X104631250Y-139350000D02*
X104631250Y-140350000D01*
X90631250Y-140350000D02*
X90631250Y-139350000D01*
X91631250Y-126350000D02*
X90631250Y-126350000D01*
X90631250Y-140350000D02*
X91631250Y-140350000D01*
X90631250Y-127350000D02*
X90631250Y-126350000D01*
%TO.C,K1*%
X76056250Y-107300000D02*
X76056250Y-108300000D01*
X75056250Y-121300000D02*
X76056250Y-121300000D01*
X76056250Y-107300000D02*
X75056250Y-107300000D01*
X76056250Y-120300000D02*
X76056250Y-121300000D01*
X62056250Y-121300000D02*
X62056250Y-120300000D01*
X63056250Y-107300000D02*
X62056250Y-107300000D01*
X62056250Y-121300000D02*
X63056250Y-121300000D01*
X62056250Y-108300000D02*
X62056250Y-107300000D01*
%TO.C,D43*%
X85766000Y-94718000D02*
X83734000Y-94718000D01*
X83734000Y-94718000D02*
X83734000Y-98782000D01*
X83734000Y-98782000D02*
X85766000Y-98782000D01*
X85766000Y-98782000D02*
X85766000Y-94718000D01*
G36*
X85258000Y-97004000D02*
G01*
X84750000Y-96496000D01*
X84242000Y-97004000D01*
X85258000Y-97004000D01*
G37*
X85258000Y-97004000D02*
X84750000Y-96496000D01*
X84242000Y-97004000D01*
X85258000Y-97004000D01*
X85258000Y-96496000D02*
X84242000Y-96496000D01*
X84750000Y-97766000D02*
X84750000Y-97004000D01*
X84750000Y-96496000D02*
X84750000Y-95734000D01*
G36*
X85766000Y-94718000D02*
G01*
X85766000Y-95226000D01*
X83734000Y-95226000D01*
X83734000Y-94718000D01*
X85766000Y-94718000D01*
G37*
X85766000Y-94718000D02*
X85766000Y-95226000D01*
X83734000Y-95226000D01*
X83734000Y-94718000D01*
X85766000Y-94718000D01*
%TO.C,K2*%
X95106250Y-107300000D02*
X95106250Y-108300000D01*
X94106250Y-121300000D02*
X95106250Y-121300000D01*
X95106250Y-107300000D02*
X94106250Y-107300000D01*
X95106250Y-120300000D02*
X95106250Y-121300000D01*
X81106250Y-121300000D02*
X81106250Y-120300000D01*
X82106250Y-107300000D02*
X81106250Y-107300000D01*
X81106250Y-121300000D02*
X82106250Y-121300000D01*
X81106250Y-108300000D02*
X81106250Y-107300000D01*
%TO.C,K18*%
X128731250Y-127350000D02*
X128731250Y-126350000D01*
X128731250Y-140350000D02*
X129731250Y-140350000D01*
X129731250Y-126350000D02*
X128731250Y-126350000D01*
X128731250Y-140350000D02*
X128731250Y-139350000D01*
X142731250Y-139350000D02*
X142731250Y-140350000D01*
X142731250Y-126350000D02*
X141731250Y-126350000D01*
X141731250Y-140350000D02*
X142731250Y-140350000D01*
X142731250Y-126350000D02*
X142731250Y-127350000D01*
D12*
%TO.C,R1*%
X325490000Y-79488748D02*
X325490000Y-80011252D01*
X326910000Y-79488748D02*
X326910000Y-80011252D01*
%TO.C,R2*%
X323710000Y-79488748D02*
X323710000Y-80011252D01*
X322290000Y-79488748D02*
X322290000Y-80011252D01*
%TO.C,R3*%
X330682750Y-80036252D02*
X330682750Y-79513748D01*
X329262750Y-80036252D02*
X329262750Y-79513748D01*
%TO.C,R4*%
X333460000Y-79513748D02*
X333460000Y-80036252D01*
X332040000Y-79513748D02*
X332040000Y-80036252D01*
%TO.C,R5*%
X271713748Y-101210000D02*
X272236252Y-101210000D01*
X271713748Y-99790000D02*
X272236252Y-99790000D01*
%TO.C,R6*%
X293090000Y-81186252D02*
X293090000Y-80663748D01*
X294510000Y-81186252D02*
X294510000Y-80663748D01*
%TO.C,R7*%
X344836252Y-111960000D02*
X344313748Y-111960000D01*
X344836252Y-110540000D02*
X344313748Y-110540000D01*
%TO.C,R8*%
X344313748Y-120960000D02*
X344836252Y-120960000D01*
X344313748Y-119540000D02*
X344836252Y-119540000D01*
%TO.C,SW1*%
X304850000Y-81400000D02*
X305300000Y-81850000D01*
X308250000Y-81400000D02*
X307800000Y-81850000D01*
X308250000Y-76800000D02*
X307800000Y-76350000D01*
X304850000Y-76800000D02*
X305300000Y-76350000D01*
X309300000Y-78100000D02*
X309300000Y-80100000D01*
X305300000Y-81850000D02*
X307800000Y-81850000D01*
X303800000Y-78100000D02*
X303800000Y-80100000D01*
X305300000Y-76350000D02*
X307800000Y-76350000D01*
%TO.C,SW2*%
X361831250Y-92400000D02*
X361831250Y-93400000D01*
X362331250Y-92900000D02*
X361331250Y-92900000D01*
X358331250Y-99000000D02*
X355931250Y-99000000D01*
X363131250Y-99000000D02*
X360531250Y-99000000D01*
X367731250Y-99000000D02*
X365331250Y-99000000D01*
X365931250Y-85700000D02*
X365631250Y-85400000D01*
X365931250Y-85100000D02*
X365931250Y-85700000D01*
X365631250Y-85400000D02*
X365931250Y-85100000D01*
X367731250Y-86800000D02*
X355931250Y-86800000D01*
X367731250Y-90900000D02*
X367731250Y-86800000D01*
X355931250Y-90900000D02*
X355931250Y-86800000D01*
X355931250Y-99000000D02*
X355931250Y-94900000D01*
X367731250Y-94900000D02*
X367731250Y-99000000D01*
X364831250Y-92900000D02*
G75*
G03*
X364831250Y-92900000I-3000000J0D01*
G01*
D11*
%TO.C,U1*%
X289918555Y-91400000D02*
X289511969Y-90993414D01*
X282600000Y-98718555D02*
X282122703Y-98241258D01*
X275281445Y-91400000D02*
X275758742Y-91877297D01*
X282600000Y-84081445D02*
X283077297Y-84558742D01*
X289918555Y-91400000D02*
X289441258Y-91877297D01*
X282600000Y-84081445D02*
X282122703Y-84558742D01*
X275281445Y-91400000D02*
X275758742Y-90922703D01*
X282600000Y-98718555D02*
X283077297Y-98241258D01*
X289511969Y-90993414D02*
X290413530Y-90091852D01*
D12*
%TO.C,Y1*%
X276200000Y-84880000D02*
X276200000Y-80480000D01*
X276200000Y-80480000D02*
X270800000Y-80480000D01*
%TO.C,C1*%
X277140000Y-82103748D02*
X277140000Y-82626252D01*
X278560000Y-82103748D02*
X278560000Y-82626252D01*
%TO.C,C2*%
X270090000Y-83376252D02*
X270090000Y-82853748D01*
X268670000Y-83376252D02*
X268670000Y-82853748D01*
%TO.C,C3*%
X290960000Y-83236252D02*
X290960000Y-82713748D01*
X289540000Y-83236252D02*
X289540000Y-82713748D01*
%TO.C,C4*%
X344313748Y-113540000D02*
X344836252Y-113540000D01*
X344313748Y-114960000D02*
X344836252Y-114960000D01*
%TO.C,C5*%
X344836252Y-116540000D02*
X344313748Y-116540000D01*
X344836252Y-117960000D02*
X344313748Y-117960000D01*
D11*
%TO.C,D1*%
X77516000Y-90218000D02*
X75484000Y-90218000D01*
X75484000Y-90218000D02*
X75484000Y-94282000D01*
X75484000Y-94282000D02*
X77516000Y-94282000D01*
X77516000Y-94282000D02*
X77516000Y-90218000D01*
G36*
X77008000Y-92504000D02*
G01*
X76500000Y-91996000D01*
X75992000Y-92504000D01*
X77008000Y-92504000D01*
G37*
X77008000Y-92504000D02*
X76500000Y-91996000D01*
X75992000Y-92504000D01*
X77008000Y-92504000D01*
X77008000Y-91996000D02*
X75992000Y-91996000D01*
X76500000Y-93266000D02*
X76500000Y-92504000D01*
X76500000Y-91996000D02*
X76500000Y-91234000D01*
G36*
X77516000Y-90218000D02*
G01*
X77516000Y-90726000D01*
X75484000Y-90726000D01*
X75484000Y-90218000D01*
X77516000Y-90218000D01*
G37*
X77516000Y-90218000D02*
X77516000Y-90726000D01*
X75484000Y-90726000D01*
X75484000Y-90218000D01*
X77516000Y-90218000D01*
%TO.C,D2*%
X105016000Y-93218000D02*
X102984000Y-93218000D01*
X102984000Y-93218000D02*
X102984000Y-97282000D01*
X102984000Y-97282000D02*
X105016000Y-97282000D01*
X105016000Y-97282000D02*
X105016000Y-93218000D01*
G36*
X104508000Y-95504000D02*
G01*
X104000000Y-94996000D01*
X103492000Y-95504000D01*
X104508000Y-95504000D01*
G37*
X104508000Y-95504000D02*
X104000000Y-94996000D01*
X103492000Y-95504000D01*
X104508000Y-95504000D01*
X104508000Y-94996000D02*
X103492000Y-94996000D01*
X104000000Y-96266000D02*
X104000000Y-95504000D01*
X104000000Y-94996000D02*
X104000000Y-94234000D01*
G36*
X105016000Y-93218000D02*
G01*
X105016000Y-93726000D01*
X102984000Y-93726000D01*
X102984000Y-93218000D01*
X105016000Y-93218000D01*
G37*
X105016000Y-93218000D02*
X105016000Y-93726000D01*
X102984000Y-93726000D01*
X102984000Y-93218000D01*
X105016000Y-93218000D01*
%TO.C,D3*%
X118766000Y-94718000D02*
X116734000Y-94718000D01*
X116734000Y-94718000D02*
X116734000Y-98782000D01*
X116734000Y-98782000D02*
X118766000Y-98782000D01*
X118766000Y-98782000D02*
X118766000Y-94718000D01*
G36*
X118258000Y-97004000D02*
G01*
X117750000Y-96496000D01*
X117242000Y-97004000D01*
X118258000Y-97004000D01*
G37*
X118258000Y-97004000D02*
X117750000Y-96496000D01*
X117242000Y-97004000D01*
X118258000Y-97004000D01*
X118258000Y-96496000D02*
X117242000Y-96496000D01*
X117750000Y-97766000D02*
X117750000Y-97004000D01*
X117750000Y-96496000D02*
X117750000Y-95734000D01*
G36*
X118766000Y-94718000D02*
G01*
X118766000Y-95226000D01*
X116734000Y-95226000D01*
X116734000Y-94718000D01*
X118766000Y-94718000D01*
G37*
X118766000Y-94718000D02*
X118766000Y-95226000D01*
X116734000Y-95226000D01*
X116734000Y-94718000D01*
X118766000Y-94718000D01*
%TO.C,D4*%
X129766000Y-94718000D02*
X127734000Y-94718000D01*
X127734000Y-94718000D02*
X127734000Y-98782000D01*
X127734000Y-98782000D02*
X129766000Y-98782000D01*
X129766000Y-98782000D02*
X129766000Y-94718000D01*
G36*
X129258000Y-97004000D02*
G01*
X128750000Y-96496000D01*
X128242000Y-97004000D01*
X129258000Y-97004000D01*
G37*
X129258000Y-97004000D02*
X128750000Y-96496000D01*
X128242000Y-97004000D01*
X129258000Y-97004000D01*
X129258000Y-96496000D02*
X128242000Y-96496000D01*
X128750000Y-97766000D02*
X128750000Y-97004000D01*
X128750000Y-96496000D02*
X128750000Y-95734000D01*
G36*
X129766000Y-94718000D02*
G01*
X129766000Y-95226000D01*
X127734000Y-95226000D01*
X127734000Y-94718000D01*
X129766000Y-94718000D01*
G37*
X129766000Y-94718000D02*
X129766000Y-95226000D01*
X127734000Y-95226000D01*
X127734000Y-94718000D01*
X129766000Y-94718000D01*
%TO.C,D5*%
X140766000Y-94718000D02*
X138734000Y-94718000D01*
X138734000Y-94718000D02*
X138734000Y-98782000D01*
X138734000Y-98782000D02*
X140766000Y-98782000D01*
X140766000Y-98782000D02*
X140766000Y-94718000D01*
G36*
X140258000Y-97004000D02*
G01*
X139750000Y-96496000D01*
X139242000Y-97004000D01*
X140258000Y-97004000D01*
G37*
X140258000Y-97004000D02*
X139750000Y-96496000D01*
X139242000Y-97004000D01*
X140258000Y-97004000D01*
X140258000Y-96496000D02*
X139242000Y-96496000D01*
X139750000Y-97766000D02*
X139750000Y-97004000D01*
X139750000Y-96496000D02*
X139750000Y-95734000D01*
G36*
X140766000Y-94718000D02*
G01*
X140766000Y-95226000D01*
X138734000Y-95226000D01*
X138734000Y-94718000D01*
X140766000Y-94718000D01*
G37*
X140766000Y-94718000D02*
X140766000Y-95226000D01*
X138734000Y-95226000D01*
X138734000Y-94718000D01*
X140766000Y-94718000D01*
%TO.C,D6*%
G36*
X154516000Y-90218000D02*
G01*
X154516000Y-90726000D01*
X152484000Y-90726000D01*
X152484000Y-90218000D01*
X154516000Y-90218000D01*
G37*
X154516000Y-90218000D02*
X154516000Y-90726000D01*
X152484000Y-90726000D01*
X152484000Y-90218000D01*
X154516000Y-90218000D01*
X153500000Y-91996000D02*
X153500000Y-91234000D01*
X153500000Y-93266000D02*
X153500000Y-92504000D01*
X154008000Y-91996000D02*
X152992000Y-91996000D01*
G36*
X154008000Y-92504000D02*
G01*
X153500000Y-91996000D01*
X152992000Y-92504000D01*
X154008000Y-92504000D01*
G37*
X154008000Y-92504000D02*
X153500000Y-91996000D01*
X152992000Y-92504000D01*
X154008000Y-92504000D01*
X154516000Y-94282000D02*
X154516000Y-90218000D01*
X152484000Y-94282000D02*
X154516000Y-94282000D01*
X152484000Y-90218000D02*
X152484000Y-94282000D01*
X154516000Y-90218000D02*
X152484000Y-90218000D01*
%TO.C,D7*%
X165516000Y-90218000D02*
X163484000Y-90218000D01*
X163484000Y-90218000D02*
X163484000Y-94282000D01*
X163484000Y-94282000D02*
X165516000Y-94282000D01*
X165516000Y-94282000D02*
X165516000Y-90218000D01*
G36*
X165008000Y-92504000D02*
G01*
X164500000Y-91996000D01*
X163992000Y-92504000D01*
X165008000Y-92504000D01*
G37*
X165008000Y-92504000D02*
X164500000Y-91996000D01*
X163992000Y-92504000D01*
X165008000Y-92504000D01*
X165008000Y-91996000D02*
X163992000Y-91996000D01*
X164500000Y-93266000D02*
X164500000Y-92504000D01*
X164500000Y-91996000D02*
X164500000Y-91234000D01*
G36*
X165516000Y-90218000D02*
G01*
X165516000Y-90726000D01*
X163484000Y-90726000D01*
X163484000Y-90218000D01*
X165516000Y-90218000D01*
G37*
X165516000Y-90218000D02*
X165516000Y-90726000D01*
X163484000Y-90726000D01*
X163484000Y-90218000D01*
X165516000Y-90218000D01*
%TO.C,D8*%
G36*
X176516000Y-90218000D02*
G01*
X176516000Y-90726000D01*
X174484000Y-90726000D01*
X174484000Y-90218000D01*
X176516000Y-90218000D01*
G37*
X176516000Y-90218000D02*
X176516000Y-90726000D01*
X174484000Y-90726000D01*
X174484000Y-90218000D01*
X176516000Y-90218000D01*
X175500000Y-91996000D02*
X175500000Y-91234000D01*
X175500000Y-93266000D02*
X175500000Y-92504000D01*
X176008000Y-91996000D02*
X174992000Y-91996000D01*
G36*
X176008000Y-92504000D02*
G01*
X175500000Y-91996000D01*
X174992000Y-92504000D01*
X176008000Y-92504000D01*
G37*
X176008000Y-92504000D02*
X175500000Y-91996000D01*
X174992000Y-92504000D01*
X176008000Y-92504000D01*
X176516000Y-94282000D02*
X176516000Y-90218000D01*
X174484000Y-94282000D02*
X176516000Y-94282000D01*
X174484000Y-90218000D02*
X174484000Y-94282000D01*
X176516000Y-90218000D02*
X174484000Y-90218000D01*
%TO.C,D9*%
G36*
X187516000Y-90218000D02*
G01*
X187516000Y-90726000D01*
X185484000Y-90726000D01*
X185484000Y-90218000D01*
X187516000Y-90218000D01*
G37*
X187516000Y-90218000D02*
X187516000Y-90726000D01*
X185484000Y-90726000D01*
X185484000Y-90218000D01*
X187516000Y-90218000D01*
X186500000Y-91996000D02*
X186500000Y-91234000D01*
X186500000Y-93266000D02*
X186500000Y-92504000D01*
X187008000Y-91996000D02*
X185992000Y-91996000D01*
G36*
X187008000Y-92504000D02*
G01*
X186500000Y-91996000D01*
X185992000Y-92504000D01*
X187008000Y-92504000D01*
G37*
X187008000Y-92504000D02*
X186500000Y-91996000D01*
X185992000Y-92504000D01*
X187008000Y-92504000D01*
X187516000Y-94282000D02*
X187516000Y-90218000D01*
X185484000Y-94282000D02*
X187516000Y-94282000D01*
X185484000Y-90218000D02*
X185484000Y-94282000D01*
X187516000Y-90218000D02*
X185484000Y-90218000D01*
%TO.C,D10*%
G36*
X201266000Y-91718000D02*
G01*
X201266000Y-92226000D01*
X199234000Y-92226000D01*
X199234000Y-91718000D01*
X201266000Y-91718000D01*
G37*
X201266000Y-91718000D02*
X201266000Y-92226000D01*
X199234000Y-92226000D01*
X199234000Y-91718000D01*
X201266000Y-91718000D01*
X200250000Y-93496000D02*
X200250000Y-92734000D01*
X200250000Y-94766000D02*
X200250000Y-94004000D01*
X200758000Y-93496000D02*
X199742000Y-93496000D01*
G36*
X200758000Y-94004000D02*
G01*
X200250000Y-93496000D01*
X199742000Y-94004000D01*
X200758000Y-94004000D01*
G37*
X200758000Y-94004000D02*
X200250000Y-93496000D01*
X199742000Y-94004000D01*
X200758000Y-94004000D01*
X201266000Y-95782000D02*
X201266000Y-91718000D01*
X199234000Y-95782000D02*
X201266000Y-95782000D01*
X199234000Y-91718000D02*
X199234000Y-95782000D01*
X201266000Y-91718000D02*
X199234000Y-91718000D01*
%TO.C,D11*%
G36*
X215016000Y-93218000D02*
G01*
X215016000Y-93726000D01*
X212984000Y-93726000D01*
X212984000Y-93218000D01*
X215016000Y-93218000D01*
G37*
X215016000Y-93218000D02*
X215016000Y-93726000D01*
X212984000Y-93726000D01*
X212984000Y-93218000D01*
X215016000Y-93218000D01*
X214000000Y-94996000D02*
X214000000Y-94234000D01*
X214000000Y-96266000D02*
X214000000Y-95504000D01*
X214508000Y-94996000D02*
X213492000Y-94996000D01*
G36*
X214508000Y-95504000D02*
G01*
X214000000Y-94996000D01*
X213492000Y-95504000D01*
X214508000Y-95504000D01*
G37*
X214508000Y-95504000D02*
X214000000Y-94996000D01*
X213492000Y-95504000D01*
X214508000Y-95504000D01*
X215016000Y-97282000D02*
X215016000Y-93218000D01*
X212984000Y-97282000D02*
X215016000Y-97282000D01*
X212984000Y-93218000D02*
X212984000Y-97282000D01*
X215016000Y-93218000D02*
X212984000Y-93218000D01*
%TO.C,D12*%
X226016000Y-93218000D02*
X223984000Y-93218000D01*
X223984000Y-93218000D02*
X223984000Y-97282000D01*
X223984000Y-97282000D02*
X226016000Y-97282000D01*
X226016000Y-97282000D02*
X226016000Y-93218000D01*
G36*
X225508000Y-95504000D02*
G01*
X225000000Y-94996000D01*
X224492000Y-95504000D01*
X225508000Y-95504000D01*
G37*
X225508000Y-95504000D02*
X225000000Y-94996000D01*
X224492000Y-95504000D01*
X225508000Y-95504000D01*
X225508000Y-94996000D02*
X224492000Y-94996000D01*
X225000000Y-96266000D02*
X225000000Y-95504000D01*
X225000000Y-94996000D02*
X225000000Y-94234000D01*
G36*
X226016000Y-93218000D02*
G01*
X226016000Y-93726000D01*
X223984000Y-93726000D01*
X223984000Y-93218000D01*
X226016000Y-93218000D01*
G37*
X226016000Y-93218000D02*
X226016000Y-93726000D01*
X223984000Y-93726000D01*
X223984000Y-93218000D01*
X226016000Y-93218000D01*
%TO.C,D13*%
G36*
X234266000Y-91718000D02*
G01*
X234266000Y-92226000D01*
X232234000Y-92226000D01*
X232234000Y-91718000D01*
X234266000Y-91718000D01*
G37*
X234266000Y-91718000D02*
X234266000Y-92226000D01*
X232234000Y-92226000D01*
X232234000Y-91718000D01*
X234266000Y-91718000D01*
X233250000Y-93496000D02*
X233250000Y-92734000D01*
X233250000Y-94766000D02*
X233250000Y-94004000D01*
X233758000Y-93496000D02*
X232742000Y-93496000D01*
G36*
X233758000Y-94004000D02*
G01*
X233250000Y-93496000D01*
X232742000Y-94004000D01*
X233758000Y-94004000D01*
G37*
X233758000Y-94004000D02*
X233250000Y-93496000D01*
X232742000Y-94004000D01*
X233758000Y-94004000D01*
X234266000Y-95782000D02*
X234266000Y-91718000D01*
X232234000Y-95782000D02*
X234266000Y-95782000D01*
X232234000Y-91718000D02*
X232234000Y-95782000D01*
X234266000Y-91718000D02*
X232234000Y-91718000D01*
%TO.C,D14*%
G36*
X239766000Y-94718000D02*
G01*
X239766000Y-95226000D01*
X237734000Y-95226000D01*
X237734000Y-94718000D01*
X239766000Y-94718000D01*
G37*
X239766000Y-94718000D02*
X239766000Y-95226000D01*
X237734000Y-95226000D01*
X237734000Y-94718000D01*
X239766000Y-94718000D01*
X238750000Y-96496000D02*
X238750000Y-95734000D01*
X238750000Y-97766000D02*
X238750000Y-97004000D01*
X239258000Y-96496000D02*
X238242000Y-96496000D01*
G36*
X239258000Y-97004000D02*
G01*
X238750000Y-96496000D01*
X238242000Y-97004000D01*
X239258000Y-97004000D01*
G37*
X239258000Y-97004000D02*
X238750000Y-96496000D01*
X238242000Y-97004000D01*
X239258000Y-97004000D01*
X239766000Y-98782000D02*
X239766000Y-94718000D01*
X237734000Y-98782000D02*
X239766000Y-98782000D01*
X237734000Y-94718000D02*
X237734000Y-98782000D01*
X239766000Y-94718000D02*
X237734000Y-94718000D01*
%TO.C,D15*%
X80266000Y-91718000D02*
X78234000Y-91718000D01*
X78234000Y-91718000D02*
X78234000Y-95782000D01*
X78234000Y-95782000D02*
X80266000Y-95782000D01*
X80266000Y-95782000D02*
X80266000Y-91718000D01*
G36*
X79758000Y-94004000D02*
G01*
X79250000Y-93496000D01*
X78742000Y-94004000D01*
X79758000Y-94004000D01*
G37*
X79758000Y-94004000D02*
X79250000Y-93496000D01*
X78742000Y-94004000D01*
X79758000Y-94004000D01*
X79758000Y-93496000D02*
X78742000Y-93496000D01*
X79250000Y-94766000D02*
X79250000Y-94004000D01*
X79250000Y-93496000D02*
X79250000Y-92734000D01*
G36*
X80266000Y-91718000D02*
G01*
X80266000Y-92226000D01*
X78234000Y-92226000D01*
X78234000Y-91718000D01*
X80266000Y-91718000D01*
G37*
X80266000Y-91718000D02*
X80266000Y-92226000D01*
X78234000Y-92226000D01*
X78234000Y-91718000D01*
X80266000Y-91718000D01*
%TO.C,D16*%
X102266000Y-91718000D02*
X100234000Y-91718000D01*
X100234000Y-91718000D02*
X100234000Y-95782000D01*
X100234000Y-95782000D02*
X102266000Y-95782000D01*
X102266000Y-95782000D02*
X102266000Y-91718000D01*
G36*
X101758000Y-94004000D02*
G01*
X101250000Y-93496000D01*
X100742000Y-94004000D01*
X101758000Y-94004000D01*
G37*
X101758000Y-94004000D02*
X101250000Y-93496000D01*
X100742000Y-94004000D01*
X101758000Y-94004000D01*
X101758000Y-93496000D02*
X100742000Y-93496000D01*
X101250000Y-94766000D02*
X101250000Y-94004000D01*
X101250000Y-93496000D02*
X101250000Y-92734000D01*
G36*
X102266000Y-91718000D02*
G01*
X102266000Y-92226000D01*
X100234000Y-92226000D01*
X100234000Y-91718000D01*
X102266000Y-91718000D01*
G37*
X102266000Y-91718000D02*
X102266000Y-92226000D01*
X100234000Y-92226000D01*
X100234000Y-91718000D01*
X102266000Y-91718000D01*
%TO.C,D17*%
X116016000Y-93218000D02*
X113984000Y-93218000D01*
X113984000Y-93218000D02*
X113984000Y-97282000D01*
X113984000Y-97282000D02*
X116016000Y-97282000D01*
X116016000Y-97282000D02*
X116016000Y-93218000D01*
G36*
X115508000Y-95504000D02*
G01*
X115000000Y-94996000D01*
X114492000Y-95504000D01*
X115508000Y-95504000D01*
G37*
X115508000Y-95504000D02*
X115000000Y-94996000D01*
X114492000Y-95504000D01*
X115508000Y-95504000D01*
X115508000Y-94996000D02*
X114492000Y-94996000D01*
X115000000Y-96266000D02*
X115000000Y-95504000D01*
X115000000Y-94996000D02*
X115000000Y-94234000D01*
G36*
X116016000Y-93218000D02*
G01*
X116016000Y-93726000D01*
X113984000Y-93726000D01*
X113984000Y-93218000D01*
X116016000Y-93218000D01*
G37*
X116016000Y-93218000D02*
X116016000Y-93726000D01*
X113984000Y-93726000D01*
X113984000Y-93218000D01*
X116016000Y-93218000D01*
%TO.C,D18*%
X127016000Y-93218000D02*
X124984000Y-93218000D01*
X124984000Y-93218000D02*
X124984000Y-97282000D01*
X124984000Y-97282000D02*
X127016000Y-97282000D01*
X127016000Y-97282000D02*
X127016000Y-93218000D01*
G36*
X126508000Y-95504000D02*
G01*
X126000000Y-94996000D01*
X125492000Y-95504000D01*
X126508000Y-95504000D01*
G37*
X126508000Y-95504000D02*
X126000000Y-94996000D01*
X125492000Y-95504000D01*
X126508000Y-95504000D01*
X126508000Y-94996000D02*
X125492000Y-94996000D01*
X126000000Y-96266000D02*
X126000000Y-95504000D01*
X126000000Y-94996000D02*
X126000000Y-94234000D01*
G36*
X127016000Y-93218000D02*
G01*
X127016000Y-93726000D01*
X124984000Y-93726000D01*
X124984000Y-93218000D01*
X127016000Y-93218000D01*
G37*
X127016000Y-93218000D02*
X127016000Y-93726000D01*
X124984000Y-93726000D01*
X124984000Y-93218000D01*
X127016000Y-93218000D01*
%TO.C,D19*%
X138016000Y-93218000D02*
X135984000Y-93218000D01*
X135984000Y-93218000D02*
X135984000Y-97282000D01*
X135984000Y-97282000D02*
X138016000Y-97282000D01*
X138016000Y-97282000D02*
X138016000Y-93218000D01*
G36*
X137508000Y-95504000D02*
G01*
X137000000Y-94996000D01*
X136492000Y-95504000D01*
X137508000Y-95504000D01*
G37*
X137508000Y-95504000D02*
X137000000Y-94996000D01*
X136492000Y-95504000D01*
X137508000Y-95504000D01*
X137508000Y-94996000D02*
X136492000Y-94996000D01*
X137000000Y-96266000D02*
X137000000Y-95504000D01*
X137000000Y-94996000D02*
X137000000Y-94234000D01*
G36*
X138016000Y-93218000D02*
G01*
X138016000Y-93726000D01*
X135984000Y-93726000D01*
X135984000Y-93218000D01*
X138016000Y-93218000D01*
G37*
X138016000Y-93218000D02*
X138016000Y-93726000D01*
X135984000Y-93726000D01*
X135984000Y-93218000D01*
X138016000Y-93218000D01*
%TO.C,D20*%
X151766000Y-94718000D02*
X149734000Y-94718000D01*
X149734000Y-94718000D02*
X149734000Y-98782000D01*
X149734000Y-98782000D02*
X151766000Y-98782000D01*
X151766000Y-98782000D02*
X151766000Y-94718000D01*
G36*
X151258000Y-97004000D02*
G01*
X150750000Y-96496000D01*
X150242000Y-97004000D01*
X151258000Y-97004000D01*
G37*
X151258000Y-97004000D02*
X150750000Y-96496000D01*
X150242000Y-97004000D01*
X151258000Y-97004000D01*
X151258000Y-96496000D02*
X150242000Y-96496000D01*
X150750000Y-97766000D02*
X150750000Y-97004000D01*
X150750000Y-96496000D02*
X150750000Y-95734000D01*
G36*
X151766000Y-94718000D02*
G01*
X151766000Y-95226000D01*
X149734000Y-95226000D01*
X149734000Y-94718000D01*
X151766000Y-94718000D01*
G37*
X151766000Y-94718000D02*
X151766000Y-95226000D01*
X149734000Y-95226000D01*
X149734000Y-94718000D01*
X151766000Y-94718000D01*
%TO.C,D21*%
X162766000Y-94718000D02*
X160734000Y-94718000D01*
X160734000Y-94718000D02*
X160734000Y-98782000D01*
X160734000Y-98782000D02*
X162766000Y-98782000D01*
X162766000Y-98782000D02*
X162766000Y-94718000D01*
G36*
X162258000Y-97004000D02*
G01*
X161750000Y-96496000D01*
X161242000Y-97004000D01*
X162258000Y-97004000D01*
G37*
X162258000Y-97004000D02*
X161750000Y-96496000D01*
X161242000Y-97004000D01*
X162258000Y-97004000D01*
X162258000Y-96496000D02*
X161242000Y-96496000D01*
X161750000Y-97766000D02*
X161750000Y-97004000D01*
X161750000Y-96496000D02*
X161750000Y-95734000D01*
G36*
X162766000Y-94718000D02*
G01*
X162766000Y-95226000D01*
X160734000Y-95226000D01*
X160734000Y-94718000D01*
X162766000Y-94718000D01*
G37*
X162766000Y-94718000D02*
X162766000Y-95226000D01*
X160734000Y-95226000D01*
X160734000Y-94718000D01*
X162766000Y-94718000D01*
%TO.C,D22*%
G36*
X173766000Y-94718000D02*
G01*
X173766000Y-95226000D01*
X171734000Y-95226000D01*
X171734000Y-94718000D01*
X173766000Y-94718000D01*
G37*
X173766000Y-94718000D02*
X173766000Y-95226000D01*
X171734000Y-95226000D01*
X171734000Y-94718000D01*
X173766000Y-94718000D01*
X172750000Y-96496000D02*
X172750000Y-95734000D01*
X172750000Y-97766000D02*
X172750000Y-97004000D01*
X173258000Y-96496000D02*
X172242000Y-96496000D01*
G36*
X173258000Y-97004000D02*
G01*
X172750000Y-96496000D01*
X172242000Y-97004000D01*
X173258000Y-97004000D01*
G37*
X173258000Y-97004000D02*
X172750000Y-96496000D01*
X172242000Y-97004000D01*
X173258000Y-97004000D01*
X173766000Y-98782000D02*
X173766000Y-94718000D01*
X171734000Y-98782000D02*
X173766000Y-98782000D01*
X171734000Y-94718000D02*
X171734000Y-98782000D01*
X173766000Y-94718000D02*
X171734000Y-94718000D01*
%TO.C,D23*%
G36*
X184766000Y-94718000D02*
G01*
X184766000Y-95226000D01*
X182734000Y-95226000D01*
X182734000Y-94718000D01*
X184766000Y-94718000D01*
G37*
X184766000Y-94718000D02*
X184766000Y-95226000D01*
X182734000Y-95226000D01*
X182734000Y-94718000D01*
X184766000Y-94718000D01*
X183750000Y-96496000D02*
X183750000Y-95734000D01*
X183750000Y-97766000D02*
X183750000Y-97004000D01*
X184258000Y-96496000D02*
X183242000Y-96496000D01*
G36*
X184258000Y-97004000D02*
G01*
X183750000Y-96496000D01*
X183242000Y-97004000D01*
X184258000Y-97004000D01*
G37*
X184258000Y-97004000D02*
X183750000Y-96496000D01*
X183242000Y-97004000D01*
X184258000Y-97004000D01*
X184766000Y-98782000D02*
X184766000Y-94718000D01*
X182734000Y-98782000D02*
X184766000Y-98782000D01*
X182734000Y-94718000D02*
X182734000Y-98782000D01*
X184766000Y-94718000D02*
X182734000Y-94718000D01*
%TO.C,D24*%
G36*
X198516000Y-90218000D02*
G01*
X198516000Y-90726000D01*
X196484000Y-90726000D01*
X196484000Y-90218000D01*
X198516000Y-90218000D01*
G37*
X198516000Y-90218000D02*
X198516000Y-90726000D01*
X196484000Y-90726000D01*
X196484000Y-90218000D01*
X198516000Y-90218000D01*
X197500000Y-91996000D02*
X197500000Y-91234000D01*
X197500000Y-93266000D02*
X197500000Y-92504000D01*
X198008000Y-91996000D02*
X196992000Y-91996000D01*
G36*
X198008000Y-92504000D02*
G01*
X197500000Y-91996000D01*
X196992000Y-92504000D01*
X198008000Y-92504000D01*
G37*
X198008000Y-92504000D02*
X197500000Y-91996000D01*
X196992000Y-92504000D01*
X198008000Y-92504000D01*
X198516000Y-94282000D02*
X198516000Y-90218000D01*
X196484000Y-94282000D02*
X198516000Y-94282000D01*
X196484000Y-90218000D02*
X196484000Y-94282000D01*
X198516000Y-90218000D02*
X196484000Y-90218000D01*
%TO.C,D25*%
G36*
X212266000Y-91718000D02*
G01*
X212266000Y-92226000D01*
X210234000Y-92226000D01*
X210234000Y-91718000D01*
X212266000Y-91718000D01*
G37*
X212266000Y-91718000D02*
X212266000Y-92226000D01*
X210234000Y-92226000D01*
X210234000Y-91718000D01*
X212266000Y-91718000D01*
X211250000Y-93496000D02*
X211250000Y-92734000D01*
X211250000Y-94766000D02*
X211250000Y-94004000D01*
X211758000Y-93496000D02*
X210742000Y-93496000D01*
G36*
X211758000Y-94004000D02*
G01*
X211250000Y-93496000D01*
X210742000Y-94004000D01*
X211758000Y-94004000D01*
G37*
X211758000Y-94004000D02*
X211250000Y-93496000D01*
X210742000Y-94004000D01*
X211758000Y-94004000D01*
X212266000Y-95782000D02*
X212266000Y-91718000D01*
X210234000Y-95782000D02*
X212266000Y-95782000D01*
X210234000Y-91718000D02*
X210234000Y-95782000D01*
X212266000Y-91718000D02*
X210234000Y-91718000D01*
%TO.C,D26*%
G36*
X223266000Y-91718000D02*
G01*
X223266000Y-92226000D01*
X221234000Y-92226000D01*
X221234000Y-91718000D01*
X223266000Y-91718000D01*
G37*
X223266000Y-91718000D02*
X223266000Y-92226000D01*
X221234000Y-92226000D01*
X221234000Y-91718000D01*
X223266000Y-91718000D01*
X222250000Y-93496000D02*
X222250000Y-92734000D01*
X222250000Y-94766000D02*
X222250000Y-94004000D01*
X222758000Y-93496000D02*
X221742000Y-93496000D01*
G36*
X222758000Y-94004000D02*
G01*
X222250000Y-93496000D01*
X221742000Y-94004000D01*
X222758000Y-94004000D01*
G37*
X222758000Y-94004000D02*
X222250000Y-93496000D01*
X221742000Y-94004000D01*
X222758000Y-94004000D01*
X223266000Y-95782000D02*
X223266000Y-91718000D01*
X221234000Y-95782000D02*
X223266000Y-95782000D01*
X221234000Y-91718000D02*
X221234000Y-95782000D01*
X223266000Y-91718000D02*
X221234000Y-91718000D01*
%TO.C,D27*%
G36*
X231516000Y-90218000D02*
G01*
X231516000Y-90726000D01*
X229484000Y-90726000D01*
X229484000Y-90218000D01*
X231516000Y-90218000D01*
G37*
X231516000Y-90218000D02*
X231516000Y-90726000D01*
X229484000Y-90726000D01*
X229484000Y-90218000D01*
X231516000Y-90218000D01*
X230500000Y-91996000D02*
X230500000Y-91234000D01*
X230500000Y-93266000D02*
X230500000Y-92504000D01*
X231008000Y-91996000D02*
X229992000Y-91996000D01*
G36*
X231008000Y-92504000D02*
G01*
X230500000Y-91996000D01*
X229992000Y-92504000D01*
X231008000Y-92504000D01*
G37*
X231008000Y-92504000D02*
X230500000Y-91996000D01*
X229992000Y-92504000D01*
X231008000Y-92504000D01*
X231516000Y-94282000D02*
X231516000Y-90218000D01*
X229484000Y-94282000D02*
X231516000Y-94282000D01*
X229484000Y-90218000D02*
X229484000Y-94282000D01*
X231516000Y-90218000D02*
X229484000Y-90218000D01*
%TO.C,D28*%
G36*
X237016000Y-93218000D02*
G01*
X237016000Y-93726000D01*
X234984000Y-93726000D01*
X234984000Y-93218000D01*
X237016000Y-93218000D01*
G37*
X237016000Y-93218000D02*
X237016000Y-93726000D01*
X234984000Y-93726000D01*
X234984000Y-93218000D01*
X237016000Y-93218000D01*
X236000000Y-94996000D02*
X236000000Y-94234000D01*
X236000000Y-96266000D02*
X236000000Y-95504000D01*
X236508000Y-94996000D02*
X235492000Y-94996000D01*
G36*
X236508000Y-95504000D02*
G01*
X236000000Y-94996000D01*
X235492000Y-95504000D01*
X236508000Y-95504000D01*
G37*
X236508000Y-95504000D02*
X236000000Y-94996000D01*
X235492000Y-95504000D01*
X236508000Y-95504000D01*
X237016000Y-97282000D02*
X237016000Y-93218000D01*
X234984000Y-97282000D02*
X237016000Y-97282000D01*
X234984000Y-93218000D02*
X234984000Y-97282000D01*
X237016000Y-93218000D02*
X234984000Y-93218000D01*
%TO.C,D29*%
X83016000Y-93218000D02*
X80984000Y-93218000D01*
X80984000Y-93218000D02*
X80984000Y-97282000D01*
X80984000Y-97282000D02*
X83016000Y-97282000D01*
X83016000Y-97282000D02*
X83016000Y-93218000D01*
G36*
X82508000Y-95504000D02*
G01*
X82000000Y-94996000D01*
X81492000Y-95504000D01*
X82508000Y-95504000D01*
G37*
X82508000Y-95504000D02*
X82000000Y-94996000D01*
X81492000Y-95504000D01*
X82508000Y-95504000D01*
X82508000Y-94996000D02*
X81492000Y-94996000D01*
X82000000Y-96266000D02*
X82000000Y-95504000D01*
X82000000Y-94996000D02*
X82000000Y-94234000D01*
G36*
X83016000Y-93218000D02*
G01*
X83016000Y-93726000D01*
X80984000Y-93726000D01*
X80984000Y-93218000D01*
X83016000Y-93218000D01*
G37*
X83016000Y-93218000D02*
X83016000Y-93726000D01*
X80984000Y-93726000D01*
X80984000Y-93218000D01*
X83016000Y-93218000D01*
%TO.C,D30*%
X99516000Y-90218000D02*
X97484000Y-90218000D01*
X97484000Y-90218000D02*
X97484000Y-94282000D01*
X97484000Y-94282000D02*
X99516000Y-94282000D01*
X99516000Y-94282000D02*
X99516000Y-90218000D01*
G36*
X99008000Y-92504000D02*
G01*
X98500000Y-91996000D01*
X97992000Y-92504000D01*
X99008000Y-92504000D01*
G37*
X99008000Y-92504000D02*
X98500000Y-91996000D01*
X97992000Y-92504000D01*
X99008000Y-92504000D01*
X99008000Y-91996000D02*
X97992000Y-91996000D01*
X98500000Y-93266000D02*
X98500000Y-92504000D01*
X98500000Y-91996000D02*
X98500000Y-91234000D01*
G36*
X99516000Y-90218000D02*
G01*
X99516000Y-90726000D01*
X97484000Y-90726000D01*
X97484000Y-90218000D01*
X99516000Y-90218000D01*
G37*
X99516000Y-90218000D02*
X99516000Y-90726000D01*
X97484000Y-90726000D01*
X97484000Y-90218000D01*
X99516000Y-90218000D01*
%TO.C,D31*%
X113266000Y-91718000D02*
X111234000Y-91718000D01*
X111234000Y-91718000D02*
X111234000Y-95782000D01*
X111234000Y-95782000D02*
X113266000Y-95782000D01*
X113266000Y-95782000D02*
X113266000Y-91718000D01*
G36*
X112758000Y-94004000D02*
G01*
X112250000Y-93496000D01*
X111742000Y-94004000D01*
X112758000Y-94004000D01*
G37*
X112758000Y-94004000D02*
X112250000Y-93496000D01*
X111742000Y-94004000D01*
X112758000Y-94004000D01*
X112758000Y-93496000D02*
X111742000Y-93496000D01*
X112250000Y-94766000D02*
X112250000Y-94004000D01*
X112250000Y-93496000D02*
X112250000Y-92734000D01*
G36*
X113266000Y-91718000D02*
G01*
X113266000Y-92226000D01*
X111234000Y-92226000D01*
X111234000Y-91718000D01*
X113266000Y-91718000D01*
G37*
X113266000Y-91718000D02*
X113266000Y-92226000D01*
X111234000Y-92226000D01*
X111234000Y-91718000D01*
X113266000Y-91718000D01*
%TO.C,D32*%
X124266000Y-91718000D02*
X122234000Y-91718000D01*
X122234000Y-91718000D02*
X122234000Y-95782000D01*
X122234000Y-95782000D02*
X124266000Y-95782000D01*
X124266000Y-95782000D02*
X124266000Y-91718000D01*
G36*
X123758000Y-94004000D02*
G01*
X123250000Y-93496000D01*
X122742000Y-94004000D01*
X123758000Y-94004000D01*
G37*
X123758000Y-94004000D02*
X123250000Y-93496000D01*
X122742000Y-94004000D01*
X123758000Y-94004000D01*
X123758000Y-93496000D02*
X122742000Y-93496000D01*
X123250000Y-94766000D02*
X123250000Y-94004000D01*
X123250000Y-93496000D02*
X123250000Y-92734000D01*
G36*
X124266000Y-91718000D02*
G01*
X124266000Y-92226000D01*
X122234000Y-92226000D01*
X122234000Y-91718000D01*
X124266000Y-91718000D01*
G37*
X124266000Y-91718000D02*
X124266000Y-92226000D01*
X122234000Y-92226000D01*
X122234000Y-91718000D01*
X124266000Y-91718000D01*
%TO.C,D33*%
X135266000Y-91718000D02*
X133234000Y-91718000D01*
X133234000Y-91718000D02*
X133234000Y-95782000D01*
X133234000Y-95782000D02*
X135266000Y-95782000D01*
X135266000Y-95782000D02*
X135266000Y-91718000D01*
G36*
X134758000Y-94004000D02*
G01*
X134250000Y-93496000D01*
X133742000Y-94004000D01*
X134758000Y-94004000D01*
G37*
X134758000Y-94004000D02*
X134250000Y-93496000D01*
X133742000Y-94004000D01*
X134758000Y-94004000D01*
X134758000Y-93496000D02*
X133742000Y-93496000D01*
X134250000Y-94766000D02*
X134250000Y-94004000D01*
X134250000Y-93496000D02*
X134250000Y-92734000D01*
G36*
X135266000Y-91718000D02*
G01*
X135266000Y-92226000D01*
X133234000Y-92226000D01*
X133234000Y-91718000D01*
X135266000Y-91718000D01*
G37*
X135266000Y-91718000D02*
X135266000Y-92226000D01*
X133234000Y-92226000D01*
X133234000Y-91718000D01*
X135266000Y-91718000D01*
%TO.C,D34*%
X149016000Y-93218000D02*
X146984000Y-93218000D01*
X146984000Y-93218000D02*
X146984000Y-97282000D01*
X146984000Y-97282000D02*
X149016000Y-97282000D01*
X149016000Y-97282000D02*
X149016000Y-93218000D01*
G36*
X148508000Y-95504000D02*
G01*
X148000000Y-94996000D01*
X147492000Y-95504000D01*
X148508000Y-95504000D01*
G37*
X148508000Y-95504000D02*
X148000000Y-94996000D01*
X147492000Y-95504000D01*
X148508000Y-95504000D01*
X148508000Y-94996000D02*
X147492000Y-94996000D01*
X148000000Y-96266000D02*
X148000000Y-95504000D01*
X148000000Y-94996000D02*
X148000000Y-94234000D01*
G36*
X149016000Y-93218000D02*
G01*
X149016000Y-93726000D01*
X146984000Y-93726000D01*
X146984000Y-93218000D01*
X149016000Y-93218000D01*
G37*
X149016000Y-93218000D02*
X149016000Y-93726000D01*
X146984000Y-93726000D01*
X146984000Y-93218000D01*
X149016000Y-93218000D01*
%TO.C,D35*%
X160016000Y-93218000D02*
X157984000Y-93218000D01*
X157984000Y-93218000D02*
X157984000Y-97282000D01*
X157984000Y-97282000D02*
X160016000Y-97282000D01*
X160016000Y-97282000D02*
X160016000Y-93218000D01*
G36*
X159508000Y-95504000D02*
G01*
X159000000Y-94996000D01*
X158492000Y-95504000D01*
X159508000Y-95504000D01*
G37*
X159508000Y-95504000D02*
X159000000Y-94996000D01*
X158492000Y-95504000D01*
X159508000Y-95504000D01*
X159508000Y-94996000D02*
X158492000Y-94996000D01*
X159000000Y-96266000D02*
X159000000Y-95504000D01*
X159000000Y-94996000D02*
X159000000Y-94234000D01*
G36*
X160016000Y-93218000D02*
G01*
X160016000Y-93726000D01*
X157984000Y-93726000D01*
X157984000Y-93218000D01*
X160016000Y-93218000D01*
G37*
X160016000Y-93218000D02*
X160016000Y-93726000D01*
X157984000Y-93726000D01*
X157984000Y-93218000D01*
X160016000Y-93218000D01*
%TO.C,D36*%
G36*
X171016000Y-93218000D02*
G01*
X171016000Y-93726000D01*
X168984000Y-93726000D01*
X168984000Y-93218000D01*
X171016000Y-93218000D01*
G37*
X171016000Y-93218000D02*
X171016000Y-93726000D01*
X168984000Y-93726000D01*
X168984000Y-93218000D01*
X171016000Y-93218000D01*
X170000000Y-94996000D02*
X170000000Y-94234000D01*
X170000000Y-96266000D02*
X170000000Y-95504000D01*
X170508000Y-94996000D02*
X169492000Y-94996000D01*
G36*
X170508000Y-95504000D02*
G01*
X170000000Y-94996000D01*
X169492000Y-95504000D01*
X170508000Y-95504000D01*
G37*
X170508000Y-95504000D02*
X170000000Y-94996000D01*
X169492000Y-95504000D01*
X170508000Y-95504000D01*
X171016000Y-97282000D02*
X171016000Y-93218000D01*
X168984000Y-97282000D02*
X171016000Y-97282000D01*
X168984000Y-93218000D02*
X168984000Y-97282000D01*
X171016000Y-93218000D02*
X168984000Y-93218000D01*
%TO.C,D38*%
G36*
X195766000Y-94718000D02*
G01*
X195766000Y-95226000D01*
X193734000Y-95226000D01*
X193734000Y-94718000D01*
X195766000Y-94718000D01*
G37*
X195766000Y-94718000D02*
X195766000Y-95226000D01*
X193734000Y-95226000D01*
X193734000Y-94718000D01*
X195766000Y-94718000D01*
X194750000Y-96496000D02*
X194750000Y-95734000D01*
X194750000Y-97766000D02*
X194750000Y-97004000D01*
X195258000Y-96496000D02*
X194242000Y-96496000D01*
G36*
X195258000Y-97004000D02*
G01*
X194750000Y-96496000D01*
X194242000Y-97004000D01*
X195258000Y-97004000D01*
G37*
X195258000Y-97004000D02*
X194750000Y-96496000D01*
X194242000Y-97004000D01*
X195258000Y-97004000D01*
X195766000Y-98782000D02*
X195766000Y-94718000D01*
X193734000Y-98782000D02*
X195766000Y-98782000D01*
X193734000Y-94718000D02*
X193734000Y-98782000D01*
X195766000Y-94718000D02*
X193734000Y-94718000D01*
%TO.C,D39*%
G36*
X209516000Y-90218000D02*
G01*
X209516000Y-90726000D01*
X207484000Y-90726000D01*
X207484000Y-90218000D01*
X209516000Y-90218000D01*
G37*
X209516000Y-90218000D02*
X209516000Y-90726000D01*
X207484000Y-90726000D01*
X207484000Y-90218000D01*
X209516000Y-90218000D01*
X208500000Y-91996000D02*
X208500000Y-91234000D01*
X208500000Y-93266000D02*
X208500000Y-92504000D01*
X209008000Y-91996000D02*
X207992000Y-91996000D01*
G36*
X209008000Y-92504000D02*
G01*
X208500000Y-91996000D01*
X207992000Y-92504000D01*
X209008000Y-92504000D01*
G37*
X209008000Y-92504000D02*
X208500000Y-91996000D01*
X207992000Y-92504000D01*
X209008000Y-92504000D01*
X209516000Y-94282000D02*
X209516000Y-90218000D01*
X207484000Y-94282000D02*
X209516000Y-94282000D01*
X207484000Y-90218000D02*
X207484000Y-94282000D01*
X209516000Y-90218000D02*
X207484000Y-90218000D01*
%TO.C,D40*%
G36*
X220516000Y-90218000D02*
G01*
X220516000Y-90726000D01*
X218484000Y-90726000D01*
X218484000Y-90218000D01*
X220516000Y-90218000D01*
G37*
X220516000Y-90218000D02*
X220516000Y-90726000D01*
X218484000Y-90726000D01*
X218484000Y-90218000D01*
X220516000Y-90218000D01*
X219500000Y-91996000D02*
X219500000Y-91234000D01*
X219500000Y-93266000D02*
X219500000Y-92504000D01*
X220008000Y-91996000D02*
X218992000Y-91996000D01*
G36*
X220008000Y-92504000D02*
G01*
X219500000Y-91996000D01*
X218992000Y-92504000D01*
X220008000Y-92504000D01*
G37*
X220008000Y-92504000D02*
X219500000Y-91996000D01*
X218992000Y-92504000D01*
X220008000Y-92504000D01*
X220516000Y-94282000D02*
X220516000Y-90218000D01*
X218484000Y-94282000D02*
X220516000Y-94282000D01*
X218484000Y-90218000D02*
X218484000Y-94282000D01*
X220516000Y-90218000D02*
X218484000Y-90218000D01*
%TO.C,D41*%
G36*
X228766000Y-94718000D02*
G01*
X228766000Y-95226000D01*
X226734000Y-95226000D01*
X226734000Y-94718000D01*
X228766000Y-94718000D01*
G37*
X228766000Y-94718000D02*
X228766000Y-95226000D01*
X226734000Y-95226000D01*
X226734000Y-94718000D01*
X228766000Y-94718000D01*
X227750000Y-96496000D02*
X227750000Y-95734000D01*
X227750000Y-97766000D02*
X227750000Y-97004000D01*
X228258000Y-96496000D02*
X227242000Y-96496000D01*
G36*
X228258000Y-97004000D02*
G01*
X227750000Y-96496000D01*
X227242000Y-97004000D01*
X228258000Y-97004000D01*
G37*
X228258000Y-97004000D02*
X227750000Y-96496000D01*
X227242000Y-97004000D01*
X228258000Y-97004000D01*
X228766000Y-98782000D02*
X228766000Y-94718000D01*
X226734000Y-98782000D02*
X228766000Y-98782000D01*
X226734000Y-94718000D02*
X226734000Y-98782000D01*
X228766000Y-94718000D02*
X226734000Y-94718000D01*
%TO.C,D44*%
X96766000Y-94718000D02*
X94734000Y-94718000D01*
X94734000Y-94718000D02*
X94734000Y-98782000D01*
X94734000Y-98782000D02*
X96766000Y-98782000D01*
X96766000Y-98782000D02*
X96766000Y-94718000D01*
G36*
X96258000Y-97004000D02*
G01*
X95750000Y-96496000D01*
X95242000Y-97004000D01*
X96258000Y-97004000D01*
G37*
X96258000Y-97004000D02*
X95750000Y-96496000D01*
X95242000Y-97004000D01*
X96258000Y-97004000D01*
X96258000Y-96496000D02*
X95242000Y-96496000D01*
X95750000Y-97766000D02*
X95750000Y-97004000D01*
X95750000Y-96496000D02*
X95750000Y-95734000D01*
G36*
X96766000Y-94718000D02*
G01*
X96766000Y-95226000D01*
X94734000Y-95226000D01*
X94734000Y-94718000D01*
X96766000Y-94718000D01*
G37*
X96766000Y-94718000D02*
X96766000Y-95226000D01*
X94734000Y-95226000D01*
X94734000Y-94718000D01*
X96766000Y-94718000D01*
%TO.C,D45*%
X110516000Y-90218000D02*
X108484000Y-90218000D01*
X108484000Y-90218000D02*
X108484000Y-94282000D01*
X108484000Y-94282000D02*
X110516000Y-94282000D01*
X110516000Y-94282000D02*
X110516000Y-90218000D01*
G36*
X110008000Y-92504000D02*
G01*
X109500000Y-91996000D01*
X108992000Y-92504000D01*
X110008000Y-92504000D01*
G37*
X110008000Y-92504000D02*
X109500000Y-91996000D01*
X108992000Y-92504000D01*
X110008000Y-92504000D01*
X110008000Y-91996000D02*
X108992000Y-91996000D01*
X109500000Y-93266000D02*
X109500000Y-92504000D01*
X109500000Y-91996000D02*
X109500000Y-91234000D01*
G36*
X110516000Y-90218000D02*
G01*
X110516000Y-90726000D01*
X108484000Y-90726000D01*
X108484000Y-90218000D01*
X110516000Y-90218000D01*
G37*
X110516000Y-90218000D02*
X110516000Y-90726000D01*
X108484000Y-90726000D01*
X108484000Y-90218000D01*
X110516000Y-90218000D01*
%TO.C,D46*%
X121516000Y-90218000D02*
X119484000Y-90218000D01*
X119484000Y-90218000D02*
X119484000Y-94282000D01*
X119484000Y-94282000D02*
X121516000Y-94282000D01*
X121516000Y-94282000D02*
X121516000Y-90218000D01*
G36*
X121008000Y-92504000D02*
G01*
X120500000Y-91996000D01*
X119992000Y-92504000D01*
X121008000Y-92504000D01*
G37*
X121008000Y-92504000D02*
X120500000Y-91996000D01*
X119992000Y-92504000D01*
X121008000Y-92504000D01*
X121008000Y-91996000D02*
X119992000Y-91996000D01*
X120500000Y-93266000D02*
X120500000Y-92504000D01*
X120500000Y-91996000D02*
X120500000Y-91234000D01*
G36*
X121516000Y-90218000D02*
G01*
X121516000Y-90726000D01*
X119484000Y-90726000D01*
X119484000Y-90218000D01*
X121516000Y-90218000D01*
G37*
X121516000Y-90218000D02*
X121516000Y-90726000D01*
X119484000Y-90726000D01*
X119484000Y-90218000D01*
X121516000Y-90218000D01*
%TO.C,D47*%
X132516000Y-90218000D02*
X130484000Y-90218000D01*
X130484000Y-90218000D02*
X130484000Y-94282000D01*
X130484000Y-94282000D02*
X132516000Y-94282000D01*
X132516000Y-94282000D02*
X132516000Y-90218000D01*
G36*
X132008000Y-92504000D02*
G01*
X131500000Y-91996000D01*
X130992000Y-92504000D01*
X132008000Y-92504000D01*
G37*
X132008000Y-92504000D02*
X131500000Y-91996000D01*
X130992000Y-92504000D01*
X132008000Y-92504000D01*
X132008000Y-91996000D02*
X130992000Y-91996000D01*
X131500000Y-93266000D02*
X131500000Y-92504000D01*
X131500000Y-91996000D02*
X131500000Y-91234000D01*
G36*
X132516000Y-90218000D02*
G01*
X132516000Y-90726000D01*
X130484000Y-90726000D01*
X130484000Y-90218000D01*
X132516000Y-90218000D01*
G37*
X132516000Y-90218000D02*
X132516000Y-90726000D01*
X130484000Y-90726000D01*
X130484000Y-90218000D01*
X132516000Y-90218000D01*
%TO.C,D48*%
X146266000Y-91718000D02*
X144234000Y-91718000D01*
X144234000Y-91718000D02*
X144234000Y-95782000D01*
X144234000Y-95782000D02*
X146266000Y-95782000D01*
X146266000Y-95782000D02*
X146266000Y-91718000D01*
G36*
X145758000Y-94004000D02*
G01*
X145250000Y-93496000D01*
X144742000Y-94004000D01*
X145758000Y-94004000D01*
G37*
X145758000Y-94004000D02*
X145250000Y-93496000D01*
X144742000Y-94004000D01*
X145758000Y-94004000D01*
X145758000Y-93496000D02*
X144742000Y-93496000D01*
X145250000Y-94766000D02*
X145250000Y-94004000D01*
X145250000Y-93496000D02*
X145250000Y-92734000D01*
G36*
X146266000Y-91718000D02*
G01*
X146266000Y-92226000D01*
X144234000Y-92226000D01*
X144234000Y-91718000D01*
X146266000Y-91718000D01*
G37*
X146266000Y-91718000D02*
X146266000Y-92226000D01*
X144234000Y-92226000D01*
X144234000Y-91718000D01*
X146266000Y-91718000D01*
%TO.C,D49*%
X157266000Y-91718000D02*
X155234000Y-91718000D01*
X155234000Y-91718000D02*
X155234000Y-95782000D01*
X155234000Y-95782000D02*
X157266000Y-95782000D01*
X157266000Y-95782000D02*
X157266000Y-91718000D01*
G36*
X156758000Y-94004000D02*
G01*
X156250000Y-93496000D01*
X155742000Y-94004000D01*
X156758000Y-94004000D01*
G37*
X156758000Y-94004000D02*
X156250000Y-93496000D01*
X155742000Y-94004000D01*
X156758000Y-94004000D01*
X156758000Y-93496000D02*
X155742000Y-93496000D01*
X156250000Y-94766000D02*
X156250000Y-94004000D01*
X156250000Y-93496000D02*
X156250000Y-92734000D01*
G36*
X157266000Y-91718000D02*
G01*
X157266000Y-92226000D01*
X155234000Y-92226000D01*
X155234000Y-91718000D01*
X157266000Y-91718000D01*
G37*
X157266000Y-91718000D02*
X157266000Y-92226000D01*
X155234000Y-92226000D01*
X155234000Y-91718000D01*
X157266000Y-91718000D01*
%TO.C,D50*%
G36*
X168266000Y-91718000D02*
G01*
X168266000Y-92226000D01*
X166234000Y-92226000D01*
X166234000Y-91718000D01*
X168266000Y-91718000D01*
G37*
X168266000Y-91718000D02*
X168266000Y-92226000D01*
X166234000Y-92226000D01*
X166234000Y-91718000D01*
X168266000Y-91718000D01*
X167250000Y-93496000D02*
X167250000Y-92734000D01*
X167250000Y-94766000D02*
X167250000Y-94004000D01*
X167758000Y-93496000D02*
X166742000Y-93496000D01*
G36*
X167758000Y-94004000D02*
G01*
X167250000Y-93496000D01*
X166742000Y-94004000D01*
X167758000Y-94004000D01*
G37*
X167758000Y-94004000D02*
X167250000Y-93496000D01*
X166742000Y-94004000D01*
X167758000Y-94004000D01*
X168266000Y-95782000D02*
X168266000Y-91718000D01*
X166234000Y-95782000D02*
X168266000Y-95782000D01*
X166234000Y-91718000D02*
X166234000Y-95782000D01*
X168266000Y-91718000D02*
X166234000Y-91718000D01*
%TO.C,D51*%
G36*
X179266000Y-91718000D02*
G01*
X179266000Y-92226000D01*
X177234000Y-92226000D01*
X177234000Y-91718000D01*
X179266000Y-91718000D01*
G37*
X179266000Y-91718000D02*
X179266000Y-92226000D01*
X177234000Y-92226000D01*
X177234000Y-91718000D01*
X179266000Y-91718000D01*
X178250000Y-93496000D02*
X178250000Y-92734000D01*
X178250000Y-94766000D02*
X178250000Y-94004000D01*
X178758000Y-93496000D02*
X177742000Y-93496000D01*
G36*
X178758000Y-94004000D02*
G01*
X178250000Y-93496000D01*
X177742000Y-94004000D01*
X178758000Y-94004000D01*
G37*
X178758000Y-94004000D02*
X178250000Y-93496000D01*
X177742000Y-94004000D01*
X178758000Y-94004000D01*
X179266000Y-95782000D02*
X179266000Y-91718000D01*
X177234000Y-95782000D02*
X179266000Y-95782000D01*
X177234000Y-91718000D02*
X177234000Y-95782000D01*
X179266000Y-91718000D02*
X177234000Y-91718000D01*
%TO.C,D52*%
G36*
X193016000Y-93218000D02*
G01*
X193016000Y-93726000D01*
X190984000Y-93726000D01*
X190984000Y-93218000D01*
X193016000Y-93218000D01*
G37*
X193016000Y-93218000D02*
X193016000Y-93726000D01*
X190984000Y-93726000D01*
X190984000Y-93218000D01*
X193016000Y-93218000D01*
X192000000Y-94996000D02*
X192000000Y-94234000D01*
X192000000Y-96266000D02*
X192000000Y-95504000D01*
X192508000Y-94996000D02*
X191492000Y-94996000D01*
G36*
X192508000Y-95504000D02*
G01*
X192000000Y-94996000D01*
X191492000Y-95504000D01*
X192508000Y-95504000D01*
G37*
X192508000Y-95504000D02*
X192000000Y-94996000D01*
X191492000Y-95504000D01*
X192508000Y-95504000D01*
X193016000Y-97282000D02*
X193016000Y-93218000D01*
X190984000Y-97282000D02*
X193016000Y-97282000D01*
X190984000Y-93218000D02*
X190984000Y-97282000D01*
X193016000Y-93218000D02*
X190984000Y-93218000D01*
%TO.C,D53*%
G36*
X206766000Y-94718000D02*
G01*
X206766000Y-95226000D01*
X204734000Y-95226000D01*
X204734000Y-94718000D01*
X206766000Y-94718000D01*
G37*
X206766000Y-94718000D02*
X206766000Y-95226000D01*
X204734000Y-95226000D01*
X204734000Y-94718000D01*
X206766000Y-94718000D01*
X205750000Y-96496000D02*
X205750000Y-95734000D01*
X205750000Y-97766000D02*
X205750000Y-97004000D01*
X206258000Y-96496000D02*
X205242000Y-96496000D01*
G36*
X206258000Y-97004000D02*
G01*
X205750000Y-96496000D01*
X205242000Y-97004000D01*
X206258000Y-97004000D01*
G37*
X206258000Y-97004000D02*
X205750000Y-96496000D01*
X205242000Y-97004000D01*
X206258000Y-97004000D01*
X206766000Y-98782000D02*
X206766000Y-94718000D01*
X204734000Y-98782000D02*
X206766000Y-98782000D01*
X204734000Y-94718000D02*
X204734000Y-98782000D01*
X206766000Y-94718000D02*
X204734000Y-94718000D01*
%TO.C,D54*%
G36*
X217766000Y-94718000D02*
G01*
X217766000Y-95226000D01*
X215734000Y-95226000D01*
X215734000Y-94718000D01*
X217766000Y-94718000D01*
G37*
X217766000Y-94718000D02*
X217766000Y-95226000D01*
X215734000Y-95226000D01*
X215734000Y-94718000D01*
X217766000Y-94718000D01*
X216750000Y-96496000D02*
X216750000Y-95734000D01*
X216750000Y-97766000D02*
X216750000Y-97004000D01*
X217258000Y-96496000D02*
X216242000Y-96496000D01*
G36*
X217258000Y-97004000D02*
G01*
X216750000Y-96496000D01*
X216242000Y-97004000D01*
X217258000Y-97004000D01*
G37*
X217258000Y-97004000D02*
X216750000Y-96496000D01*
X216242000Y-97004000D01*
X217258000Y-97004000D01*
X217766000Y-98782000D02*
X217766000Y-94718000D01*
X215734000Y-98782000D02*
X217766000Y-98782000D01*
X215734000Y-94718000D02*
X215734000Y-98782000D01*
X217766000Y-94718000D02*
X215734000Y-94718000D01*
%TO.C,D57*%
X88516000Y-90218000D02*
X86484000Y-90218000D01*
X86484000Y-90218000D02*
X86484000Y-94282000D01*
X86484000Y-94282000D02*
X88516000Y-94282000D01*
X88516000Y-94282000D02*
X88516000Y-90218000D01*
G36*
X88008000Y-92504000D02*
G01*
X87500000Y-91996000D01*
X86992000Y-92504000D01*
X88008000Y-92504000D01*
G37*
X88008000Y-92504000D02*
X87500000Y-91996000D01*
X86992000Y-92504000D01*
X88008000Y-92504000D01*
X88008000Y-91996000D02*
X86992000Y-91996000D01*
X87500000Y-93266000D02*
X87500000Y-92504000D01*
X87500000Y-91996000D02*
X87500000Y-91234000D01*
G36*
X88516000Y-90218000D02*
G01*
X88516000Y-90726000D01*
X86484000Y-90726000D01*
X86484000Y-90218000D01*
X88516000Y-90218000D01*
G37*
X88516000Y-90218000D02*
X88516000Y-90726000D01*
X86484000Y-90726000D01*
X86484000Y-90218000D01*
X88516000Y-90218000D01*
%TO.C,D58*%
X91266000Y-91718000D02*
X89234000Y-91718000D01*
X89234000Y-91718000D02*
X89234000Y-95782000D01*
X89234000Y-95782000D02*
X91266000Y-95782000D01*
X91266000Y-95782000D02*
X91266000Y-91718000D01*
G36*
X90758000Y-94004000D02*
G01*
X90250000Y-93496000D01*
X89742000Y-94004000D01*
X90758000Y-94004000D01*
G37*
X90758000Y-94004000D02*
X90250000Y-93496000D01*
X89742000Y-94004000D01*
X90758000Y-94004000D01*
X90758000Y-93496000D02*
X89742000Y-93496000D01*
X90250000Y-94766000D02*
X90250000Y-94004000D01*
X90250000Y-93496000D02*
X90250000Y-92734000D01*
G36*
X91266000Y-91718000D02*
G01*
X91266000Y-92226000D01*
X89234000Y-92226000D01*
X89234000Y-91718000D01*
X91266000Y-91718000D01*
G37*
X91266000Y-91718000D02*
X91266000Y-92226000D01*
X89234000Y-92226000D01*
X89234000Y-91718000D01*
X91266000Y-91718000D01*
%TO.C,D59*%
X94016000Y-93218000D02*
X91984000Y-93218000D01*
X91984000Y-93218000D02*
X91984000Y-97282000D01*
X91984000Y-97282000D02*
X94016000Y-97282000D01*
X94016000Y-97282000D02*
X94016000Y-93218000D01*
G36*
X93508000Y-95504000D02*
G01*
X93000000Y-94996000D01*
X92492000Y-95504000D01*
X93508000Y-95504000D01*
G37*
X93508000Y-95504000D02*
X93000000Y-94996000D01*
X92492000Y-95504000D01*
X93508000Y-95504000D01*
X93508000Y-94996000D02*
X92492000Y-94996000D01*
X93000000Y-96266000D02*
X93000000Y-95504000D01*
X93000000Y-94996000D02*
X93000000Y-94234000D01*
G36*
X94016000Y-93218000D02*
G01*
X94016000Y-93726000D01*
X91984000Y-93726000D01*
X91984000Y-93218000D01*
X94016000Y-93218000D01*
G37*
X94016000Y-93218000D02*
X94016000Y-93726000D01*
X91984000Y-93726000D01*
X91984000Y-93218000D01*
X94016000Y-93218000D01*
%TO.C,D60*%
G36*
X143516000Y-90218000D02*
G01*
X143516000Y-90726000D01*
X141484000Y-90726000D01*
X141484000Y-90218000D01*
X143516000Y-90218000D01*
G37*
X143516000Y-90218000D02*
X143516000Y-90726000D01*
X141484000Y-90726000D01*
X141484000Y-90218000D01*
X143516000Y-90218000D01*
X142500000Y-91996000D02*
X142500000Y-91234000D01*
X142500000Y-93266000D02*
X142500000Y-92504000D01*
X143008000Y-91996000D02*
X141992000Y-91996000D01*
G36*
X143008000Y-92504000D02*
G01*
X142500000Y-91996000D01*
X141992000Y-92504000D01*
X143008000Y-92504000D01*
G37*
X143008000Y-92504000D02*
X142500000Y-91996000D01*
X141992000Y-92504000D01*
X143008000Y-92504000D01*
X143516000Y-94282000D02*
X143516000Y-90218000D01*
X141484000Y-94282000D02*
X143516000Y-94282000D01*
X141484000Y-90218000D02*
X141484000Y-94282000D01*
X143516000Y-90218000D02*
X141484000Y-90218000D01*
%TO.C,D61*%
X190266000Y-91718000D02*
X188234000Y-91718000D01*
X188234000Y-91718000D02*
X188234000Y-95782000D01*
X188234000Y-95782000D02*
X190266000Y-95782000D01*
X190266000Y-95782000D02*
X190266000Y-91718000D01*
G36*
X189758000Y-94004000D02*
G01*
X189250000Y-93496000D01*
X188742000Y-94004000D01*
X189758000Y-94004000D01*
G37*
X189758000Y-94004000D02*
X189250000Y-93496000D01*
X188742000Y-94004000D01*
X189758000Y-94004000D01*
X189758000Y-93496000D02*
X188742000Y-93496000D01*
X189250000Y-94766000D02*
X189250000Y-94004000D01*
X189250000Y-93496000D02*
X189250000Y-92734000D01*
G36*
X190266000Y-91718000D02*
G01*
X190266000Y-92226000D01*
X188234000Y-92226000D01*
X188234000Y-91718000D01*
X190266000Y-91718000D01*
G37*
X190266000Y-91718000D02*
X190266000Y-92226000D01*
X188234000Y-92226000D01*
X188234000Y-91718000D01*
X190266000Y-91718000D01*
%TO.C,D62*%
X204016000Y-93218000D02*
X201984000Y-93218000D01*
X201984000Y-93218000D02*
X201984000Y-97282000D01*
X201984000Y-97282000D02*
X204016000Y-97282000D01*
X204016000Y-97282000D02*
X204016000Y-93218000D01*
G36*
X203508000Y-95504000D02*
G01*
X203000000Y-94996000D01*
X202492000Y-95504000D01*
X203508000Y-95504000D01*
G37*
X203508000Y-95504000D02*
X203000000Y-94996000D01*
X202492000Y-95504000D01*
X203508000Y-95504000D01*
X203508000Y-94996000D02*
X202492000Y-94996000D01*
X203000000Y-96266000D02*
X203000000Y-95504000D01*
X203000000Y-94996000D02*
X203000000Y-94234000D01*
G36*
X204016000Y-93218000D02*
G01*
X204016000Y-93726000D01*
X201984000Y-93726000D01*
X201984000Y-93218000D01*
X204016000Y-93218000D01*
G37*
X204016000Y-93218000D02*
X204016000Y-93726000D01*
X201984000Y-93726000D01*
X201984000Y-93218000D01*
X204016000Y-93218000D01*
%TO.C,D63*%
X351059750Y-124333000D02*
X349027750Y-124333000D01*
X349027750Y-124333000D02*
X349027750Y-128397000D01*
X349027750Y-128397000D02*
X351059750Y-128397000D01*
X351059750Y-128397000D02*
X351059750Y-124333000D01*
G36*
X350551750Y-126619000D02*
G01*
X350043750Y-126111000D01*
X349535750Y-126619000D01*
X350551750Y-126619000D01*
G37*
X350551750Y-126619000D02*
X350043750Y-126111000D01*
X349535750Y-126619000D01*
X350551750Y-126619000D01*
X350551750Y-126111000D02*
X349535750Y-126111000D01*
X350043750Y-127381000D02*
X350043750Y-126619000D01*
X350043750Y-126111000D02*
X350043750Y-125349000D01*
G36*
X351059750Y-124333000D02*
G01*
X351059750Y-124841000D01*
X349027750Y-124841000D01*
X349027750Y-124333000D01*
X351059750Y-124333000D01*
G37*
X351059750Y-124333000D02*
X351059750Y-124841000D01*
X349027750Y-124841000D01*
X349027750Y-124333000D01*
X351059750Y-124333000D01*
%TO.C,D64*%
X242516000Y-90218000D02*
X240484000Y-90218000D01*
X240484000Y-90218000D02*
X240484000Y-94282000D01*
X240484000Y-94282000D02*
X242516000Y-94282000D01*
X242516000Y-94282000D02*
X242516000Y-90218000D01*
G36*
X242008000Y-92504000D02*
G01*
X241500000Y-91996000D01*
X240992000Y-92504000D01*
X242008000Y-92504000D01*
G37*
X242008000Y-92504000D02*
X241500000Y-91996000D01*
X240992000Y-92504000D01*
X242008000Y-92504000D01*
X242008000Y-91996000D02*
X240992000Y-91996000D01*
X241500000Y-93266000D02*
X241500000Y-92504000D01*
X241500000Y-91996000D02*
X241500000Y-91234000D01*
G36*
X242516000Y-90218000D02*
G01*
X242516000Y-90726000D01*
X240484000Y-90726000D01*
X240484000Y-90218000D01*
X242516000Y-90218000D01*
G37*
X242516000Y-90218000D02*
X242516000Y-90726000D01*
X240484000Y-90726000D01*
X240484000Y-90218000D01*
X242516000Y-90218000D01*
%TO.C,D65*%
G36*
X245266000Y-91718000D02*
G01*
X245266000Y-92226000D01*
X243234000Y-92226000D01*
X243234000Y-91718000D01*
X245266000Y-91718000D01*
G37*
X245266000Y-91718000D02*
X245266000Y-92226000D01*
X243234000Y-92226000D01*
X243234000Y-91718000D01*
X245266000Y-91718000D01*
X244250000Y-93496000D02*
X244250000Y-92734000D01*
X244250000Y-94766000D02*
X244250000Y-94004000D01*
X244758000Y-93496000D02*
X243742000Y-93496000D01*
G36*
X244758000Y-94004000D02*
G01*
X244250000Y-93496000D01*
X243742000Y-94004000D01*
X244758000Y-94004000D01*
G37*
X244758000Y-94004000D02*
X244250000Y-93496000D01*
X243742000Y-94004000D01*
X244758000Y-94004000D01*
X245266000Y-95782000D02*
X245266000Y-91718000D01*
X243234000Y-95782000D02*
X245266000Y-95782000D01*
X243234000Y-91718000D02*
X243234000Y-95782000D01*
X245266000Y-91718000D02*
X243234000Y-91718000D01*
%TO.C,D66*%
X250766000Y-94718000D02*
X248734000Y-94718000D01*
X248734000Y-94718000D02*
X248734000Y-98782000D01*
X248734000Y-98782000D02*
X250766000Y-98782000D01*
X250766000Y-98782000D02*
X250766000Y-94718000D01*
G36*
X250258000Y-97004000D02*
G01*
X249750000Y-96496000D01*
X249242000Y-97004000D01*
X250258000Y-97004000D01*
G37*
X250258000Y-97004000D02*
X249750000Y-96496000D01*
X249242000Y-97004000D01*
X250258000Y-97004000D01*
X250258000Y-96496000D02*
X249242000Y-96496000D01*
X249750000Y-97766000D02*
X249750000Y-97004000D01*
X249750000Y-96496000D02*
X249750000Y-95734000D01*
G36*
X250766000Y-94718000D02*
G01*
X250766000Y-95226000D01*
X248734000Y-95226000D01*
X248734000Y-94718000D01*
X250766000Y-94718000D01*
G37*
X250766000Y-94718000D02*
X250766000Y-95226000D01*
X248734000Y-95226000D01*
X248734000Y-94718000D01*
X250766000Y-94718000D01*
%TO.C,D67*%
G36*
X248016000Y-93218000D02*
G01*
X248016000Y-93726000D01*
X245984000Y-93726000D01*
X245984000Y-93218000D01*
X248016000Y-93218000D01*
G37*
X248016000Y-93218000D02*
X248016000Y-93726000D01*
X245984000Y-93726000D01*
X245984000Y-93218000D01*
X248016000Y-93218000D01*
X247000000Y-94996000D02*
X247000000Y-94234000D01*
X247000000Y-96266000D02*
X247000000Y-95504000D01*
X247508000Y-94996000D02*
X246492000Y-94996000D01*
G36*
X247508000Y-95504000D02*
G01*
X247000000Y-94996000D01*
X246492000Y-95504000D01*
X247508000Y-95504000D01*
G37*
X247508000Y-95504000D02*
X247000000Y-94996000D01*
X246492000Y-95504000D01*
X247508000Y-95504000D01*
X248016000Y-97282000D02*
X248016000Y-93218000D01*
X245984000Y-97282000D02*
X248016000Y-97282000D01*
X245984000Y-93218000D02*
X245984000Y-97282000D01*
X248016000Y-93218000D02*
X245984000Y-93218000D01*
%TO.C,D68*%
G36*
X348678500Y-126555500D02*
G01*
X348678500Y-127063500D01*
X346646500Y-127063500D01*
X346646500Y-126555500D01*
X348678500Y-126555500D01*
G37*
X348678500Y-126555500D02*
X348678500Y-127063500D01*
X346646500Y-127063500D01*
X346646500Y-126555500D01*
X348678500Y-126555500D01*
X347662500Y-128333500D02*
X347662500Y-127571500D01*
X347662500Y-129603500D02*
X347662500Y-128841500D01*
X348170500Y-128333500D02*
X347154500Y-128333500D01*
G36*
X348170500Y-128841500D02*
G01*
X347662500Y-128333500D01*
X347154500Y-128841500D01*
X348170500Y-128841500D01*
G37*
X348170500Y-128841500D02*
X347662500Y-128333500D01*
X347154500Y-128841500D01*
X348170500Y-128841500D01*
X348678500Y-130619500D02*
X348678500Y-126555500D01*
X346646500Y-130619500D02*
X348678500Y-130619500D01*
X346646500Y-126555500D02*
X346646500Y-130619500D01*
X348678500Y-126555500D02*
X346646500Y-126555500D01*
%TO.C,D69*%
G36*
X346297250Y-128936750D02*
G01*
X346297250Y-129444750D01*
X344265250Y-129444750D01*
X344265250Y-128936750D01*
X346297250Y-128936750D01*
G37*
X346297250Y-128936750D02*
X346297250Y-129444750D01*
X344265250Y-129444750D01*
X344265250Y-128936750D01*
X346297250Y-128936750D01*
X345281250Y-130714750D02*
X345281250Y-129952750D01*
X345281250Y-131984750D02*
X345281250Y-131222750D01*
X345789250Y-130714750D02*
X344773250Y-130714750D01*
G36*
X345789250Y-131222750D02*
G01*
X345281250Y-130714750D01*
X344773250Y-131222750D01*
X345789250Y-131222750D01*
G37*
X345789250Y-131222750D02*
X345281250Y-130714750D01*
X344773250Y-131222750D01*
X345789250Y-131222750D01*
X346297250Y-133000750D02*
X346297250Y-128936750D01*
X344265250Y-133000750D02*
X346297250Y-133000750D01*
X344265250Y-128936750D02*
X344265250Y-133000750D01*
X346297250Y-128936750D02*
X344265250Y-128936750D01*
%TO.C,D70*%
G36*
X107766000Y-94718000D02*
G01*
X107766000Y-95226000D01*
X105734000Y-95226000D01*
X105734000Y-94718000D01*
X107766000Y-94718000D01*
G37*
X107766000Y-94718000D02*
X107766000Y-95226000D01*
X105734000Y-95226000D01*
X105734000Y-94718000D01*
X107766000Y-94718000D01*
X106750000Y-96496000D02*
X106750000Y-95734000D01*
X106750000Y-97766000D02*
X106750000Y-97004000D01*
X107258000Y-96496000D02*
X106242000Y-96496000D01*
G36*
X107258000Y-97004000D02*
G01*
X106750000Y-96496000D01*
X106242000Y-97004000D01*
X107258000Y-97004000D01*
G37*
X107258000Y-97004000D02*
X106750000Y-96496000D01*
X106242000Y-97004000D01*
X107258000Y-97004000D01*
X107766000Y-98782000D02*
X107766000Y-94718000D01*
X105734000Y-98782000D02*
X107766000Y-98782000D01*
X105734000Y-94718000D02*
X105734000Y-98782000D01*
X107766000Y-94718000D02*
X105734000Y-94718000D01*
%TO.C,K5*%
X138256250Y-108300000D02*
X138256250Y-107300000D01*
X138256250Y-121300000D02*
X139256250Y-121300000D01*
X139256250Y-107300000D02*
X138256250Y-107300000D01*
X138256250Y-121300000D02*
X138256250Y-120300000D01*
X152256250Y-120300000D02*
X152256250Y-121300000D01*
X152256250Y-107300000D02*
X151256250Y-107300000D01*
X151256250Y-121300000D02*
X152256250Y-121300000D01*
X152256250Y-107300000D02*
X152256250Y-108300000D01*
%TO.C,K6*%
X157306250Y-108300000D02*
X157306250Y-107300000D01*
X157306250Y-121300000D02*
X158306250Y-121300000D01*
X158306250Y-107300000D02*
X157306250Y-107300000D01*
X157306250Y-121300000D02*
X157306250Y-120300000D01*
X171306250Y-120300000D02*
X171306250Y-121300000D01*
X171306250Y-107300000D02*
X170306250Y-107300000D01*
X170306250Y-121300000D02*
X171306250Y-121300000D01*
X171306250Y-107300000D02*
X171306250Y-108300000D01*
%TO.C,K8*%
X195406250Y-108300000D02*
X195406250Y-107300000D01*
X195406250Y-121300000D02*
X196406250Y-121300000D01*
X196406250Y-107300000D02*
X195406250Y-107300000D01*
X195406250Y-121300000D02*
X195406250Y-120300000D01*
X209406250Y-120300000D02*
X209406250Y-121300000D01*
X209406250Y-107300000D02*
X208406250Y-107300000D01*
X208406250Y-121300000D02*
X209406250Y-121300000D01*
X209406250Y-107300000D02*
X209406250Y-108300000D01*
%TO.C,K9*%
X214456250Y-108300000D02*
X214456250Y-107300000D01*
X214456250Y-121300000D02*
X215456250Y-121300000D01*
X215456250Y-107300000D02*
X214456250Y-107300000D01*
X214456250Y-121300000D02*
X214456250Y-120300000D01*
X228456250Y-120300000D02*
X228456250Y-121300000D01*
X228456250Y-107300000D02*
X227456250Y-107300000D01*
X227456250Y-121300000D02*
X228456250Y-121300000D01*
X228456250Y-107300000D02*
X228456250Y-108300000D01*
%TO.C,K10*%
X233506250Y-108300000D02*
X233506250Y-107300000D01*
X233506250Y-121300000D02*
X234506250Y-121300000D01*
X234506250Y-107300000D02*
X233506250Y-107300000D01*
X233506250Y-121300000D02*
X233506250Y-120300000D01*
X247506250Y-120300000D02*
X247506250Y-121300000D01*
X247506250Y-107300000D02*
X246506250Y-107300000D01*
X246506250Y-121300000D02*
X247506250Y-121300000D01*
X247506250Y-107300000D02*
X247506250Y-108300000D01*
%TO.C,K11*%
X252556250Y-108300000D02*
X252556250Y-107300000D01*
X252556250Y-121300000D02*
X253556250Y-121300000D01*
X253556250Y-107300000D02*
X252556250Y-107300000D01*
X252556250Y-121300000D02*
X252556250Y-120300000D01*
X266556250Y-120300000D02*
X266556250Y-121300000D01*
X266556250Y-107300000D02*
X265556250Y-107300000D01*
X265556250Y-121300000D02*
X266556250Y-121300000D01*
X266556250Y-107300000D02*
X266556250Y-108300000D01*
%TO.C,K12*%
X272343750Y-108300000D02*
X272343750Y-107300000D01*
X272343750Y-121300000D02*
X273343750Y-121300000D01*
X273343750Y-107300000D02*
X272343750Y-107300000D01*
X272343750Y-121300000D02*
X272343750Y-120300000D01*
X286343750Y-120300000D02*
X286343750Y-121300000D01*
X286343750Y-107300000D02*
X285343750Y-107300000D01*
X285343750Y-121300000D02*
X286343750Y-121300000D01*
X286343750Y-107300000D02*
X286343750Y-108300000D01*
%TO.C,K13*%
X304656250Y-107300000D02*
X304656250Y-108300000D01*
X303656250Y-121300000D02*
X304656250Y-121300000D01*
X304656250Y-107300000D02*
X303656250Y-107300000D01*
X304656250Y-120300000D02*
X304656250Y-121300000D01*
X290656250Y-121300000D02*
X290656250Y-120300000D01*
X291656250Y-107300000D02*
X290656250Y-107300000D01*
X290656250Y-121300000D02*
X291656250Y-121300000D01*
X290656250Y-108300000D02*
X290656250Y-107300000D01*
%TO.C,K14*%
X319231250Y-108300000D02*
X319231250Y-107300000D01*
X319231250Y-121300000D02*
X320231250Y-121300000D01*
X320231250Y-107300000D02*
X319231250Y-107300000D01*
X319231250Y-121300000D02*
X319231250Y-120300000D01*
X333231250Y-120300000D02*
X333231250Y-121300000D01*
X333231250Y-107300000D02*
X332231250Y-107300000D01*
X332231250Y-121300000D02*
X333231250Y-121300000D01*
X333231250Y-107300000D02*
X333231250Y-108300000D01*
%TO.C,K15*%
X80818750Y-126350000D02*
X80818750Y-127350000D01*
X79818750Y-140350000D02*
X80818750Y-140350000D01*
X80818750Y-126350000D02*
X79818750Y-126350000D01*
X80818750Y-139350000D02*
X80818750Y-140350000D01*
X66818750Y-140350000D02*
X66818750Y-139350000D01*
X67818750Y-126350000D02*
X66818750Y-126350000D01*
X66818750Y-140350000D02*
X67818750Y-140350000D01*
X66818750Y-127350000D02*
X66818750Y-126350000D01*
%TO.C,K17*%
X123681250Y-126350000D02*
X123681250Y-127350000D01*
X122681250Y-140350000D02*
X123681250Y-140350000D01*
X123681250Y-126350000D02*
X122681250Y-126350000D01*
X123681250Y-139350000D02*
X123681250Y-140350000D01*
X109681250Y-140350000D02*
X109681250Y-139350000D01*
X110681250Y-126350000D02*
X109681250Y-126350000D01*
X109681250Y-140350000D02*
X110681250Y-140350000D01*
X109681250Y-127350000D02*
X109681250Y-126350000D01*
%TO.C,K19*%
X161781250Y-126350000D02*
X161781250Y-127350000D01*
X160781250Y-140350000D02*
X161781250Y-140350000D01*
X161781250Y-126350000D02*
X160781250Y-126350000D01*
X161781250Y-139350000D02*
X161781250Y-140350000D01*
X147781250Y-140350000D02*
X147781250Y-139350000D01*
X148781250Y-126350000D02*
X147781250Y-126350000D01*
X147781250Y-140350000D02*
X148781250Y-140350000D01*
X147781250Y-127350000D02*
X147781250Y-126350000D01*
%TO.C,K20*%
X166831250Y-127350000D02*
X166831250Y-126350000D01*
X166831250Y-140350000D02*
X167831250Y-140350000D01*
X167831250Y-126350000D02*
X166831250Y-126350000D01*
X166831250Y-140350000D02*
X166831250Y-139350000D01*
X180831250Y-139350000D02*
X180831250Y-140350000D01*
X180831250Y-126350000D02*
X179831250Y-126350000D01*
X179831250Y-140350000D02*
X180831250Y-140350000D01*
X180831250Y-126350000D02*
X180831250Y-127350000D01*
%TO.C,K21*%
X199881250Y-126350000D02*
X199881250Y-127350000D01*
X198881250Y-140350000D02*
X199881250Y-140350000D01*
X199881250Y-126350000D02*
X198881250Y-126350000D01*
X199881250Y-139350000D02*
X199881250Y-140350000D01*
X185881250Y-140350000D02*
X185881250Y-139350000D01*
X186881250Y-126350000D02*
X185881250Y-126350000D01*
X185881250Y-140350000D02*
X186881250Y-140350000D01*
X185881250Y-127350000D02*
X185881250Y-126350000D01*
%TO.C,K22*%
X204931250Y-127350000D02*
X204931250Y-126350000D01*
X204931250Y-140350000D02*
X205931250Y-140350000D01*
X205931250Y-126350000D02*
X204931250Y-126350000D01*
X204931250Y-140350000D02*
X204931250Y-139350000D01*
X218931250Y-139350000D02*
X218931250Y-140350000D01*
X218931250Y-126350000D02*
X217931250Y-126350000D01*
X217931250Y-140350000D02*
X218931250Y-140350000D01*
X218931250Y-126350000D02*
X218931250Y-127350000D01*
%TO.C,K23*%
X223981250Y-127350000D02*
X223981250Y-126350000D01*
X223981250Y-140350000D02*
X224981250Y-140350000D01*
X224981250Y-126350000D02*
X223981250Y-126350000D01*
X223981250Y-140350000D02*
X223981250Y-139350000D01*
X237981250Y-139350000D02*
X237981250Y-140350000D01*
X237981250Y-126350000D02*
X236981250Y-126350000D01*
X236981250Y-140350000D02*
X237981250Y-140350000D01*
X237981250Y-126350000D02*
X237981250Y-127350000D01*
%TO.C,K24*%
X243031250Y-127350000D02*
X243031250Y-126350000D01*
X243031250Y-140350000D02*
X244031250Y-140350000D01*
X244031250Y-126350000D02*
X243031250Y-126350000D01*
X243031250Y-140350000D02*
X243031250Y-139350000D01*
X257031250Y-139350000D02*
X257031250Y-140350000D01*
X257031250Y-126350000D02*
X256031250Y-126350000D01*
X256031250Y-140350000D02*
X257031250Y-140350000D01*
X257031250Y-126350000D02*
X257031250Y-127350000D01*
%TO.C,K25*%
X262081250Y-127350000D02*
X262081250Y-126350000D01*
X262081250Y-140350000D02*
X263081250Y-140350000D01*
X263081250Y-126350000D02*
X262081250Y-126350000D01*
X262081250Y-140350000D02*
X262081250Y-139350000D01*
X276081250Y-139350000D02*
X276081250Y-140350000D01*
X276081250Y-126350000D02*
X275081250Y-126350000D01*
X275081250Y-140350000D02*
X276081250Y-140350000D01*
X276081250Y-126350000D02*
X276081250Y-127350000D01*
%TO.C,K26*%
X281131250Y-127350000D02*
X281131250Y-126350000D01*
X281131250Y-140350000D02*
X282131250Y-140350000D01*
X282131250Y-126350000D02*
X281131250Y-126350000D01*
X281131250Y-140350000D02*
X281131250Y-139350000D01*
X295131250Y-139350000D02*
X295131250Y-140350000D01*
X295131250Y-126350000D02*
X294131250Y-126350000D01*
X294131250Y-140350000D02*
X295131250Y-140350000D01*
X295131250Y-126350000D02*
X295131250Y-127350000D01*
%TO.C,K27*%
X314181250Y-126350000D02*
X314181250Y-127350000D01*
X313181250Y-140350000D02*
X314181250Y-140350000D01*
X314181250Y-126350000D02*
X313181250Y-126350000D01*
X314181250Y-139350000D02*
X314181250Y-140350000D01*
X300181250Y-140350000D02*
X300181250Y-139350000D01*
X301181250Y-126350000D02*
X300181250Y-126350000D01*
X300181250Y-140350000D02*
X301181250Y-140350000D01*
X300181250Y-127350000D02*
X300181250Y-126350000D01*
%TO.C,K28*%
X337993750Y-126350000D02*
X337993750Y-127350000D01*
X336993750Y-140350000D02*
X337993750Y-140350000D01*
X337993750Y-126350000D02*
X336993750Y-126350000D01*
X337993750Y-139350000D02*
X337993750Y-140350000D01*
X323993750Y-140350000D02*
X323993750Y-139350000D01*
X324993750Y-126350000D02*
X323993750Y-126350000D01*
X323993750Y-140350000D02*
X324993750Y-140350000D01*
X323993750Y-127350000D02*
X323993750Y-126350000D01*
%TO.C,K30*%
X95393750Y-146400000D02*
X95393750Y-145400000D01*
X95393750Y-159400000D02*
X96393750Y-159400000D01*
X96393750Y-145400000D02*
X95393750Y-145400000D01*
X95393750Y-159400000D02*
X95393750Y-158400000D01*
X109393750Y-158400000D02*
X109393750Y-159400000D01*
X109393750Y-145400000D02*
X108393750Y-145400000D01*
X108393750Y-159400000D02*
X109393750Y-159400000D01*
X109393750Y-145400000D02*
X109393750Y-146400000D01*
%TO.C,K31*%
X128443750Y-145400000D02*
X128443750Y-146400000D01*
X127443750Y-159400000D02*
X128443750Y-159400000D01*
X128443750Y-145400000D02*
X127443750Y-145400000D01*
X128443750Y-158400000D02*
X128443750Y-159400000D01*
X114443750Y-159400000D02*
X114443750Y-158400000D01*
X115443750Y-145400000D02*
X114443750Y-145400000D01*
X114443750Y-159400000D02*
X115443750Y-159400000D01*
X114443750Y-146400000D02*
X114443750Y-145400000D01*
%TO.C,K32*%
X133493750Y-146400000D02*
X133493750Y-145400000D01*
X133493750Y-159400000D02*
X134493750Y-159400000D01*
X134493750Y-145400000D02*
X133493750Y-145400000D01*
X133493750Y-159400000D02*
X133493750Y-158400000D01*
X147493750Y-158400000D02*
X147493750Y-159400000D01*
X147493750Y-145400000D02*
X146493750Y-145400000D01*
X146493750Y-159400000D02*
X147493750Y-159400000D01*
X147493750Y-145400000D02*
X147493750Y-146400000D01*
%TO.C,K33*%
X152543750Y-146400000D02*
X152543750Y-145400000D01*
X152543750Y-159400000D02*
X153543750Y-159400000D01*
X153543750Y-145400000D02*
X152543750Y-145400000D01*
X152543750Y-159400000D02*
X152543750Y-158400000D01*
X166543750Y-158400000D02*
X166543750Y-159400000D01*
X166543750Y-145400000D02*
X165543750Y-145400000D01*
X165543750Y-159400000D02*
X166543750Y-159400000D01*
X166543750Y-145400000D02*
X166543750Y-146400000D01*
%TO.C,K34*%
X171593750Y-146400000D02*
X171593750Y-145400000D01*
X171593750Y-159400000D02*
X172593750Y-159400000D01*
X172593750Y-145400000D02*
X171593750Y-145400000D01*
X171593750Y-159400000D02*
X171593750Y-158400000D01*
X185593750Y-158400000D02*
X185593750Y-159400000D01*
X185593750Y-145400000D02*
X184593750Y-145400000D01*
X184593750Y-159400000D02*
X185593750Y-159400000D01*
X185593750Y-145400000D02*
X185593750Y-146400000D01*
%TO.C,K35*%
X190643750Y-146400000D02*
X190643750Y-145400000D01*
X190643750Y-159400000D02*
X191643750Y-159400000D01*
X191643750Y-145400000D02*
X190643750Y-145400000D01*
X190643750Y-159400000D02*
X190643750Y-158400000D01*
X204643750Y-158400000D02*
X204643750Y-159400000D01*
X204643750Y-145400000D02*
X203643750Y-145400000D01*
X203643750Y-159400000D02*
X204643750Y-159400000D01*
X204643750Y-145400000D02*
X204643750Y-146400000D01*
%TO.C,K36*%
X223693750Y-145400000D02*
X223693750Y-146400000D01*
X222693750Y-159400000D02*
X223693750Y-159400000D01*
X223693750Y-145400000D02*
X222693750Y-145400000D01*
X223693750Y-158400000D02*
X223693750Y-159400000D01*
X209693750Y-159400000D02*
X209693750Y-158400000D01*
X210693750Y-145400000D02*
X209693750Y-145400000D01*
X209693750Y-159400000D02*
X210693750Y-159400000D01*
X209693750Y-146400000D02*
X209693750Y-145400000D01*
%TO.C,K37*%
X228743750Y-146400000D02*
X228743750Y-145400000D01*
X228743750Y-159400000D02*
X229743750Y-159400000D01*
X229743750Y-145400000D02*
X228743750Y-145400000D01*
X228743750Y-159400000D02*
X228743750Y-158400000D01*
X242743750Y-158400000D02*
X242743750Y-159400000D01*
X242743750Y-145400000D02*
X241743750Y-145400000D01*
X241743750Y-159400000D02*
X242743750Y-159400000D01*
X242743750Y-145400000D02*
X242743750Y-146400000D01*
%TO.C,K38*%
X247793750Y-146400000D02*
X247793750Y-145400000D01*
X247793750Y-159400000D02*
X248793750Y-159400000D01*
X248793750Y-145400000D02*
X247793750Y-145400000D01*
X247793750Y-159400000D02*
X247793750Y-158400000D01*
X261793750Y-158400000D02*
X261793750Y-159400000D01*
X261793750Y-145400000D02*
X260793750Y-145400000D01*
X260793750Y-159400000D02*
X261793750Y-159400000D01*
X261793750Y-145400000D02*
X261793750Y-146400000D01*
%TO.C,K39*%
X266843750Y-146400000D02*
X266843750Y-145400000D01*
X266843750Y-159400000D02*
X267843750Y-159400000D01*
X267843750Y-145400000D02*
X266843750Y-145400000D01*
X266843750Y-159400000D02*
X266843750Y-158400000D01*
X280843750Y-158400000D02*
X280843750Y-159400000D01*
X280843750Y-145400000D02*
X279843750Y-145400000D01*
X279843750Y-159400000D02*
X280843750Y-159400000D01*
X280843750Y-145400000D02*
X280843750Y-146400000D01*
%TO.C,K40*%
X285893750Y-146400000D02*
X285893750Y-145400000D01*
X285893750Y-159400000D02*
X286893750Y-159400000D01*
X286893750Y-145400000D02*
X285893750Y-145400000D01*
X285893750Y-159400000D02*
X285893750Y-158400000D01*
X299893750Y-158400000D02*
X299893750Y-159400000D01*
X299893750Y-145400000D02*
X298893750Y-145400000D01*
X298893750Y-159400000D02*
X299893750Y-159400000D01*
X299893750Y-145400000D02*
X299893750Y-146400000D01*
%TO.C,K41*%
X316850000Y-146400000D02*
X316850000Y-145400000D01*
X316850000Y-159400000D02*
X317850000Y-159400000D01*
X317850000Y-145400000D02*
X316850000Y-145400000D01*
X316850000Y-159400000D02*
X316850000Y-158400000D01*
X330850000Y-158400000D02*
X330850000Y-159400000D01*
X330850000Y-145400000D02*
X329850000Y-145400000D01*
X329850000Y-159400000D02*
X330850000Y-159400000D01*
X330850000Y-145400000D02*
X330850000Y-146400000D01*
%TO.C,K43*%
X73962500Y-165450000D02*
X73962500Y-164450000D01*
X73962500Y-178450000D02*
X74962500Y-178450000D01*
X74962500Y-164450000D02*
X73962500Y-164450000D01*
X73962500Y-178450000D02*
X73962500Y-177450000D01*
X87962500Y-177450000D02*
X87962500Y-178450000D01*
X87962500Y-164450000D02*
X86962500Y-164450000D01*
X86962500Y-178450000D02*
X87962500Y-178450000D01*
X87962500Y-164450000D02*
X87962500Y-165450000D01*
%TO.C,K44*%
X118918750Y-164450000D02*
X118918750Y-165450000D01*
X117918750Y-178450000D02*
X118918750Y-178450000D01*
X118918750Y-164450000D02*
X117918750Y-164450000D01*
X118918750Y-177450000D02*
X118918750Y-178450000D01*
X104918750Y-178450000D02*
X104918750Y-177450000D01*
X105918750Y-164450000D02*
X104918750Y-164450000D01*
X104918750Y-178450000D02*
X105918750Y-178450000D01*
X104918750Y-165450000D02*
X104918750Y-164450000D01*
%TO.C,K45*%
X137968750Y-164450000D02*
X137968750Y-165450000D01*
X136968750Y-178450000D02*
X137968750Y-178450000D01*
X137968750Y-164450000D02*
X136968750Y-164450000D01*
X137968750Y-177450000D02*
X137968750Y-178450000D01*
X123968750Y-178450000D02*
X123968750Y-177450000D01*
X124968750Y-164450000D02*
X123968750Y-164450000D01*
X123968750Y-178450000D02*
X124968750Y-178450000D01*
X123968750Y-165450000D02*
X123968750Y-164450000D01*
%TO.C,K46*%
X157018750Y-164450000D02*
X157018750Y-165450000D01*
X156018750Y-178450000D02*
X157018750Y-178450000D01*
X157018750Y-164450000D02*
X156018750Y-164450000D01*
X157018750Y-177450000D02*
X157018750Y-178450000D01*
X143018750Y-178450000D02*
X143018750Y-177450000D01*
X144018750Y-164450000D02*
X143018750Y-164450000D01*
X143018750Y-178450000D02*
X144018750Y-178450000D01*
X143018750Y-165450000D02*
X143018750Y-164450000D01*
%TO.C,K47*%
X162068750Y-165450000D02*
X162068750Y-164450000D01*
X162068750Y-178450000D02*
X163068750Y-178450000D01*
X163068750Y-164450000D02*
X162068750Y-164450000D01*
X162068750Y-178450000D02*
X162068750Y-177450000D01*
X176068750Y-177450000D02*
X176068750Y-178450000D01*
X176068750Y-164450000D02*
X175068750Y-164450000D01*
X175068750Y-178450000D02*
X176068750Y-178450000D01*
X176068750Y-164450000D02*
X176068750Y-165450000D01*
%TO.C,K48*%
X195118750Y-164450000D02*
X195118750Y-165450000D01*
X194118750Y-178450000D02*
X195118750Y-178450000D01*
X195118750Y-164450000D02*
X194118750Y-164450000D01*
X195118750Y-177450000D02*
X195118750Y-178450000D01*
X181118750Y-178450000D02*
X181118750Y-177450000D01*
X182118750Y-164450000D02*
X181118750Y-164450000D01*
X181118750Y-178450000D02*
X182118750Y-178450000D01*
X181118750Y-165450000D02*
X181118750Y-164450000D01*
%TO.C,K49*%
X200168750Y-165450000D02*
X200168750Y-164450000D01*
X200168750Y-178450000D02*
X201168750Y-178450000D01*
X201168750Y-164450000D02*
X200168750Y-164450000D01*
X200168750Y-178450000D02*
X200168750Y-177450000D01*
X214168750Y-177450000D02*
X214168750Y-178450000D01*
X214168750Y-164450000D02*
X213168750Y-164450000D01*
X213168750Y-178450000D02*
X214168750Y-178450000D01*
X214168750Y-164450000D02*
X214168750Y-165450000D01*
%TO.C,K50*%
X233218750Y-164450000D02*
X233218750Y-165450000D01*
X232218750Y-178450000D02*
X233218750Y-178450000D01*
X233218750Y-164450000D02*
X232218750Y-164450000D01*
X233218750Y-177450000D02*
X233218750Y-178450000D01*
X219218750Y-178450000D02*
X219218750Y-177450000D01*
X220218750Y-164450000D02*
X219218750Y-164450000D01*
X219218750Y-178450000D02*
X220218750Y-178450000D01*
X219218750Y-165450000D02*
X219218750Y-164450000D01*
%TO.C,K51*%
X238268750Y-165450000D02*
X238268750Y-164450000D01*
X238268750Y-178450000D02*
X239268750Y-178450000D01*
X239268750Y-164450000D02*
X238268750Y-164450000D01*
X238268750Y-178450000D02*
X238268750Y-177450000D01*
X252268750Y-177450000D02*
X252268750Y-178450000D01*
X252268750Y-164450000D02*
X251268750Y-164450000D01*
X251268750Y-178450000D02*
X252268750Y-178450000D01*
X252268750Y-164450000D02*
X252268750Y-165450000D01*
%TO.C,K52*%
X257318750Y-165450000D02*
X257318750Y-164450000D01*
X257318750Y-178450000D02*
X258318750Y-178450000D01*
X258318750Y-164450000D02*
X257318750Y-164450000D01*
X257318750Y-178450000D02*
X257318750Y-177450000D01*
X271318750Y-177450000D02*
X271318750Y-178450000D01*
X271318750Y-164450000D02*
X270318750Y-164450000D01*
X270318750Y-178450000D02*
X271318750Y-178450000D01*
X271318750Y-164450000D02*
X271318750Y-165450000D01*
%TO.C,K53*%
X276368750Y-165450000D02*
X276368750Y-164450000D01*
X276368750Y-178450000D02*
X277368750Y-178450000D01*
X277368750Y-164450000D02*
X276368750Y-164450000D01*
X276368750Y-178450000D02*
X276368750Y-177450000D01*
X290368750Y-177450000D02*
X290368750Y-178450000D01*
X290368750Y-164450000D02*
X289368750Y-164450000D01*
X289368750Y-178450000D02*
X290368750Y-178450000D01*
X290368750Y-164450000D02*
X290368750Y-165450000D01*
%TO.C,K54*%
X316562500Y-164450000D02*
X316562500Y-165450000D01*
X315562500Y-178450000D02*
X316562500Y-178450000D01*
X316562500Y-164450000D02*
X315562500Y-164450000D01*
X316562500Y-177450000D02*
X316562500Y-178450000D01*
X302562500Y-178450000D02*
X302562500Y-177450000D01*
X303562500Y-164450000D02*
X302562500Y-164450000D01*
X302562500Y-178450000D02*
X303562500Y-178450000D01*
X302562500Y-165450000D02*
X302562500Y-164450000D01*
%TO.C,K57*%
X64437500Y-184500000D02*
X64437500Y-183500000D01*
X64437500Y-197500000D02*
X65437500Y-197500000D01*
X65437500Y-183500000D02*
X64437500Y-183500000D01*
X64437500Y-197500000D02*
X64437500Y-196500000D01*
X78437500Y-196500000D02*
X78437500Y-197500000D01*
X78437500Y-183500000D02*
X77437500Y-183500000D01*
X77437500Y-197500000D02*
X78437500Y-197500000D01*
X78437500Y-183500000D02*
X78437500Y-184500000D01*
%TO.C,K58*%
X102250000Y-183500000D02*
X102250000Y-184500000D01*
X101250000Y-197500000D02*
X102250000Y-197500000D01*
X102250000Y-183500000D02*
X101250000Y-183500000D01*
X102250000Y-196500000D02*
X102250000Y-197500000D01*
X88250000Y-197500000D02*
X88250000Y-196500000D01*
X89250000Y-183500000D02*
X88250000Y-183500000D01*
X88250000Y-197500000D02*
X89250000Y-197500000D01*
X88250000Y-184500000D02*
X88250000Y-183500000D01*
%TO.C,K59*%
X126062500Y-183500000D02*
X126062500Y-184500000D01*
X125062500Y-197500000D02*
X126062500Y-197500000D01*
X126062500Y-183500000D02*
X125062500Y-183500000D01*
X126062500Y-196500000D02*
X126062500Y-197500000D01*
X112062500Y-197500000D02*
X112062500Y-196500000D01*
X113062500Y-183500000D02*
X112062500Y-183500000D01*
X112062500Y-197500000D02*
X113062500Y-197500000D01*
X112062500Y-184500000D02*
X112062500Y-183500000D01*
%TO.C,K60*%
X197500000Y-183500000D02*
X197500000Y-184500000D01*
X196500000Y-197500000D02*
X197500000Y-197500000D01*
X197500000Y-183500000D02*
X196500000Y-183500000D01*
X197500000Y-196500000D02*
X197500000Y-197500000D01*
X183500000Y-197500000D02*
X183500000Y-196500000D01*
X184500000Y-183500000D02*
X183500000Y-183500000D01*
X183500000Y-197500000D02*
X184500000Y-197500000D01*
X183500000Y-184500000D02*
X183500000Y-183500000D01*
%TO.C,K61*%
X271318750Y-183500000D02*
X271318750Y-184500000D01*
X270318750Y-197500000D02*
X271318750Y-197500000D01*
X271318750Y-183500000D02*
X270318750Y-183500000D01*
X271318750Y-196500000D02*
X271318750Y-197500000D01*
X257318750Y-197500000D02*
X257318750Y-196500000D01*
X258318750Y-183500000D02*
X257318750Y-183500000D01*
X257318750Y-197500000D02*
X258318750Y-197500000D01*
X257318750Y-184500000D02*
X257318750Y-183500000D01*
%TO.C,K62*%
X299893750Y-183500000D02*
X299893750Y-184500000D01*
X298893750Y-197500000D02*
X299893750Y-197500000D01*
X299893750Y-183500000D02*
X298893750Y-183500000D01*
X299893750Y-196500000D02*
X299893750Y-197500000D01*
X285893750Y-197500000D02*
X285893750Y-196500000D01*
X286893750Y-183500000D02*
X285893750Y-183500000D01*
X285893750Y-197500000D02*
X286893750Y-197500000D01*
X285893750Y-184500000D02*
X285893750Y-183500000D01*
%TO.C,K63*%
X354850000Y-108300000D02*
X354850000Y-107300000D01*
X354850000Y-121300000D02*
X355850000Y-121300000D01*
X355850000Y-107300000D02*
X354850000Y-107300000D01*
X354850000Y-121300000D02*
X354850000Y-120300000D01*
X368850000Y-120300000D02*
X368850000Y-121300000D01*
X368850000Y-107300000D02*
X367850000Y-107300000D01*
X367850000Y-121300000D02*
X368850000Y-121300000D01*
X368850000Y-107300000D02*
X368850000Y-108300000D01*
%TO.C,K64*%
X330850000Y-188262500D02*
X330850000Y-189262500D01*
X329850000Y-202262500D02*
X330850000Y-202262500D01*
X330850000Y-188262500D02*
X329850000Y-188262500D01*
X330850000Y-201262500D02*
X330850000Y-202262500D01*
X316850000Y-202262500D02*
X316850000Y-201262500D01*
X317850000Y-188262500D02*
X316850000Y-188262500D01*
X316850000Y-202262500D02*
X317850000Y-202262500D01*
X316850000Y-189262500D02*
X316850000Y-188262500D01*
%TO.C,K65*%
X349900000Y-188262500D02*
X349900000Y-189262500D01*
X348900000Y-202262500D02*
X349900000Y-202262500D01*
X349900000Y-188262500D02*
X348900000Y-188262500D01*
X349900000Y-201262500D02*
X349900000Y-202262500D01*
X335900000Y-202262500D02*
X335900000Y-201262500D01*
X336900000Y-188262500D02*
X335900000Y-188262500D01*
X335900000Y-202262500D02*
X336900000Y-202262500D01*
X335900000Y-189262500D02*
X335900000Y-188262500D01*
%TO.C,K66*%
X368950000Y-188262500D02*
X368950000Y-189262500D01*
X367950000Y-202262500D02*
X368950000Y-202262500D01*
X368950000Y-188262500D02*
X367950000Y-188262500D01*
X368950000Y-201262500D02*
X368950000Y-202262500D01*
X354950000Y-202262500D02*
X354950000Y-201262500D01*
X355950000Y-188262500D02*
X354950000Y-188262500D01*
X354950000Y-202262500D02*
X355950000Y-202262500D01*
X354950000Y-189262500D02*
X354950000Y-188262500D01*
%TO.C,K67*%
X349900000Y-169212500D02*
X349900000Y-170212500D01*
X348900000Y-183212500D02*
X349900000Y-183212500D01*
X349900000Y-169212500D02*
X348900000Y-169212500D01*
X349900000Y-182212500D02*
X349900000Y-183212500D01*
X335900000Y-183212500D02*
X335900000Y-182212500D01*
X336900000Y-169212500D02*
X335900000Y-169212500D01*
X335900000Y-183212500D02*
X336900000Y-183212500D01*
X335900000Y-170212500D02*
X335900000Y-169212500D01*
%TO.C,K68*%
X354950000Y-127350000D02*
X354950000Y-126350000D01*
X354950000Y-140350000D02*
X355950000Y-140350000D01*
X355950000Y-126350000D02*
X354950000Y-126350000D01*
X354950000Y-140350000D02*
X354950000Y-139350000D01*
X368950000Y-139350000D02*
X368950000Y-140350000D01*
X368950000Y-126350000D02*
X367950000Y-126350000D01*
X367950000Y-140350000D02*
X368950000Y-140350000D01*
X368950000Y-126350000D02*
X368950000Y-127350000D01*
%TO.C,K69*%
X368950000Y-145400000D02*
X368950000Y-146400000D01*
X367950000Y-159400000D02*
X368950000Y-159400000D01*
X368950000Y-145400000D02*
X367950000Y-145400000D01*
X368950000Y-158400000D02*
X368950000Y-159400000D01*
X354950000Y-159400000D02*
X354950000Y-158400000D01*
X355950000Y-145400000D02*
X354950000Y-145400000D01*
X354950000Y-159400000D02*
X355950000Y-159400000D01*
X354950000Y-146400000D02*
X354950000Y-145400000D01*
D12*
%TO.C,C6*%
X272561995Y-91957903D02*
X272192529Y-91588437D01*
X271557903Y-92961995D02*
X271188437Y-92592529D01*
%TO.C,C7*%
X286763748Y-101290000D02*
X287286252Y-101290000D01*
X286763748Y-102710000D02*
X287286252Y-102710000D01*
%TO.C,C8*%
X292540000Y-90036252D02*
X292540000Y-89513748D01*
X293960000Y-90036252D02*
X293960000Y-89513748D01*
%TO.C,C9*%
X288710000Y-83286252D02*
X288710000Y-82763748D01*
X287290000Y-83286252D02*
X287290000Y-82763748D01*
%TO.C,C10*%
X293960000Y-94263748D02*
X293960000Y-94786252D01*
X292540000Y-94263748D02*
X292540000Y-94786252D01*
%TO.C,C11*%
X280710000Y-80486252D02*
X280710000Y-79963748D01*
X279290000Y-80486252D02*
X279290000Y-79963748D01*
%TO.C,R9*%
X346113748Y-95690000D02*
X346636252Y-95690000D01*
X346113748Y-97110000D02*
X346636252Y-97110000D01*
%TO.C,R10*%
X346138748Y-94310000D02*
X346661252Y-94310000D01*
X346138748Y-92890000D02*
X346661252Y-92890000D01*
%TO.C,U2*%
X305330000Y-86290000D02*
X305330000Y-98290000D01*
X343330000Y-86290000D02*
X343330000Y-98290000D01*
X305330000Y-98290000D02*
X343330000Y-98290000D01*
X305330000Y-86290000D02*
X343330000Y-86290000D01*
X340480000Y-87130000D02*
X341810000Y-87130000D01*
X340480000Y-88460000D02*
X340480000Y-87130000D01*
X340480000Y-92290000D02*
X343130000Y-92290000D01*
X343130000Y-92290000D02*
X343140000Y-97410000D01*
X340480000Y-92290000D02*
X340480000Y-97410000D01*
X340480000Y-97410000D02*
X343140000Y-97410000D01*
%TO.C,J1*%
D11*
X344947916Y-73802380D02*
X344947916Y-74516666D01*
X344900297Y-74659523D01*
X344805059Y-74754761D01*
X344662202Y-74802380D01*
X344566964Y-74802380D01*
X345947916Y-74802380D02*
X345376488Y-74802380D01*
X345662202Y-74802380D02*
X345662202Y-73802380D01*
X345566964Y-73945238D01*
X345471726Y-74040476D01*
X345376488Y-74088095D01*
%TO.C,C13*%
X352557142Y-76842857D02*
X352604761Y-76890476D01*
X352652380Y-77033333D01*
X352652380Y-77128571D01*
X352604761Y-77271428D01*
X352509523Y-77366666D01*
X352414285Y-77414285D01*
X352223809Y-77461904D01*
X352080952Y-77461904D01*
X351890476Y-77414285D01*
X351795238Y-77366666D01*
X351700000Y-77271428D01*
X351652380Y-77128571D01*
X351652380Y-77033333D01*
X351700000Y-76890476D01*
X351747619Y-76842857D01*
X352652380Y-75890476D02*
X352652380Y-76461904D01*
X352652380Y-76176190D02*
X351652380Y-76176190D01*
X351795238Y-76271428D01*
X351890476Y-76366666D01*
X351938095Y-76461904D01*
X351652380Y-75557142D02*
X351652380Y-74938095D01*
X352033333Y-75271428D01*
X352033333Y-75128571D01*
X352080952Y-75033333D01*
X352128571Y-74985714D01*
X352223809Y-74938095D01*
X352461904Y-74938095D01*
X352557142Y-74985714D01*
X352604761Y-75033333D01*
X352652380Y-75128571D01*
X352652380Y-75414285D01*
X352604761Y-75509523D01*
X352557142Y-75557142D01*
%TO.C,D37*%
X181452380Y-91333035D02*
X180452380Y-91333035D01*
X180452380Y-91094940D01*
X180500000Y-90952083D01*
X180595238Y-90856845D01*
X180690476Y-90809226D01*
X180880952Y-90761607D01*
X181023809Y-90761607D01*
X181214285Y-90809226D01*
X181309523Y-90856845D01*
X181404761Y-90952083D01*
X181452380Y-91094940D01*
X181452380Y-91333035D01*
X180452380Y-90428273D02*
X180452380Y-89809226D01*
X180833333Y-90142559D01*
X180833333Y-89999702D01*
X180880952Y-89904464D01*
X180928571Y-89856845D01*
X181023809Y-89809226D01*
X181261904Y-89809226D01*
X181357142Y-89856845D01*
X181404761Y-89904464D01*
X181452380Y-89999702D01*
X181452380Y-90285416D01*
X181404761Y-90380654D01*
X181357142Y-90428273D01*
X180452380Y-89475892D02*
X180452380Y-88809226D01*
X181452380Y-89237797D01*
%TO.C,D43*%
X85202380Y-92789035D02*
X84202380Y-92789035D01*
X84202380Y-92550940D01*
X84250000Y-92408083D01*
X84345238Y-92312845D01*
X84440476Y-92265226D01*
X84630952Y-92217607D01*
X84773809Y-92217607D01*
X84964285Y-92265226D01*
X85059523Y-92312845D01*
X85154761Y-92408083D01*
X85202380Y-92550940D01*
X85202380Y-92789035D01*
X84535714Y-91360464D02*
X85202380Y-91360464D01*
X84154761Y-91598559D02*
X84869047Y-91836654D01*
X84869047Y-91217607D01*
X84202380Y-90931892D02*
X84202380Y-90312845D01*
X84583333Y-90646178D01*
X84583333Y-90503321D01*
X84630952Y-90408083D01*
X84678571Y-90360464D01*
X84773809Y-90312845D01*
X85011904Y-90312845D01*
X85107142Y-90360464D01*
X85154761Y-90408083D01*
X85202380Y-90503321D01*
X85202380Y-90789035D01*
X85154761Y-90884273D01*
X85107142Y-90931892D01*
%TO.C,R1*%
X326033333Y-82852380D02*
X325700000Y-82376190D01*
X325461904Y-82852380D02*
X325461904Y-81852380D01*
X325842857Y-81852380D01*
X325938095Y-81900000D01*
X325985714Y-81947619D01*
X326033333Y-82042857D01*
X326033333Y-82185714D01*
X325985714Y-82280952D01*
X325938095Y-82328571D01*
X325842857Y-82376190D01*
X325461904Y-82376190D01*
X326985714Y-82852380D02*
X326414285Y-82852380D01*
X326700000Y-82852380D02*
X326700000Y-81852380D01*
X326604761Y-81995238D01*
X326509523Y-82090476D01*
X326414285Y-82138095D01*
%TO.C,R2*%
X322722583Y-82852380D02*
X322389250Y-82376190D01*
X322151154Y-82852380D02*
X322151154Y-81852380D01*
X322532107Y-81852380D01*
X322627345Y-81900000D01*
X322674964Y-81947619D01*
X322722583Y-82042857D01*
X322722583Y-82185714D01*
X322674964Y-82280952D01*
X322627345Y-82328571D01*
X322532107Y-82376190D01*
X322151154Y-82376190D01*
X323103535Y-81947619D02*
X323151154Y-81900000D01*
X323246392Y-81852380D01*
X323484488Y-81852380D01*
X323579726Y-81900000D01*
X323627345Y-81947619D01*
X323674964Y-82042857D01*
X323674964Y-82138095D01*
X323627345Y-82280952D01*
X323055916Y-82852380D01*
X323674964Y-82852380D01*
%TO.C,R3*%
X329833333Y-82852380D02*
X329500000Y-82376190D01*
X329261904Y-82852380D02*
X329261904Y-81852380D01*
X329642857Y-81852380D01*
X329738095Y-81900000D01*
X329785714Y-81947619D01*
X329833333Y-82042857D01*
X329833333Y-82185714D01*
X329785714Y-82280952D01*
X329738095Y-82328571D01*
X329642857Y-82376190D01*
X329261904Y-82376190D01*
X330166666Y-81852380D02*
X330785714Y-81852380D01*
X330452380Y-82233333D01*
X330595238Y-82233333D01*
X330690476Y-82280952D01*
X330738095Y-82328571D01*
X330785714Y-82423809D01*
X330785714Y-82661904D01*
X330738095Y-82757142D01*
X330690476Y-82804761D01*
X330595238Y-82852380D01*
X330309523Y-82852380D01*
X330214285Y-82804761D01*
X330166666Y-82757142D01*
%TO.C,R4*%
X332600083Y-82852380D02*
X332266750Y-82376190D01*
X332028654Y-82852380D02*
X332028654Y-81852380D01*
X332409607Y-81852380D01*
X332504845Y-81900000D01*
X332552464Y-81947619D01*
X332600083Y-82042857D01*
X332600083Y-82185714D01*
X332552464Y-82280952D01*
X332504845Y-82328571D01*
X332409607Y-82376190D01*
X332028654Y-82376190D01*
X333457226Y-82185714D02*
X333457226Y-82852380D01*
X333219130Y-81804761D02*
X332981035Y-82519047D01*
X333600083Y-82519047D01*
%TO.C,R5*%
X271808333Y-99302380D02*
X271475000Y-98826190D01*
X271236904Y-99302380D02*
X271236904Y-98302380D01*
X271617857Y-98302380D01*
X271713095Y-98350000D01*
X271760714Y-98397619D01*
X271808333Y-98492857D01*
X271808333Y-98635714D01*
X271760714Y-98730952D01*
X271713095Y-98778571D01*
X271617857Y-98826190D01*
X271236904Y-98826190D01*
X272713095Y-98302380D02*
X272236904Y-98302380D01*
X272189285Y-98778571D01*
X272236904Y-98730952D01*
X272332142Y-98683333D01*
X272570238Y-98683333D01*
X272665476Y-98730952D01*
X272713095Y-98778571D01*
X272760714Y-98873809D01*
X272760714Y-99111904D01*
X272713095Y-99207142D01*
X272665476Y-99254761D01*
X272570238Y-99302380D01*
X272332142Y-99302380D01*
X272236904Y-99254761D01*
X272189285Y-99207142D01*
%TO.C,R6*%
X293633333Y-84002380D02*
X293300000Y-83526190D01*
X293061904Y-84002380D02*
X293061904Y-83002380D01*
X293442857Y-83002380D01*
X293538095Y-83050000D01*
X293585714Y-83097619D01*
X293633333Y-83192857D01*
X293633333Y-83335714D01*
X293585714Y-83430952D01*
X293538095Y-83478571D01*
X293442857Y-83526190D01*
X293061904Y-83526190D01*
X294490476Y-83002380D02*
X294300000Y-83002380D01*
X294204761Y-83050000D01*
X294157142Y-83097619D01*
X294061904Y-83240476D01*
X294014285Y-83430952D01*
X294014285Y-83811904D01*
X294061904Y-83907142D01*
X294109523Y-83954761D01*
X294204761Y-84002380D01*
X294395238Y-84002380D01*
X294490476Y-83954761D01*
X294538095Y-83907142D01*
X294585714Y-83811904D01*
X294585714Y-83573809D01*
X294538095Y-83478571D01*
X294490476Y-83430952D01*
X294395238Y-83383333D01*
X294204761Y-83383333D01*
X294109523Y-83430952D01*
X294061904Y-83478571D01*
X294014285Y-83573809D01*
%TO.C,R7*%
X347383333Y-111702380D02*
X347050000Y-111226190D01*
X346811904Y-111702380D02*
X346811904Y-110702380D01*
X347192857Y-110702380D01*
X347288095Y-110750000D01*
X347335714Y-110797619D01*
X347383333Y-110892857D01*
X347383333Y-111035714D01*
X347335714Y-111130952D01*
X347288095Y-111178571D01*
X347192857Y-111226190D01*
X346811904Y-111226190D01*
X347716666Y-110702380D02*
X348383333Y-110702380D01*
X347954761Y-111702380D01*
%TO.C,R8*%
X347383333Y-120702380D02*
X347050000Y-120226190D01*
X346811904Y-120702380D02*
X346811904Y-119702380D01*
X347192857Y-119702380D01*
X347288095Y-119750000D01*
X347335714Y-119797619D01*
X347383333Y-119892857D01*
X347383333Y-120035714D01*
X347335714Y-120130952D01*
X347288095Y-120178571D01*
X347192857Y-120226190D01*
X346811904Y-120226190D01*
X347954761Y-120130952D02*
X347859523Y-120083333D01*
X347811904Y-120035714D01*
X347764285Y-119940476D01*
X347764285Y-119892857D01*
X347811904Y-119797619D01*
X347859523Y-119750000D01*
X347954761Y-119702380D01*
X348145238Y-119702380D01*
X348240476Y-119750000D01*
X348288095Y-119797619D01*
X348335714Y-119892857D01*
X348335714Y-119940476D01*
X348288095Y-120035714D01*
X348240476Y-120083333D01*
X348145238Y-120130952D01*
X347954761Y-120130952D01*
X347859523Y-120178571D01*
X347811904Y-120226190D01*
X347764285Y-120321428D01*
X347764285Y-120511904D01*
X347811904Y-120607142D01*
X347859523Y-120654761D01*
X347954761Y-120702380D01*
X348145238Y-120702380D01*
X348240476Y-120654761D01*
X348288095Y-120607142D01*
X348335714Y-120511904D01*
X348335714Y-120321428D01*
X348288095Y-120226190D01*
X348240476Y-120178571D01*
X348145238Y-120130952D01*
%TO.C,SW1*%
X305216666Y-75754761D02*
X305359523Y-75802380D01*
X305597619Y-75802380D01*
X305692857Y-75754761D01*
X305740476Y-75707142D01*
X305788095Y-75611904D01*
X305788095Y-75516666D01*
X305740476Y-75421428D01*
X305692857Y-75373809D01*
X305597619Y-75326190D01*
X305407142Y-75278571D01*
X305311904Y-75230952D01*
X305264285Y-75183333D01*
X305216666Y-75088095D01*
X305216666Y-74992857D01*
X305264285Y-74897619D01*
X305311904Y-74850000D01*
X305407142Y-74802380D01*
X305645238Y-74802380D01*
X305788095Y-74850000D01*
X306121428Y-74802380D02*
X306359523Y-75802380D01*
X306550000Y-75088095D01*
X306740476Y-75802380D01*
X306978571Y-74802380D01*
X307883333Y-75802380D02*
X307311904Y-75802380D01*
X307597619Y-75802380D02*
X307597619Y-74802380D01*
X307502380Y-74945238D01*
X307407142Y-75040476D01*
X307311904Y-75088095D01*
%TO.C,SW2*%
X355211011Y-86733333D02*
X355258630Y-86590476D01*
X355258630Y-86352380D01*
X355211011Y-86257142D01*
X355163392Y-86209523D01*
X355068154Y-86161904D01*
X354972916Y-86161904D01*
X354877678Y-86209523D01*
X354830059Y-86257142D01*
X354782440Y-86352380D01*
X354734821Y-86542857D01*
X354687202Y-86638095D01*
X354639583Y-86685714D01*
X354544345Y-86733333D01*
X354449107Y-86733333D01*
X354353869Y-86685714D01*
X354306250Y-86638095D01*
X354258630Y-86542857D01*
X354258630Y-86304761D01*
X354306250Y-86161904D01*
X354258630Y-85828571D02*
X355258630Y-85590476D01*
X354544345Y-85400000D01*
X355258630Y-85209523D01*
X354258630Y-84971428D01*
X354353869Y-84638095D02*
X354306250Y-84590476D01*
X354258630Y-84495238D01*
X354258630Y-84257142D01*
X354306250Y-84161904D01*
X354353869Y-84114285D01*
X354449107Y-84066666D01*
X354544345Y-84066666D01*
X354687202Y-84114285D01*
X355258630Y-84685714D01*
X355258630Y-84066666D01*
%TO.C,U1*%
X286941972Y-96819468D02*
X287514392Y-97391888D01*
X287615407Y-97425560D01*
X287682751Y-97425560D01*
X287783766Y-97391888D01*
X287918453Y-97257201D01*
X287952125Y-97156186D01*
X287952125Y-97088842D01*
X287918453Y-96987827D01*
X287346033Y-96415407D01*
X288760247Y-96415407D02*
X288356186Y-96819468D01*
X288558216Y-96617438D02*
X287851110Y-95910331D01*
X287884781Y-96078690D01*
X287884781Y-96213377D01*
X287851110Y-96314392D01*
%TO.C,Y1*%
X273043809Y-79616190D02*
X273043809Y-80092380D01*
X272710476Y-79092380D02*
X273043809Y-79616190D01*
X273377142Y-79092380D01*
X274234285Y-80092380D02*
X273662857Y-80092380D01*
X273948571Y-80092380D02*
X273948571Y-79092380D01*
X273853333Y-79235238D01*
X273758095Y-79330476D01*
X273662857Y-79378095D01*
%TO.C,C1*%
X277663333Y-80207142D02*
X277615714Y-80254761D01*
X277472857Y-80302380D01*
X277377619Y-80302380D01*
X277234761Y-80254761D01*
X277139523Y-80159523D01*
X277091904Y-80064285D01*
X277044285Y-79873809D01*
X277044285Y-79730952D01*
X277091904Y-79540476D01*
X277139523Y-79445238D01*
X277234761Y-79350000D01*
X277377619Y-79302380D01*
X277472857Y-79302380D01*
X277615714Y-79350000D01*
X277663333Y-79397619D01*
X278615714Y-80302380D02*
X278044285Y-80302380D01*
X278330000Y-80302380D02*
X278330000Y-79302380D01*
X278234761Y-79445238D01*
X278139523Y-79540476D01*
X278044285Y-79588095D01*
%TO.C,C2*%
X269213333Y-80868642D02*
X269165714Y-80916261D01*
X269022857Y-80963880D01*
X268927619Y-80963880D01*
X268784761Y-80916261D01*
X268689523Y-80821023D01*
X268641904Y-80725785D01*
X268594285Y-80535309D01*
X268594285Y-80392452D01*
X268641904Y-80201976D01*
X268689523Y-80106738D01*
X268784761Y-80011500D01*
X268927619Y-79963880D01*
X269022857Y-79963880D01*
X269165714Y-80011500D01*
X269213333Y-80059119D01*
X269594285Y-80059119D02*
X269641904Y-80011500D01*
X269737142Y-79963880D01*
X269975238Y-79963880D01*
X270070476Y-80011500D01*
X270118095Y-80059119D01*
X270165714Y-80154357D01*
X270165714Y-80249595D01*
X270118095Y-80392452D01*
X269546666Y-80963880D01*
X270165714Y-80963880D01*
%TO.C,C3*%
X290083333Y-80607142D02*
X290035714Y-80654761D01*
X289892857Y-80702380D01*
X289797619Y-80702380D01*
X289654761Y-80654761D01*
X289559523Y-80559523D01*
X289511904Y-80464285D01*
X289464285Y-80273809D01*
X289464285Y-80130952D01*
X289511904Y-79940476D01*
X289559523Y-79845238D01*
X289654761Y-79750000D01*
X289797619Y-79702380D01*
X289892857Y-79702380D01*
X290035714Y-79750000D01*
X290083333Y-79797619D01*
X290416666Y-79702380D02*
X291035714Y-79702380D01*
X290702380Y-80083333D01*
X290845238Y-80083333D01*
X290940476Y-80130952D01*
X290988095Y-80178571D01*
X291035714Y-80273809D01*
X291035714Y-80511904D01*
X290988095Y-80607142D01*
X290940476Y-80654761D01*
X290845238Y-80702380D01*
X290559523Y-80702380D01*
X290464285Y-80654761D01*
X290416666Y-80607142D01*
%TO.C,C4*%
X347383333Y-114607142D02*
X347335714Y-114654761D01*
X347192857Y-114702380D01*
X347097619Y-114702380D01*
X346954761Y-114654761D01*
X346859523Y-114559523D01*
X346811904Y-114464285D01*
X346764285Y-114273809D01*
X346764285Y-114130952D01*
X346811904Y-113940476D01*
X346859523Y-113845238D01*
X346954761Y-113750000D01*
X347097619Y-113702380D01*
X347192857Y-113702380D01*
X347335714Y-113750000D01*
X347383333Y-113797619D01*
X348240476Y-114035714D02*
X348240476Y-114702380D01*
X348002380Y-113654761D02*
X347764285Y-114369047D01*
X348383333Y-114369047D01*
%TO.C,C5*%
X347383333Y-117607142D02*
X347335714Y-117654761D01*
X347192857Y-117702380D01*
X347097619Y-117702380D01*
X346954761Y-117654761D01*
X346859523Y-117559523D01*
X346811904Y-117464285D01*
X346764285Y-117273809D01*
X346764285Y-117130952D01*
X346811904Y-116940476D01*
X346859523Y-116845238D01*
X346954761Y-116750000D01*
X347097619Y-116702380D01*
X347192857Y-116702380D01*
X347335714Y-116750000D01*
X347383333Y-116797619D01*
X348288095Y-116702380D02*
X347811904Y-116702380D01*
X347764285Y-117178571D01*
X347811904Y-117130952D01*
X347907142Y-117083333D01*
X348145238Y-117083333D01*
X348240476Y-117130952D01*
X348288095Y-117178571D01*
X348335714Y-117273809D01*
X348335714Y-117511904D01*
X348288095Y-117607142D01*
X348240476Y-117654761D01*
X348145238Y-117702380D01*
X347907142Y-117702380D01*
X347811904Y-117654761D01*
X347764285Y-117607142D01*
%TO.C,D1*%
X76952380Y-88356845D02*
X75952380Y-88356845D01*
X75952380Y-88118750D01*
X76000000Y-87975892D01*
X76095238Y-87880654D01*
X76190476Y-87833035D01*
X76380952Y-87785416D01*
X76523809Y-87785416D01*
X76714285Y-87833035D01*
X76809523Y-87880654D01*
X76904761Y-87975892D01*
X76952380Y-88118750D01*
X76952380Y-88356845D01*
X76952380Y-86833035D02*
X76952380Y-87404464D01*
X76952380Y-87118750D02*
X75952380Y-87118750D01*
X76095238Y-87213988D01*
X76190476Y-87309226D01*
X76238095Y-87404464D01*
%TO.C,D2*%
X104452380Y-91225595D02*
X103452380Y-91225595D01*
X103452380Y-90987500D01*
X103500000Y-90844642D01*
X103595238Y-90749404D01*
X103690476Y-90701785D01*
X103880952Y-90654166D01*
X104023809Y-90654166D01*
X104214285Y-90701785D01*
X104309523Y-90749404D01*
X104404761Y-90844642D01*
X104452380Y-90987500D01*
X104452380Y-91225595D01*
X103547619Y-90273214D02*
X103500000Y-90225595D01*
X103452380Y-90130357D01*
X103452380Y-89892261D01*
X103500000Y-89797023D01*
X103547619Y-89749404D01*
X103642857Y-89701785D01*
X103738095Y-89701785D01*
X103880952Y-89749404D01*
X104452380Y-90320833D01*
X104452380Y-89701785D01*
%TO.C,D3*%
X118202380Y-92856845D02*
X117202380Y-92856845D01*
X117202380Y-92618750D01*
X117250000Y-92475892D01*
X117345238Y-92380654D01*
X117440476Y-92333035D01*
X117630952Y-92285416D01*
X117773809Y-92285416D01*
X117964285Y-92333035D01*
X118059523Y-92380654D01*
X118154761Y-92475892D01*
X118202380Y-92618750D01*
X118202380Y-92856845D01*
X117202380Y-91952083D02*
X117202380Y-91333035D01*
X117583333Y-91666369D01*
X117583333Y-91523511D01*
X117630952Y-91428273D01*
X117678571Y-91380654D01*
X117773809Y-91333035D01*
X118011904Y-91333035D01*
X118107142Y-91380654D01*
X118154761Y-91428273D01*
X118202380Y-91523511D01*
X118202380Y-91809226D01*
X118154761Y-91904464D01*
X118107142Y-91952083D01*
%TO.C,D4*%
X129202380Y-92856845D02*
X128202380Y-92856845D01*
X128202380Y-92618750D01*
X128250000Y-92475892D01*
X128345238Y-92380654D01*
X128440476Y-92333035D01*
X128630952Y-92285416D01*
X128773809Y-92285416D01*
X128964285Y-92333035D01*
X129059523Y-92380654D01*
X129154761Y-92475892D01*
X129202380Y-92618750D01*
X129202380Y-92856845D01*
X128535714Y-91428273D02*
X129202380Y-91428273D01*
X128154761Y-91666369D02*
X128869047Y-91904464D01*
X128869047Y-91285416D01*
%TO.C,D5*%
X140202380Y-92856845D02*
X139202380Y-92856845D01*
X139202380Y-92618750D01*
X139250000Y-92475892D01*
X139345238Y-92380654D01*
X139440476Y-92333035D01*
X139630952Y-92285416D01*
X139773809Y-92285416D01*
X139964285Y-92333035D01*
X140059523Y-92380654D01*
X140154761Y-92475892D01*
X140202380Y-92618750D01*
X140202380Y-92856845D01*
X139202380Y-91380654D02*
X139202380Y-91856845D01*
X139678571Y-91904464D01*
X139630952Y-91856845D01*
X139583333Y-91761607D01*
X139583333Y-91523511D01*
X139630952Y-91428273D01*
X139678571Y-91380654D01*
X139773809Y-91333035D01*
X140011904Y-91333035D01*
X140107142Y-91380654D01*
X140154761Y-91428273D01*
X140202380Y-91523511D01*
X140202380Y-91761607D01*
X140154761Y-91856845D01*
X140107142Y-91904464D01*
%TO.C,D6*%
X153952380Y-88356845D02*
X152952380Y-88356845D01*
X152952380Y-88118750D01*
X153000000Y-87975892D01*
X153095238Y-87880654D01*
X153190476Y-87833035D01*
X153380952Y-87785416D01*
X153523809Y-87785416D01*
X153714285Y-87833035D01*
X153809523Y-87880654D01*
X153904761Y-87975892D01*
X153952380Y-88118750D01*
X153952380Y-88356845D01*
X152952380Y-86928273D02*
X152952380Y-87118750D01*
X153000000Y-87213988D01*
X153047619Y-87261607D01*
X153190476Y-87356845D01*
X153380952Y-87404464D01*
X153761904Y-87404464D01*
X153857142Y-87356845D01*
X153904761Y-87309226D01*
X153952380Y-87213988D01*
X153952380Y-87023511D01*
X153904761Y-86928273D01*
X153857142Y-86880654D01*
X153761904Y-86833035D01*
X153523809Y-86833035D01*
X153428571Y-86880654D01*
X153380952Y-86928273D01*
X153333333Y-87023511D01*
X153333333Y-87213988D01*
X153380952Y-87309226D01*
X153428571Y-87356845D01*
X153523809Y-87404464D01*
%TO.C,D7*%
X164952380Y-88356845D02*
X163952380Y-88356845D01*
X163952380Y-88118750D01*
X164000000Y-87975892D01*
X164095238Y-87880654D01*
X164190476Y-87833035D01*
X164380952Y-87785416D01*
X164523809Y-87785416D01*
X164714285Y-87833035D01*
X164809523Y-87880654D01*
X164904761Y-87975892D01*
X164952380Y-88118750D01*
X164952380Y-88356845D01*
X163952380Y-87452083D02*
X163952380Y-86785416D01*
X164952380Y-87213988D01*
%TO.C,D8*%
X175952380Y-88356845D02*
X174952380Y-88356845D01*
X174952380Y-88118750D01*
X175000000Y-87975892D01*
X175095238Y-87880654D01*
X175190476Y-87833035D01*
X175380952Y-87785416D01*
X175523809Y-87785416D01*
X175714285Y-87833035D01*
X175809523Y-87880654D01*
X175904761Y-87975892D01*
X175952380Y-88118750D01*
X175952380Y-88356845D01*
X175380952Y-87213988D02*
X175333333Y-87309226D01*
X175285714Y-87356845D01*
X175190476Y-87404464D01*
X175142857Y-87404464D01*
X175047619Y-87356845D01*
X175000000Y-87309226D01*
X174952380Y-87213988D01*
X174952380Y-87023511D01*
X175000000Y-86928273D01*
X175047619Y-86880654D01*
X175142857Y-86833035D01*
X175190476Y-86833035D01*
X175285714Y-86880654D01*
X175333333Y-86928273D01*
X175380952Y-87023511D01*
X175380952Y-87213988D01*
X175428571Y-87309226D01*
X175476190Y-87356845D01*
X175571428Y-87404464D01*
X175761904Y-87404464D01*
X175857142Y-87356845D01*
X175904761Y-87309226D01*
X175952380Y-87213988D01*
X175952380Y-87023511D01*
X175904761Y-86928273D01*
X175857142Y-86880654D01*
X175761904Y-86833035D01*
X175571428Y-86833035D01*
X175476190Y-86880654D01*
X175428571Y-86928273D01*
X175380952Y-87023511D01*
%TO.C,D9*%
X186952380Y-88356845D02*
X185952380Y-88356845D01*
X185952380Y-88118750D01*
X186000000Y-87975892D01*
X186095238Y-87880654D01*
X186190476Y-87833035D01*
X186380952Y-87785416D01*
X186523809Y-87785416D01*
X186714285Y-87833035D01*
X186809523Y-87880654D01*
X186904761Y-87975892D01*
X186952380Y-88118750D01*
X186952380Y-88356845D01*
X186952380Y-87309226D02*
X186952380Y-87118750D01*
X186904761Y-87023511D01*
X186857142Y-86975892D01*
X186714285Y-86880654D01*
X186523809Y-86833035D01*
X186142857Y-86833035D01*
X186047619Y-86880654D01*
X186000000Y-86928273D01*
X185952380Y-87023511D01*
X185952380Y-87213988D01*
X186000000Y-87309226D01*
X186047619Y-87356845D01*
X186142857Y-87404464D01*
X186380952Y-87404464D01*
X186476190Y-87356845D01*
X186523809Y-87309226D01*
X186571428Y-87213988D01*
X186571428Y-87023511D01*
X186523809Y-86928273D01*
X186476190Y-86880654D01*
X186380952Y-86833035D01*
%TO.C,D10*%
X200702380Y-89833035D02*
X199702380Y-89833035D01*
X199702380Y-89594940D01*
X199750000Y-89452083D01*
X199845238Y-89356845D01*
X199940476Y-89309226D01*
X200130952Y-89261607D01*
X200273809Y-89261607D01*
X200464285Y-89309226D01*
X200559523Y-89356845D01*
X200654761Y-89452083D01*
X200702380Y-89594940D01*
X200702380Y-89833035D01*
X200702380Y-88309226D02*
X200702380Y-88880654D01*
X200702380Y-88594940D02*
X199702380Y-88594940D01*
X199845238Y-88690178D01*
X199940476Y-88785416D01*
X199988095Y-88880654D01*
X199702380Y-87690178D02*
X199702380Y-87594940D01*
X199750000Y-87499702D01*
X199797619Y-87452083D01*
X199892857Y-87404464D01*
X200083333Y-87356845D01*
X200321428Y-87356845D01*
X200511904Y-87404464D01*
X200607142Y-87452083D01*
X200654761Y-87499702D01*
X200702380Y-87594940D01*
X200702380Y-87690178D01*
X200654761Y-87785416D01*
X200607142Y-87833035D01*
X200511904Y-87880654D01*
X200321428Y-87928273D01*
X200083333Y-87928273D01*
X199892857Y-87880654D01*
X199797619Y-87833035D01*
X199750000Y-87785416D01*
X199702380Y-87690178D01*
%TO.C,D11*%
X214452380Y-91162035D02*
X213452380Y-91162035D01*
X213452380Y-90923940D01*
X213500000Y-90781083D01*
X213595238Y-90685845D01*
X213690476Y-90638226D01*
X213880952Y-90590607D01*
X214023809Y-90590607D01*
X214214285Y-90638226D01*
X214309523Y-90685845D01*
X214404761Y-90781083D01*
X214452380Y-90923940D01*
X214452380Y-91162035D01*
X214452380Y-89638226D02*
X214452380Y-90209654D01*
X214452380Y-89923940D02*
X213452380Y-89923940D01*
X213595238Y-90019178D01*
X213690476Y-90114416D01*
X213738095Y-90209654D01*
X214452380Y-88685845D02*
X214452380Y-89257273D01*
X214452380Y-88971559D02*
X213452380Y-88971559D01*
X213595238Y-89066797D01*
X213690476Y-89162035D01*
X213738095Y-89257273D01*
%TO.C,D12*%
X225452380Y-91162035D02*
X224452380Y-91162035D01*
X224452380Y-90923940D01*
X224500000Y-90781083D01*
X224595238Y-90685845D01*
X224690476Y-90638226D01*
X224880952Y-90590607D01*
X225023809Y-90590607D01*
X225214285Y-90638226D01*
X225309523Y-90685845D01*
X225404761Y-90781083D01*
X225452380Y-90923940D01*
X225452380Y-91162035D01*
X225452380Y-89638226D02*
X225452380Y-90209654D01*
X225452380Y-89923940D02*
X224452380Y-89923940D01*
X224595238Y-90019178D01*
X224690476Y-90114416D01*
X224738095Y-90209654D01*
X224547619Y-89257273D02*
X224500000Y-89209654D01*
X224452380Y-89114416D01*
X224452380Y-88876321D01*
X224500000Y-88781083D01*
X224547619Y-88733464D01*
X224642857Y-88685845D01*
X224738095Y-88685845D01*
X224880952Y-88733464D01*
X225452380Y-89304892D01*
X225452380Y-88685845D01*
%TO.C,D13*%
X233702380Y-89662035D02*
X232702380Y-89662035D01*
X232702380Y-89423940D01*
X232750000Y-89281083D01*
X232845238Y-89185845D01*
X232940476Y-89138226D01*
X233130952Y-89090607D01*
X233273809Y-89090607D01*
X233464285Y-89138226D01*
X233559523Y-89185845D01*
X233654761Y-89281083D01*
X233702380Y-89423940D01*
X233702380Y-89662035D01*
X233702380Y-88138226D02*
X233702380Y-88709654D01*
X233702380Y-88423940D02*
X232702380Y-88423940D01*
X232845238Y-88519178D01*
X232940476Y-88614416D01*
X232988095Y-88709654D01*
X232702380Y-87804892D02*
X232702380Y-87185845D01*
X233083333Y-87519178D01*
X233083333Y-87376321D01*
X233130952Y-87281083D01*
X233178571Y-87233464D01*
X233273809Y-87185845D01*
X233511904Y-87185845D01*
X233607142Y-87233464D01*
X233654761Y-87281083D01*
X233702380Y-87376321D01*
X233702380Y-87662035D01*
X233654761Y-87757273D01*
X233607142Y-87804892D01*
%TO.C,D14*%
X239202380Y-92662035D02*
X238202380Y-92662035D01*
X238202380Y-92423940D01*
X238250000Y-92281083D01*
X238345238Y-92185845D01*
X238440476Y-92138226D01*
X238630952Y-92090607D01*
X238773809Y-92090607D01*
X238964285Y-92138226D01*
X239059523Y-92185845D01*
X239154761Y-92281083D01*
X239202380Y-92423940D01*
X239202380Y-92662035D01*
X239202380Y-91138226D02*
X239202380Y-91709654D01*
X239202380Y-91423940D02*
X238202380Y-91423940D01*
X238345238Y-91519178D01*
X238440476Y-91614416D01*
X238488095Y-91709654D01*
X238535714Y-90281083D02*
X239202380Y-90281083D01*
X238154761Y-90519178D02*
X238869047Y-90757273D01*
X238869047Y-90138226D01*
%TO.C,D15*%
X79702380Y-89852535D02*
X78702380Y-89852535D01*
X78702380Y-89614440D01*
X78750000Y-89471583D01*
X78845238Y-89376345D01*
X78940476Y-89328726D01*
X79130952Y-89281107D01*
X79273809Y-89281107D01*
X79464285Y-89328726D01*
X79559523Y-89376345D01*
X79654761Y-89471583D01*
X79702380Y-89614440D01*
X79702380Y-89852535D01*
X79702380Y-88328726D02*
X79702380Y-88900154D01*
X79702380Y-88614440D02*
X78702380Y-88614440D01*
X78845238Y-88709678D01*
X78940476Y-88804916D01*
X78988095Y-88900154D01*
X78702380Y-87423964D02*
X78702380Y-87900154D01*
X79178571Y-87947773D01*
X79130952Y-87900154D01*
X79083333Y-87804916D01*
X79083333Y-87566821D01*
X79130952Y-87471583D01*
X79178571Y-87423964D01*
X79273809Y-87376345D01*
X79511904Y-87376345D01*
X79607142Y-87423964D01*
X79654761Y-87471583D01*
X79702380Y-87566821D01*
X79702380Y-87804916D01*
X79654761Y-87900154D01*
X79607142Y-87947773D01*
%TO.C,D16*%
X101702380Y-89833035D02*
X100702380Y-89833035D01*
X100702380Y-89594940D01*
X100750000Y-89452083D01*
X100845238Y-89356845D01*
X100940476Y-89309226D01*
X101130952Y-89261607D01*
X101273809Y-89261607D01*
X101464285Y-89309226D01*
X101559523Y-89356845D01*
X101654761Y-89452083D01*
X101702380Y-89594940D01*
X101702380Y-89833035D01*
X101702380Y-88309226D02*
X101702380Y-88880654D01*
X101702380Y-88594940D02*
X100702380Y-88594940D01*
X100845238Y-88690178D01*
X100940476Y-88785416D01*
X100988095Y-88880654D01*
X100702380Y-87452083D02*
X100702380Y-87642559D01*
X100750000Y-87737797D01*
X100797619Y-87785416D01*
X100940476Y-87880654D01*
X101130952Y-87928273D01*
X101511904Y-87928273D01*
X101607142Y-87880654D01*
X101654761Y-87833035D01*
X101702380Y-87737797D01*
X101702380Y-87547321D01*
X101654761Y-87452083D01*
X101607142Y-87404464D01*
X101511904Y-87356845D01*
X101273809Y-87356845D01*
X101178571Y-87404464D01*
X101130952Y-87452083D01*
X101083333Y-87547321D01*
X101083333Y-87737797D01*
X101130952Y-87833035D01*
X101178571Y-87880654D01*
X101273809Y-87928273D01*
%TO.C,D17*%
X115452380Y-91333035D02*
X114452380Y-91333035D01*
X114452380Y-91094940D01*
X114500000Y-90952083D01*
X114595238Y-90856845D01*
X114690476Y-90809226D01*
X114880952Y-90761607D01*
X115023809Y-90761607D01*
X115214285Y-90809226D01*
X115309523Y-90856845D01*
X115404761Y-90952083D01*
X115452380Y-91094940D01*
X115452380Y-91333035D01*
X115452380Y-89809226D02*
X115452380Y-90380654D01*
X115452380Y-90094940D02*
X114452380Y-90094940D01*
X114595238Y-90190178D01*
X114690476Y-90285416D01*
X114738095Y-90380654D01*
X114452380Y-89475892D02*
X114452380Y-88809226D01*
X115452380Y-89237797D01*
%TO.C,D18*%
X126452380Y-91333035D02*
X125452380Y-91333035D01*
X125452380Y-91094940D01*
X125500000Y-90952083D01*
X125595238Y-90856845D01*
X125690476Y-90809226D01*
X125880952Y-90761607D01*
X126023809Y-90761607D01*
X126214285Y-90809226D01*
X126309523Y-90856845D01*
X126404761Y-90952083D01*
X126452380Y-91094940D01*
X126452380Y-91333035D01*
X126452380Y-89809226D02*
X126452380Y-90380654D01*
X126452380Y-90094940D02*
X125452380Y-90094940D01*
X125595238Y-90190178D01*
X125690476Y-90285416D01*
X125738095Y-90380654D01*
X125880952Y-89237797D02*
X125833333Y-89333035D01*
X125785714Y-89380654D01*
X125690476Y-89428273D01*
X125642857Y-89428273D01*
X125547619Y-89380654D01*
X125500000Y-89333035D01*
X125452380Y-89237797D01*
X125452380Y-89047321D01*
X125500000Y-88952083D01*
X125547619Y-88904464D01*
X125642857Y-88856845D01*
X125690476Y-88856845D01*
X125785714Y-88904464D01*
X125833333Y-88952083D01*
X125880952Y-89047321D01*
X125880952Y-89237797D01*
X125928571Y-89333035D01*
X125976190Y-89380654D01*
X126071428Y-89428273D01*
X126261904Y-89428273D01*
X126357142Y-89380654D01*
X126404761Y-89333035D01*
X126452380Y-89237797D01*
X126452380Y-89047321D01*
X126404761Y-88952083D01*
X126357142Y-88904464D01*
X126261904Y-88856845D01*
X126071428Y-88856845D01*
X125976190Y-88904464D01*
X125928571Y-88952083D01*
X125880952Y-89047321D01*
%TO.C,D19*%
X137452380Y-91333035D02*
X136452380Y-91333035D01*
X136452380Y-91094940D01*
X136500000Y-90952083D01*
X136595238Y-90856845D01*
X136690476Y-90809226D01*
X136880952Y-90761607D01*
X137023809Y-90761607D01*
X137214285Y-90809226D01*
X137309523Y-90856845D01*
X137404761Y-90952083D01*
X137452380Y-91094940D01*
X137452380Y-91333035D01*
X137452380Y-89809226D02*
X137452380Y-90380654D01*
X137452380Y-90094940D02*
X136452380Y-90094940D01*
X136595238Y-90190178D01*
X136690476Y-90285416D01*
X136738095Y-90380654D01*
X137452380Y-89333035D02*
X137452380Y-89142559D01*
X137404761Y-89047321D01*
X137357142Y-88999702D01*
X137214285Y-88904464D01*
X137023809Y-88856845D01*
X136642857Y-88856845D01*
X136547619Y-88904464D01*
X136500000Y-88952083D01*
X136452380Y-89047321D01*
X136452380Y-89237797D01*
X136500000Y-89333035D01*
X136547619Y-89380654D01*
X136642857Y-89428273D01*
X136880952Y-89428273D01*
X136976190Y-89380654D01*
X137023809Y-89333035D01*
X137071428Y-89237797D01*
X137071428Y-89047321D01*
X137023809Y-88952083D01*
X136976190Y-88904464D01*
X136880952Y-88856845D01*
%TO.C,D20*%
X151202380Y-92833035D02*
X150202380Y-92833035D01*
X150202380Y-92594940D01*
X150250000Y-92452083D01*
X150345238Y-92356845D01*
X150440476Y-92309226D01*
X150630952Y-92261607D01*
X150773809Y-92261607D01*
X150964285Y-92309226D01*
X151059523Y-92356845D01*
X151154761Y-92452083D01*
X151202380Y-92594940D01*
X151202380Y-92833035D01*
X150297619Y-91880654D02*
X150250000Y-91833035D01*
X150202380Y-91737797D01*
X150202380Y-91499702D01*
X150250000Y-91404464D01*
X150297619Y-91356845D01*
X150392857Y-91309226D01*
X150488095Y-91309226D01*
X150630952Y-91356845D01*
X151202380Y-91928273D01*
X151202380Y-91309226D01*
X150202380Y-90690178D02*
X150202380Y-90594940D01*
X150250000Y-90499702D01*
X150297619Y-90452083D01*
X150392857Y-90404464D01*
X150583333Y-90356845D01*
X150821428Y-90356845D01*
X151011904Y-90404464D01*
X151107142Y-90452083D01*
X151154761Y-90499702D01*
X151202380Y-90594940D01*
X151202380Y-90690178D01*
X151154761Y-90785416D01*
X151107142Y-90833035D01*
X151011904Y-90880654D01*
X150821428Y-90928273D01*
X150583333Y-90928273D01*
X150392857Y-90880654D01*
X150297619Y-90833035D01*
X150250000Y-90785416D01*
X150202380Y-90690178D01*
%TO.C,D21*%
X162202380Y-92833035D02*
X161202380Y-92833035D01*
X161202380Y-92594940D01*
X161250000Y-92452083D01*
X161345238Y-92356845D01*
X161440476Y-92309226D01*
X161630952Y-92261607D01*
X161773809Y-92261607D01*
X161964285Y-92309226D01*
X162059523Y-92356845D01*
X162154761Y-92452083D01*
X162202380Y-92594940D01*
X162202380Y-92833035D01*
X161297619Y-91880654D02*
X161250000Y-91833035D01*
X161202380Y-91737797D01*
X161202380Y-91499702D01*
X161250000Y-91404464D01*
X161297619Y-91356845D01*
X161392857Y-91309226D01*
X161488095Y-91309226D01*
X161630952Y-91356845D01*
X162202380Y-91928273D01*
X162202380Y-91309226D01*
X162202380Y-90356845D02*
X162202380Y-90928273D01*
X162202380Y-90642559D02*
X161202380Y-90642559D01*
X161345238Y-90737797D01*
X161440476Y-90833035D01*
X161488095Y-90928273D01*
%TO.C,D22*%
X173202380Y-92833035D02*
X172202380Y-92833035D01*
X172202380Y-92594940D01*
X172250000Y-92452083D01*
X172345238Y-92356845D01*
X172440476Y-92309226D01*
X172630952Y-92261607D01*
X172773809Y-92261607D01*
X172964285Y-92309226D01*
X173059523Y-92356845D01*
X173154761Y-92452083D01*
X173202380Y-92594940D01*
X173202380Y-92833035D01*
X172297619Y-91880654D02*
X172250000Y-91833035D01*
X172202380Y-91737797D01*
X172202380Y-91499702D01*
X172250000Y-91404464D01*
X172297619Y-91356845D01*
X172392857Y-91309226D01*
X172488095Y-91309226D01*
X172630952Y-91356845D01*
X173202380Y-91928273D01*
X173202380Y-91309226D01*
X172297619Y-90928273D02*
X172250000Y-90880654D01*
X172202380Y-90785416D01*
X172202380Y-90547321D01*
X172250000Y-90452083D01*
X172297619Y-90404464D01*
X172392857Y-90356845D01*
X172488095Y-90356845D01*
X172630952Y-90404464D01*
X173202380Y-90975892D01*
X173202380Y-90356845D01*
%TO.C,D23*%
X184202380Y-92833035D02*
X183202380Y-92833035D01*
X183202380Y-92594940D01*
X183250000Y-92452083D01*
X183345238Y-92356845D01*
X183440476Y-92309226D01*
X183630952Y-92261607D01*
X183773809Y-92261607D01*
X183964285Y-92309226D01*
X184059523Y-92356845D01*
X184154761Y-92452083D01*
X184202380Y-92594940D01*
X184202380Y-92833035D01*
X183297619Y-91880654D02*
X183250000Y-91833035D01*
X183202380Y-91737797D01*
X183202380Y-91499702D01*
X183250000Y-91404464D01*
X183297619Y-91356845D01*
X183392857Y-91309226D01*
X183488095Y-91309226D01*
X183630952Y-91356845D01*
X184202380Y-91928273D01*
X184202380Y-91309226D01*
X183202380Y-90975892D02*
X183202380Y-90356845D01*
X183583333Y-90690178D01*
X183583333Y-90547321D01*
X183630952Y-90452083D01*
X183678571Y-90404464D01*
X183773809Y-90356845D01*
X184011904Y-90356845D01*
X184107142Y-90404464D01*
X184154761Y-90452083D01*
X184202380Y-90547321D01*
X184202380Y-90833035D01*
X184154761Y-90928273D01*
X184107142Y-90975892D01*
%TO.C,D24*%
X197952380Y-88333035D02*
X196952380Y-88333035D01*
X196952380Y-88094940D01*
X197000000Y-87952083D01*
X197095238Y-87856845D01*
X197190476Y-87809226D01*
X197380952Y-87761607D01*
X197523809Y-87761607D01*
X197714285Y-87809226D01*
X197809523Y-87856845D01*
X197904761Y-87952083D01*
X197952380Y-88094940D01*
X197952380Y-88333035D01*
X197047619Y-87380654D02*
X197000000Y-87333035D01*
X196952380Y-87237797D01*
X196952380Y-86999702D01*
X197000000Y-86904464D01*
X197047619Y-86856845D01*
X197142857Y-86809226D01*
X197238095Y-86809226D01*
X197380952Y-86856845D01*
X197952380Y-87428273D01*
X197952380Y-86809226D01*
X197285714Y-85952083D02*
X197952380Y-85952083D01*
X196904761Y-86190178D02*
X197619047Y-86428273D01*
X197619047Y-85809226D01*
%TO.C,D25*%
X211702380Y-89757285D02*
X210702380Y-89757285D01*
X210702380Y-89519190D01*
X210750000Y-89376333D01*
X210845238Y-89281095D01*
X210940476Y-89233476D01*
X211130952Y-89185857D01*
X211273809Y-89185857D01*
X211464285Y-89233476D01*
X211559523Y-89281095D01*
X211654761Y-89376333D01*
X211702380Y-89519190D01*
X211702380Y-89757285D01*
X210797619Y-88804904D02*
X210750000Y-88757285D01*
X210702380Y-88662047D01*
X210702380Y-88423952D01*
X210750000Y-88328714D01*
X210797619Y-88281095D01*
X210892857Y-88233476D01*
X210988095Y-88233476D01*
X211130952Y-88281095D01*
X211702380Y-88852523D01*
X211702380Y-88233476D01*
X210702380Y-87328714D02*
X210702380Y-87804904D01*
X211178571Y-87852523D01*
X211130952Y-87804904D01*
X211083333Y-87709666D01*
X211083333Y-87471571D01*
X211130952Y-87376333D01*
X211178571Y-87328714D01*
X211273809Y-87281095D01*
X211511904Y-87281095D01*
X211607142Y-87328714D01*
X211654761Y-87376333D01*
X211702380Y-87471571D01*
X211702380Y-87709666D01*
X211654761Y-87804904D01*
X211607142Y-87852523D01*
%TO.C,D26*%
X222702380Y-89598535D02*
X221702380Y-89598535D01*
X221702380Y-89360440D01*
X221750000Y-89217583D01*
X221845238Y-89122345D01*
X221940476Y-89074726D01*
X222130952Y-89027107D01*
X222273809Y-89027107D01*
X222464285Y-89074726D01*
X222559523Y-89122345D01*
X222654761Y-89217583D01*
X222702380Y-89360440D01*
X222702380Y-89598535D01*
X221797619Y-88646154D02*
X221750000Y-88598535D01*
X221702380Y-88503297D01*
X221702380Y-88265202D01*
X221750000Y-88169964D01*
X221797619Y-88122345D01*
X221892857Y-88074726D01*
X221988095Y-88074726D01*
X222130952Y-88122345D01*
X222702380Y-88693773D01*
X222702380Y-88074726D01*
X221702380Y-87217583D02*
X221702380Y-87408059D01*
X221750000Y-87503297D01*
X221797619Y-87550916D01*
X221940476Y-87646154D01*
X222130952Y-87693773D01*
X222511904Y-87693773D01*
X222607142Y-87646154D01*
X222654761Y-87598535D01*
X222702380Y-87503297D01*
X222702380Y-87312821D01*
X222654761Y-87217583D01*
X222607142Y-87169964D01*
X222511904Y-87122345D01*
X222273809Y-87122345D01*
X222178571Y-87169964D01*
X222130952Y-87217583D01*
X222083333Y-87312821D01*
X222083333Y-87503297D01*
X222130952Y-87598535D01*
X222178571Y-87646154D01*
X222273809Y-87693773D01*
%TO.C,D27*%
X230952380Y-88257285D02*
X229952380Y-88257285D01*
X229952380Y-88019190D01*
X230000000Y-87876333D01*
X230095238Y-87781095D01*
X230190476Y-87733476D01*
X230380952Y-87685857D01*
X230523809Y-87685857D01*
X230714285Y-87733476D01*
X230809523Y-87781095D01*
X230904761Y-87876333D01*
X230952380Y-88019190D01*
X230952380Y-88257285D01*
X230047619Y-87304904D02*
X230000000Y-87257285D01*
X229952380Y-87162047D01*
X229952380Y-86923952D01*
X230000000Y-86828714D01*
X230047619Y-86781095D01*
X230142857Y-86733476D01*
X230238095Y-86733476D01*
X230380952Y-86781095D01*
X230952380Y-87352523D01*
X230952380Y-86733476D01*
X229952380Y-86400142D02*
X229952380Y-85733476D01*
X230952380Y-86162047D01*
%TO.C,D28*%
X236452380Y-91289035D02*
X235452380Y-91289035D01*
X235452380Y-91050940D01*
X235500000Y-90908083D01*
X235595238Y-90812845D01*
X235690476Y-90765226D01*
X235880952Y-90717607D01*
X236023809Y-90717607D01*
X236214285Y-90765226D01*
X236309523Y-90812845D01*
X236404761Y-90908083D01*
X236452380Y-91050940D01*
X236452380Y-91289035D01*
X235547619Y-90336654D02*
X235500000Y-90289035D01*
X235452380Y-90193797D01*
X235452380Y-89955702D01*
X235500000Y-89860464D01*
X235547619Y-89812845D01*
X235642857Y-89765226D01*
X235738095Y-89765226D01*
X235880952Y-89812845D01*
X236452380Y-90384273D01*
X236452380Y-89765226D01*
X235880952Y-89193797D02*
X235833333Y-89289035D01*
X235785714Y-89336654D01*
X235690476Y-89384273D01*
X235642857Y-89384273D01*
X235547619Y-89336654D01*
X235500000Y-89289035D01*
X235452380Y-89193797D01*
X235452380Y-89003321D01*
X235500000Y-88908083D01*
X235547619Y-88860464D01*
X235642857Y-88812845D01*
X235690476Y-88812845D01*
X235785714Y-88860464D01*
X235833333Y-88908083D01*
X235880952Y-89003321D01*
X235880952Y-89193797D01*
X235928571Y-89289035D01*
X235976190Y-89336654D01*
X236071428Y-89384273D01*
X236261904Y-89384273D01*
X236357142Y-89336654D01*
X236404761Y-89289035D01*
X236452380Y-89193797D01*
X236452380Y-89003321D01*
X236404761Y-88908083D01*
X236357142Y-88860464D01*
X236261904Y-88812845D01*
X236071428Y-88812845D01*
X235976190Y-88860464D01*
X235928571Y-88908083D01*
X235880952Y-89003321D01*
%TO.C,D29*%
X82452380Y-91333035D02*
X81452380Y-91333035D01*
X81452380Y-91094940D01*
X81500000Y-90952083D01*
X81595238Y-90856845D01*
X81690476Y-90809226D01*
X81880952Y-90761607D01*
X82023809Y-90761607D01*
X82214285Y-90809226D01*
X82309523Y-90856845D01*
X82404761Y-90952083D01*
X82452380Y-91094940D01*
X82452380Y-91333035D01*
X81547619Y-90380654D02*
X81500000Y-90333035D01*
X81452380Y-90237797D01*
X81452380Y-89999702D01*
X81500000Y-89904464D01*
X81547619Y-89856845D01*
X81642857Y-89809226D01*
X81738095Y-89809226D01*
X81880952Y-89856845D01*
X82452380Y-90428273D01*
X82452380Y-89809226D01*
X82452380Y-89333035D02*
X82452380Y-89142559D01*
X82404761Y-89047321D01*
X82357142Y-88999702D01*
X82214285Y-88904464D01*
X82023809Y-88856845D01*
X81642857Y-88856845D01*
X81547619Y-88904464D01*
X81500000Y-88952083D01*
X81452380Y-89047321D01*
X81452380Y-89237797D01*
X81500000Y-89333035D01*
X81547619Y-89380654D01*
X81642857Y-89428273D01*
X81880952Y-89428273D01*
X81976190Y-89380654D01*
X82023809Y-89333035D01*
X82071428Y-89237797D01*
X82071428Y-89047321D01*
X82023809Y-88952083D01*
X81976190Y-88904464D01*
X81880952Y-88856845D01*
%TO.C,D30*%
X98964880Y-88333035D02*
X97964880Y-88333035D01*
X97964880Y-88094940D01*
X98012500Y-87952083D01*
X98107738Y-87856845D01*
X98202976Y-87809226D01*
X98393452Y-87761607D01*
X98536309Y-87761607D01*
X98726785Y-87809226D01*
X98822023Y-87856845D01*
X98917261Y-87952083D01*
X98964880Y-88094940D01*
X98964880Y-88333035D01*
X97964880Y-87428273D02*
X97964880Y-86809226D01*
X98345833Y-87142559D01*
X98345833Y-86999702D01*
X98393452Y-86904464D01*
X98441071Y-86856845D01*
X98536309Y-86809226D01*
X98774404Y-86809226D01*
X98869642Y-86856845D01*
X98917261Y-86904464D01*
X98964880Y-86999702D01*
X98964880Y-87285416D01*
X98917261Y-87380654D01*
X98869642Y-87428273D01*
X97964880Y-86190178D02*
X97964880Y-86094940D01*
X98012500Y-85999702D01*
X98060119Y-85952083D01*
X98155357Y-85904464D01*
X98345833Y-85856845D01*
X98583928Y-85856845D01*
X98774404Y-85904464D01*
X98869642Y-85952083D01*
X98917261Y-85999702D01*
X98964880Y-86094940D01*
X98964880Y-86190178D01*
X98917261Y-86285416D01*
X98869642Y-86333035D01*
X98774404Y-86380654D01*
X98583928Y-86428273D01*
X98345833Y-86428273D01*
X98155357Y-86380654D01*
X98060119Y-86333035D01*
X98012500Y-86285416D01*
X97964880Y-86190178D01*
%TO.C,D31*%
X112702380Y-89833035D02*
X111702380Y-89833035D01*
X111702380Y-89594940D01*
X111750000Y-89452083D01*
X111845238Y-89356845D01*
X111940476Y-89309226D01*
X112130952Y-89261607D01*
X112273809Y-89261607D01*
X112464285Y-89309226D01*
X112559523Y-89356845D01*
X112654761Y-89452083D01*
X112702380Y-89594940D01*
X112702380Y-89833035D01*
X111702380Y-88928273D02*
X111702380Y-88309226D01*
X112083333Y-88642559D01*
X112083333Y-88499702D01*
X112130952Y-88404464D01*
X112178571Y-88356845D01*
X112273809Y-88309226D01*
X112511904Y-88309226D01*
X112607142Y-88356845D01*
X112654761Y-88404464D01*
X112702380Y-88499702D01*
X112702380Y-88785416D01*
X112654761Y-88880654D01*
X112607142Y-88928273D01*
X112702380Y-87356845D02*
X112702380Y-87928273D01*
X112702380Y-87642559D02*
X111702380Y-87642559D01*
X111845238Y-87737797D01*
X111940476Y-87833035D01*
X111988095Y-87928273D01*
%TO.C,D32*%
X123702380Y-89852535D02*
X122702380Y-89852535D01*
X122702380Y-89614440D01*
X122750000Y-89471583D01*
X122845238Y-89376345D01*
X122940476Y-89328726D01*
X123130952Y-89281107D01*
X123273809Y-89281107D01*
X123464285Y-89328726D01*
X123559523Y-89376345D01*
X123654761Y-89471583D01*
X123702380Y-89614440D01*
X123702380Y-89852535D01*
X122702380Y-88947773D02*
X122702380Y-88328726D01*
X123083333Y-88662059D01*
X123083333Y-88519202D01*
X123130952Y-88423964D01*
X123178571Y-88376345D01*
X123273809Y-88328726D01*
X123511904Y-88328726D01*
X123607142Y-88376345D01*
X123654761Y-88423964D01*
X123702380Y-88519202D01*
X123702380Y-88804916D01*
X123654761Y-88900154D01*
X123607142Y-88947773D01*
X122797619Y-87947773D02*
X122750000Y-87900154D01*
X122702380Y-87804916D01*
X122702380Y-87566821D01*
X122750000Y-87471583D01*
X122797619Y-87423964D01*
X122892857Y-87376345D01*
X122988095Y-87376345D01*
X123130952Y-87423964D01*
X123702380Y-87995392D01*
X123702380Y-87376345D01*
%TO.C,D33*%
X134702380Y-89852535D02*
X133702380Y-89852535D01*
X133702380Y-89614440D01*
X133750000Y-89471583D01*
X133845238Y-89376345D01*
X133940476Y-89328726D01*
X134130952Y-89281107D01*
X134273809Y-89281107D01*
X134464285Y-89328726D01*
X134559523Y-89376345D01*
X134654761Y-89471583D01*
X134702380Y-89614440D01*
X134702380Y-89852535D01*
X133702380Y-88947773D02*
X133702380Y-88328726D01*
X134083333Y-88662059D01*
X134083333Y-88519202D01*
X134130952Y-88423964D01*
X134178571Y-88376345D01*
X134273809Y-88328726D01*
X134511904Y-88328726D01*
X134607142Y-88376345D01*
X134654761Y-88423964D01*
X134702380Y-88519202D01*
X134702380Y-88804916D01*
X134654761Y-88900154D01*
X134607142Y-88947773D01*
X133702380Y-87995392D02*
X133702380Y-87376345D01*
X134083333Y-87709678D01*
X134083333Y-87566821D01*
X134130952Y-87471583D01*
X134178571Y-87423964D01*
X134273809Y-87376345D01*
X134511904Y-87376345D01*
X134607142Y-87423964D01*
X134654761Y-87471583D01*
X134702380Y-87566821D01*
X134702380Y-87852535D01*
X134654761Y-87947773D01*
X134607142Y-87995392D01*
%TO.C,D34*%
X148452380Y-91333035D02*
X147452380Y-91333035D01*
X147452380Y-91094940D01*
X147500000Y-90952083D01*
X147595238Y-90856845D01*
X147690476Y-90809226D01*
X147880952Y-90761607D01*
X148023809Y-90761607D01*
X148214285Y-90809226D01*
X148309523Y-90856845D01*
X148404761Y-90952083D01*
X148452380Y-91094940D01*
X148452380Y-91333035D01*
X147452380Y-90428273D02*
X147452380Y-89809226D01*
X147833333Y-90142559D01*
X147833333Y-89999702D01*
X147880952Y-89904464D01*
X147928571Y-89856845D01*
X148023809Y-89809226D01*
X148261904Y-89809226D01*
X148357142Y-89856845D01*
X148404761Y-89904464D01*
X148452380Y-89999702D01*
X148452380Y-90285416D01*
X148404761Y-90380654D01*
X148357142Y-90428273D01*
X147785714Y-88952083D02*
X148452380Y-88952083D01*
X147404761Y-89190178D02*
X148119047Y-89428273D01*
X148119047Y-88809226D01*
%TO.C,D35*%
X159452380Y-91333035D02*
X158452380Y-91333035D01*
X158452380Y-91094940D01*
X158500000Y-90952083D01*
X158595238Y-90856845D01*
X158690476Y-90809226D01*
X158880952Y-90761607D01*
X159023809Y-90761607D01*
X159214285Y-90809226D01*
X159309523Y-90856845D01*
X159404761Y-90952083D01*
X159452380Y-91094940D01*
X159452380Y-91333035D01*
X158452380Y-90428273D02*
X158452380Y-89809226D01*
X158833333Y-90142559D01*
X158833333Y-89999702D01*
X158880952Y-89904464D01*
X158928571Y-89856845D01*
X159023809Y-89809226D01*
X159261904Y-89809226D01*
X159357142Y-89856845D01*
X159404761Y-89904464D01*
X159452380Y-89999702D01*
X159452380Y-90285416D01*
X159404761Y-90380654D01*
X159357142Y-90428273D01*
X158452380Y-88904464D02*
X158452380Y-89380654D01*
X158928571Y-89428273D01*
X158880952Y-89380654D01*
X158833333Y-89285416D01*
X158833333Y-89047321D01*
X158880952Y-88952083D01*
X158928571Y-88904464D01*
X159023809Y-88856845D01*
X159261904Y-88856845D01*
X159357142Y-88904464D01*
X159404761Y-88952083D01*
X159452380Y-89047321D01*
X159452380Y-89285416D01*
X159404761Y-89380654D01*
X159357142Y-89428273D01*
%TO.C,D36*%
X170452380Y-91333035D02*
X169452380Y-91333035D01*
X169452380Y-91094940D01*
X169500000Y-90952083D01*
X169595238Y-90856845D01*
X169690476Y-90809226D01*
X169880952Y-90761607D01*
X170023809Y-90761607D01*
X170214285Y-90809226D01*
X170309523Y-90856845D01*
X170404761Y-90952083D01*
X170452380Y-91094940D01*
X170452380Y-91333035D01*
X169452380Y-90428273D02*
X169452380Y-89809226D01*
X169833333Y-90142559D01*
X169833333Y-89999702D01*
X169880952Y-89904464D01*
X169928571Y-89856845D01*
X170023809Y-89809226D01*
X170261904Y-89809226D01*
X170357142Y-89856845D01*
X170404761Y-89904464D01*
X170452380Y-89999702D01*
X170452380Y-90285416D01*
X170404761Y-90380654D01*
X170357142Y-90428273D01*
X169452380Y-88952083D02*
X169452380Y-89142559D01*
X169500000Y-89237797D01*
X169547619Y-89285416D01*
X169690476Y-89380654D01*
X169880952Y-89428273D01*
X170261904Y-89428273D01*
X170357142Y-89380654D01*
X170404761Y-89333035D01*
X170452380Y-89237797D01*
X170452380Y-89047321D01*
X170404761Y-88952083D01*
X170357142Y-88904464D01*
X170261904Y-88856845D01*
X170023809Y-88856845D01*
X169928571Y-88904464D01*
X169880952Y-88952083D01*
X169833333Y-89047321D01*
X169833333Y-89237797D01*
X169880952Y-89333035D01*
X169928571Y-89380654D01*
X170023809Y-89428273D01*
%TO.C,D38*%
X195202380Y-92833035D02*
X194202380Y-92833035D01*
X194202380Y-92594940D01*
X194250000Y-92452083D01*
X194345238Y-92356845D01*
X194440476Y-92309226D01*
X194630952Y-92261607D01*
X194773809Y-92261607D01*
X194964285Y-92309226D01*
X195059523Y-92356845D01*
X195154761Y-92452083D01*
X195202380Y-92594940D01*
X195202380Y-92833035D01*
X194202380Y-91928273D02*
X194202380Y-91309226D01*
X194583333Y-91642559D01*
X194583333Y-91499702D01*
X194630952Y-91404464D01*
X194678571Y-91356845D01*
X194773809Y-91309226D01*
X195011904Y-91309226D01*
X195107142Y-91356845D01*
X195154761Y-91404464D01*
X195202380Y-91499702D01*
X195202380Y-91785416D01*
X195154761Y-91880654D01*
X195107142Y-91928273D01*
X194630952Y-90737797D02*
X194583333Y-90833035D01*
X194535714Y-90880654D01*
X194440476Y-90928273D01*
X194392857Y-90928273D01*
X194297619Y-90880654D01*
X194250000Y-90833035D01*
X194202380Y-90737797D01*
X194202380Y-90547321D01*
X194250000Y-90452083D01*
X194297619Y-90404464D01*
X194392857Y-90356845D01*
X194440476Y-90356845D01*
X194535714Y-90404464D01*
X194583333Y-90452083D01*
X194630952Y-90547321D01*
X194630952Y-90737797D01*
X194678571Y-90833035D01*
X194726190Y-90880654D01*
X194821428Y-90928273D01*
X195011904Y-90928273D01*
X195107142Y-90880654D01*
X195154761Y-90833035D01*
X195202380Y-90737797D01*
X195202380Y-90547321D01*
X195154761Y-90452083D01*
X195107142Y-90404464D01*
X195011904Y-90356845D01*
X194821428Y-90356845D01*
X194726190Y-90404464D01*
X194678571Y-90452083D01*
X194630952Y-90547321D01*
%TO.C,D39*%
X208952380Y-88098535D02*
X207952380Y-88098535D01*
X207952380Y-87860440D01*
X208000000Y-87717583D01*
X208095238Y-87622345D01*
X208190476Y-87574726D01*
X208380952Y-87527107D01*
X208523809Y-87527107D01*
X208714285Y-87574726D01*
X208809523Y-87622345D01*
X208904761Y-87717583D01*
X208952380Y-87860440D01*
X208952380Y-88098535D01*
X207952380Y-87193773D02*
X207952380Y-86574726D01*
X208333333Y-86908059D01*
X208333333Y-86765202D01*
X208380952Y-86669964D01*
X208428571Y-86622345D01*
X208523809Y-86574726D01*
X208761904Y-86574726D01*
X208857142Y-86622345D01*
X208904761Y-86669964D01*
X208952380Y-86765202D01*
X208952380Y-87050916D01*
X208904761Y-87146154D01*
X208857142Y-87193773D01*
X208952380Y-86098535D02*
X208952380Y-85908059D01*
X208904761Y-85812821D01*
X208857142Y-85765202D01*
X208714285Y-85669964D01*
X208523809Y-85622345D01*
X208142857Y-85622345D01*
X208047619Y-85669964D01*
X208000000Y-85717583D01*
X207952380Y-85812821D01*
X207952380Y-86003297D01*
X208000000Y-86098535D01*
X208047619Y-86146154D01*
X208142857Y-86193773D01*
X208380952Y-86193773D01*
X208476190Y-86146154D01*
X208523809Y-86098535D01*
X208571428Y-86003297D01*
X208571428Y-85812821D01*
X208523809Y-85717583D01*
X208476190Y-85669964D01*
X208380952Y-85622345D01*
%TO.C,D40*%
X219952380Y-88193785D02*
X218952380Y-88193785D01*
X218952380Y-87955690D01*
X219000000Y-87812833D01*
X219095238Y-87717595D01*
X219190476Y-87669976D01*
X219380952Y-87622357D01*
X219523809Y-87622357D01*
X219714285Y-87669976D01*
X219809523Y-87717595D01*
X219904761Y-87812833D01*
X219952380Y-87955690D01*
X219952380Y-88193785D01*
X219285714Y-86765214D02*
X219952380Y-86765214D01*
X218904761Y-87003309D02*
X219619047Y-87241404D01*
X219619047Y-86622357D01*
X218952380Y-86050928D02*
X218952380Y-85955690D01*
X219000000Y-85860452D01*
X219047619Y-85812833D01*
X219142857Y-85765214D01*
X219333333Y-85717595D01*
X219571428Y-85717595D01*
X219761904Y-85765214D01*
X219857142Y-85812833D01*
X219904761Y-85860452D01*
X219952380Y-85955690D01*
X219952380Y-86050928D01*
X219904761Y-86146166D01*
X219857142Y-86193785D01*
X219761904Y-86241404D01*
X219571428Y-86289023D01*
X219333333Y-86289023D01*
X219142857Y-86241404D01*
X219047619Y-86193785D01*
X219000000Y-86146166D01*
X218952380Y-86050928D01*
%TO.C,D41*%
X228202380Y-92535035D02*
X227202380Y-92535035D01*
X227202380Y-92296940D01*
X227250000Y-92154083D01*
X227345238Y-92058845D01*
X227440476Y-92011226D01*
X227630952Y-91963607D01*
X227773809Y-91963607D01*
X227964285Y-92011226D01*
X228059523Y-92058845D01*
X228154761Y-92154083D01*
X228202380Y-92296940D01*
X228202380Y-92535035D01*
X227535714Y-91106464D02*
X228202380Y-91106464D01*
X227154761Y-91344559D02*
X227869047Y-91582654D01*
X227869047Y-90963607D01*
X228202380Y-90058845D02*
X228202380Y-90630273D01*
X228202380Y-90344559D02*
X227202380Y-90344559D01*
X227345238Y-90439797D01*
X227440476Y-90535035D01*
X227488095Y-90630273D01*
%TO.C,D44*%
X96202380Y-92833035D02*
X95202380Y-92833035D01*
X95202380Y-92594940D01*
X95250000Y-92452083D01*
X95345238Y-92356845D01*
X95440476Y-92309226D01*
X95630952Y-92261607D01*
X95773809Y-92261607D01*
X95964285Y-92309226D01*
X96059523Y-92356845D01*
X96154761Y-92452083D01*
X96202380Y-92594940D01*
X96202380Y-92833035D01*
X95535714Y-91404464D02*
X96202380Y-91404464D01*
X95154761Y-91642559D02*
X95869047Y-91880654D01*
X95869047Y-91261607D01*
X95535714Y-90452083D02*
X96202380Y-90452083D01*
X95154761Y-90690178D02*
X95869047Y-90928273D01*
X95869047Y-90309226D01*
%TO.C,D45*%
X109952380Y-88333035D02*
X108952380Y-88333035D01*
X108952380Y-88094940D01*
X109000000Y-87952083D01*
X109095238Y-87856845D01*
X109190476Y-87809226D01*
X109380952Y-87761607D01*
X109523809Y-87761607D01*
X109714285Y-87809226D01*
X109809523Y-87856845D01*
X109904761Y-87952083D01*
X109952380Y-88094940D01*
X109952380Y-88333035D01*
X109285714Y-86904464D02*
X109952380Y-86904464D01*
X108904761Y-87142559D02*
X109619047Y-87380654D01*
X109619047Y-86761607D01*
X108952380Y-85904464D02*
X108952380Y-86380654D01*
X109428571Y-86428273D01*
X109380952Y-86380654D01*
X109333333Y-86285416D01*
X109333333Y-86047321D01*
X109380952Y-85952083D01*
X109428571Y-85904464D01*
X109523809Y-85856845D01*
X109761904Y-85856845D01*
X109857142Y-85904464D01*
X109904761Y-85952083D01*
X109952380Y-86047321D01*
X109952380Y-86285416D01*
X109904761Y-86380654D01*
X109857142Y-86428273D01*
%TO.C,D46*%
X121015880Y-88333035D02*
X120015880Y-88333035D01*
X120015880Y-88094940D01*
X120063500Y-87952083D01*
X120158738Y-87856845D01*
X120253976Y-87809226D01*
X120444452Y-87761607D01*
X120587309Y-87761607D01*
X120777785Y-87809226D01*
X120873023Y-87856845D01*
X120968261Y-87952083D01*
X121015880Y-88094940D01*
X121015880Y-88333035D01*
X120349214Y-86904464D02*
X121015880Y-86904464D01*
X119968261Y-87142559D02*
X120682547Y-87380654D01*
X120682547Y-86761607D01*
X120015880Y-85952083D02*
X120015880Y-86142559D01*
X120063500Y-86237797D01*
X120111119Y-86285416D01*
X120253976Y-86380654D01*
X120444452Y-86428273D01*
X120825404Y-86428273D01*
X120920642Y-86380654D01*
X120968261Y-86333035D01*
X121015880Y-86237797D01*
X121015880Y-86047321D01*
X120968261Y-85952083D01*
X120920642Y-85904464D01*
X120825404Y-85856845D01*
X120587309Y-85856845D01*
X120492071Y-85904464D01*
X120444452Y-85952083D01*
X120396833Y-86047321D01*
X120396833Y-86237797D01*
X120444452Y-86333035D01*
X120492071Y-86380654D01*
X120587309Y-86428273D01*
%TO.C,D47*%
X131952380Y-88333035D02*
X130952380Y-88333035D01*
X130952380Y-88094940D01*
X131000000Y-87952083D01*
X131095238Y-87856845D01*
X131190476Y-87809226D01*
X131380952Y-87761607D01*
X131523809Y-87761607D01*
X131714285Y-87809226D01*
X131809523Y-87856845D01*
X131904761Y-87952083D01*
X131952380Y-88094940D01*
X131952380Y-88333035D01*
X131285714Y-86904464D02*
X131952380Y-86904464D01*
X130904761Y-87142559D02*
X131619047Y-87380654D01*
X131619047Y-86761607D01*
X130952380Y-86475892D02*
X130952380Y-85809226D01*
X131952380Y-86237797D01*
%TO.C,D48*%
X145765880Y-89833035D02*
X144765880Y-89833035D01*
X144765880Y-89594940D01*
X144813500Y-89452083D01*
X144908738Y-89356845D01*
X145003976Y-89309226D01*
X145194452Y-89261607D01*
X145337309Y-89261607D01*
X145527785Y-89309226D01*
X145623023Y-89356845D01*
X145718261Y-89452083D01*
X145765880Y-89594940D01*
X145765880Y-89833035D01*
X145099214Y-88404464D02*
X145765880Y-88404464D01*
X144718261Y-88642559D02*
X145432547Y-88880654D01*
X145432547Y-88261607D01*
X145194452Y-87737797D02*
X145146833Y-87833035D01*
X145099214Y-87880654D01*
X145003976Y-87928273D01*
X144956357Y-87928273D01*
X144861119Y-87880654D01*
X144813500Y-87833035D01*
X144765880Y-87737797D01*
X144765880Y-87547321D01*
X144813500Y-87452083D01*
X144861119Y-87404464D01*
X144956357Y-87356845D01*
X145003976Y-87356845D01*
X145099214Y-87404464D01*
X145146833Y-87452083D01*
X145194452Y-87547321D01*
X145194452Y-87737797D01*
X145242071Y-87833035D01*
X145289690Y-87880654D01*
X145384928Y-87928273D01*
X145575404Y-87928273D01*
X145670642Y-87880654D01*
X145718261Y-87833035D01*
X145765880Y-87737797D01*
X145765880Y-87547321D01*
X145718261Y-87452083D01*
X145670642Y-87404464D01*
X145575404Y-87356845D01*
X145384928Y-87356845D01*
X145289690Y-87404464D01*
X145242071Y-87452083D01*
X145194452Y-87547321D01*
%TO.C,D49*%
X156765880Y-89833035D02*
X155765880Y-89833035D01*
X155765880Y-89594940D01*
X155813500Y-89452083D01*
X155908738Y-89356845D01*
X156003976Y-89309226D01*
X156194452Y-89261607D01*
X156337309Y-89261607D01*
X156527785Y-89309226D01*
X156623023Y-89356845D01*
X156718261Y-89452083D01*
X156765880Y-89594940D01*
X156765880Y-89833035D01*
X156099214Y-88404464D02*
X156765880Y-88404464D01*
X155718261Y-88642559D02*
X156432547Y-88880654D01*
X156432547Y-88261607D01*
X156765880Y-87833035D02*
X156765880Y-87642559D01*
X156718261Y-87547321D01*
X156670642Y-87499702D01*
X156527785Y-87404464D01*
X156337309Y-87356845D01*
X155956357Y-87356845D01*
X155861119Y-87404464D01*
X155813500Y-87452083D01*
X155765880Y-87547321D01*
X155765880Y-87737797D01*
X155813500Y-87833035D01*
X155861119Y-87880654D01*
X155956357Y-87928273D01*
X156194452Y-87928273D01*
X156289690Y-87880654D01*
X156337309Y-87833035D01*
X156384928Y-87737797D01*
X156384928Y-87547321D01*
X156337309Y-87452083D01*
X156289690Y-87404464D01*
X156194452Y-87356845D01*
%TO.C,D50*%
X167702380Y-89833035D02*
X166702380Y-89833035D01*
X166702380Y-89594940D01*
X166750000Y-89452083D01*
X166845238Y-89356845D01*
X166940476Y-89309226D01*
X167130952Y-89261607D01*
X167273809Y-89261607D01*
X167464285Y-89309226D01*
X167559523Y-89356845D01*
X167654761Y-89452083D01*
X167702380Y-89594940D01*
X167702380Y-89833035D01*
X166702380Y-88356845D02*
X166702380Y-88833035D01*
X167178571Y-88880654D01*
X167130952Y-88833035D01*
X167083333Y-88737797D01*
X167083333Y-88499702D01*
X167130952Y-88404464D01*
X167178571Y-88356845D01*
X167273809Y-88309226D01*
X167511904Y-88309226D01*
X167607142Y-88356845D01*
X167654761Y-88404464D01*
X167702380Y-88499702D01*
X167702380Y-88737797D01*
X167654761Y-88833035D01*
X167607142Y-88880654D01*
X166702380Y-87690178D02*
X166702380Y-87594940D01*
X166750000Y-87499702D01*
X166797619Y-87452083D01*
X166892857Y-87404464D01*
X167083333Y-87356845D01*
X167321428Y-87356845D01*
X167511904Y-87404464D01*
X167607142Y-87452083D01*
X167654761Y-87499702D01*
X167702380Y-87594940D01*
X167702380Y-87690178D01*
X167654761Y-87785416D01*
X167607142Y-87833035D01*
X167511904Y-87880654D01*
X167321428Y-87928273D01*
X167083333Y-87928273D01*
X166892857Y-87880654D01*
X166797619Y-87833035D01*
X166750000Y-87785416D01*
X166702380Y-87690178D01*
%TO.C,D51*%
X178702380Y-89833035D02*
X177702380Y-89833035D01*
X177702380Y-89594940D01*
X177750000Y-89452083D01*
X177845238Y-89356845D01*
X177940476Y-89309226D01*
X178130952Y-89261607D01*
X178273809Y-89261607D01*
X178464285Y-89309226D01*
X178559523Y-89356845D01*
X178654761Y-89452083D01*
X178702380Y-89594940D01*
X178702380Y-89833035D01*
X177702380Y-88356845D02*
X177702380Y-88833035D01*
X178178571Y-88880654D01*
X178130952Y-88833035D01*
X178083333Y-88737797D01*
X178083333Y-88499702D01*
X178130952Y-88404464D01*
X178178571Y-88356845D01*
X178273809Y-88309226D01*
X178511904Y-88309226D01*
X178607142Y-88356845D01*
X178654761Y-88404464D01*
X178702380Y-88499702D01*
X178702380Y-88737797D01*
X178654761Y-88833035D01*
X178607142Y-88880654D01*
X178702380Y-87356845D02*
X178702380Y-87928273D01*
X178702380Y-87642559D02*
X177702380Y-87642559D01*
X177845238Y-87737797D01*
X177940476Y-87833035D01*
X177988095Y-87928273D01*
%TO.C,D52*%
X192452380Y-91333035D02*
X191452380Y-91333035D01*
X191452380Y-91094940D01*
X191500000Y-90952083D01*
X191595238Y-90856845D01*
X191690476Y-90809226D01*
X191880952Y-90761607D01*
X192023809Y-90761607D01*
X192214285Y-90809226D01*
X192309523Y-90856845D01*
X192404761Y-90952083D01*
X192452380Y-91094940D01*
X192452380Y-91333035D01*
X191452380Y-89856845D02*
X191452380Y-90333035D01*
X191928571Y-90380654D01*
X191880952Y-90333035D01*
X191833333Y-90237797D01*
X191833333Y-89999702D01*
X191880952Y-89904464D01*
X191928571Y-89856845D01*
X192023809Y-89809226D01*
X192261904Y-89809226D01*
X192357142Y-89856845D01*
X192404761Y-89904464D01*
X192452380Y-89999702D01*
X192452380Y-90237797D01*
X192404761Y-90333035D01*
X192357142Y-90380654D01*
X191547619Y-89428273D02*
X191500000Y-89380654D01*
X191452380Y-89285416D01*
X191452380Y-89047321D01*
X191500000Y-88952083D01*
X191547619Y-88904464D01*
X191642857Y-88856845D01*
X191738095Y-88856845D01*
X191880952Y-88904464D01*
X192452380Y-89475892D01*
X192452380Y-88856845D01*
%TO.C,D53*%
X206202380Y-92693785D02*
X205202380Y-92693785D01*
X205202380Y-92455690D01*
X205250000Y-92312833D01*
X205345238Y-92217595D01*
X205440476Y-92169976D01*
X205630952Y-92122357D01*
X205773809Y-92122357D01*
X205964285Y-92169976D01*
X206059523Y-92217595D01*
X206154761Y-92312833D01*
X206202380Y-92455690D01*
X206202380Y-92693785D01*
X205202380Y-91217595D02*
X205202380Y-91693785D01*
X205678571Y-91741404D01*
X205630952Y-91693785D01*
X205583333Y-91598547D01*
X205583333Y-91360452D01*
X205630952Y-91265214D01*
X205678571Y-91217595D01*
X205773809Y-91169976D01*
X206011904Y-91169976D01*
X206107142Y-91217595D01*
X206154761Y-91265214D01*
X206202380Y-91360452D01*
X206202380Y-91598547D01*
X206154761Y-91693785D01*
X206107142Y-91741404D01*
X205202380Y-90836642D02*
X205202380Y-90217595D01*
X205583333Y-90550928D01*
X205583333Y-90408071D01*
X205630952Y-90312833D01*
X205678571Y-90265214D01*
X205773809Y-90217595D01*
X206011904Y-90217595D01*
X206107142Y-90265214D01*
X206154761Y-90312833D01*
X206202380Y-90408071D01*
X206202380Y-90693785D01*
X206154761Y-90789023D01*
X206107142Y-90836642D01*
%TO.C,D54*%
X217170630Y-92693785D02*
X216170630Y-92693785D01*
X216170630Y-92455690D01*
X216218250Y-92312833D01*
X216313488Y-92217595D01*
X216408726Y-92169976D01*
X216599202Y-92122357D01*
X216742059Y-92122357D01*
X216932535Y-92169976D01*
X217027773Y-92217595D01*
X217123011Y-92312833D01*
X217170630Y-92455690D01*
X217170630Y-92693785D01*
X216170630Y-91217595D02*
X216170630Y-91693785D01*
X216646821Y-91741404D01*
X216599202Y-91693785D01*
X216551583Y-91598547D01*
X216551583Y-91360452D01*
X216599202Y-91265214D01*
X216646821Y-91217595D01*
X216742059Y-91169976D01*
X216980154Y-91169976D01*
X217075392Y-91217595D01*
X217123011Y-91265214D01*
X217170630Y-91360452D01*
X217170630Y-91598547D01*
X217123011Y-91693785D01*
X217075392Y-91741404D01*
X216503964Y-90312833D02*
X217170630Y-90312833D01*
X216123011Y-90550928D02*
X216837297Y-90789023D01*
X216837297Y-90169976D01*
%TO.C,D57*%
X87952380Y-88333035D02*
X86952380Y-88333035D01*
X86952380Y-88094940D01*
X87000000Y-87952083D01*
X87095238Y-87856845D01*
X87190476Y-87809226D01*
X87380952Y-87761607D01*
X87523809Y-87761607D01*
X87714285Y-87809226D01*
X87809523Y-87856845D01*
X87904761Y-87952083D01*
X87952380Y-88094940D01*
X87952380Y-88333035D01*
X86952380Y-86856845D02*
X86952380Y-87333035D01*
X87428571Y-87380654D01*
X87380952Y-87333035D01*
X87333333Y-87237797D01*
X87333333Y-86999702D01*
X87380952Y-86904464D01*
X87428571Y-86856845D01*
X87523809Y-86809226D01*
X87761904Y-86809226D01*
X87857142Y-86856845D01*
X87904761Y-86904464D01*
X87952380Y-86999702D01*
X87952380Y-87237797D01*
X87904761Y-87333035D01*
X87857142Y-87380654D01*
X86952380Y-86475892D02*
X86952380Y-85809226D01*
X87952380Y-86237797D01*
%TO.C,D58*%
X90702380Y-89833035D02*
X89702380Y-89833035D01*
X89702380Y-89594940D01*
X89750000Y-89452083D01*
X89845238Y-89356845D01*
X89940476Y-89309226D01*
X90130952Y-89261607D01*
X90273809Y-89261607D01*
X90464285Y-89309226D01*
X90559523Y-89356845D01*
X90654761Y-89452083D01*
X90702380Y-89594940D01*
X90702380Y-89833035D01*
X89702380Y-88356845D02*
X89702380Y-88833035D01*
X90178571Y-88880654D01*
X90130952Y-88833035D01*
X90083333Y-88737797D01*
X90083333Y-88499702D01*
X90130952Y-88404464D01*
X90178571Y-88356845D01*
X90273809Y-88309226D01*
X90511904Y-88309226D01*
X90607142Y-88356845D01*
X90654761Y-88404464D01*
X90702380Y-88499702D01*
X90702380Y-88737797D01*
X90654761Y-88833035D01*
X90607142Y-88880654D01*
X90130952Y-87737797D02*
X90083333Y-87833035D01*
X90035714Y-87880654D01*
X89940476Y-87928273D01*
X89892857Y-87928273D01*
X89797619Y-87880654D01*
X89750000Y-87833035D01*
X89702380Y-87737797D01*
X89702380Y-87547321D01*
X89750000Y-87452083D01*
X89797619Y-87404464D01*
X89892857Y-87356845D01*
X89940476Y-87356845D01*
X90035714Y-87404464D01*
X90083333Y-87452083D01*
X90130952Y-87547321D01*
X90130952Y-87737797D01*
X90178571Y-87833035D01*
X90226190Y-87880654D01*
X90321428Y-87928273D01*
X90511904Y-87928273D01*
X90607142Y-87880654D01*
X90654761Y-87833035D01*
X90702380Y-87737797D01*
X90702380Y-87547321D01*
X90654761Y-87452083D01*
X90607142Y-87404464D01*
X90511904Y-87356845D01*
X90321428Y-87356845D01*
X90226190Y-87404464D01*
X90178571Y-87452083D01*
X90130952Y-87547321D01*
%TO.C,D59*%
X93452380Y-91352535D02*
X92452380Y-91352535D01*
X92452380Y-91114440D01*
X92500000Y-90971583D01*
X92595238Y-90876345D01*
X92690476Y-90828726D01*
X92880952Y-90781107D01*
X93023809Y-90781107D01*
X93214285Y-90828726D01*
X93309523Y-90876345D01*
X93404761Y-90971583D01*
X93452380Y-91114440D01*
X93452380Y-91352535D01*
X92452380Y-89876345D02*
X92452380Y-90352535D01*
X92928571Y-90400154D01*
X92880952Y-90352535D01*
X92833333Y-90257297D01*
X92833333Y-90019202D01*
X92880952Y-89923964D01*
X92928571Y-89876345D01*
X93023809Y-89828726D01*
X93261904Y-89828726D01*
X93357142Y-89876345D01*
X93404761Y-89923964D01*
X93452380Y-90019202D01*
X93452380Y-90257297D01*
X93404761Y-90352535D01*
X93357142Y-90400154D01*
X93452380Y-89352535D02*
X93452380Y-89162059D01*
X93404761Y-89066821D01*
X93357142Y-89019202D01*
X93214285Y-88923964D01*
X93023809Y-88876345D01*
X92642857Y-88876345D01*
X92547619Y-88923964D01*
X92500000Y-88971583D01*
X92452380Y-89066821D01*
X92452380Y-89257297D01*
X92500000Y-89352535D01*
X92547619Y-89400154D01*
X92642857Y-89447773D01*
X92880952Y-89447773D01*
X92976190Y-89400154D01*
X93023809Y-89352535D01*
X93071428Y-89257297D01*
X93071428Y-89066821D01*
X93023809Y-88971583D01*
X92976190Y-88923964D01*
X92880952Y-88876345D01*
%TO.C,D60*%
X142952380Y-88333035D02*
X141952380Y-88333035D01*
X141952380Y-88094940D01*
X142000000Y-87952083D01*
X142095238Y-87856845D01*
X142190476Y-87809226D01*
X142380952Y-87761607D01*
X142523809Y-87761607D01*
X142714285Y-87809226D01*
X142809523Y-87856845D01*
X142904761Y-87952083D01*
X142952380Y-88094940D01*
X142952380Y-88333035D01*
X141952380Y-86904464D02*
X141952380Y-87094940D01*
X142000000Y-87190178D01*
X142047619Y-87237797D01*
X142190476Y-87333035D01*
X142380952Y-87380654D01*
X142761904Y-87380654D01*
X142857142Y-87333035D01*
X142904761Y-87285416D01*
X142952380Y-87190178D01*
X142952380Y-86999702D01*
X142904761Y-86904464D01*
X142857142Y-86856845D01*
X142761904Y-86809226D01*
X142523809Y-86809226D01*
X142428571Y-86856845D01*
X142380952Y-86904464D01*
X142333333Y-86999702D01*
X142333333Y-87190178D01*
X142380952Y-87285416D01*
X142428571Y-87333035D01*
X142523809Y-87380654D01*
X141952380Y-86190178D02*
X141952380Y-86094940D01*
X142000000Y-85999702D01*
X142047619Y-85952083D01*
X142142857Y-85904464D01*
X142333333Y-85856845D01*
X142571428Y-85856845D01*
X142761904Y-85904464D01*
X142857142Y-85952083D01*
X142904761Y-85999702D01*
X142952380Y-86094940D01*
X142952380Y-86190178D01*
X142904761Y-86285416D01*
X142857142Y-86333035D01*
X142761904Y-86380654D01*
X142571428Y-86428273D01*
X142333333Y-86428273D01*
X142142857Y-86380654D01*
X142047619Y-86333035D01*
X142000000Y-86285416D01*
X141952380Y-86190178D01*
%TO.C,D61*%
X189702380Y-89833035D02*
X188702380Y-89833035D01*
X188702380Y-89594940D01*
X188750000Y-89452083D01*
X188845238Y-89356845D01*
X188940476Y-89309226D01*
X189130952Y-89261607D01*
X189273809Y-89261607D01*
X189464285Y-89309226D01*
X189559523Y-89356845D01*
X189654761Y-89452083D01*
X189702380Y-89594940D01*
X189702380Y-89833035D01*
X188702380Y-88404464D02*
X188702380Y-88594940D01*
X188750000Y-88690178D01*
X188797619Y-88737797D01*
X188940476Y-88833035D01*
X189130952Y-88880654D01*
X189511904Y-88880654D01*
X189607142Y-88833035D01*
X189654761Y-88785416D01*
X189702380Y-88690178D01*
X189702380Y-88499702D01*
X189654761Y-88404464D01*
X189607142Y-88356845D01*
X189511904Y-88309226D01*
X189273809Y-88309226D01*
X189178571Y-88356845D01*
X189130952Y-88404464D01*
X189083333Y-88499702D01*
X189083333Y-88690178D01*
X189130952Y-88785416D01*
X189178571Y-88833035D01*
X189273809Y-88880654D01*
X189702380Y-87356845D02*
X189702380Y-87928273D01*
X189702380Y-87642559D02*
X188702380Y-87642559D01*
X188845238Y-87737797D01*
X188940476Y-87833035D01*
X188988095Y-87928273D01*
%TO.C,D62*%
X203452380Y-91098535D02*
X202452380Y-91098535D01*
X202452380Y-90860440D01*
X202500000Y-90717583D01*
X202595238Y-90622345D01*
X202690476Y-90574726D01*
X202880952Y-90527107D01*
X203023809Y-90527107D01*
X203214285Y-90574726D01*
X203309523Y-90622345D01*
X203404761Y-90717583D01*
X203452380Y-90860440D01*
X203452380Y-91098535D01*
X202452380Y-89669964D02*
X202452380Y-89860440D01*
X202500000Y-89955678D01*
X202547619Y-90003297D01*
X202690476Y-90098535D01*
X202880952Y-90146154D01*
X203261904Y-90146154D01*
X203357142Y-90098535D01*
X203404761Y-90050916D01*
X203452380Y-89955678D01*
X203452380Y-89765202D01*
X203404761Y-89669964D01*
X203357142Y-89622345D01*
X203261904Y-89574726D01*
X203023809Y-89574726D01*
X202928571Y-89622345D01*
X202880952Y-89669964D01*
X202833333Y-89765202D01*
X202833333Y-89955678D01*
X202880952Y-90050916D01*
X202928571Y-90098535D01*
X203023809Y-90146154D01*
X202547619Y-89193773D02*
X202500000Y-89146154D01*
X202452380Y-89050916D01*
X202452380Y-88812821D01*
X202500000Y-88717583D01*
X202547619Y-88669964D01*
X202642857Y-88622345D01*
X202738095Y-88622345D01*
X202880952Y-88669964D01*
X203452380Y-89241392D01*
X203452380Y-88622345D01*
%TO.C,D63*%
X350496130Y-122816785D02*
X349496130Y-122816785D01*
X349496130Y-122578690D01*
X349543750Y-122435833D01*
X349638988Y-122340595D01*
X349734226Y-122292976D01*
X349924702Y-122245357D01*
X350067559Y-122245357D01*
X350258035Y-122292976D01*
X350353273Y-122340595D01*
X350448511Y-122435833D01*
X350496130Y-122578690D01*
X350496130Y-122816785D01*
X349496130Y-121388214D02*
X349496130Y-121578690D01*
X349543750Y-121673928D01*
X349591369Y-121721547D01*
X349734226Y-121816785D01*
X349924702Y-121864404D01*
X350305654Y-121864404D01*
X350400892Y-121816785D01*
X350448511Y-121769166D01*
X350496130Y-121673928D01*
X350496130Y-121483452D01*
X350448511Y-121388214D01*
X350400892Y-121340595D01*
X350305654Y-121292976D01*
X350067559Y-121292976D01*
X349972321Y-121340595D01*
X349924702Y-121388214D01*
X349877083Y-121483452D01*
X349877083Y-121673928D01*
X349924702Y-121769166D01*
X349972321Y-121816785D01*
X350067559Y-121864404D01*
X349496130Y-120959642D02*
X349496130Y-120340595D01*
X349877083Y-120673928D01*
X349877083Y-120531071D01*
X349924702Y-120435833D01*
X349972321Y-120388214D01*
X350067559Y-120340595D01*
X350305654Y-120340595D01*
X350400892Y-120388214D01*
X350448511Y-120435833D01*
X350496130Y-120531071D01*
X350496130Y-120816785D01*
X350448511Y-120912023D01*
X350400892Y-120959642D01*
%TO.C,D64*%
X241952380Y-88162035D02*
X240952380Y-88162035D01*
X240952380Y-87923940D01*
X241000000Y-87781083D01*
X241095238Y-87685845D01*
X241190476Y-87638226D01*
X241380952Y-87590607D01*
X241523809Y-87590607D01*
X241714285Y-87638226D01*
X241809523Y-87685845D01*
X241904761Y-87781083D01*
X241952380Y-87923940D01*
X241952380Y-88162035D01*
X240952380Y-86733464D02*
X240952380Y-86923940D01*
X241000000Y-87019178D01*
X241047619Y-87066797D01*
X241190476Y-87162035D01*
X241380952Y-87209654D01*
X241761904Y-87209654D01*
X241857142Y-87162035D01*
X241904761Y-87114416D01*
X241952380Y-87019178D01*
X241952380Y-86828702D01*
X241904761Y-86733464D01*
X241857142Y-86685845D01*
X241761904Y-86638226D01*
X241523809Y-86638226D01*
X241428571Y-86685845D01*
X241380952Y-86733464D01*
X241333333Y-86828702D01*
X241333333Y-87019178D01*
X241380952Y-87114416D01*
X241428571Y-87162035D01*
X241523809Y-87209654D01*
X241285714Y-85781083D02*
X241952380Y-85781083D01*
X240904761Y-86019178D02*
X241619047Y-86257273D01*
X241619047Y-85638226D01*
%TO.C,D65*%
X244702380Y-89598535D02*
X243702380Y-89598535D01*
X243702380Y-89360440D01*
X243750000Y-89217583D01*
X243845238Y-89122345D01*
X243940476Y-89074726D01*
X244130952Y-89027107D01*
X244273809Y-89027107D01*
X244464285Y-89074726D01*
X244559523Y-89122345D01*
X244654761Y-89217583D01*
X244702380Y-89360440D01*
X244702380Y-89598535D01*
X243702380Y-88169964D02*
X243702380Y-88360440D01*
X243750000Y-88455678D01*
X243797619Y-88503297D01*
X243940476Y-88598535D01*
X244130952Y-88646154D01*
X244511904Y-88646154D01*
X244607142Y-88598535D01*
X244654761Y-88550916D01*
X244702380Y-88455678D01*
X244702380Y-88265202D01*
X244654761Y-88169964D01*
X244607142Y-88122345D01*
X244511904Y-88074726D01*
X244273809Y-88074726D01*
X244178571Y-88122345D01*
X244130952Y-88169964D01*
X244083333Y-88265202D01*
X244083333Y-88455678D01*
X244130952Y-88550916D01*
X244178571Y-88598535D01*
X244273809Y-88646154D01*
X243702380Y-87169964D02*
X243702380Y-87646154D01*
X244178571Y-87693773D01*
X244130952Y-87646154D01*
X244083333Y-87550916D01*
X244083333Y-87312821D01*
X244130952Y-87217583D01*
X244178571Y-87169964D01*
X244273809Y-87122345D01*
X244511904Y-87122345D01*
X244607142Y-87169964D01*
X244654761Y-87217583D01*
X244702380Y-87312821D01*
X244702380Y-87550916D01*
X244654761Y-87646154D01*
X244607142Y-87693773D01*
%TO.C,D66*%
X250202380Y-92693785D02*
X249202380Y-92693785D01*
X249202380Y-92455690D01*
X249250000Y-92312833D01*
X249345238Y-92217595D01*
X249440476Y-92169976D01*
X249630952Y-92122357D01*
X249773809Y-92122357D01*
X249964285Y-92169976D01*
X250059523Y-92217595D01*
X250154761Y-92312833D01*
X250202380Y-92455690D01*
X250202380Y-92693785D01*
X249202380Y-91265214D02*
X249202380Y-91455690D01*
X249250000Y-91550928D01*
X249297619Y-91598547D01*
X249440476Y-91693785D01*
X249630952Y-91741404D01*
X250011904Y-91741404D01*
X250107142Y-91693785D01*
X250154761Y-91646166D01*
X250202380Y-91550928D01*
X250202380Y-91360452D01*
X250154761Y-91265214D01*
X250107142Y-91217595D01*
X250011904Y-91169976D01*
X249773809Y-91169976D01*
X249678571Y-91217595D01*
X249630952Y-91265214D01*
X249583333Y-91360452D01*
X249583333Y-91550928D01*
X249630952Y-91646166D01*
X249678571Y-91693785D01*
X249773809Y-91741404D01*
X249202380Y-90312833D02*
X249202380Y-90503309D01*
X249250000Y-90598547D01*
X249297619Y-90646166D01*
X249440476Y-90741404D01*
X249630952Y-90789023D01*
X250011904Y-90789023D01*
X250107142Y-90741404D01*
X250154761Y-90693785D01*
X250202380Y-90598547D01*
X250202380Y-90408071D01*
X250154761Y-90312833D01*
X250107142Y-90265214D01*
X250011904Y-90217595D01*
X249773809Y-90217595D01*
X249678571Y-90265214D01*
X249630952Y-90312833D01*
X249583333Y-90408071D01*
X249583333Y-90598547D01*
X249630952Y-90693785D01*
X249678571Y-90741404D01*
X249773809Y-90789023D01*
%TO.C,D67*%
X247452380Y-91257285D02*
X246452380Y-91257285D01*
X246452380Y-91019190D01*
X246500000Y-90876333D01*
X246595238Y-90781095D01*
X246690476Y-90733476D01*
X246880952Y-90685857D01*
X247023809Y-90685857D01*
X247214285Y-90733476D01*
X247309523Y-90781095D01*
X247404761Y-90876333D01*
X247452380Y-91019190D01*
X247452380Y-91257285D01*
X246452380Y-89828714D02*
X246452380Y-90019190D01*
X246500000Y-90114428D01*
X246547619Y-90162047D01*
X246690476Y-90257285D01*
X246880952Y-90304904D01*
X247261904Y-90304904D01*
X247357142Y-90257285D01*
X247404761Y-90209666D01*
X247452380Y-90114428D01*
X247452380Y-89923952D01*
X247404761Y-89828714D01*
X247357142Y-89781095D01*
X247261904Y-89733476D01*
X247023809Y-89733476D01*
X246928571Y-89781095D01*
X246880952Y-89828714D01*
X246833333Y-89923952D01*
X246833333Y-90114428D01*
X246880952Y-90209666D01*
X246928571Y-90257285D01*
X247023809Y-90304904D01*
X246452380Y-89400142D02*
X246452380Y-88733476D01*
X247452380Y-89162047D01*
%TO.C,D68*%
X348114880Y-124531285D02*
X347114880Y-124531285D01*
X347114880Y-124293190D01*
X347162500Y-124150333D01*
X347257738Y-124055095D01*
X347352976Y-124007476D01*
X347543452Y-123959857D01*
X347686309Y-123959857D01*
X347876785Y-124007476D01*
X347972023Y-124055095D01*
X348067261Y-124150333D01*
X348114880Y-124293190D01*
X348114880Y-124531285D01*
X347114880Y-123102714D02*
X347114880Y-123293190D01*
X347162500Y-123388428D01*
X347210119Y-123436047D01*
X347352976Y-123531285D01*
X347543452Y-123578904D01*
X347924404Y-123578904D01*
X348019642Y-123531285D01*
X348067261Y-123483666D01*
X348114880Y-123388428D01*
X348114880Y-123197952D01*
X348067261Y-123102714D01*
X348019642Y-123055095D01*
X347924404Y-123007476D01*
X347686309Y-123007476D01*
X347591071Y-123055095D01*
X347543452Y-123102714D01*
X347495833Y-123197952D01*
X347495833Y-123388428D01*
X347543452Y-123483666D01*
X347591071Y-123531285D01*
X347686309Y-123578904D01*
X347543452Y-122436047D02*
X347495833Y-122531285D01*
X347448214Y-122578904D01*
X347352976Y-122626523D01*
X347305357Y-122626523D01*
X347210119Y-122578904D01*
X347162500Y-122531285D01*
X347114880Y-122436047D01*
X347114880Y-122245571D01*
X347162500Y-122150333D01*
X347210119Y-122102714D01*
X347305357Y-122055095D01*
X347352976Y-122055095D01*
X347448214Y-122102714D01*
X347495833Y-122150333D01*
X347543452Y-122245571D01*
X347543452Y-122436047D01*
X347591071Y-122531285D01*
X347638690Y-122578904D01*
X347733928Y-122626523D01*
X347924404Y-122626523D01*
X348019642Y-122578904D01*
X348067261Y-122531285D01*
X348114880Y-122436047D01*
X348114880Y-122245571D01*
X348067261Y-122150333D01*
X348019642Y-122102714D01*
X347924404Y-122055095D01*
X347733928Y-122055095D01*
X347638690Y-122102714D01*
X347591071Y-122150333D01*
X347543452Y-122245571D01*
%TO.C,D69*%
X345733630Y-126976035D02*
X344733630Y-126976035D01*
X344733630Y-126737940D01*
X344781250Y-126595083D01*
X344876488Y-126499845D01*
X344971726Y-126452226D01*
X345162202Y-126404607D01*
X345305059Y-126404607D01*
X345495535Y-126452226D01*
X345590773Y-126499845D01*
X345686011Y-126595083D01*
X345733630Y-126737940D01*
X345733630Y-126976035D01*
X344733630Y-125547464D02*
X344733630Y-125737940D01*
X344781250Y-125833178D01*
X344828869Y-125880797D01*
X344971726Y-125976035D01*
X345162202Y-126023654D01*
X345543154Y-126023654D01*
X345638392Y-125976035D01*
X345686011Y-125928416D01*
X345733630Y-125833178D01*
X345733630Y-125642702D01*
X345686011Y-125547464D01*
X345638392Y-125499845D01*
X345543154Y-125452226D01*
X345305059Y-125452226D01*
X345209821Y-125499845D01*
X345162202Y-125547464D01*
X345114583Y-125642702D01*
X345114583Y-125833178D01*
X345162202Y-125928416D01*
X345209821Y-125976035D01*
X345305059Y-126023654D01*
X345733630Y-124976035D02*
X345733630Y-124785559D01*
X345686011Y-124690321D01*
X345638392Y-124642702D01*
X345495535Y-124547464D01*
X345305059Y-124499845D01*
X344924107Y-124499845D01*
X344828869Y-124547464D01*
X344781250Y-124595083D01*
X344733630Y-124690321D01*
X344733630Y-124880797D01*
X344781250Y-124976035D01*
X344828869Y-125023654D01*
X344924107Y-125071273D01*
X345162202Y-125071273D01*
X345257440Y-125023654D01*
X345305059Y-124976035D01*
X345352678Y-124880797D01*
X345352678Y-124690321D01*
X345305059Y-124595083D01*
X345257440Y-124547464D01*
X345162202Y-124499845D01*
%TO.C,D70*%
X107202380Y-92789035D02*
X106202380Y-92789035D01*
X106202380Y-92550940D01*
X106250000Y-92408083D01*
X106345238Y-92312845D01*
X106440476Y-92265226D01*
X106630952Y-92217607D01*
X106773809Y-92217607D01*
X106964285Y-92265226D01*
X107059523Y-92312845D01*
X107154761Y-92408083D01*
X107202380Y-92550940D01*
X107202380Y-92789035D01*
X106202380Y-91884273D02*
X106202380Y-91217607D01*
X107202380Y-91646178D01*
X106202380Y-90646178D02*
X106202380Y-90550940D01*
X106250000Y-90455702D01*
X106297619Y-90408083D01*
X106392857Y-90360464D01*
X106583333Y-90312845D01*
X106821428Y-90312845D01*
X107011904Y-90360464D01*
X107107142Y-90408083D01*
X107154761Y-90455702D01*
X107202380Y-90550940D01*
X107202380Y-90646178D01*
X107154761Y-90741416D01*
X107107142Y-90789035D01*
X107011904Y-90836654D01*
X106821428Y-90884273D01*
X106583333Y-90884273D01*
X106392857Y-90836654D01*
X106297619Y-90789035D01*
X106250000Y-90741416D01*
X106202380Y-90646178D01*
%TO.C,C6*%
X270029610Y-93534687D02*
X269962267Y-93534687D01*
X269827580Y-93467343D01*
X269760236Y-93400000D01*
X269692893Y-93265312D01*
X269692893Y-93130625D01*
X269726564Y-93029610D01*
X269827580Y-92861251D01*
X269928595Y-92760236D01*
X270096954Y-92659221D01*
X270197969Y-92625549D01*
X270332656Y-92625549D01*
X270467343Y-92692893D01*
X270534687Y-92760236D01*
X270602030Y-92894923D01*
X270602030Y-92962267D01*
X271275465Y-93501015D02*
X271140778Y-93366328D01*
X271039763Y-93332656D01*
X270972419Y-93332656D01*
X270804061Y-93366328D01*
X270635702Y-93467343D01*
X270366328Y-93736717D01*
X270332656Y-93837732D01*
X270332656Y-93905076D01*
X270366328Y-94006091D01*
X270501015Y-94140778D01*
X270602030Y-94174450D01*
X270669374Y-94174450D01*
X270770389Y-94140778D01*
X270938748Y-93972419D01*
X270972419Y-93871404D01*
X270972419Y-93804061D01*
X270938748Y-93703045D01*
X270804061Y-93568358D01*
X270703045Y-93534687D01*
X270635702Y-93534687D01*
X270534687Y-93568358D01*
%TO.C,C7*%
X286783333Y-104257142D02*
X286735714Y-104304761D01*
X286592857Y-104352380D01*
X286497619Y-104352380D01*
X286354761Y-104304761D01*
X286259523Y-104209523D01*
X286211904Y-104114285D01*
X286164285Y-103923809D01*
X286164285Y-103780952D01*
X286211904Y-103590476D01*
X286259523Y-103495238D01*
X286354761Y-103400000D01*
X286497619Y-103352380D01*
X286592857Y-103352380D01*
X286735714Y-103400000D01*
X286783333Y-103447619D01*
X287116666Y-103352380D02*
X287783333Y-103352380D01*
X287354761Y-104352380D01*
%TO.C,C8*%
X295607142Y-89916666D02*
X295654761Y-89964285D01*
X295702380Y-90107142D01*
X295702380Y-90202380D01*
X295654761Y-90345238D01*
X295559523Y-90440476D01*
X295464285Y-90488095D01*
X295273809Y-90535714D01*
X295130952Y-90535714D01*
X294940476Y-90488095D01*
X294845238Y-90440476D01*
X294750000Y-90345238D01*
X294702380Y-90202380D01*
X294702380Y-90107142D01*
X294750000Y-89964285D01*
X294797619Y-89916666D01*
X295130952Y-89345238D02*
X295083333Y-89440476D01*
X295035714Y-89488095D01*
X294940476Y-89535714D01*
X294892857Y-89535714D01*
X294797619Y-89488095D01*
X294750000Y-89440476D01*
X294702380Y-89345238D01*
X294702380Y-89154761D01*
X294750000Y-89059523D01*
X294797619Y-89011904D01*
X294892857Y-88964285D01*
X294940476Y-88964285D01*
X295035714Y-89011904D01*
X295083333Y-89059523D01*
X295130952Y-89154761D01*
X295130952Y-89345238D01*
X295178571Y-89440476D01*
X295226190Y-89488095D01*
X295321428Y-89535714D01*
X295511904Y-89535714D01*
X295607142Y-89488095D01*
X295654761Y-89440476D01*
X295702380Y-89345238D01*
X295702380Y-89154761D01*
X295654761Y-89059523D01*
X295607142Y-89011904D01*
X295511904Y-88964285D01*
X295321428Y-88964285D01*
X295226190Y-89011904D01*
X295178571Y-89059523D01*
X295130952Y-89154761D01*
%TO.C,C9*%
X287583333Y-80607142D02*
X287535714Y-80654761D01*
X287392857Y-80702380D01*
X287297619Y-80702380D01*
X287154761Y-80654761D01*
X287059523Y-80559523D01*
X287011904Y-80464285D01*
X286964285Y-80273809D01*
X286964285Y-80130952D01*
X287011904Y-79940476D01*
X287059523Y-79845238D01*
X287154761Y-79750000D01*
X287297619Y-79702380D01*
X287392857Y-79702380D01*
X287535714Y-79750000D01*
X287583333Y-79797619D01*
X288059523Y-80702380D02*
X288250000Y-80702380D01*
X288345238Y-80654761D01*
X288392857Y-80607142D01*
X288488095Y-80464285D01*
X288535714Y-80273809D01*
X288535714Y-79892857D01*
X288488095Y-79797619D01*
X288440476Y-79750000D01*
X288345238Y-79702380D01*
X288154761Y-79702380D01*
X288059523Y-79750000D01*
X288011904Y-79797619D01*
X287964285Y-79892857D01*
X287964285Y-80130952D01*
X288011904Y-80226190D01*
X288059523Y-80273809D01*
X288154761Y-80321428D01*
X288345238Y-80321428D01*
X288440476Y-80273809D01*
X288488095Y-80226190D01*
X288535714Y-80130952D01*
%TO.C,C10*%
X295607142Y-95142857D02*
X295654761Y-95190476D01*
X295702380Y-95333333D01*
X295702380Y-95428571D01*
X295654761Y-95571428D01*
X295559523Y-95666666D01*
X295464285Y-95714285D01*
X295273809Y-95761904D01*
X295130952Y-95761904D01*
X294940476Y-95714285D01*
X294845238Y-95666666D01*
X294750000Y-95571428D01*
X294702380Y-95428571D01*
X294702380Y-95333333D01*
X294750000Y-95190476D01*
X294797619Y-95142857D01*
X295702380Y-94190476D02*
X295702380Y-94761904D01*
X295702380Y-94476190D02*
X294702380Y-94476190D01*
X294845238Y-94571428D01*
X294940476Y-94666666D01*
X294988095Y-94761904D01*
X294702380Y-93571428D02*
X294702380Y-93476190D01*
X294750000Y-93380952D01*
X294797619Y-93333333D01*
X294892857Y-93285714D01*
X295083333Y-93238095D01*
X295321428Y-93238095D01*
X295511904Y-93285714D01*
X295607142Y-93333333D01*
X295654761Y-93380952D01*
X295702380Y-93476190D01*
X295702380Y-93571428D01*
X295654761Y-93666666D01*
X295607142Y-93714285D01*
X295511904Y-93761904D01*
X295321428Y-93809523D01*
X295083333Y-93809523D01*
X294892857Y-93761904D01*
X294797619Y-93714285D01*
X294750000Y-93666666D01*
X294702380Y-93571428D01*
%TO.C,C11*%
X279357142Y-77857142D02*
X279309523Y-77904761D01*
X279166666Y-77952380D01*
X279071428Y-77952380D01*
X278928571Y-77904761D01*
X278833333Y-77809523D01*
X278785714Y-77714285D01*
X278738095Y-77523809D01*
X278738095Y-77380952D01*
X278785714Y-77190476D01*
X278833333Y-77095238D01*
X278928571Y-77000000D01*
X279071428Y-76952380D01*
X279166666Y-76952380D01*
X279309523Y-77000000D01*
X279357142Y-77047619D01*
X280309523Y-77952380D02*
X279738095Y-77952380D01*
X280023809Y-77952380D02*
X280023809Y-76952380D01*
X279928571Y-77095238D01*
X279833333Y-77190476D01*
X279738095Y-77238095D01*
X281261904Y-77952380D02*
X280690476Y-77952380D01*
X280976190Y-77952380D02*
X280976190Y-76952380D01*
X280880952Y-77095238D01*
X280785714Y-77190476D01*
X280690476Y-77238095D01*
%TO.C,R9*%
X349133333Y-96852380D02*
X348800000Y-96376190D01*
X348561904Y-96852380D02*
X348561904Y-95852380D01*
X348942857Y-95852380D01*
X349038095Y-95900000D01*
X349085714Y-95947619D01*
X349133333Y-96042857D01*
X349133333Y-96185714D01*
X349085714Y-96280952D01*
X349038095Y-96328571D01*
X348942857Y-96376190D01*
X348561904Y-96376190D01*
X349609523Y-96852380D02*
X349800000Y-96852380D01*
X349895238Y-96804761D01*
X349942857Y-96757142D01*
X350038095Y-96614285D01*
X350085714Y-96423809D01*
X350085714Y-96042857D01*
X350038095Y-95947619D01*
X349990476Y-95900000D01*
X349895238Y-95852380D01*
X349704761Y-95852380D01*
X349609523Y-95900000D01*
X349561904Y-95947619D01*
X349514285Y-96042857D01*
X349514285Y-96280952D01*
X349561904Y-96376190D01*
X349609523Y-96423809D01*
X349704761Y-96471428D01*
X349895238Y-96471428D01*
X349990476Y-96423809D01*
X350038095Y-96376190D01*
X350085714Y-96280952D01*
%TO.C,R10*%
X349157142Y-94052380D02*
X348823809Y-93576190D01*
X348585714Y-94052380D02*
X348585714Y-93052380D01*
X348966666Y-93052380D01*
X349061904Y-93100000D01*
X349109523Y-93147619D01*
X349157142Y-93242857D01*
X349157142Y-93385714D01*
X349109523Y-93480952D01*
X349061904Y-93528571D01*
X348966666Y-93576190D01*
X348585714Y-93576190D01*
X350109523Y-94052380D02*
X349538095Y-94052380D01*
X349823809Y-94052380D02*
X349823809Y-93052380D01*
X349728571Y-93195238D01*
X349633333Y-93290476D01*
X349538095Y-93338095D01*
X350728571Y-93052380D02*
X350823809Y-93052380D01*
X350919047Y-93100000D01*
X350966666Y-93147619D01*
X351014285Y-93242857D01*
X351061904Y-93433333D01*
X351061904Y-93671428D01*
X351014285Y-93861904D01*
X350966666Y-93957142D01*
X350919047Y-94004761D01*
X350823809Y-94052380D01*
X350728571Y-94052380D01*
X350633333Y-94004761D01*
X350585714Y-93957142D01*
X350538095Y-93861904D01*
X350490476Y-93671428D01*
X350490476Y-93433333D01*
X350538095Y-93242857D01*
X350585714Y-93147619D01*
X350633333Y-93100000D01*
X350728571Y-93052380D01*
%TO.C,U2*%
X323048095Y-84912380D02*
X323048095Y-85721904D01*
X323095714Y-85817142D01*
X323143333Y-85864761D01*
X323238571Y-85912380D01*
X323429047Y-85912380D01*
X323524285Y-85864761D01*
X323571904Y-85817142D01*
X323619523Y-85721904D01*
X323619523Y-84912380D01*
X324048095Y-85007619D02*
X324095714Y-84960000D01*
X324190952Y-84912380D01*
X324429047Y-84912380D01*
X324524285Y-84960000D01*
X324571904Y-85007619D01*
X324619523Y-85102857D01*
X324619523Y-85198095D01*
X324571904Y-85340952D01*
X324000476Y-85912380D01*
X324619523Y-85912380D01*
X338048095Y-87960000D02*
X337952857Y-87912380D01*
X337810000Y-87912380D01*
X337667142Y-87960000D01*
X337571904Y-88055238D01*
X337524285Y-88150476D01*
X337476666Y-88340952D01*
X337476666Y-88483809D01*
X337524285Y-88674285D01*
X337571904Y-88769523D01*
X337667142Y-88864761D01*
X337810000Y-88912380D01*
X337905238Y-88912380D01*
X338048095Y-88864761D01*
X338095714Y-88817142D01*
X338095714Y-88483809D01*
X337905238Y-88483809D01*
X338524285Y-88912380D02*
X338524285Y-87912380D01*
X339095714Y-88912380D01*
X339095714Y-87912380D01*
X339571904Y-88912380D02*
X339571904Y-87912380D01*
X339810000Y-87912380D01*
X339952857Y-87960000D01*
X340048095Y-88055238D01*
X340095714Y-88150476D01*
X340143333Y-88340952D01*
X340143333Y-88483809D01*
X340095714Y-88674285D01*
X340048095Y-88769523D01*
X339952857Y-88864761D01*
X339810000Y-88912380D01*
X339571904Y-88912380D01*
X337476666Y-90452380D02*
X337810000Y-91452380D01*
X338143333Y-90452380D01*
X339048095Y-91357142D02*
X339000476Y-91404761D01*
X338857619Y-91452380D01*
X338762380Y-91452380D01*
X338619523Y-91404761D01*
X338524285Y-91309523D01*
X338476666Y-91214285D01*
X338429047Y-91023809D01*
X338429047Y-90880952D01*
X338476666Y-90690476D01*
X338524285Y-90595238D01*
X338619523Y-90500000D01*
X338762380Y-90452380D01*
X338857619Y-90452380D01*
X339000476Y-90500000D01*
X339048095Y-90547619D01*
X340048095Y-91357142D02*
X340000476Y-91404761D01*
X339857619Y-91452380D01*
X339762380Y-91452380D01*
X339619523Y-91404761D01*
X339524285Y-91309523D01*
X339476666Y-91214285D01*
X339429047Y-91023809D01*
X339429047Y-90880952D01*
X339476666Y-90690476D01*
X339524285Y-90595238D01*
X339619523Y-90500000D01*
X339762380Y-90452380D01*
X339857619Y-90452380D01*
X340000476Y-90500000D01*
X340048095Y-90547619D01*
X337519523Y-93944761D02*
X337662380Y-93992380D01*
X337900476Y-93992380D01*
X337995714Y-93944761D01*
X338043333Y-93897142D01*
X338090952Y-93801904D01*
X338090952Y-93706666D01*
X338043333Y-93611428D01*
X337995714Y-93563809D01*
X337900476Y-93516190D01*
X337710000Y-93468571D01*
X337614761Y-93420952D01*
X337567142Y-93373333D01*
X337519523Y-93278095D01*
X337519523Y-93182857D01*
X337567142Y-93087619D01*
X337614761Y-93040000D01*
X337710000Y-92992380D01*
X337948095Y-92992380D01*
X338090952Y-93040000D01*
X339090952Y-93897142D02*
X339043333Y-93944761D01*
X338900476Y-93992380D01*
X338805238Y-93992380D01*
X338662380Y-93944761D01*
X338567142Y-93849523D01*
X338519523Y-93754285D01*
X338471904Y-93563809D01*
X338471904Y-93420952D01*
X338519523Y-93230476D01*
X338567142Y-93135238D01*
X338662380Y-93040000D01*
X338805238Y-92992380D01*
X338900476Y-92992380D01*
X339043333Y-93040000D01*
X339090952Y-93087619D01*
X339995714Y-93992380D02*
X339519523Y-93992380D01*
X339519523Y-92992380D01*
X337495714Y-96484761D02*
X337638571Y-96532380D01*
X337876666Y-96532380D01*
X337971904Y-96484761D01*
X338019523Y-96437142D01*
X338067142Y-96341904D01*
X338067142Y-96246666D01*
X338019523Y-96151428D01*
X337971904Y-96103809D01*
X337876666Y-96056190D01*
X337686190Y-96008571D01*
X337590952Y-95960952D01*
X337543333Y-95913333D01*
X337495714Y-95818095D01*
X337495714Y-95722857D01*
X337543333Y-95627619D01*
X337590952Y-95580000D01*
X337686190Y-95532380D01*
X337924285Y-95532380D01*
X338067142Y-95580000D01*
X338495714Y-96532380D02*
X338495714Y-95532380D01*
X338733809Y-95532380D01*
X338876666Y-95580000D01*
X338971904Y-95675238D01*
X339019523Y-95770476D01*
X339067142Y-95960952D01*
X339067142Y-96103809D01*
X339019523Y-96294285D01*
X338971904Y-96389523D01*
X338876666Y-96484761D01*
X338733809Y-96532380D01*
X338495714Y-96532380D01*
X339448095Y-96246666D02*
X339924285Y-96246666D01*
X339352857Y-96532380D02*
X339686190Y-95532380D01*
X340019523Y-96532380D01*
%TD*%
M02*
