%TF.GenerationSoftware,KiCad,Pcbnew,(5.1.6)-1*%
%TF.CreationDate,2020-09-27T19:15:20-04:00*%
%TF.ProjectId,keybored,6b657962-6f72-4656-942e-6b696361645f,rev?*%
%TF.SameCoordinates,Original*%
%TF.FileFunction,Paste,Bot*%
%TF.FilePolarity,Positive*%
%FSLAX46Y46*%
G04 Gerber Fmt 4.6, Leading zero omitted, Abs format (unit mm)*
G04 Created by KiCad (PCBNEW (5.1.6)-1) date 2020-09-27 19:15:20*
%MOMM*%
%LPD*%
G01*
G04 APERTURE LIST*
%ADD10R,1.500000X1.000000*%
%ADD11R,2.550000X2.500000*%
%ADD12R,1.800000X1.200000*%
%ADD13R,1.550000X0.600000*%
G04 APERTURE END LIST*
%TO.C,REF\u002A\u002A*%
G36*
G01*
X341147500Y-83535626D02*
X341147500Y-81384374D01*
G75*
G02*
X341396874Y-81135000I249374J0D01*
G01*
X342323126Y-81135000D01*
G75*
G02*
X342572500Y-81384374I0J-249374D01*
G01*
X342572500Y-83535626D01*
G75*
G02*
X342323126Y-83785000I-249374J0D01*
G01*
X341396874Y-83785000D01*
G75*
G02*
X341147500Y-83535626I0J249374D01*
G01*
G37*
G36*
G01*
X338172500Y-83535000D02*
X338172500Y-81385000D01*
G75*
G02*
X338422500Y-81135000I250000J0D01*
G01*
X339347500Y-81135000D01*
G75*
G02*
X339597500Y-81385000I0J-250000D01*
G01*
X339597500Y-83535000D01*
G75*
G02*
X339347500Y-83785000I-250000J0D01*
G01*
X338422500Y-83785000D01*
G75*
G02*
X338172500Y-83535000I0J250000D01*
G01*
G37*
%TD*%
D10*
%TO.C,D71*%
X257243750Y-103175000D03*
X257243750Y-106375000D03*
X252343750Y-103175000D03*
X252343750Y-106375000D03*
%TD*%
%TO.C,D83*%
X213050000Y-106600000D03*
X213050000Y-103400000D03*
X217950000Y-106600000D03*
X217950000Y-103400000D03*
%TD*%
%TO.C,D82*%
X102462500Y-179375000D03*
X102462500Y-182575000D03*
X97562500Y-179375000D03*
X97562500Y-182575000D03*
%TD*%
%TO.C,D79*%
X130900000Y-182575000D03*
X130900000Y-179375000D03*
X135800000Y-182575000D03*
X135800000Y-179375000D03*
%TD*%
%TO.C,D78*%
X328543750Y-182575000D03*
X328543750Y-179375000D03*
X333443750Y-182575000D03*
X333443750Y-179375000D03*
%TD*%
%TO.C,D76*%
X178662500Y-179375000D03*
X178662500Y-182575000D03*
X173762500Y-179375000D03*
X173762500Y-182575000D03*
%TD*%
%TO.C,D75*%
X343850000Y-144200000D03*
X343850000Y-141000000D03*
X348750000Y-144200000D03*
X348750000Y-141000000D03*
%TD*%
%TO.C,D74*%
X97562500Y-106375000D03*
X97562500Y-103175000D03*
X102462500Y-106375000D03*
X102462500Y-103175000D03*
%TD*%
%TO.C,D73*%
X217950000Y-179375000D03*
X217950000Y-182575000D03*
X213050000Y-179375000D03*
X213050000Y-182575000D03*
%TD*%
%TO.C,D72*%
X328543750Y-106375000D03*
X328543750Y-103175000D03*
X333443750Y-106375000D03*
X333443750Y-103175000D03*
%TD*%
%TO.C,D70*%
X88350000Y-141000000D03*
X88350000Y-144200000D03*
X83450000Y-141000000D03*
X83450000Y-144200000D03*
%TD*%
%TO.C,D69*%
X252343750Y-182575000D03*
X252343750Y-179375000D03*
X257243750Y-182575000D03*
X257243750Y-179375000D03*
%TD*%
%TO.C,D68*%
X295343750Y-103175000D03*
X295343750Y-106375000D03*
X290443750Y-103175000D03*
X290443750Y-106375000D03*
%TD*%
D11*
%TO.C,K66*%
X355660000Y-157480000D03*
X369510000Y-154940000D03*
%TD*%
%TO.C,K65*%
X355660000Y-138430000D03*
X369510000Y-135890000D03*
%TD*%
%TO.C,K64*%
X350460000Y-178752500D03*
X336610000Y-181292500D03*
%TD*%
%TO.C,K63*%
X355660000Y-200342500D03*
X369510000Y-197802500D03*
%TD*%
%TO.C,K62*%
X350460000Y-197802500D03*
X336610000Y-200342500D03*
%TD*%
%TO.C,K61*%
X331410000Y-197802500D03*
X317560000Y-200342500D03*
%TD*%
%TO.C,K60*%
X369510000Y-116840000D03*
X355660000Y-119380000D03*
%TD*%
%TO.C,K59*%
X300453750Y-193040000D03*
X286603750Y-195580000D03*
%TD*%
%TO.C,K58*%
X258028750Y-195580000D03*
X271878750Y-193040000D03*
%TD*%
%TO.C,K57*%
X184210000Y-195580000D03*
X198060000Y-193040000D03*
%TD*%
%TO.C,K56*%
X112772500Y-195580000D03*
X126622500Y-193040000D03*
%TD*%
%TO.C,K55*%
X102810000Y-193040000D03*
X88960000Y-195580000D03*
%TD*%
%TO.C,K54*%
X78997500Y-193040000D03*
X65147500Y-195580000D03*
%TD*%
%TO.C,K53*%
X317122500Y-173990000D03*
X303272500Y-176530000D03*
%TD*%
%TO.C,K52*%
X290928750Y-173990000D03*
X277078750Y-176530000D03*
%TD*%
%TO.C,K51*%
X271878750Y-173990000D03*
X258028750Y-176530000D03*
%TD*%
%TO.C,K50*%
X238978750Y-176530000D03*
X252828750Y-173990000D03*
%TD*%
%TO.C,K49*%
X219928750Y-176530000D03*
X233778750Y-173990000D03*
%TD*%
%TO.C,K48*%
X200878750Y-176530000D03*
X214728750Y-173990000D03*
%TD*%
%TO.C,K47*%
X181828750Y-176530000D03*
X195678750Y-173990000D03*
%TD*%
%TO.C,K46*%
X176628750Y-173990000D03*
X162778750Y-176530000D03*
%TD*%
%TO.C,K45*%
X143728750Y-176530000D03*
X157578750Y-173990000D03*
%TD*%
%TO.C,K44*%
X124678750Y-176530000D03*
X138528750Y-173990000D03*
%TD*%
%TO.C,K43*%
X119478750Y-173990000D03*
X105628750Y-176530000D03*
%TD*%
%TO.C,K42*%
X88522500Y-173990000D03*
X74672500Y-176530000D03*
%TD*%
%TO.C,K41*%
X317560000Y-157480000D03*
X331410000Y-154940000D03*
%TD*%
%TO.C,K40*%
X300453750Y-154940000D03*
X286603750Y-157480000D03*
%TD*%
%TO.C,K39*%
X281403750Y-154940000D03*
X267553750Y-157480000D03*
%TD*%
%TO.C,K38*%
X262353750Y-154940000D03*
X248503750Y-157480000D03*
%TD*%
%TO.C,K37*%
X229453750Y-157480000D03*
X243303750Y-154940000D03*
%TD*%
%TO.C,K36*%
X224253750Y-154940000D03*
X210403750Y-157480000D03*
%TD*%
%TO.C,K35*%
X191353750Y-157480000D03*
X205203750Y-154940000D03*
%TD*%
%TO.C,K34*%
X186153750Y-154940000D03*
X172303750Y-157480000D03*
%TD*%
%TO.C,K33*%
X167103750Y-154940000D03*
X153253750Y-157480000D03*
%TD*%
%TO.C,K32*%
X148053750Y-154940000D03*
X134203750Y-157480000D03*
%TD*%
%TO.C,K31*%
X129003750Y-154940000D03*
X115153750Y-157480000D03*
%TD*%
%TO.C,K30*%
X96103750Y-157480000D03*
X109953750Y-154940000D03*
%TD*%
%TO.C,K29*%
X83760000Y-154940000D03*
X69910000Y-157480000D03*
%TD*%
%TO.C,K28*%
X324703750Y-138430000D03*
X338553750Y-135890000D03*
%TD*%
%TO.C,K27*%
X300891250Y-138430000D03*
X314741250Y-135890000D03*
%TD*%
%TO.C,K25*%
X276641250Y-135890000D03*
X262791250Y-138430000D03*
%TD*%
%TO.C,K24*%
X243741250Y-138430000D03*
X257591250Y-135890000D03*
%TD*%
%TO.C,K23*%
X224691250Y-138430000D03*
X238541250Y-135890000D03*
%TD*%
%TO.C,K22*%
X219491250Y-135890000D03*
X205641250Y-138430000D03*
%TD*%
%TO.C,K21*%
X200441250Y-135890000D03*
X186591250Y-138430000D03*
%TD*%
%TO.C,K20*%
X167541250Y-138430000D03*
X181391250Y-135890000D03*
%TD*%
%TO.C,K19*%
X148491250Y-138430000D03*
X162341250Y-135890000D03*
%TD*%
%TO.C,K18*%
X129441250Y-138430000D03*
X143291250Y-135890000D03*
%TD*%
%TO.C,K17*%
X110391250Y-138430000D03*
X124241250Y-135890000D03*
%TD*%
%TO.C,K16*%
X105191250Y-135890000D03*
X91341250Y-138430000D03*
%TD*%
%TO.C,K15*%
X67528750Y-138430000D03*
X81378750Y-135890000D03*
%TD*%
%TO.C,K14*%
X319941250Y-119380000D03*
X333791250Y-116840000D03*
%TD*%
%TO.C,K13*%
X291366250Y-119380000D03*
X305216250Y-116840000D03*
%TD*%
%TO.C,K11*%
X253266250Y-119380000D03*
X267116250Y-116840000D03*
%TD*%
%TO.C,K6*%
X171866250Y-116840000D03*
X158016250Y-119380000D03*
%TD*%
%TO.C,K5*%
X138966250Y-119380000D03*
X152816250Y-116840000D03*
%TD*%
%TO.C,K3*%
X114716250Y-116840000D03*
X100866250Y-119380000D03*
%TD*%
%TO.C,K10*%
X234216250Y-119380000D03*
X248066250Y-116840000D03*
%TD*%
%TO.C,K2*%
X95666250Y-116840000D03*
X81816250Y-119380000D03*
%TD*%
%TO.C,K9*%
X215166250Y-119380000D03*
X229016250Y-116840000D03*
%TD*%
%TO.C,K8*%
X209966250Y-116840000D03*
X196116250Y-119380000D03*
%TD*%
%TO.C,K26*%
X295691250Y-135890000D03*
X281841250Y-138430000D03*
%TD*%
%TO.C,K1*%
X62766250Y-119380000D03*
X76616250Y-116840000D03*
%TD*%
%TO.C,K7*%
X190916250Y-116840000D03*
X177066250Y-119380000D03*
%TD*%
%TO.C,K12*%
X286166250Y-116840000D03*
X272316250Y-119380000D03*
%TD*%
D10*
%TO.C,D81*%
X295206250Y-182575000D03*
X295206250Y-179375000D03*
X300106250Y-182575000D03*
X300106250Y-179375000D03*
%TD*%
%TO.C,D77*%
X135800000Y-103175000D03*
X135800000Y-106375000D03*
X130900000Y-103175000D03*
X130900000Y-106375000D03*
%TD*%
D11*
%TO.C,K4*%
X119916250Y-119380000D03*
X133766250Y-116840000D03*
%TD*%
D10*
%TO.C,D80*%
X173762500Y-106375000D03*
X173762500Y-103175000D03*
X178662500Y-106375000D03*
X178662500Y-103175000D03*
%TD*%
D12*
%TO.C,REF\u002A\u002A*%
X346100000Y-92800000D03*
X346100000Y-87200000D03*
D13*
X342225000Y-88500000D03*
X342225000Y-89500000D03*
X342225000Y-91500000D03*
X342225000Y-90500000D03*
%TD*%
M02*
