M48
; DRILL file {KiCad (5.1.6)-1} date 09/27/20 19:15:23
; FORMAT={-:-/ absolute / inch / decimal}
; #@! TF.CreationDate,2020-09-27T19:15:23-04:00
; #@! TF.GenerationSoftware,Kicad,Pcbnew,(5.1.6)-1
; #@! TF.FileFunction,NonPlated,1,2,NPTH
FMAT,2
INCH
T1C0.0670
T2C0.1181
T3C0.1200
T4C0.1570
%
G90
G05
T1
X7.5812Y-6.0
X7.9813Y-6.0
X7.3937Y-5.25
X7.7938Y-5.25
X5.8937Y-5.25
X6.2938Y-5.25
X5.7062Y-6.75
X6.1063Y-6.75
X3.55Y-7.5
X3.95Y-7.5
X14.05Y-6.0
X14.45Y-6.0
X6.8312Y-6.0
X7.2313Y-6.0
X9.0812Y-6.0
X9.4812Y-6.0
X8.1437Y-5.25
X8.5437Y-5.25
X10.0187Y-4.5
X10.4187Y-4.5
X10.2062Y-6.75
X10.6062Y-6.75
X11.9875Y-6.75
X12.3875Y-6.75
X2.6125Y-7.5
X3.0125Y-7.5
X14.05Y-7.6875
X14.45Y-7.6875
X10.3937Y-5.25
X10.7937Y-5.25
X10.2062Y-7.5
X10.6062Y-7.5
X9.6437Y-5.25
X10.0437Y-5.25
X5.1437Y-5.25
X5.5438Y-5.25
X8.8937Y-5.25
X9.2937Y-5.25
X11.5187Y-4.5
X11.9187Y-4.5
X4.0187Y-4.5
X4.4188Y-4.5
X2.9875Y-6.75
X3.3875Y-6.75
X2.5187Y-4.5
X2.9187Y-4.5
X4.9562Y-6.75
X5.3563Y-6.75
X4.7687Y-4.5
X5.1688Y-4.5
X7.2062Y-6.75
X7.6063Y-6.75
X14.05Y-5.25
X14.45Y-5.25
X10.5812Y-6.0
X10.9812Y-6.0
X11.3312Y-7.5
X11.7312Y-7.5
X3.8312Y-6.0
X4.2313Y-6.0
X4.5812Y-6.0
X4.9813Y-6.0
X12.6437Y-4.5
X13.0437Y-4.5
X6.6437Y-5.25
X7.0438Y-5.25
X7.9562Y-6.75
X8.3562Y-6.75
X7.7687Y-4.5
X8.1687Y-4.5
X10.9562Y-6.75
X11.3562Y-6.75
X10.7687Y-4.5
X11.1687Y-4.5
X11.3312Y-6.0
X11.7312Y-6.0
X14.05Y-4.5
X14.45Y-4.5
X9.8312Y-6.0
X10.2312Y-6.0
X12.55Y-7.6875
X12.95Y-7.6875
X6.0812Y-6.0
X6.4813Y-6.0
X5.3312Y-6.0
X5.7313Y-6.0
X2.7062Y-5.25
X3.1062Y-5.25
X7.0187Y-4.5
X7.4188Y-4.5
X5.5187Y-4.5
X5.9188Y-4.5
X4.4875Y-7.5
X4.8875Y-7.5
X3.2687Y-4.5
X3.6687Y-4.5
X6.4562Y-6.75
X6.8563Y-6.75
X11.1437Y-5.25
X11.5437Y-5.25
X12.55Y-6.0
X12.95Y-6.0
X13.3Y-6.9375
X13.7Y-6.9375
X8.3312Y-6.0
X8.7312Y-6.0
X13.3Y-7.6875
X13.7Y-7.6875
X12.8312Y-5.25
X13.2312Y-5.25
X4.3937Y-5.25
X4.7938Y-5.25
X8.5187Y-4.5
X8.9187Y-4.5
X3.6437Y-5.25
X4.0438Y-5.25
X9.4562Y-6.75
X9.8562Y-6.75
X7.3Y-7.5
X7.7Y-7.5
X11.8937Y-5.25
X12.2937Y-5.25
X2.8Y-6.0
X3.2Y-6.0
X6.2687Y-4.5
X6.6688Y-4.5
X4.2062Y-6.75
X4.6063Y-6.75
X9.2687Y-4.5
X9.6687Y-4.5
X8.7062Y-6.75
X9.1062Y-6.75
T2
X14.15Y-6.2
X14.4Y-6.1
X6.9312Y-6.2
X7.1812Y-6.1
X9.1813Y-6.2
X9.4313Y-6.1
X8.2438Y-5.45
X8.4938Y-5.35
X10.1188Y-4.7
X10.3688Y-4.6
X10.3063Y-6.95
X10.5563Y-6.85
X12.0875Y-6.95
X12.3375Y-6.85
X2.7125Y-7.7
X2.9625Y-7.6
X14.15Y-7.8875
X14.4Y-7.7875
X10.4938Y-5.45
X10.7438Y-5.35
X10.3063Y-7.7
X10.5563Y-7.6
X9.7438Y-5.45
X9.9938Y-5.35
X5.2437Y-5.45
X5.4937Y-5.35
X8.9938Y-5.45
X9.2438Y-5.35
X11.6188Y-4.7
X11.8688Y-4.6
X4.1187Y-4.7
X4.3687Y-4.6
X3.0875Y-6.95
X3.3375Y-6.85
X2.6187Y-4.7
X2.8687Y-4.6
X5.0562Y-6.95
X5.3062Y-6.85
X4.8687Y-4.7
X5.1187Y-4.6
X7.3062Y-6.95
X7.5562Y-6.85
X14.15Y-5.45
X14.4Y-5.35
X10.6813Y-6.2
X10.9313Y-6.1
X11.4313Y-7.7
X11.6813Y-7.6
X3.9312Y-6.2
X4.1812Y-6.1
X4.6812Y-6.2
X4.9312Y-6.1
X12.7438Y-4.7
X12.9938Y-4.6
X6.7437Y-5.45
X6.9937Y-5.35
X8.0563Y-6.95
X8.3063Y-6.85
X7.8687Y-4.7
X8.1188Y-4.6
X11.0563Y-6.95
X11.3063Y-6.85
X10.8688Y-4.7
X11.1188Y-4.6
X11.4313Y-6.2
X11.6813Y-6.1
X14.15Y-4.7
X14.4Y-4.6
X9.9313Y-6.2
X10.1813Y-6.1
X12.65Y-7.8875
X12.9Y-7.7875
X6.1812Y-6.2
X6.4312Y-6.1
X5.4312Y-6.2
X5.6812Y-6.1
X2.8062Y-5.45
X3.0562Y-5.35
X7.1187Y-4.7
X7.3687Y-4.6
X5.6187Y-4.7
X5.8687Y-4.6
X4.5875Y-7.7
X4.8375Y-7.6
X3.3687Y-4.7
X3.6187Y-4.6
X6.5562Y-6.95
X6.8062Y-6.85
X11.2438Y-5.45
X11.4938Y-5.35
X12.65Y-6.2
X12.9Y-6.1
X13.4Y-7.1375
X13.65Y-7.0375
X8.4313Y-6.2
X8.6813Y-6.1
X13.4Y-7.8875
X13.65Y-7.7875
X12.9313Y-5.45
X13.1813Y-5.35
X4.4937Y-5.45
X4.7437Y-5.35
X8.6188Y-4.7
X8.8688Y-4.6
X3.7437Y-5.45
X3.9937Y-5.35
X9.5563Y-6.95
X9.8063Y-6.85
X7.4Y-7.7
X7.65Y-7.6
X11.9938Y-5.45
X12.2438Y-5.35
X2.9Y-6.2
X3.15Y-6.1
X6.3687Y-4.7
X6.6187Y-4.6
X4.3062Y-6.95
X4.5562Y-6.85
X9.3688Y-4.7
X9.6188Y-4.6
X8.8063Y-6.95
X9.0563Y-6.85
X7.6812Y-6.2
X7.9312Y-6.1
X7.4937Y-5.45
X7.7437Y-5.35
X5.9937Y-5.45
X6.2437Y-5.35
X5.8062Y-6.95
X6.0562Y-6.85
X3.65Y-7.7
X3.9Y-7.6
T3
X12.2815Y-5.725
X13.2185Y-5.725
X12.3752Y-4.225
X13.3123Y-4.225
X2.719Y-6.475
X3.656Y-6.475
X5.5315Y-7.225
X9.4685Y-7.225
T4
X6.4688Y-4.5
X12.2815Y-6.325
X13.2185Y-6.325
X4.4062Y-6.75
X9.4688Y-4.5
X8.9062Y-6.75
X7.7812Y-6.0
X7.5938Y-5.25
X6.0938Y-5.25
X12.3752Y-4.825
X13.3123Y-4.825
X5.9062Y-6.75
X3.75Y-7.5
X14.25Y-6.0
X7.0312Y-6.0
X9.2812Y-6.0
X8.3438Y-5.25
X10.2188Y-4.5
X10.4062Y-6.75
X12.1875Y-6.75
X2.8125Y-7.5
X14.25Y-7.6875
X10.5938Y-5.25
X10.4062Y-7.5
X9.8438Y-5.25
X5.3438Y-5.25
X9.0938Y-5.25
X11.7188Y-4.5
X4.2188Y-4.5
X3.1875Y-6.75
X2.7188Y-4.5
X5.1562Y-6.75
X2.719Y-7.075
X3.656Y-7.075
X4.9688Y-4.5
X7.4062Y-6.75
X5.5315Y-7.825
X9.4685Y-7.825
X14.25Y-5.25
X10.7812Y-6.0
X11.5312Y-7.5
X4.0312Y-6.0
X4.7812Y-6.0
X12.8438Y-4.5
X6.8438Y-5.25
X8.1562Y-6.75
X7.9688Y-4.5
X11.1562Y-6.75
X10.9688Y-4.5
X11.5312Y-6.0
X14.25Y-4.5
X10.0312Y-6.0
X12.75Y-7.6875
X6.2812Y-6.0
X5.5312Y-6.0
X2.9062Y-5.25
X7.2188Y-4.5
X5.7188Y-4.5
X4.6875Y-7.5
X3.4688Y-4.5
X6.6562Y-6.75
X11.3438Y-5.25
X12.75Y-6.0
X13.5Y-6.9375
X8.5312Y-6.0
X13.5Y-7.6875
X13.0312Y-5.25
X4.5938Y-5.25
X8.7188Y-4.5
X3.8438Y-5.25
X9.6562Y-6.75
X7.5Y-7.5
X12.0938Y-5.25
X3.0Y-6.0
T0
M30
