M48
; DRILL file {KiCad (5.1.6)-1} date 09/27/20 19:15:23
; FORMAT={-:-/ absolute / inch / decimal}
; #@! TF.CreationDate,2020-09-27T19:15:23-04:00
; #@! TF.GenerationSoftware,Kicad,Pcbnew,(5.1.6)-1
; #@! TF.FileFunction,Plated,1,2,PTH
FMAT,2
INCH
T1C0.0157
T2C0.0236
T3C0.0276
T4C0.0394
T5C0.0590
T6C0.0591
T7C0.0866
%
G90
G05
T1
X3.0118Y-3.3622
X3.3228Y-4.2087
X3.3346Y-4.5709
X3.5531Y-3.3307
X3.5625Y-4.0312
X3.6614Y-3.2992
X3.8031Y-4.8937
X3.8268Y-5.6339
X4.0551Y-6.378
X4.125Y-4.125
X4.2047Y-3.1732
X4.311Y-3.2992
X4.3701Y-5.6299
X4.7441Y-3.2677
X4.875Y-4.0312
X5.1181Y-5.6299
X5.1772Y-3.2362
X5.5512Y-6.378
X5.6102Y-3.2677
X5.7185Y-3.2047
X6.0Y-4.0312
X6.1516Y-3.1732
X6.5846Y-3.3622
X6.6142Y-5.6299
X7.0177Y-3.3307
X7.0472Y-6.378
X7.3125Y-4.0312
X7.4508Y-3.2362
X7.5591Y-3.2992
X7.9921Y-3.2047
X8.1102Y-5.6299
X8.2087Y-3.2677
X8.25Y-4.0312
X8.5354Y-6.4134
X8.6417Y-3.2362
X8.7402Y-4.8583
X9.0748Y-3.2047
X9.2913Y-3.1732
X9.5079Y-3.3622
X9.6063Y-5.6299
X9.6161Y-3.3307
X9.7244Y-3.2677
X9.8327Y-3.2992
X10.0394Y-6.378
X10.2953Y-3.5354
X10.5472Y-3.3543
X10.5669Y-3.5354
X10.5984Y-3.7835
X10.622Y-3.8661
X10.6299Y-3.3661
X10.6772Y-3.9173
X10.7402Y-3.2717
X10.7441Y-3.9016
X10.752Y-3.563
X10.7677Y-3.5157
X10.8071Y-3.4055
X10.8189Y-3.5512
X10.8228Y-3.4921
X10.8622Y-3.9291
X10.878Y-3.9764
X10.8957Y-3.8583
X10.8976Y-3.3228
X10.9252Y-3.6614
X10.9488Y-3.378
X11.0315Y-3.5
X11.0395Y-3.8148
X11.0728Y-3.878
X11.1024Y-5.6299
X11.1063Y-3.8346
X11.1654Y-3.8543
X11.2047Y-3.9606
X11.2244Y-3.874
X11.2283Y-3.626
X11.248Y-3.4409
X11.311Y-4.0276
X11.3425Y-3.9134
X11.378Y-4.2598
X11.4449Y-3.9803
X11.5551Y-4.0354
X11.6142Y-6.378
X12.5984Y-3.7402
X12.689Y-3.9291
X12.7559Y-3.9291
X12.7913Y-4.2087
X12.8386Y-7.1575
X13.0315Y-3.2087
X13.0709Y-3.248
X13.0709Y-3.3268
X13.1614Y-6.7638
X13.189Y-3.4646
X13.2283Y-4.3937
X13.2441Y-4.0984
X13.3346Y-4.3346
X13.3622Y-4.6772
X13.378Y-3.3898
X13.5362Y-3.2366
X13.5984Y-4.9055
X13.6142Y-5.8465
X13.6181Y-4.8425
X13.6457Y-3.3504
X13.6457Y-4.2559
X13.7205Y-5.3898
X13.7244Y-5.9252
X13.7812Y-3.8438
X13.8346Y-5.748
X14.1181Y-4.9055
X13.1465Y-3.0994
X13.1467Y-3.1516
X13.1799Y-3.0994
X13.1801Y-3.1516
X13.2134Y-3.0994
X13.2136Y-3.1516
X13.2469Y-3.0994
X13.247Y-3.1516
X13.2803Y-3.0994
X13.2805Y-3.1516
X13.3138Y-3.0994
X13.314Y-3.1516
X13.3472Y-3.0994
X13.3474Y-3.1516
X13.3809Y-3.0994
X13.3809Y-3.1516
T3
X4.7441Y-3.5319
X4.7441Y-3.7319
X3.4449Y-3.5319
X3.4449Y-3.7319
X7.4508Y-3.5909
X7.4508Y-3.7909
X4.2028Y-3.7091
X4.2028Y-3.9091
X5.3937Y-3.65
X5.3937Y-3.85
X6.8012Y-3.7091
X6.8012Y-3.9091
X8.3169Y-3.5909
X8.3169Y-3.7909
X6.4764Y-3.5319
X6.4764Y-3.7319
X8.8583Y-3.65
X8.8583Y-3.85
X5.1772Y-3.5319
X5.1772Y-3.7319
X13.7812Y-4.875
X13.7812Y-5.075
X3.7697Y-3.7091
X3.7697Y-3.9091
X9.3996Y-3.7091
X9.3996Y-3.9091
X8.6417Y-3.5319
X8.6417Y-3.7319
X8.75Y-3.5909
X8.75Y-3.7909
X7.2343Y-3.7091
X7.2343Y-3.9091
X6.0433Y-3.5319
X6.0433Y-3.7319
X5.7185Y-3.5909
X5.7185Y-3.7909
X3.6614Y-3.65
X3.6614Y-3.85
X3.5531Y-3.5909
X3.5531Y-3.7909
X9.8327Y-3.7091
X9.8327Y-3.9091
X9.5079Y-3.5319
X9.5079Y-3.7319
X3.0118Y-3.5319
X3.0118Y-3.7319
X3.1201Y-3.5909
X3.1201Y-3.7909
X4.0945Y-3.65
X4.0945Y-3.85
X5.935Y-3.7091
X5.935Y-3.9091
X9.2913Y-3.65
X9.2913Y-3.85
X7.126Y-3.65
X7.126Y-3.85
X8.4252Y-3.65
X8.4252Y-3.85
X4.8524Y-3.5909
X4.8524Y-3.7909
X7.0177Y-3.5909
X7.0177Y-3.7909
X6.1516Y-3.5909
X6.1516Y-3.7909
X4.311Y-3.5319
X4.311Y-3.7319
X9.6161Y-3.5909
X9.6161Y-3.7909
X3.9862Y-3.5909
X3.9862Y-3.7909
X5.2854Y-3.5909
X5.2854Y-3.7909
X6.2598Y-3.65
X6.2598Y-3.85
X4.9606Y-3.65
X4.9606Y-3.85
X6.9094Y-3.5319
X6.9094Y-3.7319
X5.6102Y-3.5319
X5.6102Y-3.7319
X7.5591Y-3.65
X7.5591Y-3.85
X9.7244Y-3.65
X9.7244Y-3.85
X7.3425Y-3.5319
X7.3425Y-3.7319
X4.5276Y-3.65
X4.5276Y-3.85
X4.6358Y-3.7091
X4.6358Y-3.9091
X8.2087Y-3.5319
X8.2087Y-3.7319
X4.4193Y-3.5909
X4.4193Y-3.7909
X7.6673Y-3.7091
X7.6673Y-3.9091
X8.9665Y-3.7091
X8.9665Y-3.9091
X8.1004Y-3.7091
X8.1004Y-3.9091
X7.9921Y-3.65
X7.9921Y-3.85
X13.6875Y-4.9625
X13.6875Y-5.1625
X7.8839Y-3.5909
X7.8839Y-3.7909
X9.0748Y-3.5319
X9.0748Y-3.7319
X6.6929Y-3.65
X6.6929Y-3.85
X3.2283Y-3.65
X3.2283Y-3.85
X6.3681Y-3.7091
X6.3681Y-3.9091
X5.0689Y-3.7091
X5.0689Y-3.9091
X8.5335Y-3.7091
X8.5335Y-3.9091
X6.5846Y-3.5909
X6.5846Y-3.7909
X13.5938Y-5.0562
X13.5938Y-5.2562
X9.1831Y-3.5909
X9.1831Y-3.7909
X3.3366Y-3.7091
X3.3366Y-3.9091
X5.8268Y-3.65
X5.8268Y-3.85
X3.878Y-3.5319
X3.878Y-3.7319
X7.7756Y-3.5319
X7.7756Y-3.7319
X5.502Y-3.7091
X5.502Y-3.9091
T4
X12.8583Y-3.3071
X12.8583Y-3.4071
X12.8583Y-3.5071
X12.8583Y-3.6071
X11.4929Y-3.0358
X11.4929Y-3.1358
X11.5929Y-3.0358
X11.5929Y-3.1358
X11.6929Y-3.0358
X11.6929Y-3.1358
X13.9764Y-3.3465
X13.9764Y-3.5433
X14.5472Y-3.3465
X14.5472Y-3.4449
X14.5472Y-3.5433
X10.0472Y-3.65
X10.0472Y-3.75
X10.0472Y-3.85
X12.2488Y-3.7756
X12.3488Y-3.7756
X12.4488Y-3.7756
T5
X7.6312Y-5.9
X7.8812Y-5.8
X7.4437Y-5.15
X7.6937Y-5.05
X5.9437Y-5.15
X6.1937Y-5.05
X5.7562Y-6.65
X6.0062Y-6.55
X3.6Y-7.4
X3.85Y-7.3
X14.1Y-5.9
X14.35Y-5.8
X6.8812Y-5.9
X7.1312Y-5.8
X9.1312Y-5.9
X9.3812Y-5.8
X8.1937Y-5.15
X8.4437Y-5.05
X10.0687Y-4.4
X10.3187Y-4.3
X10.2562Y-6.65
X10.5062Y-6.55
X12.0375Y-6.65
X12.2875Y-6.55
X2.6625Y-7.4
X2.9125Y-7.3
X14.1Y-7.5875
X14.35Y-7.4875
X10.4437Y-5.15
X10.6937Y-5.05
X10.2562Y-7.4
X10.5062Y-7.3
X9.6937Y-5.15
X9.9437Y-5.05
X5.1937Y-5.15
X5.4437Y-5.05
X8.9437Y-5.15
X9.1937Y-5.05
X11.5687Y-4.4
X11.8187Y-4.3
X4.0687Y-4.4
X4.3187Y-4.3
X3.0375Y-6.65
X3.2875Y-6.55
X2.5688Y-4.4
X2.8188Y-4.3
X5.0062Y-6.65
X5.2562Y-6.55
X4.8187Y-4.4
X5.0687Y-4.3
X7.2562Y-6.65
X7.5062Y-6.55
X14.1Y-5.15
X14.35Y-5.05
X10.6312Y-5.9
X10.8812Y-5.8
X11.3812Y-7.4
X11.6312Y-7.3
X3.8813Y-5.9
X4.1312Y-5.8
X4.6312Y-5.9
X4.8812Y-5.8
X12.6937Y-4.4
X12.9437Y-4.3
X6.6937Y-5.15
X6.9437Y-5.05
X8.0062Y-6.65
X8.2562Y-6.55
X7.8187Y-4.4
X8.0687Y-4.3
X11.0062Y-6.65
X11.2562Y-6.55
X10.8187Y-4.4
X11.0687Y-4.3
X11.3812Y-5.9
X11.6312Y-5.8
X14.1Y-4.4
X14.35Y-4.3
X9.8812Y-5.9
X10.1312Y-5.8
X12.6Y-7.5875
X12.85Y-7.4875
X6.1312Y-5.9
X6.3812Y-5.8
X5.3812Y-5.9
X5.6312Y-5.8
X2.7563Y-5.15
X3.0063Y-5.05
X7.0687Y-4.4
X7.3187Y-4.3
X5.5687Y-4.4
X5.8187Y-4.3
X4.5375Y-7.4
X4.7875Y-7.3
X3.3188Y-4.4
X3.5688Y-4.3
X6.5062Y-6.65
X6.7562Y-6.55
X11.1937Y-5.15
X11.4437Y-5.05
X12.6Y-5.9
X12.85Y-5.8
X13.35Y-6.8375
X13.6Y-6.7375
X8.3812Y-5.9
X8.6312Y-5.8
X13.35Y-7.5875
X13.6Y-7.4875
X12.8812Y-5.15
X13.1312Y-5.05
X4.4437Y-5.15
X4.6937Y-5.05
X8.5687Y-4.4
X8.8187Y-4.3
X3.6938Y-5.15
X3.9438Y-5.05
X9.5062Y-6.65
X9.7562Y-6.55
X7.35Y-7.4
X7.6Y-7.3
X11.9437Y-5.15
X12.1937Y-5.05
X2.85Y-5.9
X3.1Y-5.8
X6.3187Y-4.4
X6.5687Y-4.3
X4.2562Y-6.65
X4.5062Y-6.55
X9.3187Y-4.4
X9.5687Y-4.3
X8.7562Y-6.65
X9.0062Y-6.55
T7
X2.4375Y-3.8438
X5.1562Y-7.5984
X13.4062Y-3.8438
X3.3858Y-5.25
X3.9375Y-6.75
X12.375Y-3.0938
X2.4375Y-3.0938
X12.1875Y-7.5984
X12.0Y-6.0938
X8.2677Y-7.5984
X14.25Y-6.8438
X12.126Y-4.8031
T2
G00X13.0935Y-2.9957
M15
G01X13.0935Y-2.9642
M16
G05
G00X13.0935Y-3.1425
M15
G01X13.0935Y-3.0835
M16
G05
G00X13.4341Y-2.9957
M15
G01X13.4341Y-2.9642
M16
G05
G00X13.4341Y-3.1425
M15
G01X13.4341Y-3.0835
M16
G05
T6
G00X14.2776Y-3.2244
M15
G01X14.2264Y-3.2244
M16
G05
G00X14.2776Y-3.6654
M15
G01X14.2264Y-3.6654
M16
G05
T0
M30
