%TF.GenerationSoftware,KiCad,Pcbnew,(5.1.6)-1*%
%TF.CreationDate,2020-08-12T01:37:34-04:00*%
%TF.ProjectId,keybored,6b657962-6f72-4656-942e-6b696361645f,rev?*%
%TF.SameCoordinates,Original*%
%TF.FileFunction,Paste,Bot*%
%TF.FilePolarity,Positive*%
%FSLAX46Y46*%
G04 Gerber Fmt 4.6, Leading zero omitted, Abs format (unit mm)*
G04 Created by KiCad (PCBNEW (5.1.6)-1) date 2020-08-12 01:37:34*
%MOMM*%
%LPD*%
G01*
G04 APERTURE LIST*
%ADD10R,2.550000X2.500000*%
G04 APERTURE END LIST*
D10*
%TO.C,K4*%
X118646250Y-111760000D03*
X132496250Y-109220000D03*
%TD*%
%TO.C,K7*%
X175796250Y-111760000D03*
X189646250Y-109220000D03*
%TD*%
%TO.C,K29*%
X82490000Y-147320000D03*
X68640000Y-149860000D03*
%TD*%
%TO.C,K3*%
X99596250Y-111760000D03*
X113446250Y-109220000D03*
%TD*%
%TO.C,K16*%
X90071250Y-130810000D03*
X103921250Y-128270000D03*
%TD*%
%TO.C,K1*%
X61496250Y-111760000D03*
X75346250Y-109220000D03*
%TD*%
%TO.C,K2*%
X80546250Y-111760000D03*
X94396250Y-109220000D03*
%TD*%
%TO.C,K18*%
X142021250Y-128270000D03*
X128171250Y-130810000D03*
%TD*%
%TO.C,K5*%
X151546250Y-109220000D03*
X137696250Y-111760000D03*
%TD*%
%TO.C,K6*%
X170596250Y-109220000D03*
X156746250Y-111760000D03*
%TD*%
%TO.C,K8*%
X208696250Y-109220000D03*
X194846250Y-111760000D03*
%TD*%
%TO.C,K9*%
X227746250Y-109220000D03*
X213896250Y-111760000D03*
%TD*%
%TO.C,K10*%
X246796250Y-109220000D03*
X232946250Y-111760000D03*
%TD*%
%TO.C,K11*%
X265846250Y-109220000D03*
X251996250Y-111760000D03*
%TD*%
%TO.C,K12*%
X285633750Y-109220000D03*
X271783750Y-111760000D03*
%TD*%
%TO.C,K13*%
X290096250Y-111760000D03*
X303946250Y-109220000D03*
%TD*%
%TO.C,K14*%
X332521250Y-109220000D03*
X318671250Y-111760000D03*
%TD*%
%TO.C,K15*%
X66258750Y-130810000D03*
X80108750Y-128270000D03*
%TD*%
%TO.C,K17*%
X109121250Y-130810000D03*
X122971250Y-128270000D03*
%TD*%
%TO.C,K19*%
X147221250Y-130810000D03*
X161071250Y-128270000D03*
%TD*%
%TO.C,K20*%
X180121250Y-128270000D03*
X166271250Y-130810000D03*
%TD*%
%TO.C,K21*%
X185321250Y-130810000D03*
X199171250Y-128270000D03*
%TD*%
%TO.C,K22*%
X218221250Y-128270000D03*
X204371250Y-130810000D03*
%TD*%
%TO.C,K23*%
X237271250Y-128270000D03*
X223421250Y-130810000D03*
%TD*%
%TO.C,K24*%
X256321250Y-128270000D03*
X242471250Y-130810000D03*
%TD*%
%TO.C,K25*%
X275371250Y-128270000D03*
X261521250Y-130810000D03*
%TD*%
%TO.C,K26*%
X294421250Y-128270000D03*
X280571250Y-130810000D03*
%TD*%
%TO.C,K27*%
X299621250Y-130810000D03*
X313471250Y-128270000D03*
%TD*%
%TO.C,K28*%
X323433750Y-130810000D03*
X337283750Y-128270000D03*
%TD*%
%TO.C,K30*%
X108683750Y-147320000D03*
X94833750Y-149860000D03*
%TD*%
%TO.C,K31*%
X113883750Y-149860000D03*
X127733750Y-147320000D03*
%TD*%
%TO.C,K32*%
X146783750Y-147320000D03*
X132933750Y-149860000D03*
%TD*%
%TO.C,K33*%
X165833750Y-147320000D03*
X151983750Y-149860000D03*
%TD*%
%TO.C,K34*%
X184883750Y-147320000D03*
X171033750Y-149860000D03*
%TD*%
%TO.C,K35*%
X203933750Y-147320000D03*
X190083750Y-149860000D03*
%TD*%
%TO.C,K36*%
X209133750Y-149860000D03*
X222983750Y-147320000D03*
%TD*%
%TO.C,K37*%
X242033750Y-147320000D03*
X228183750Y-149860000D03*
%TD*%
%TO.C,K38*%
X261083750Y-147320000D03*
X247233750Y-149860000D03*
%TD*%
%TO.C,K39*%
X280133750Y-147320000D03*
X266283750Y-149860000D03*
%TD*%
%TO.C,K40*%
X299183750Y-147320000D03*
X285333750Y-149860000D03*
%TD*%
%TO.C,K41*%
X330140000Y-147320000D03*
X316290000Y-149860000D03*
%TD*%
%TO.C,K43*%
X87252500Y-166370000D03*
X73402500Y-168910000D03*
%TD*%
%TO.C,K44*%
X104358750Y-168910000D03*
X118208750Y-166370000D03*
%TD*%
%TO.C,K45*%
X123408750Y-168910000D03*
X137258750Y-166370000D03*
%TD*%
%TO.C,K46*%
X142458750Y-168910000D03*
X156308750Y-166370000D03*
%TD*%
%TO.C,K47*%
X175358750Y-166370000D03*
X161508750Y-168910000D03*
%TD*%
%TO.C,K48*%
X180558750Y-168910000D03*
X194408750Y-166370000D03*
%TD*%
%TO.C,K49*%
X213458750Y-166370000D03*
X199608750Y-168910000D03*
%TD*%
%TO.C,K50*%
X218658750Y-168910000D03*
X232508750Y-166370000D03*
%TD*%
%TO.C,K51*%
X251558750Y-166370000D03*
X237708750Y-168910000D03*
%TD*%
%TO.C,K52*%
X270608750Y-166370000D03*
X256758750Y-168910000D03*
%TD*%
%TO.C,K53*%
X289658750Y-166370000D03*
X275808750Y-168910000D03*
%TD*%
%TO.C,K54*%
X302002500Y-168910000D03*
X315852500Y-166370000D03*
%TD*%
%TO.C,K57*%
X77727500Y-185420000D03*
X63877500Y-187960000D03*
%TD*%
%TO.C,K58*%
X87690000Y-187960000D03*
X101540000Y-185420000D03*
%TD*%
%TO.C,K59*%
X111502500Y-187960000D03*
X125352500Y-185420000D03*
%TD*%
%TO.C,K60*%
X182940000Y-187960000D03*
X196790000Y-185420000D03*
%TD*%
%TO.C,K61*%
X256758750Y-187960000D03*
X270608750Y-185420000D03*
%TD*%
%TO.C,K62*%
X285333750Y-187960000D03*
X299183750Y-185420000D03*
%TD*%
%TO.C,K63*%
X368140000Y-109220000D03*
X354290000Y-111760000D03*
%TD*%
%TO.C,K64*%
X316290000Y-192722500D03*
X330140000Y-190182500D03*
%TD*%
%TO.C,K65*%
X335340000Y-192722500D03*
X349190000Y-190182500D03*
%TD*%
%TO.C,K66*%
X354390000Y-192722500D03*
X368240000Y-190182500D03*
%TD*%
%TO.C,K67*%
X335340000Y-173672500D03*
X349190000Y-171132500D03*
%TD*%
%TO.C,K68*%
X368240000Y-128270000D03*
X354390000Y-130810000D03*
%TD*%
%TO.C,K69*%
X354390000Y-149860000D03*
X368240000Y-147320000D03*
%TD*%
M02*
