M48
; DRILL file {KiCad (5.1.6)-1} date 08/12/20 01:37:27
; FORMAT={-:-/ absolute / inch / decimal}
; #@! TF.CreationDate,2020-08-12T01:37:27-04:00
; #@! TF.GenerationSoftware,Kicad,Pcbnew,(5.1.6)-1
; #@! TF.FileFunction,Plated,1,2,PTH
FMAT,2
INCH
T1C0.0157
T2C0.0236
T3C0.0276
T4C0.0394
T5C0.0591
T6C0.0866
%
G90
G05
T1
X2.378Y-4.3228
X2.4724Y-7.3228
X2.5669Y-5.0709
X2.6614Y-5.8268
X2.8504Y-6.5748
X3.0118Y-3.3071
X3.2812Y-4.6875
X3.4173Y-7.3228
X3.5039Y-5.0709
X3.5531Y-3.2677
X3.6614Y-3.2283
X3.6929Y-5.8268
X4.0312Y-4.6875
X4.0709Y-6.5748
X4.2028Y-3.0709
X4.252Y-5.0709
X4.311Y-3.2283
X4.3465Y-7.3228
X4.4409Y-5.8268
X4.7441Y-3.189
X4.7812Y-4.6875
X4.8189Y-6.5748
X5.0079Y-5.0709
X5.1772Y-3.1496
X5.189Y-5.8268
X5.5312Y-4.6875
X5.5669Y-6.5748
X5.6102Y-3.189
X5.7185Y-3.1102
X5.7559Y-5.0709
X5.9449Y-5.8268
X6.1516Y-3.0709
X6.2812Y-4.6875
X6.3228Y-6.5748
X6.5039Y-5.0709
X6.5846Y-3.3071
X6.6929Y-5.8268
X7.0177Y-3.2677
X7.0312Y-4.6875
X7.0709Y-6.5748
X7.1654Y-7.3228
X7.252Y-5.0709
X7.4409Y-5.8268
X7.4508Y-3.1496
X7.5591Y-3.2283
X7.7812Y-4.6875
X7.8189Y-6.5748
X7.9921Y-3.1102
X8.0079Y-5.0709
X8.1969Y-5.8268
X8.2087Y-3.189
X8.5312Y-4.6875
X8.5669Y-6.5748
X8.6417Y-3.1496
X8.7559Y-5.0709
X8.9449Y-5.8268
X9.0748Y-3.1102
X9.2812Y-4.6875
X9.2913Y-3.0709
X9.3228Y-6.5748
X9.5039Y-5.0709
X9.5079Y-3.3071
X9.6161Y-3.2677
X9.6929Y-5.8268
X9.7244Y-3.189
X9.8327Y-3.2283
X10.0312Y-4.6875
X10.0709Y-6.5748
X10.0709Y-7.3228
X10.252Y-5.0709
X10.4409Y-5.8268
X10.7812Y-4.6875
X10.8031Y-3.5984
X10.8189Y-6.5748
X10.8307Y-3.8465
X10.8543Y-3.9291
X10.9291Y-3.9961
X10.9843Y-3.626
X10.9961Y-3.9803
X11.0Y-3.5787
X11.0079Y-5.0709
X11.0394Y-3.4685
X11.0551Y-3.5551
X11.063Y-3.6378
X11.0945Y-3.9921
X11.1102Y-4.0394
X11.126Y-3.9213
X11.1299Y-3.3858
X11.1654Y-3.2008
X11.1811Y-3.4409
X11.1969Y-5.8268
X11.1969Y-7.3228
X11.2776Y-3.8807
X11.3386Y-3.8976
X11.3976Y-3.9173
X11.437Y-4.0236
X11.4567Y-3.937
X11.5157Y-3.9567
X11.5312Y-4.6875
X11.5748Y-3.9764
X11.6142Y-4.0315
X11.7559Y-5.0709
X11.8504Y-6.5748
X12.0787Y-5.7559
X12.4094Y-5.8268
X12.4094Y-7.5118
X12.5039Y-4.3228
X12.6929Y-5.0709
X12.7874Y-3.7323
X12.9843Y-4.0354
X13.0354Y-4.0354
X13.1614Y-6.7638
X13.1654Y-7.5118
X13.4094Y-4.8268
X13.4803Y-5.0079
X13.5118Y-4.2126
X13.9055Y-4.2835
X13.9134Y-5.0709
X13.9134Y-5.8268
X13.9134Y-7.5118
X13.9688Y-3.375
X13.4764Y-3.188
X13.4766Y-3.2402
X13.5099Y-3.188
X13.5101Y-3.2402
X13.5434Y-3.188
X13.5436Y-3.2402
X13.5768Y-3.188
X13.577Y-3.2402
X13.6103Y-3.188
X13.6105Y-3.2402
X13.6437Y-3.188
X13.6439Y-3.2402
X13.6772Y-3.188
X13.6774Y-3.2402
X13.7109Y-3.188
X13.7109Y-3.2402
T3
X7.0177Y-3.5909
X7.0177Y-3.7909
X5.0689Y-3.7091
X5.0689Y-3.9091
X3.5531Y-3.5909
X3.5531Y-3.7909
X4.2028Y-3.7091
X4.2028Y-3.9091
X3.9862Y-3.5909
X3.9862Y-3.7909
X5.2854Y-3.5909
X5.2854Y-3.7909
X8.8583Y-3.65
X8.8583Y-3.85
X8.6417Y-3.5319
X8.6417Y-3.7319
X7.2343Y-3.7091
X7.2343Y-3.9091
X4.8524Y-3.5909
X4.8524Y-3.7909
X6.5846Y-3.5909
X6.5846Y-3.7909
X3.3366Y-3.7091
X3.3366Y-3.9091
X7.4508Y-3.5909
X7.4508Y-3.7909
X13.5938Y-5.0562
X13.5938Y-5.2562
X6.4764Y-3.5319
X6.4764Y-3.7319
X4.4193Y-3.5909
X4.4193Y-3.7909
X8.4252Y-3.65
X8.4252Y-3.85
X6.2598Y-3.65
X6.2598Y-3.85
X3.1201Y-3.5909
X3.1201Y-3.7909
X5.502Y-3.7091
X5.502Y-3.9091
X5.1772Y-3.5319
X5.1772Y-3.7319
X6.0433Y-3.5319
X6.0433Y-3.7319
X3.6614Y-3.65
X3.6614Y-3.85
X13.6875Y-4.9625
X13.6875Y-5.1625
X6.3681Y-3.7091
X6.3681Y-3.9091
X8.3169Y-3.5909
X8.3169Y-3.7909
X7.8839Y-3.5909
X7.8839Y-3.7909
X5.8268Y-3.65
X5.8268Y-3.85
X4.9606Y-3.65
X4.9606Y-3.85
X4.6358Y-3.7091
X4.6358Y-3.9091
X4.0945Y-3.65
X4.0945Y-3.85
X5.7185Y-3.5909
X5.7185Y-3.7909
X5.6102Y-3.5319
X5.6102Y-3.7319
X9.7244Y-3.65
X9.7244Y-3.85
X4.5276Y-3.65
X4.5276Y-3.85
X3.878Y-3.5319
X3.878Y-3.7319
X9.3996Y-3.7091
X9.3996Y-3.9091
X8.75Y-3.5909
X8.75Y-3.7909
X6.8012Y-3.7091
X6.8012Y-3.9091
X6.1516Y-3.5909
X6.1516Y-3.7909
X3.4449Y-3.5319
X3.4449Y-3.7319
X9.5079Y-3.5319
X9.5079Y-3.7319
X9.8327Y-3.7091
X9.8327Y-3.9091
X8.2087Y-3.5319
X8.2087Y-3.7319
X9.1831Y-3.5909
X9.1831Y-3.7909
X3.2283Y-3.65
X3.2283Y-3.85
X7.3425Y-3.5319
X7.3425Y-3.7319
X3.7697Y-3.7091
X3.7697Y-3.9091
X3.0118Y-3.5319
X3.0118Y-3.7319
X8.1004Y-3.7091
X8.1004Y-3.9091
X4.7441Y-3.5319
X4.7441Y-3.7319
X7.126Y-3.65
X7.126Y-3.85
X8.5335Y-3.7091
X8.5335Y-3.9091
X13.7812Y-4.875
X13.7812Y-5.075
X9.6161Y-3.5909
X9.6161Y-3.7909
X7.6673Y-3.7091
X7.6673Y-3.9091
X5.935Y-3.7091
X5.935Y-3.9091
X9.2913Y-3.65
X9.2913Y-3.85
X6.9094Y-3.5319
X6.9094Y-3.7319
X7.5591Y-3.65
X7.5591Y-3.85
X4.311Y-3.5319
X4.311Y-3.7319
X7.9921Y-3.65
X7.9921Y-3.85
X6.6929Y-3.65
X6.6929Y-3.85
X5.3937Y-3.65
X5.3937Y-3.85
X9.0748Y-3.5319
X9.0748Y-3.7319
X7.7756Y-3.5319
X7.7756Y-3.7319
X8.9665Y-3.7091
X8.9665Y-3.9091
T4
X13.4571Y-3.4827
X13.4571Y-3.5827
X13.4571Y-3.6827
X13.4571Y-3.7827
X14.1469Y-3.3622
X14.1469Y-3.9331
X14.2453Y-3.3622
X14.3438Y-3.3622
X14.3438Y-3.9331
T6
X2.4375Y-3.0938
X2.4375Y-4.0312
X14.5312Y-3.0938
T2
G00X13.4235Y-3.0843
M15
G01X13.4235Y-3.0528
M16
G05
G00X13.4235Y-3.2311
M15
G01X13.4235Y-3.172
M16
G05
G00X13.764Y-3.0843
M15
G01X13.764Y-3.0528
M16
G05
G00X13.764Y-3.2311
M15
G01X13.764Y-3.172
M16
G05
T5
G00X14.0249Y-3.6319
M15
G01X14.0249Y-3.6831
M16
G05
G00X14.4658Y-3.6319
M15
G01X14.4658Y-3.6831
M16
G05
T0
M30
