%TF.GenerationSoftware,KiCad,Pcbnew,(5.1.6)-1*%
%TF.CreationDate,2020-08-12T01:37:34-04:00*%
%TF.ProjectId,keybored,6b657962-6f72-4656-942e-6b696361645f,rev?*%
%TF.SameCoordinates,Original*%
%TF.FileFunction,Legend,Bot*%
%TF.FilePolarity,Positive*%
%FSLAX46Y46*%
G04 Gerber Fmt 4.6, Leading zero omitted, Abs format (unit mm)*
G04 Created by KiCad (PCBNEW (5.1.6)-1) date 2020-08-12 01:37:34*
%MOMM*%
%LPD*%
G01*
G04 APERTURE LIST*
%ADD10C,0.150000*%
G04 APERTURE END LIST*
D10*
%TO.C,K4*%
X131286250Y-107315000D02*
X131286250Y-107696000D01*
X122396250Y-107315000D02*
X131286250Y-107315000D01*
X119856250Y-109855000D02*
X119856250Y-110236000D01*
X120237250Y-113665000D02*
X119856250Y-113665000D01*
X123742088Y-113665000D02*
X122015250Y-113665000D01*
X131286250Y-111760000D02*
X126206250Y-111760000D01*
X131286250Y-110744000D02*
X131286250Y-111760000D01*
X119856250Y-113284000D02*
X119856250Y-113665000D01*
X123742088Y-113683960D02*
G75*
G02*
X126206250Y-111760000I2464162J-616040D01*
G01*
X119856250Y-109855000D02*
G75*
G02*
X122396250Y-107315000I2540000J0D01*
G01*
%TO.C,K7*%
X188436250Y-107315000D02*
X188436250Y-107696000D01*
X179546250Y-107315000D02*
X188436250Y-107315000D01*
X177006250Y-109855000D02*
X177006250Y-110236000D01*
X177387250Y-113665000D02*
X177006250Y-113665000D01*
X180892088Y-113665000D02*
X179165250Y-113665000D01*
X188436250Y-111760000D02*
X183356250Y-111760000D01*
X188436250Y-110744000D02*
X188436250Y-111760000D01*
X177006250Y-113284000D02*
X177006250Y-113665000D01*
X180892088Y-113683960D02*
G75*
G02*
X183356250Y-111760000I2464162J-616040D01*
G01*
X177006250Y-109855000D02*
G75*
G02*
X179546250Y-107315000I2540000J0D01*
G01*
%TO.C,K29*%
X69850000Y-151384000D02*
X69850000Y-151765000D01*
X81280000Y-148844000D02*
X81280000Y-149860000D01*
X81280000Y-149860000D02*
X76200000Y-149860000D01*
X73735838Y-151765000D02*
X72009000Y-151765000D01*
X70231000Y-151765000D02*
X69850000Y-151765000D01*
X69850000Y-147955000D02*
X69850000Y-148336000D01*
X72390000Y-145415000D02*
X81280000Y-145415000D01*
X81280000Y-145415000D02*
X81280000Y-145796000D01*
X69850000Y-147955000D02*
G75*
G02*
X72390000Y-145415000I2540000J0D01*
G01*
X73735838Y-151783960D02*
G75*
G02*
X76200000Y-149860000I2464162J-616040D01*
G01*
%TO.C,K3*%
X112236250Y-107315000D02*
X112236250Y-107696000D01*
X103346250Y-107315000D02*
X112236250Y-107315000D01*
X100806250Y-109855000D02*
X100806250Y-110236000D01*
X101187250Y-113665000D02*
X100806250Y-113665000D01*
X104692088Y-113665000D02*
X102965250Y-113665000D01*
X112236250Y-111760000D02*
X107156250Y-111760000D01*
X112236250Y-110744000D02*
X112236250Y-111760000D01*
X100806250Y-113284000D02*
X100806250Y-113665000D01*
X104692088Y-113683960D02*
G75*
G02*
X107156250Y-111760000I2464162J-616040D01*
G01*
X100806250Y-109855000D02*
G75*
G02*
X103346250Y-107315000I2540000J0D01*
G01*
%TO.C,K16*%
X102711250Y-126365000D02*
X102711250Y-126746000D01*
X93821250Y-126365000D02*
X102711250Y-126365000D01*
X91281250Y-128905000D02*
X91281250Y-129286000D01*
X91662250Y-132715000D02*
X91281250Y-132715000D01*
X95167088Y-132715000D02*
X93440250Y-132715000D01*
X102711250Y-130810000D02*
X97631250Y-130810000D01*
X102711250Y-129794000D02*
X102711250Y-130810000D01*
X91281250Y-132334000D02*
X91281250Y-132715000D01*
X95167088Y-132733960D02*
G75*
G02*
X97631250Y-130810000I2464162J-616040D01*
G01*
X91281250Y-128905000D02*
G75*
G02*
X93821250Y-126365000I2540000J0D01*
G01*
%TO.C,K1*%
X74136250Y-107315000D02*
X74136250Y-107696000D01*
X65246250Y-107315000D02*
X74136250Y-107315000D01*
X62706250Y-109855000D02*
X62706250Y-110236000D01*
X63087250Y-113665000D02*
X62706250Y-113665000D01*
X66592088Y-113665000D02*
X64865250Y-113665000D01*
X74136250Y-111760000D02*
X69056250Y-111760000D01*
X74136250Y-110744000D02*
X74136250Y-111760000D01*
X62706250Y-113284000D02*
X62706250Y-113665000D01*
X66592088Y-113683960D02*
G75*
G02*
X69056250Y-111760000I2464162J-616040D01*
G01*
X62706250Y-109855000D02*
G75*
G02*
X65246250Y-107315000I2540000J0D01*
G01*
%TO.C,K2*%
X93186250Y-107315000D02*
X93186250Y-107696000D01*
X84296250Y-107315000D02*
X93186250Y-107315000D01*
X81756250Y-109855000D02*
X81756250Y-110236000D01*
X82137250Y-113665000D02*
X81756250Y-113665000D01*
X85642088Y-113665000D02*
X83915250Y-113665000D01*
X93186250Y-111760000D02*
X88106250Y-111760000D01*
X93186250Y-110744000D02*
X93186250Y-111760000D01*
X81756250Y-113284000D02*
X81756250Y-113665000D01*
X85642088Y-113683960D02*
G75*
G02*
X88106250Y-111760000I2464162J-616040D01*
G01*
X81756250Y-109855000D02*
G75*
G02*
X84296250Y-107315000I2540000J0D01*
G01*
%TO.C,K18*%
X129381250Y-132334000D02*
X129381250Y-132715000D01*
X140811250Y-129794000D02*
X140811250Y-130810000D01*
X140811250Y-130810000D02*
X135731250Y-130810000D01*
X133267088Y-132715000D02*
X131540250Y-132715000D01*
X129762250Y-132715000D02*
X129381250Y-132715000D01*
X129381250Y-128905000D02*
X129381250Y-129286000D01*
X131921250Y-126365000D02*
X140811250Y-126365000D01*
X140811250Y-126365000D02*
X140811250Y-126746000D01*
X129381250Y-128905000D02*
G75*
G02*
X131921250Y-126365000I2540000J0D01*
G01*
X133267088Y-132733960D02*
G75*
G02*
X135731250Y-130810000I2464162J-616040D01*
G01*
%TO.C,K5*%
X138906250Y-113284000D02*
X138906250Y-113665000D01*
X150336250Y-110744000D02*
X150336250Y-111760000D01*
X150336250Y-111760000D02*
X145256250Y-111760000D01*
X142792088Y-113665000D02*
X141065250Y-113665000D01*
X139287250Y-113665000D02*
X138906250Y-113665000D01*
X138906250Y-109855000D02*
X138906250Y-110236000D01*
X141446250Y-107315000D02*
X150336250Y-107315000D01*
X150336250Y-107315000D02*
X150336250Y-107696000D01*
X138906250Y-109855000D02*
G75*
G02*
X141446250Y-107315000I2540000J0D01*
G01*
X142792088Y-113683960D02*
G75*
G02*
X145256250Y-111760000I2464162J-616040D01*
G01*
%TO.C,K6*%
X157956250Y-113284000D02*
X157956250Y-113665000D01*
X169386250Y-110744000D02*
X169386250Y-111760000D01*
X169386250Y-111760000D02*
X164306250Y-111760000D01*
X161842088Y-113665000D02*
X160115250Y-113665000D01*
X158337250Y-113665000D02*
X157956250Y-113665000D01*
X157956250Y-109855000D02*
X157956250Y-110236000D01*
X160496250Y-107315000D02*
X169386250Y-107315000D01*
X169386250Y-107315000D02*
X169386250Y-107696000D01*
X157956250Y-109855000D02*
G75*
G02*
X160496250Y-107315000I2540000J0D01*
G01*
X161842088Y-113683960D02*
G75*
G02*
X164306250Y-111760000I2464162J-616040D01*
G01*
%TO.C,K8*%
X196056250Y-113284000D02*
X196056250Y-113665000D01*
X207486250Y-110744000D02*
X207486250Y-111760000D01*
X207486250Y-111760000D02*
X202406250Y-111760000D01*
X199942088Y-113665000D02*
X198215250Y-113665000D01*
X196437250Y-113665000D02*
X196056250Y-113665000D01*
X196056250Y-109855000D02*
X196056250Y-110236000D01*
X198596250Y-107315000D02*
X207486250Y-107315000D01*
X207486250Y-107315000D02*
X207486250Y-107696000D01*
X196056250Y-109855000D02*
G75*
G02*
X198596250Y-107315000I2540000J0D01*
G01*
X199942088Y-113683960D02*
G75*
G02*
X202406250Y-111760000I2464162J-616040D01*
G01*
%TO.C,K9*%
X215106250Y-113284000D02*
X215106250Y-113665000D01*
X226536250Y-110744000D02*
X226536250Y-111760000D01*
X226536250Y-111760000D02*
X221456250Y-111760000D01*
X218992088Y-113665000D02*
X217265250Y-113665000D01*
X215487250Y-113665000D02*
X215106250Y-113665000D01*
X215106250Y-109855000D02*
X215106250Y-110236000D01*
X217646250Y-107315000D02*
X226536250Y-107315000D01*
X226536250Y-107315000D02*
X226536250Y-107696000D01*
X215106250Y-109855000D02*
G75*
G02*
X217646250Y-107315000I2540000J0D01*
G01*
X218992088Y-113683960D02*
G75*
G02*
X221456250Y-111760000I2464162J-616040D01*
G01*
%TO.C,K10*%
X234156250Y-113284000D02*
X234156250Y-113665000D01*
X245586250Y-110744000D02*
X245586250Y-111760000D01*
X245586250Y-111760000D02*
X240506250Y-111760000D01*
X238042088Y-113665000D02*
X236315250Y-113665000D01*
X234537250Y-113665000D02*
X234156250Y-113665000D01*
X234156250Y-109855000D02*
X234156250Y-110236000D01*
X236696250Y-107315000D02*
X245586250Y-107315000D01*
X245586250Y-107315000D02*
X245586250Y-107696000D01*
X234156250Y-109855000D02*
G75*
G02*
X236696250Y-107315000I2540000J0D01*
G01*
X238042088Y-113683960D02*
G75*
G02*
X240506250Y-111760000I2464162J-616040D01*
G01*
%TO.C,K11*%
X253206250Y-113284000D02*
X253206250Y-113665000D01*
X264636250Y-110744000D02*
X264636250Y-111760000D01*
X264636250Y-111760000D02*
X259556250Y-111760000D01*
X257092088Y-113665000D02*
X255365250Y-113665000D01*
X253587250Y-113665000D02*
X253206250Y-113665000D01*
X253206250Y-109855000D02*
X253206250Y-110236000D01*
X255746250Y-107315000D02*
X264636250Y-107315000D01*
X264636250Y-107315000D02*
X264636250Y-107696000D01*
X253206250Y-109855000D02*
G75*
G02*
X255746250Y-107315000I2540000J0D01*
G01*
X257092088Y-113683960D02*
G75*
G02*
X259556250Y-111760000I2464162J-616040D01*
G01*
%TO.C,K12*%
X272993750Y-113284000D02*
X272993750Y-113665000D01*
X284423750Y-110744000D02*
X284423750Y-111760000D01*
X284423750Y-111760000D02*
X279343750Y-111760000D01*
X276879588Y-113665000D02*
X275152750Y-113665000D01*
X273374750Y-113665000D02*
X272993750Y-113665000D01*
X272993750Y-109855000D02*
X272993750Y-110236000D01*
X275533750Y-107315000D02*
X284423750Y-107315000D01*
X284423750Y-107315000D02*
X284423750Y-107696000D01*
X272993750Y-109855000D02*
G75*
G02*
X275533750Y-107315000I2540000J0D01*
G01*
X276879588Y-113683960D02*
G75*
G02*
X279343750Y-111760000I2464162J-616040D01*
G01*
%TO.C,K13*%
X302736250Y-107315000D02*
X302736250Y-107696000D01*
X293846250Y-107315000D02*
X302736250Y-107315000D01*
X291306250Y-109855000D02*
X291306250Y-110236000D01*
X291687250Y-113665000D02*
X291306250Y-113665000D01*
X295192088Y-113665000D02*
X293465250Y-113665000D01*
X302736250Y-111760000D02*
X297656250Y-111760000D01*
X302736250Y-110744000D02*
X302736250Y-111760000D01*
X291306250Y-113284000D02*
X291306250Y-113665000D01*
X295192088Y-113683960D02*
G75*
G02*
X297656250Y-111760000I2464162J-616040D01*
G01*
X291306250Y-109855000D02*
G75*
G02*
X293846250Y-107315000I2540000J0D01*
G01*
%TO.C,K14*%
X319881250Y-113284000D02*
X319881250Y-113665000D01*
X331311250Y-110744000D02*
X331311250Y-111760000D01*
X331311250Y-111760000D02*
X326231250Y-111760000D01*
X323767088Y-113665000D02*
X322040250Y-113665000D01*
X320262250Y-113665000D02*
X319881250Y-113665000D01*
X319881250Y-109855000D02*
X319881250Y-110236000D01*
X322421250Y-107315000D02*
X331311250Y-107315000D01*
X331311250Y-107315000D02*
X331311250Y-107696000D01*
X319881250Y-109855000D02*
G75*
G02*
X322421250Y-107315000I2540000J0D01*
G01*
X323767088Y-113683960D02*
G75*
G02*
X326231250Y-111760000I2464162J-616040D01*
G01*
%TO.C,K15*%
X78898750Y-126365000D02*
X78898750Y-126746000D01*
X70008750Y-126365000D02*
X78898750Y-126365000D01*
X67468750Y-128905000D02*
X67468750Y-129286000D01*
X67849750Y-132715000D02*
X67468750Y-132715000D01*
X71354588Y-132715000D02*
X69627750Y-132715000D01*
X78898750Y-130810000D02*
X73818750Y-130810000D01*
X78898750Y-129794000D02*
X78898750Y-130810000D01*
X67468750Y-132334000D02*
X67468750Y-132715000D01*
X71354588Y-132733960D02*
G75*
G02*
X73818750Y-130810000I2464162J-616040D01*
G01*
X67468750Y-128905000D02*
G75*
G02*
X70008750Y-126365000I2540000J0D01*
G01*
%TO.C,K17*%
X121761250Y-126365000D02*
X121761250Y-126746000D01*
X112871250Y-126365000D02*
X121761250Y-126365000D01*
X110331250Y-128905000D02*
X110331250Y-129286000D01*
X110712250Y-132715000D02*
X110331250Y-132715000D01*
X114217088Y-132715000D02*
X112490250Y-132715000D01*
X121761250Y-130810000D02*
X116681250Y-130810000D01*
X121761250Y-129794000D02*
X121761250Y-130810000D01*
X110331250Y-132334000D02*
X110331250Y-132715000D01*
X114217088Y-132733960D02*
G75*
G02*
X116681250Y-130810000I2464162J-616040D01*
G01*
X110331250Y-128905000D02*
G75*
G02*
X112871250Y-126365000I2540000J0D01*
G01*
%TO.C,K19*%
X159861250Y-126365000D02*
X159861250Y-126746000D01*
X150971250Y-126365000D02*
X159861250Y-126365000D01*
X148431250Y-128905000D02*
X148431250Y-129286000D01*
X148812250Y-132715000D02*
X148431250Y-132715000D01*
X152317088Y-132715000D02*
X150590250Y-132715000D01*
X159861250Y-130810000D02*
X154781250Y-130810000D01*
X159861250Y-129794000D02*
X159861250Y-130810000D01*
X148431250Y-132334000D02*
X148431250Y-132715000D01*
X152317088Y-132733960D02*
G75*
G02*
X154781250Y-130810000I2464162J-616040D01*
G01*
X148431250Y-128905000D02*
G75*
G02*
X150971250Y-126365000I2540000J0D01*
G01*
%TO.C,K20*%
X167481250Y-132334000D02*
X167481250Y-132715000D01*
X178911250Y-129794000D02*
X178911250Y-130810000D01*
X178911250Y-130810000D02*
X173831250Y-130810000D01*
X171367088Y-132715000D02*
X169640250Y-132715000D01*
X167862250Y-132715000D02*
X167481250Y-132715000D01*
X167481250Y-128905000D02*
X167481250Y-129286000D01*
X170021250Y-126365000D02*
X178911250Y-126365000D01*
X178911250Y-126365000D02*
X178911250Y-126746000D01*
X167481250Y-128905000D02*
G75*
G02*
X170021250Y-126365000I2540000J0D01*
G01*
X171367088Y-132733960D02*
G75*
G02*
X173831250Y-130810000I2464162J-616040D01*
G01*
%TO.C,K21*%
X197961250Y-126365000D02*
X197961250Y-126746000D01*
X189071250Y-126365000D02*
X197961250Y-126365000D01*
X186531250Y-128905000D02*
X186531250Y-129286000D01*
X186912250Y-132715000D02*
X186531250Y-132715000D01*
X190417088Y-132715000D02*
X188690250Y-132715000D01*
X197961250Y-130810000D02*
X192881250Y-130810000D01*
X197961250Y-129794000D02*
X197961250Y-130810000D01*
X186531250Y-132334000D02*
X186531250Y-132715000D01*
X190417088Y-132733960D02*
G75*
G02*
X192881250Y-130810000I2464162J-616040D01*
G01*
X186531250Y-128905000D02*
G75*
G02*
X189071250Y-126365000I2540000J0D01*
G01*
%TO.C,K22*%
X205581250Y-132334000D02*
X205581250Y-132715000D01*
X217011250Y-129794000D02*
X217011250Y-130810000D01*
X217011250Y-130810000D02*
X211931250Y-130810000D01*
X209467088Y-132715000D02*
X207740250Y-132715000D01*
X205962250Y-132715000D02*
X205581250Y-132715000D01*
X205581250Y-128905000D02*
X205581250Y-129286000D01*
X208121250Y-126365000D02*
X217011250Y-126365000D01*
X217011250Y-126365000D02*
X217011250Y-126746000D01*
X205581250Y-128905000D02*
G75*
G02*
X208121250Y-126365000I2540000J0D01*
G01*
X209467088Y-132733960D02*
G75*
G02*
X211931250Y-130810000I2464162J-616040D01*
G01*
%TO.C,K23*%
X224631250Y-132334000D02*
X224631250Y-132715000D01*
X236061250Y-129794000D02*
X236061250Y-130810000D01*
X236061250Y-130810000D02*
X230981250Y-130810000D01*
X228517088Y-132715000D02*
X226790250Y-132715000D01*
X225012250Y-132715000D02*
X224631250Y-132715000D01*
X224631250Y-128905000D02*
X224631250Y-129286000D01*
X227171250Y-126365000D02*
X236061250Y-126365000D01*
X236061250Y-126365000D02*
X236061250Y-126746000D01*
X224631250Y-128905000D02*
G75*
G02*
X227171250Y-126365000I2540000J0D01*
G01*
X228517088Y-132733960D02*
G75*
G02*
X230981250Y-130810000I2464162J-616040D01*
G01*
%TO.C,K24*%
X243681250Y-132334000D02*
X243681250Y-132715000D01*
X255111250Y-129794000D02*
X255111250Y-130810000D01*
X255111250Y-130810000D02*
X250031250Y-130810000D01*
X247567088Y-132715000D02*
X245840250Y-132715000D01*
X244062250Y-132715000D02*
X243681250Y-132715000D01*
X243681250Y-128905000D02*
X243681250Y-129286000D01*
X246221250Y-126365000D02*
X255111250Y-126365000D01*
X255111250Y-126365000D02*
X255111250Y-126746000D01*
X243681250Y-128905000D02*
G75*
G02*
X246221250Y-126365000I2540000J0D01*
G01*
X247567088Y-132733960D02*
G75*
G02*
X250031250Y-130810000I2464162J-616040D01*
G01*
%TO.C,K25*%
X262731250Y-132334000D02*
X262731250Y-132715000D01*
X274161250Y-129794000D02*
X274161250Y-130810000D01*
X274161250Y-130810000D02*
X269081250Y-130810000D01*
X266617088Y-132715000D02*
X264890250Y-132715000D01*
X263112250Y-132715000D02*
X262731250Y-132715000D01*
X262731250Y-128905000D02*
X262731250Y-129286000D01*
X265271250Y-126365000D02*
X274161250Y-126365000D01*
X274161250Y-126365000D02*
X274161250Y-126746000D01*
X262731250Y-128905000D02*
G75*
G02*
X265271250Y-126365000I2540000J0D01*
G01*
X266617088Y-132733960D02*
G75*
G02*
X269081250Y-130810000I2464162J-616040D01*
G01*
%TO.C,K26*%
X281781250Y-132334000D02*
X281781250Y-132715000D01*
X293211250Y-129794000D02*
X293211250Y-130810000D01*
X293211250Y-130810000D02*
X288131250Y-130810000D01*
X285667088Y-132715000D02*
X283940250Y-132715000D01*
X282162250Y-132715000D02*
X281781250Y-132715000D01*
X281781250Y-128905000D02*
X281781250Y-129286000D01*
X284321250Y-126365000D02*
X293211250Y-126365000D01*
X293211250Y-126365000D02*
X293211250Y-126746000D01*
X281781250Y-128905000D02*
G75*
G02*
X284321250Y-126365000I2540000J0D01*
G01*
X285667088Y-132733960D02*
G75*
G02*
X288131250Y-130810000I2464162J-616040D01*
G01*
%TO.C,K27*%
X312261250Y-126365000D02*
X312261250Y-126746000D01*
X303371250Y-126365000D02*
X312261250Y-126365000D01*
X300831250Y-128905000D02*
X300831250Y-129286000D01*
X301212250Y-132715000D02*
X300831250Y-132715000D01*
X304717088Y-132715000D02*
X302990250Y-132715000D01*
X312261250Y-130810000D02*
X307181250Y-130810000D01*
X312261250Y-129794000D02*
X312261250Y-130810000D01*
X300831250Y-132334000D02*
X300831250Y-132715000D01*
X304717088Y-132733960D02*
G75*
G02*
X307181250Y-130810000I2464162J-616040D01*
G01*
X300831250Y-128905000D02*
G75*
G02*
X303371250Y-126365000I2540000J0D01*
G01*
%TO.C,K28*%
X336073750Y-126365000D02*
X336073750Y-126746000D01*
X327183750Y-126365000D02*
X336073750Y-126365000D01*
X324643750Y-128905000D02*
X324643750Y-129286000D01*
X325024750Y-132715000D02*
X324643750Y-132715000D01*
X328529588Y-132715000D02*
X326802750Y-132715000D01*
X336073750Y-130810000D02*
X330993750Y-130810000D01*
X336073750Y-129794000D02*
X336073750Y-130810000D01*
X324643750Y-132334000D02*
X324643750Y-132715000D01*
X328529588Y-132733960D02*
G75*
G02*
X330993750Y-130810000I2464162J-616040D01*
G01*
X324643750Y-128905000D02*
G75*
G02*
X327183750Y-126365000I2540000J0D01*
G01*
%TO.C,K30*%
X96043750Y-151384000D02*
X96043750Y-151765000D01*
X107473750Y-148844000D02*
X107473750Y-149860000D01*
X107473750Y-149860000D02*
X102393750Y-149860000D01*
X99929588Y-151765000D02*
X98202750Y-151765000D01*
X96424750Y-151765000D02*
X96043750Y-151765000D01*
X96043750Y-147955000D02*
X96043750Y-148336000D01*
X98583750Y-145415000D02*
X107473750Y-145415000D01*
X107473750Y-145415000D02*
X107473750Y-145796000D01*
X96043750Y-147955000D02*
G75*
G02*
X98583750Y-145415000I2540000J0D01*
G01*
X99929588Y-151783960D02*
G75*
G02*
X102393750Y-149860000I2464162J-616040D01*
G01*
%TO.C,K31*%
X126523750Y-145415000D02*
X126523750Y-145796000D01*
X117633750Y-145415000D02*
X126523750Y-145415000D01*
X115093750Y-147955000D02*
X115093750Y-148336000D01*
X115474750Y-151765000D02*
X115093750Y-151765000D01*
X118979588Y-151765000D02*
X117252750Y-151765000D01*
X126523750Y-149860000D02*
X121443750Y-149860000D01*
X126523750Y-148844000D02*
X126523750Y-149860000D01*
X115093750Y-151384000D02*
X115093750Y-151765000D01*
X118979588Y-151783960D02*
G75*
G02*
X121443750Y-149860000I2464162J-616040D01*
G01*
X115093750Y-147955000D02*
G75*
G02*
X117633750Y-145415000I2540000J0D01*
G01*
%TO.C,K32*%
X134143750Y-151384000D02*
X134143750Y-151765000D01*
X145573750Y-148844000D02*
X145573750Y-149860000D01*
X145573750Y-149860000D02*
X140493750Y-149860000D01*
X138029588Y-151765000D02*
X136302750Y-151765000D01*
X134524750Y-151765000D02*
X134143750Y-151765000D01*
X134143750Y-147955000D02*
X134143750Y-148336000D01*
X136683750Y-145415000D02*
X145573750Y-145415000D01*
X145573750Y-145415000D02*
X145573750Y-145796000D01*
X134143750Y-147955000D02*
G75*
G02*
X136683750Y-145415000I2540000J0D01*
G01*
X138029588Y-151783960D02*
G75*
G02*
X140493750Y-149860000I2464162J-616040D01*
G01*
%TO.C,K33*%
X153193750Y-151384000D02*
X153193750Y-151765000D01*
X164623750Y-148844000D02*
X164623750Y-149860000D01*
X164623750Y-149860000D02*
X159543750Y-149860000D01*
X157079588Y-151765000D02*
X155352750Y-151765000D01*
X153574750Y-151765000D02*
X153193750Y-151765000D01*
X153193750Y-147955000D02*
X153193750Y-148336000D01*
X155733750Y-145415000D02*
X164623750Y-145415000D01*
X164623750Y-145415000D02*
X164623750Y-145796000D01*
X153193750Y-147955000D02*
G75*
G02*
X155733750Y-145415000I2540000J0D01*
G01*
X157079588Y-151783960D02*
G75*
G02*
X159543750Y-149860000I2464162J-616040D01*
G01*
%TO.C,K34*%
X172243750Y-151384000D02*
X172243750Y-151765000D01*
X183673750Y-148844000D02*
X183673750Y-149860000D01*
X183673750Y-149860000D02*
X178593750Y-149860000D01*
X176129588Y-151765000D02*
X174402750Y-151765000D01*
X172624750Y-151765000D02*
X172243750Y-151765000D01*
X172243750Y-147955000D02*
X172243750Y-148336000D01*
X174783750Y-145415000D02*
X183673750Y-145415000D01*
X183673750Y-145415000D02*
X183673750Y-145796000D01*
X172243750Y-147955000D02*
G75*
G02*
X174783750Y-145415000I2540000J0D01*
G01*
X176129588Y-151783960D02*
G75*
G02*
X178593750Y-149860000I2464162J-616040D01*
G01*
%TO.C,K35*%
X191293750Y-151384000D02*
X191293750Y-151765000D01*
X202723750Y-148844000D02*
X202723750Y-149860000D01*
X202723750Y-149860000D02*
X197643750Y-149860000D01*
X195179588Y-151765000D02*
X193452750Y-151765000D01*
X191674750Y-151765000D02*
X191293750Y-151765000D01*
X191293750Y-147955000D02*
X191293750Y-148336000D01*
X193833750Y-145415000D02*
X202723750Y-145415000D01*
X202723750Y-145415000D02*
X202723750Y-145796000D01*
X191293750Y-147955000D02*
G75*
G02*
X193833750Y-145415000I2540000J0D01*
G01*
X195179588Y-151783960D02*
G75*
G02*
X197643750Y-149860000I2464162J-616040D01*
G01*
%TO.C,K36*%
X221773750Y-145415000D02*
X221773750Y-145796000D01*
X212883750Y-145415000D02*
X221773750Y-145415000D01*
X210343750Y-147955000D02*
X210343750Y-148336000D01*
X210724750Y-151765000D02*
X210343750Y-151765000D01*
X214229588Y-151765000D02*
X212502750Y-151765000D01*
X221773750Y-149860000D02*
X216693750Y-149860000D01*
X221773750Y-148844000D02*
X221773750Y-149860000D01*
X210343750Y-151384000D02*
X210343750Y-151765000D01*
X214229588Y-151783960D02*
G75*
G02*
X216693750Y-149860000I2464162J-616040D01*
G01*
X210343750Y-147955000D02*
G75*
G02*
X212883750Y-145415000I2540000J0D01*
G01*
%TO.C,K37*%
X229393750Y-151384000D02*
X229393750Y-151765000D01*
X240823750Y-148844000D02*
X240823750Y-149860000D01*
X240823750Y-149860000D02*
X235743750Y-149860000D01*
X233279588Y-151765000D02*
X231552750Y-151765000D01*
X229774750Y-151765000D02*
X229393750Y-151765000D01*
X229393750Y-147955000D02*
X229393750Y-148336000D01*
X231933750Y-145415000D02*
X240823750Y-145415000D01*
X240823750Y-145415000D02*
X240823750Y-145796000D01*
X229393750Y-147955000D02*
G75*
G02*
X231933750Y-145415000I2540000J0D01*
G01*
X233279588Y-151783960D02*
G75*
G02*
X235743750Y-149860000I2464162J-616040D01*
G01*
%TO.C,K38*%
X248443750Y-151384000D02*
X248443750Y-151765000D01*
X259873750Y-148844000D02*
X259873750Y-149860000D01*
X259873750Y-149860000D02*
X254793750Y-149860000D01*
X252329588Y-151765000D02*
X250602750Y-151765000D01*
X248824750Y-151765000D02*
X248443750Y-151765000D01*
X248443750Y-147955000D02*
X248443750Y-148336000D01*
X250983750Y-145415000D02*
X259873750Y-145415000D01*
X259873750Y-145415000D02*
X259873750Y-145796000D01*
X248443750Y-147955000D02*
G75*
G02*
X250983750Y-145415000I2540000J0D01*
G01*
X252329588Y-151783960D02*
G75*
G02*
X254793750Y-149860000I2464162J-616040D01*
G01*
%TO.C,K39*%
X267493750Y-151384000D02*
X267493750Y-151765000D01*
X278923750Y-148844000D02*
X278923750Y-149860000D01*
X278923750Y-149860000D02*
X273843750Y-149860000D01*
X271379588Y-151765000D02*
X269652750Y-151765000D01*
X267874750Y-151765000D02*
X267493750Y-151765000D01*
X267493750Y-147955000D02*
X267493750Y-148336000D01*
X270033750Y-145415000D02*
X278923750Y-145415000D01*
X278923750Y-145415000D02*
X278923750Y-145796000D01*
X267493750Y-147955000D02*
G75*
G02*
X270033750Y-145415000I2540000J0D01*
G01*
X271379588Y-151783960D02*
G75*
G02*
X273843750Y-149860000I2464162J-616040D01*
G01*
%TO.C,K40*%
X286543750Y-151384000D02*
X286543750Y-151765000D01*
X297973750Y-148844000D02*
X297973750Y-149860000D01*
X297973750Y-149860000D02*
X292893750Y-149860000D01*
X290429588Y-151765000D02*
X288702750Y-151765000D01*
X286924750Y-151765000D02*
X286543750Y-151765000D01*
X286543750Y-147955000D02*
X286543750Y-148336000D01*
X289083750Y-145415000D02*
X297973750Y-145415000D01*
X297973750Y-145415000D02*
X297973750Y-145796000D01*
X286543750Y-147955000D02*
G75*
G02*
X289083750Y-145415000I2540000J0D01*
G01*
X290429588Y-151783960D02*
G75*
G02*
X292893750Y-149860000I2464162J-616040D01*
G01*
%TO.C,K41*%
X317500000Y-151384000D02*
X317500000Y-151765000D01*
X328930000Y-148844000D02*
X328930000Y-149860000D01*
X328930000Y-149860000D02*
X323850000Y-149860000D01*
X321385838Y-151765000D02*
X319659000Y-151765000D01*
X317881000Y-151765000D02*
X317500000Y-151765000D01*
X317500000Y-147955000D02*
X317500000Y-148336000D01*
X320040000Y-145415000D02*
X328930000Y-145415000D01*
X328930000Y-145415000D02*
X328930000Y-145796000D01*
X317500000Y-147955000D02*
G75*
G02*
X320040000Y-145415000I2540000J0D01*
G01*
X321385838Y-151783960D02*
G75*
G02*
X323850000Y-149860000I2464162J-616040D01*
G01*
%TO.C,K43*%
X74612500Y-170434000D02*
X74612500Y-170815000D01*
X86042500Y-167894000D02*
X86042500Y-168910000D01*
X86042500Y-168910000D02*
X80962500Y-168910000D01*
X78498338Y-170815000D02*
X76771500Y-170815000D01*
X74993500Y-170815000D02*
X74612500Y-170815000D01*
X74612500Y-167005000D02*
X74612500Y-167386000D01*
X77152500Y-164465000D02*
X86042500Y-164465000D01*
X86042500Y-164465000D02*
X86042500Y-164846000D01*
X74612500Y-167005000D02*
G75*
G02*
X77152500Y-164465000I2540000J0D01*
G01*
X78498338Y-170833960D02*
G75*
G02*
X80962500Y-168910000I2464162J-616040D01*
G01*
%TO.C,K44*%
X116998750Y-164465000D02*
X116998750Y-164846000D01*
X108108750Y-164465000D02*
X116998750Y-164465000D01*
X105568750Y-167005000D02*
X105568750Y-167386000D01*
X105949750Y-170815000D02*
X105568750Y-170815000D01*
X109454588Y-170815000D02*
X107727750Y-170815000D01*
X116998750Y-168910000D02*
X111918750Y-168910000D01*
X116998750Y-167894000D02*
X116998750Y-168910000D01*
X105568750Y-170434000D02*
X105568750Y-170815000D01*
X109454588Y-170833960D02*
G75*
G02*
X111918750Y-168910000I2464162J-616040D01*
G01*
X105568750Y-167005000D02*
G75*
G02*
X108108750Y-164465000I2540000J0D01*
G01*
%TO.C,K45*%
X136048750Y-164465000D02*
X136048750Y-164846000D01*
X127158750Y-164465000D02*
X136048750Y-164465000D01*
X124618750Y-167005000D02*
X124618750Y-167386000D01*
X124999750Y-170815000D02*
X124618750Y-170815000D01*
X128504588Y-170815000D02*
X126777750Y-170815000D01*
X136048750Y-168910000D02*
X130968750Y-168910000D01*
X136048750Y-167894000D02*
X136048750Y-168910000D01*
X124618750Y-170434000D02*
X124618750Y-170815000D01*
X128504588Y-170833960D02*
G75*
G02*
X130968750Y-168910000I2464162J-616040D01*
G01*
X124618750Y-167005000D02*
G75*
G02*
X127158750Y-164465000I2540000J0D01*
G01*
%TO.C,K46*%
X155098750Y-164465000D02*
X155098750Y-164846000D01*
X146208750Y-164465000D02*
X155098750Y-164465000D01*
X143668750Y-167005000D02*
X143668750Y-167386000D01*
X144049750Y-170815000D02*
X143668750Y-170815000D01*
X147554588Y-170815000D02*
X145827750Y-170815000D01*
X155098750Y-168910000D02*
X150018750Y-168910000D01*
X155098750Y-167894000D02*
X155098750Y-168910000D01*
X143668750Y-170434000D02*
X143668750Y-170815000D01*
X147554588Y-170833960D02*
G75*
G02*
X150018750Y-168910000I2464162J-616040D01*
G01*
X143668750Y-167005000D02*
G75*
G02*
X146208750Y-164465000I2540000J0D01*
G01*
%TO.C,K47*%
X162718750Y-170434000D02*
X162718750Y-170815000D01*
X174148750Y-167894000D02*
X174148750Y-168910000D01*
X174148750Y-168910000D02*
X169068750Y-168910000D01*
X166604588Y-170815000D02*
X164877750Y-170815000D01*
X163099750Y-170815000D02*
X162718750Y-170815000D01*
X162718750Y-167005000D02*
X162718750Y-167386000D01*
X165258750Y-164465000D02*
X174148750Y-164465000D01*
X174148750Y-164465000D02*
X174148750Y-164846000D01*
X162718750Y-167005000D02*
G75*
G02*
X165258750Y-164465000I2540000J0D01*
G01*
X166604588Y-170833960D02*
G75*
G02*
X169068750Y-168910000I2464162J-616040D01*
G01*
%TO.C,K48*%
X193198750Y-164465000D02*
X193198750Y-164846000D01*
X184308750Y-164465000D02*
X193198750Y-164465000D01*
X181768750Y-167005000D02*
X181768750Y-167386000D01*
X182149750Y-170815000D02*
X181768750Y-170815000D01*
X185654588Y-170815000D02*
X183927750Y-170815000D01*
X193198750Y-168910000D02*
X188118750Y-168910000D01*
X193198750Y-167894000D02*
X193198750Y-168910000D01*
X181768750Y-170434000D02*
X181768750Y-170815000D01*
X185654588Y-170833960D02*
G75*
G02*
X188118750Y-168910000I2464162J-616040D01*
G01*
X181768750Y-167005000D02*
G75*
G02*
X184308750Y-164465000I2540000J0D01*
G01*
%TO.C,K49*%
X200818750Y-170434000D02*
X200818750Y-170815000D01*
X212248750Y-167894000D02*
X212248750Y-168910000D01*
X212248750Y-168910000D02*
X207168750Y-168910000D01*
X204704588Y-170815000D02*
X202977750Y-170815000D01*
X201199750Y-170815000D02*
X200818750Y-170815000D01*
X200818750Y-167005000D02*
X200818750Y-167386000D01*
X203358750Y-164465000D02*
X212248750Y-164465000D01*
X212248750Y-164465000D02*
X212248750Y-164846000D01*
X200818750Y-167005000D02*
G75*
G02*
X203358750Y-164465000I2540000J0D01*
G01*
X204704588Y-170833960D02*
G75*
G02*
X207168750Y-168910000I2464162J-616040D01*
G01*
%TO.C,K50*%
X231298750Y-164465000D02*
X231298750Y-164846000D01*
X222408750Y-164465000D02*
X231298750Y-164465000D01*
X219868750Y-167005000D02*
X219868750Y-167386000D01*
X220249750Y-170815000D02*
X219868750Y-170815000D01*
X223754588Y-170815000D02*
X222027750Y-170815000D01*
X231298750Y-168910000D02*
X226218750Y-168910000D01*
X231298750Y-167894000D02*
X231298750Y-168910000D01*
X219868750Y-170434000D02*
X219868750Y-170815000D01*
X223754588Y-170833960D02*
G75*
G02*
X226218750Y-168910000I2464162J-616040D01*
G01*
X219868750Y-167005000D02*
G75*
G02*
X222408750Y-164465000I2540000J0D01*
G01*
%TO.C,K51*%
X238918750Y-170434000D02*
X238918750Y-170815000D01*
X250348750Y-167894000D02*
X250348750Y-168910000D01*
X250348750Y-168910000D02*
X245268750Y-168910000D01*
X242804588Y-170815000D02*
X241077750Y-170815000D01*
X239299750Y-170815000D02*
X238918750Y-170815000D01*
X238918750Y-167005000D02*
X238918750Y-167386000D01*
X241458750Y-164465000D02*
X250348750Y-164465000D01*
X250348750Y-164465000D02*
X250348750Y-164846000D01*
X238918750Y-167005000D02*
G75*
G02*
X241458750Y-164465000I2540000J0D01*
G01*
X242804588Y-170833960D02*
G75*
G02*
X245268750Y-168910000I2464162J-616040D01*
G01*
%TO.C,K52*%
X257968750Y-170434000D02*
X257968750Y-170815000D01*
X269398750Y-167894000D02*
X269398750Y-168910000D01*
X269398750Y-168910000D02*
X264318750Y-168910000D01*
X261854588Y-170815000D02*
X260127750Y-170815000D01*
X258349750Y-170815000D02*
X257968750Y-170815000D01*
X257968750Y-167005000D02*
X257968750Y-167386000D01*
X260508750Y-164465000D02*
X269398750Y-164465000D01*
X269398750Y-164465000D02*
X269398750Y-164846000D01*
X257968750Y-167005000D02*
G75*
G02*
X260508750Y-164465000I2540000J0D01*
G01*
X261854588Y-170833960D02*
G75*
G02*
X264318750Y-168910000I2464162J-616040D01*
G01*
%TO.C,K53*%
X277018750Y-170434000D02*
X277018750Y-170815000D01*
X288448750Y-167894000D02*
X288448750Y-168910000D01*
X288448750Y-168910000D02*
X283368750Y-168910000D01*
X280904588Y-170815000D02*
X279177750Y-170815000D01*
X277399750Y-170815000D02*
X277018750Y-170815000D01*
X277018750Y-167005000D02*
X277018750Y-167386000D01*
X279558750Y-164465000D02*
X288448750Y-164465000D01*
X288448750Y-164465000D02*
X288448750Y-164846000D01*
X277018750Y-167005000D02*
G75*
G02*
X279558750Y-164465000I2540000J0D01*
G01*
X280904588Y-170833960D02*
G75*
G02*
X283368750Y-168910000I2464162J-616040D01*
G01*
%TO.C,K54*%
X314642500Y-164465000D02*
X314642500Y-164846000D01*
X305752500Y-164465000D02*
X314642500Y-164465000D01*
X303212500Y-167005000D02*
X303212500Y-167386000D01*
X303593500Y-170815000D02*
X303212500Y-170815000D01*
X307098338Y-170815000D02*
X305371500Y-170815000D01*
X314642500Y-168910000D02*
X309562500Y-168910000D01*
X314642500Y-167894000D02*
X314642500Y-168910000D01*
X303212500Y-170434000D02*
X303212500Y-170815000D01*
X307098338Y-170833960D02*
G75*
G02*
X309562500Y-168910000I2464162J-616040D01*
G01*
X303212500Y-167005000D02*
G75*
G02*
X305752500Y-164465000I2540000J0D01*
G01*
%TO.C,K57*%
X65087500Y-189484000D02*
X65087500Y-189865000D01*
X76517500Y-186944000D02*
X76517500Y-187960000D01*
X76517500Y-187960000D02*
X71437500Y-187960000D01*
X68973338Y-189865000D02*
X67246500Y-189865000D01*
X65468500Y-189865000D02*
X65087500Y-189865000D01*
X65087500Y-186055000D02*
X65087500Y-186436000D01*
X67627500Y-183515000D02*
X76517500Y-183515000D01*
X76517500Y-183515000D02*
X76517500Y-183896000D01*
X65087500Y-186055000D02*
G75*
G02*
X67627500Y-183515000I2540000J0D01*
G01*
X68973338Y-189883960D02*
G75*
G02*
X71437500Y-187960000I2464162J-616040D01*
G01*
%TO.C,K58*%
X100330000Y-183515000D02*
X100330000Y-183896000D01*
X91440000Y-183515000D02*
X100330000Y-183515000D01*
X88900000Y-186055000D02*
X88900000Y-186436000D01*
X89281000Y-189865000D02*
X88900000Y-189865000D01*
X92785838Y-189865000D02*
X91059000Y-189865000D01*
X100330000Y-187960000D02*
X95250000Y-187960000D01*
X100330000Y-186944000D02*
X100330000Y-187960000D01*
X88900000Y-189484000D02*
X88900000Y-189865000D01*
X92785838Y-189883960D02*
G75*
G02*
X95250000Y-187960000I2464162J-616040D01*
G01*
X88900000Y-186055000D02*
G75*
G02*
X91440000Y-183515000I2540000J0D01*
G01*
%TO.C,K59*%
X124142500Y-183515000D02*
X124142500Y-183896000D01*
X115252500Y-183515000D02*
X124142500Y-183515000D01*
X112712500Y-186055000D02*
X112712500Y-186436000D01*
X113093500Y-189865000D02*
X112712500Y-189865000D01*
X116598338Y-189865000D02*
X114871500Y-189865000D01*
X124142500Y-187960000D02*
X119062500Y-187960000D01*
X124142500Y-186944000D02*
X124142500Y-187960000D01*
X112712500Y-189484000D02*
X112712500Y-189865000D01*
X116598338Y-189883960D02*
G75*
G02*
X119062500Y-187960000I2464162J-616040D01*
G01*
X112712500Y-186055000D02*
G75*
G02*
X115252500Y-183515000I2540000J0D01*
G01*
%TO.C,K60*%
X195580000Y-183515000D02*
X195580000Y-183896000D01*
X186690000Y-183515000D02*
X195580000Y-183515000D01*
X184150000Y-186055000D02*
X184150000Y-186436000D01*
X184531000Y-189865000D02*
X184150000Y-189865000D01*
X188035838Y-189865000D02*
X186309000Y-189865000D01*
X195580000Y-187960000D02*
X190500000Y-187960000D01*
X195580000Y-186944000D02*
X195580000Y-187960000D01*
X184150000Y-189484000D02*
X184150000Y-189865000D01*
X188035838Y-189883960D02*
G75*
G02*
X190500000Y-187960000I2464162J-616040D01*
G01*
X184150000Y-186055000D02*
G75*
G02*
X186690000Y-183515000I2540000J0D01*
G01*
%TO.C,K61*%
X269398750Y-183515000D02*
X269398750Y-183896000D01*
X260508750Y-183515000D02*
X269398750Y-183515000D01*
X257968750Y-186055000D02*
X257968750Y-186436000D01*
X258349750Y-189865000D02*
X257968750Y-189865000D01*
X261854588Y-189865000D02*
X260127750Y-189865000D01*
X269398750Y-187960000D02*
X264318750Y-187960000D01*
X269398750Y-186944000D02*
X269398750Y-187960000D01*
X257968750Y-189484000D02*
X257968750Y-189865000D01*
X261854588Y-189883960D02*
G75*
G02*
X264318750Y-187960000I2464162J-616040D01*
G01*
X257968750Y-186055000D02*
G75*
G02*
X260508750Y-183515000I2540000J0D01*
G01*
%TO.C,K62*%
X297973750Y-183515000D02*
X297973750Y-183896000D01*
X289083750Y-183515000D02*
X297973750Y-183515000D01*
X286543750Y-186055000D02*
X286543750Y-186436000D01*
X286924750Y-189865000D02*
X286543750Y-189865000D01*
X290429588Y-189865000D02*
X288702750Y-189865000D01*
X297973750Y-187960000D02*
X292893750Y-187960000D01*
X297973750Y-186944000D02*
X297973750Y-187960000D01*
X286543750Y-189484000D02*
X286543750Y-189865000D01*
X290429588Y-189883960D02*
G75*
G02*
X292893750Y-187960000I2464162J-616040D01*
G01*
X286543750Y-186055000D02*
G75*
G02*
X289083750Y-183515000I2540000J0D01*
G01*
%TO.C,K63*%
X355500000Y-113284000D02*
X355500000Y-113665000D01*
X366930000Y-110744000D02*
X366930000Y-111760000D01*
X366930000Y-111760000D02*
X361850000Y-111760000D01*
X359385838Y-113665000D02*
X357659000Y-113665000D01*
X355881000Y-113665000D02*
X355500000Y-113665000D01*
X355500000Y-109855000D02*
X355500000Y-110236000D01*
X358040000Y-107315000D02*
X366930000Y-107315000D01*
X366930000Y-107315000D02*
X366930000Y-107696000D01*
X355500000Y-109855000D02*
G75*
G02*
X358040000Y-107315000I2540000J0D01*
G01*
X359385838Y-113683960D02*
G75*
G02*
X361850000Y-111760000I2464162J-616040D01*
G01*
%TO.C,K64*%
X328930000Y-188277500D02*
X328930000Y-188658500D01*
X320040000Y-188277500D02*
X328930000Y-188277500D01*
X317500000Y-190817500D02*
X317500000Y-191198500D01*
X317881000Y-194627500D02*
X317500000Y-194627500D01*
X321385838Y-194627500D02*
X319659000Y-194627500D01*
X328930000Y-192722500D02*
X323850000Y-192722500D01*
X328930000Y-191706500D02*
X328930000Y-192722500D01*
X317500000Y-194246500D02*
X317500000Y-194627500D01*
X321385838Y-194646460D02*
G75*
G02*
X323850000Y-192722500I2464162J-616040D01*
G01*
X317500000Y-190817500D02*
G75*
G02*
X320040000Y-188277500I2540000J0D01*
G01*
%TO.C,K65*%
X347980000Y-188277500D02*
X347980000Y-188658500D01*
X339090000Y-188277500D02*
X347980000Y-188277500D01*
X336550000Y-190817500D02*
X336550000Y-191198500D01*
X336931000Y-194627500D02*
X336550000Y-194627500D01*
X340435838Y-194627500D02*
X338709000Y-194627500D01*
X347980000Y-192722500D02*
X342900000Y-192722500D01*
X347980000Y-191706500D02*
X347980000Y-192722500D01*
X336550000Y-194246500D02*
X336550000Y-194627500D01*
X340435838Y-194646460D02*
G75*
G02*
X342900000Y-192722500I2464162J-616040D01*
G01*
X336550000Y-190817500D02*
G75*
G02*
X339090000Y-188277500I2540000J0D01*
G01*
%TO.C,K66*%
X367030000Y-188277500D02*
X367030000Y-188658500D01*
X358140000Y-188277500D02*
X367030000Y-188277500D01*
X355600000Y-190817500D02*
X355600000Y-191198500D01*
X355981000Y-194627500D02*
X355600000Y-194627500D01*
X359485838Y-194627500D02*
X357759000Y-194627500D01*
X367030000Y-192722500D02*
X361950000Y-192722500D01*
X367030000Y-191706500D02*
X367030000Y-192722500D01*
X355600000Y-194246500D02*
X355600000Y-194627500D01*
X359485838Y-194646460D02*
G75*
G02*
X361950000Y-192722500I2464162J-616040D01*
G01*
X355600000Y-190817500D02*
G75*
G02*
X358140000Y-188277500I2540000J0D01*
G01*
%TO.C,K67*%
X347980000Y-169227500D02*
X347980000Y-169608500D01*
X339090000Y-169227500D02*
X347980000Y-169227500D01*
X336550000Y-171767500D02*
X336550000Y-172148500D01*
X336931000Y-175577500D02*
X336550000Y-175577500D01*
X340435838Y-175577500D02*
X338709000Y-175577500D01*
X347980000Y-173672500D02*
X342900000Y-173672500D01*
X347980000Y-172656500D02*
X347980000Y-173672500D01*
X336550000Y-175196500D02*
X336550000Y-175577500D01*
X340435838Y-175596460D02*
G75*
G02*
X342900000Y-173672500I2464162J-616040D01*
G01*
X336550000Y-171767500D02*
G75*
G02*
X339090000Y-169227500I2540000J0D01*
G01*
%TO.C,K68*%
X355600000Y-132334000D02*
X355600000Y-132715000D01*
X367030000Y-129794000D02*
X367030000Y-130810000D01*
X367030000Y-130810000D02*
X361950000Y-130810000D01*
X359485838Y-132715000D02*
X357759000Y-132715000D01*
X355981000Y-132715000D02*
X355600000Y-132715000D01*
X355600000Y-128905000D02*
X355600000Y-129286000D01*
X358140000Y-126365000D02*
X367030000Y-126365000D01*
X367030000Y-126365000D02*
X367030000Y-126746000D01*
X355600000Y-128905000D02*
G75*
G02*
X358140000Y-126365000I2540000J0D01*
G01*
X359485838Y-132733960D02*
G75*
G02*
X361950000Y-130810000I2464162J-616040D01*
G01*
%TO.C,K69*%
X367030000Y-145415000D02*
X367030000Y-145796000D01*
X358140000Y-145415000D02*
X367030000Y-145415000D01*
X355600000Y-147955000D02*
X355600000Y-148336000D01*
X355981000Y-151765000D02*
X355600000Y-151765000D01*
X359485838Y-151765000D02*
X357759000Y-151765000D01*
X367030000Y-149860000D02*
X361950000Y-149860000D01*
X367030000Y-148844000D02*
X367030000Y-149860000D01*
X355600000Y-151384000D02*
X355600000Y-151765000D01*
X359485838Y-151783960D02*
G75*
G02*
X361950000Y-149860000I2464162J-616040D01*
G01*
X355600000Y-147955000D02*
G75*
G02*
X358140000Y-145415000I2540000J0D01*
G01*
%TO.C,K4*%
X126944345Y-106497380D02*
X126944345Y-105497380D01*
X126372916Y-106497380D02*
X126801488Y-105925952D01*
X126372916Y-105497380D02*
X126944345Y-106068809D01*
X125515773Y-105830714D02*
X125515773Y-106497380D01*
X125753869Y-105449761D02*
X125991964Y-106164047D01*
X125372916Y-106164047D01*
%TO.C,K7*%
X184094345Y-106497380D02*
X184094345Y-105497380D01*
X183522916Y-106497380D02*
X183951488Y-105925952D01*
X183522916Y-105497380D02*
X184094345Y-106068809D01*
X183189583Y-105497380D02*
X182522916Y-105497380D01*
X182951488Y-106497380D01*
%TO.C,K29*%
X77414285Y-144597380D02*
X77414285Y-143597380D01*
X76842857Y-144597380D02*
X77271428Y-144025952D01*
X76842857Y-143597380D02*
X77414285Y-144168809D01*
X76461904Y-143692619D02*
X76414285Y-143645000D01*
X76319047Y-143597380D01*
X76080952Y-143597380D01*
X75985714Y-143645000D01*
X75938095Y-143692619D01*
X75890476Y-143787857D01*
X75890476Y-143883095D01*
X75938095Y-144025952D01*
X76509523Y-144597380D01*
X75890476Y-144597380D01*
X75414285Y-144597380D02*
X75223809Y-144597380D01*
X75128571Y-144549761D01*
X75080952Y-144502142D01*
X74985714Y-144359285D01*
X74938095Y-144168809D01*
X74938095Y-143787857D01*
X74985714Y-143692619D01*
X75033333Y-143645000D01*
X75128571Y-143597380D01*
X75319047Y-143597380D01*
X75414285Y-143645000D01*
X75461904Y-143692619D01*
X75509523Y-143787857D01*
X75509523Y-144025952D01*
X75461904Y-144121190D01*
X75414285Y-144168809D01*
X75319047Y-144216428D01*
X75128571Y-144216428D01*
X75033333Y-144168809D01*
X74985714Y-144121190D01*
X74938095Y-144025952D01*
%TO.C,K3*%
X107894345Y-106497380D02*
X107894345Y-105497380D01*
X107322916Y-106497380D02*
X107751488Y-105925952D01*
X107322916Y-105497380D02*
X107894345Y-106068809D01*
X106989583Y-105497380D02*
X106370535Y-105497380D01*
X106703869Y-105878333D01*
X106561011Y-105878333D01*
X106465773Y-105925952D01*
X106418154Y-105973571D01*
X106370535Y-106068809D01*
X106370535Y-106306904D01*
X106418154Y-106402142D01*
X106465773Y-106449761D01*
X106561011Y-106497380D01*
X106846726Y-106497380D01*
X106941964Y-106449761D01*
X106989583Y-106402142D01*
%TO.C,K16*%
X98845535Y-125547380D02*
X98845535Y-124547380D01*
X98274107Y-125547380D02*
X98702678Y-124975952D01*
X98274107Y-124547380D02*
X98845535Y-125118809D01*
X97321726Y-125547380D02*
X97893154Y-125547380D01*
X97607440Y-125547380D02*
X97607440Y-124547380D01*
X97702678Y-124690238D01*
X97797916Y-124785476D01*
X97893154Y-124833095D01*
X96464583Y-124547380D02*
X96655059Y-124547380D01*
X96750297Y-124595000D01*
X96797916Y-124642619D01*
X96893154Y-124785476D01*
X96940773Y-124975952D01*
X96940773Y-125356904D01*
X96893154Y-125452142D01*
X96845535Y-125499761D01*
X96750297Y-125547380D01*
X96559821Y-125547380D01*
X96464583Y-125499761D01*
X96416964Y-125452142D01*
X96369345Y-125356904D01*
X96369345Y-125118809D01*
X96416964Y-125023571D01*
X96464583Y-124975952D01*
X96559821Y-124928333D01*
X96750297Y-124928333D01*
X96845535Y-124975952D01*
X96893154Y-125023571D01*
X96940773Y-125118809D01*
%TO.C,K1*%
X69794345Y-106497380D02*
X69794345Y-105497380D01*
X69222916Y-106497380D02*
X69651488Y-105925952D01*
X69222916Y-105497380D02*
X69794345Y-106068809D01*
X68270535Y-106497380D02*
X68841964Y-106497380D01*
X68556250Y-106497380D02*
X68556250Y-105497380D01*
X68651488Y-105640238D01*
X68746726Y-105735476D01*
X68841964Y-105783095D01*
%TO.C,K2*%
X88844345Y-106497380D02*
X88844345Y-105497380D01*
X88272916Y-106497380D02*
X88701488Y-105925952D01*
X88272916Y-105497380D02*
X88844345Y-106068809D01*
X87891964Y-105592619D02*
X87844345Y-105545000D01*
X87749107Y-105497380D01*
X87511011Y-105497380D01*
X87415773Y-105545000D01*
X87368154Y-105592619D01*
X87320535Y-105687857D01*
X87320535Y-105783095D01*
X87368154Y-105925952D01*
X87939583Y-106497380D01*
X87320535Y-106497380D01*
%TO.C,K18*%
X136945535Y-125547380D02*
X136945535Y-124547380D01*
X136374107Y-125547380D02*
X136802678Y-124975952D01*
X136374107Y-124547380D02*
X136945535Y-125118809D01*
X135421726Y-125547380D02*
X135993154Y-125547380D01*
X135707440Y-125547380D02*
X135707440Y-124547380D01*
X135802678Y-124690238D01*
X135897916Y-124785476D01*
X135993154Y-124833095D01*
X134850297Y-124975952D02*
X134945535Y-124928333D01*
X134993154Y-124880714D01*
X135040773Y-124785476D01*
X135040773Y-124737857D01*
X134993154Y-124642619D01*
X134945535Y-124595000D01*
X134850297Y-124547380D01*
X134659821Y-124547380D01*
X134564583Y-124595000D01*
X134516964Y-124642619D01*
X134469345Y-124737857D01*
X134469345Y-124785476D01*
X134516964Y-124880714D01*
X134564583Y-124928333D01*
X134659821Y-124975952D01*
X134850297Y-124975952D01*
X134945535Y-125023571D01*
X134993154Y-125071190D01*
X135040773Y-125166428D01*
X135040773Y-125356904D01*
X134993154Y-125452142D01*
X134945535Y-125499761D01*
X134850297Y-125547380D01*
X134659821Y-125547380D01*
X134564583Y-125499761D01*
X134516964Y-125452142D01*
X134469345Y-125356904D01*
X134469345Y-125166428D01*
X134516964Y-125071190D01*
X134564583Y-125023571D01*
X134659821Y-124975952D01*
%TO.C,K5*%
X145994345Y-106497380D02*
X145994345Y-105497380D01*
X145422916Y-106497380D02*
X145851488Y-105925952D01*
X145422916Y-105497380D02*
X145994345Y-106068809D01*
X144518154Y-105497380D02*
X144994345Y-105497380D01*
X145041964Y-105973571D01*
X144994345Y-105925952D01*
X144899107Y-105878333D01*
X144661011Y-105878333D01*
X144565773Y-105925952D01*
X144518154Y-105973571D01*
X144470535Y-106068809D01*
X144470535Y-106306904D01*
X144518154Y-106402142D01*
X144565773Y-106449761D01*
X144661011Y-106497380D01*
X144899107Y-106497380D01*
X144994345Y-106449761D01*
X145041964Y-106402142D01*
%TO.C,K6*%
X165044345Y-106497380D02*
X165044345Y-105497380D01*
X164472916Y-106497380D02*
X164901488Y-105925952D01*
X164472916Y-105497380D02*
X165044345Y-106068809D01*
X163615773Y-105497380D02*
X163806250Y-105497380D01*
X163901488Y-105545000D01*
X163949107Y-105592619D01*
X164044345Y-105735476D01*
X164091964Y-105925952D01*
X164091964Y-106306904D01*
X164044345Y-106402142D01*
X163996726Y-106449761D01*
X163901488Y-106497380D01*
X163711011Y-106497380D01*
X163615773Y-106449761D01*
X163568154Y-106402142D01*
X163520535Y-106306904D01*
X163520535Y-106068809D01*
X163568154Y-105973571D01*
X163615773Y-105925952D01*
X163711011Y-105878333D01*
X163901488Y-105878333D01*
X163996726Y-105925952D01*
X164044345Y-105973571D01*
X164091964Y-106068809D01*
%TO.C,K8*%
X203144345Y-106497380D02*
X203144345Y-105497380D01*
X202572916Y-106497380D02*
X203001488Y-105925952D01*
X202572916Y-105497380D02*
X203144345Y-106068809D01*
X202001488Y-105925952D02*
X202096726Y-105878333D01*
X202144345Y-105830714D01*
X202191964Y-105735476D01*
X202191964Y-105687857D01*
X202144345Y-105592619D01*
X202096726Y-105545000D01*
X202001488Y-105497380D01*
X201811011Y-105497380D01*
X201715773Y-105545000D01*
X201668154Y-105592619D01*
X201620535Y-105687857D01*
X201620535Y-105735476D01*
X201668154Y-105830714D01*
X201715773Y-105878333D01*
X201811011Y-105925952D01*
X202001488Y-105925952D01*
X202096726Y-105973571D01*
X202144345Y-106021190D01*
X202191964Y-106116428D01*
X202191964Y-106306904D01*
X202144345Y-106402142D01*
X202096726Y-106449761D01*
X202001488Y-106497380D01*
X201811011Y-106497380D01*
X201715773Y-106449761D01*
X201668154Y-106402142D01*
X201620535Y-106306904D01*
X201620535Y-106116428D01*
X201668154Y-106021190D01*
X201715773Y-105973571D01*
X201811011Y-105925952D01*
%TO.C,K9*%
X222194345Y-106497380D02*
X222194345Y-105497380D01*
X221622916Y-106497380D02*
X222051488Y-105925952D01*
X221622916Y-105497380D02*
X222194345Y-106068809D01*
X221146726Y-106497380D02*
X220956250Y-106497380D01*
X220861011Y-106449761D01*
X220813392Y-106402142D01*
X220718154Y-106259285D01*
X220670535Y-106068809D01*
X220670535Y-105687857D01*
X220718154Y-105592619D01*
X220765773Y-105545000D01*
X220861011Y-105497380D01*
X221051488Y-105497380D01*
X221146726Y-105545000D01*
X221194345Y-105592619D01*
X221241964Y-105687857D01*
X221241964Y-105925952D01*
X221194345Y-106021190D01*
X221146726Y-106068809D01*
X221051488Y-106116428D01*
X220861011Y-106116428D01*
X220765773Y-106068809D01*
X220718154Y-106021190D01*
X220670535Y-105925952D01*
%TO.C,K10*%
X241720535Y-106497380D02*
X241720535Y-105497380D01*
X241149107Y-106497380D02*
X241577678Y-105925952D01*
X241149107Y-105497380D02*
X241720535Y-106068809D01*
X240196726Y-106497380D02*
X240768154Y-106497380D01*
X240482440Y-106497380D02*
X240482440Y-105497380D01*
X240577678Y-105640238D01*
X240672916Y-105735476D01*
X240768154Y-105783095D01*
X239577678Y-105497380D02*
X239482440Y-105497380D01*
X239387202Y-105545000D01*
X239339583Y-105592619D01*
X239291964Y-105687857D01*
X239244345Y-105878333D01*
X239244345Y-106116428D01*
X239291964Y-106306904D01*
X239339583Y-106402142D01*
X239387202Y-106449761D01*
X239482440Y-106497380D01*
X239577678Y-106497380D01*
X239672916Y-106449761D01*
X239720535Y-106402142D01*
X239768154Y-106306904D01*
X239815773Y-106116428D01*
X239815773Y-105878333D01*
X239768154Y-105687857D01*
X239720535Y-105592619D01*
X239672916Y-105545000D01*
X239577678Y-105497380D01*
%TO.C,K11*%
X260770535Y-106497380D02*
X260770535Y-105497380D01*
X260199107Y-106497380D02*
X260627678Y-105925952D01*
X260199107Y-105497380D02*
X260770535Y-106068809D01*
X259246726Y-106497380D02*
X259818154Y-106497380D01*
X259532440Y-106497380D02*
X259532440Y-105497380D01*
X259627678Y-105640238D01*
X259722916Y-105735476D01*
X259818154Y-105783095D01*
X258294345Y-106497380D02*
X258865773Y-106497380D01*
X258580059Y-106497380D02*
X258580059Y-105497380D01*
X258675297Y-105640238D01*
X258770535Y-105735476D01*
X258865773Y-105783095D01*
%TO.C,K12*%
X280558035Y-106497380D02*
X280558035Y-105497380D01*
X279986607Y-106497380D02*
X280415178Y-105925952D01*
X279986607Y-105497380D02*
X280558035Y-106068809D01*
X279034226Y-106497380D02*
X279605654Y-106497380D01*
X279319940Y-106497380D02*
X279319940Y-105497380D01*
X279415178Y-105640238D01*
X279510416Y-105735476D01*
X279605654Y-105783095D01*
X278653273Y-105592619D02*
X278605654Y-105545000D01*
X278510416Y-105497380D01*
X278272321Y-105497380D01*
X278177083Y-105545000D01*
X278129464Y-105592619D01*
X278081845Y-105687857D01*
X278081845Y-105783095D01*
X278129464Y-105925952D01*
X278700892Y-106497380D01*
X278081845Y-106497380D01*
%TO.C,K13*%
X298870535Y-106497380D02*
X298870535Y-105497380D01*
X298299107Y-106497380D02*
X298727678Y-105925952D01*
X298299107Y-105497380D02*
X298870535Y-106068809D01*
X297346726Y-106497380D02*
X297918154Y-106497380D01*
X297632440Y-106497380D02*
X297632440Y-105497380D01*
X297727678Y-105640238D01*
X297822916Y-105735476D01*
X297918154Y-105783095D01*
X297013392Y-105497380D02*
X296394345Y-105497380D01*
X296727678Y-105878333D01*
X296584821Y-105878333D01*
X296489583Y-105925952D01*
X296441964Y-105973571D01*
X296394345Y-106068809D01*
X296394345Y-106306904D01*
X296441964Y-106402142D01*
X296489583Y-106449761D01*
X296584821Y-106497380D01*
X296870535Y-106497380D01*
X296965773Y-106449761D01*
X297013392Y-106402142D01*
%TO.C,K14*%
X327445535Y-106497380D02*
X327445535Y-105497380D01*
X326874107Y-106497380D02*
X327302678Y-105925952D01*
X326874107Y-105497380D02*
X327445535Y-106068809D01*
X325921726Y-106497380D02*
X326493154Y-106497380D01*
X326207440Y-106497380D02*
X326207440Y-105497380D01*
X326302678Y-105640238D01*
X326397916Y-105735476D01*
X326493154Y-105783095D01*
X325064583Y-105830714D02*
X325064583Y-106497380D01*
X325302678Y-105449761D02*
X325540773Y-106164047D01*
X324921726Y-106164047D01*
%TO.C,K15*%
X75033035Y-125547380D02*
X75033035Y-124547380D01*
X74461607Y-125547380D02*
X74890178Y-124975952D01*
X74461607Y-124547380D02*
X75033035Y-125118809D01*
X73509226Y-125547380D02*
X74080654Y-125547380D01*
X73794940Y-125547380D02*
X73794940Y-124547380D01*
X73890178Y-124690238D01*
X73985416Y-124785476D01*
X74080654Y-124833095D01*
X72604464Y-124547380D02*
X73080654Y-124547380D01*
X73128273Y-125023571D01*
X73080654Y-124975952D01*
X72985416Y-124928333D01*
X72747321Y-124928333D01*
X72652083Y-124975952D01*
X72604464Y-125023571D01*
X72556845Y-125118809D01*
X72556845Y-125356904D01*
X72604464Y-125452142D01*
X72652083Y-125499761D01*
X72747321Y-125547380D01*
X72985416Y-125547380D01*
X73080654Y-125499761D01*
X73128273Y-125452142D01*
%TO.C,K17*%
X117895535Y-125547380D02*
X117895535Y-124547380D01*
X117324107Y-125547380D02*
X117752678Y-124975952D01*
X117324107Y-124547380D02*
X117895535Y-125118809D01*
X116371726Y-125547380D02*
X116943154Y-125547380D01*
X116657440Y-125547380D02*
X116657440Y-124547380D01*
X116752678Y-124690238D01*
X116847916Y-124785476D01*
X116943154Y-124833095D01*
X116038392Y-124547380D02*
X115371726Y-124547380D01*
X115800297Y-125547380D01*
%TO.C,K19*%
X155995535Y-125547380D02*
X155995535Y-124547380D01*
X155424107Y-125547380D02*
X155852678Y-124975952D01*
X155424107Y-124547380D02*
X155995535Y-125118809D01*
X154471726Y-125547380D02*
X155043154Y-125547380D01*
X154757440Y-125547380D02*
X154757440Y-124547380D01*
X154852678Y-124690238D01*
X154947916Y-124785476D01*
X155043154Y-124833095D01*
X153995535Y-125547380D02*
X153805059Y-125547380D01*
X153709821Y-125499761D01*
X153662202Y-125452142D01*
X153566964Y-125309285D01*
X153519345Y-125118809D01*
X153519345Y-124737857D01*
X153566964Y-124642619D01*
X153614583Y-124595000D01*
X153709821Y-124547380D01*
X153900297Y-124547380D01*
X153995535Y-124595000D01*
X154043154Y-124642619D01*
X154090773Y-124737857D01*
X154090773Y-124975952D01*
X154043154Y-125071190D01*
X153995535Y-125118809D01*
X153900297Y-125166428D01*
X153709821Y-125166428D01*
X153614583Y-125118809D01*
X153566964Y-125071190D01*
X153519345Y-124975952D01*
%TO.C,K20*%
X175045535Y-125547380D02*
X175045535Y-124547380D01*
X174474107Y-125547380D02*
X174902678Y-124975952D01*
X174474107Y-124547380D02*
X175045535Y-125118809D01*
X174093154Y-124642619D02*
X174045535Y-124595000D01*
X173950297Y-124547380D01*
X173712202Y-124547380D01*
X173616964Y-124595000D01*
X173569345Y-124642619D01*
X173521726Y-124737857D01*
X173521726Y-124833095D01*
X173569345Y-124975952D01*
X174140773Y-125547380D01*
X173521726Y-125547380D01*
X172902678Y-124547380D02*
X172807440Y-124547380D01*
X172712202Y-124595000D01*
X172664583Y-124642619D01*
X172616964Y-124737857D01*
X172569345Y-124928333D01*
X172569345Y-125166428D01*
X172616964Y-125356904D01*
X172664583Y-125452142D01*
X172712202Y-125499761D01*
X172807440Y-125547380D01*
X172902678Y-125547380D01*
X172997916Y-125499761D01*
X173045535Y-125452142D01*
X173093154Y-125356904D01*
X173140773Y-125166428D01*
X173140773Y-124928333D01*
X173093154Y-124737857D01*
X173045535Y-124642619D01*
X172997916Y-124595000D01*
X172902678Y-124547380D01*
%TO.C,K21*%
X194095535Y-125547380D02*
X194095535Y-124547380D01*
X193524107Y-125547380D02*
X193952678Y-124975952D01*
X193524107Y-124547380D02*
X194095535Y-125118809D01*
X193143154Y-124642619D02*
X193095535Y-124595000D01*
X193000297Y-124547380D01*
X192762202Y-124547380D01*
X192666964Y-124595000D01*
X192619345Y-124642619D01*
X192571726Y-124737857D01*
X192571726Y-124833095D01*
X192619345Y-124975952D01*
X193190773Y-125547380D01*
X192571726Y-125547380D01*
X191619345Y-125547380D02*
X192190773Y-125547380D01*
X191905059Y-125547380D02*
X191905059Y-124547380D01*
X192000297Y-124690238D01*
X192095535Y-124785476D01*
X192190773Y-124833095D01*
%TO.C,K22*%
X213145535Y-125547380D02*
X213145535Y-124547380D01*
X212574107Y-125547380D02*
X213002678Y-124975952D01*
X212574107Y-124547380D02*
X213145535Y-125118809D01*
X212193154Y-124642619D02*
X212145535Y-124595000D01*
X212050297Y-124547380D01*
X211812202Y-124547380D01*
X211716964Y-124595000D01*
X211669345Y-124642619D01*
X211621726Y-124737857D01*
X211621726Y-124833095D01*
X211669345Y-124975952D01*
X212240773Y-125547380D01*
X211621726Y-125547380D01*
X211240773Y-124642619D02*
X211193154Y-124595000D01*
X211097916Y-124547380D01*
X210859821Y-124547380D01*
X210764583Y-124595000D01*
X210716964Y-124642619D01*
X210669345Y-124737857D01*
X210669345Y-124833095D01*
X210716964Y-124975952D01*
X211288392Y-125547380D01*
X210669345Y-125547380D01*
%TO.C,K23*%
X232195535Y-125547380D02*
X232195535Y-124547380D01*
X231624107Y-125547380D02*
X232052678Y-124975952D01*
X231624107Y-124547380D02*
X232195535Y-125118809D01*
X231243154Y-124642619D02*
X231195535Y-124595000D01*
X231100297Y-124547380D01*
X230862202Y-124547380D01*
X230766964Y-124595000D01*
X230719345Y-124642619D01*
X230671726Y-124737857D01*
X230671726Y-124833095D01*
X230719345Y-124975952D01*
X231290773Y-125547380D01*
X230671726Y-125547380D01*
X230338392Y-124547380D02*
X229719345Y-124547380D01*
X230052678Y-124928333D01*
X229909821Y-124928333D01*
X229814583Y-124975952D01*
X229766964Y-125023571D01*
X229719345Y-125118809D01*
X229719345Y-125356904D01*
X229766964Y-125452142D01*
X229814583Y-125499761D01*
X229909821Y-125547380D01*
X230195535Y-125547380D01*
X230290773Y-125499761D01*
X230338392Y-125452142D01*
%TO.C,K24*%
X251245535Y-125547380D02*
X251245535Y-124547380D01*
X250674107Y-125547380D02*
X251102678Y-124975952D01*
X250674107Y-124547380D02*
X251245535Y-125118809D01*
X250293154Y-124642619D02*
X250245535Y-124595000D01*
X250150297Y-124547380D01*
X249912202Y-124547380D01*
X249816964Y-124595000D01*
X249769345Y-124642619D01*
X249721726Y-124737857D01*
X249721726Y-124833095D01*
X249769345Y-124975952D01*
X250340773Y-125547380D01*
X249721726Y-125547380D01*
X248864583Y-124880714D02*
X248864583Y-125547380D01*
X249102678Y-124499761D02*
X249340773Y-125214047D01*
X248721726Y-125214047D01*
%TO.C,K25*%
X270295535Y-125547380D02*
X270295535Y-124547380D01*
X269724107Y-125547380D02*
X270152678Y-124975952D01*
X269724107Y-124547380D02*
X270295535Y-125118809D01*
X269343154Y-124642619D02*
X269295535Y-124595000D01*
X269200297Y-124547380D01*
X268962202Y-124547380D01*
X268866964Y-124595000D01*
X268819345Y-124642619D01*
X268771726Y-124737857D01*
X268771726Y-124833095D01*
X268819345Y-124975952D01*
X269390773Y-125547380D01*
X268771726Y-125547380D01*
X267866964Y-124547380D02*
X268343154Y-124547380D01*
X268390773Y-125023571D01*
X268343154Y-124975952D01*
X268247916Y-124928333D01*
X268009821Y-124928333D01*
X267914583Y-124975952D01*
X267866964Y-125023571D01*
X267819345Y-125118809D01*
X267819345Y-125356904D01*
X267866964Y-125452142D01*
X267914583Y-125499761D01*
X268009821Y-125547380D01*
X268247916Y-125547380D01*
X268343154Y-125499761D01*
X268390773Y-125452142D01*
%TO.C,K26*%
X289345535Y-125547380D02*
X289345535Y-124547380D01*
X288774107Y-125547380D02*
X289202678Y-124975952D01*
X288774107Y-124547380D02*
X289345535Y-125118809D01*
X288393154Y-124642619D02*
X288345535Y-124595000D01*
X288250297Y-124547380D01*
X288012202Y-124547380D01*
X287916964Y-124595000D01*
X287869345Y-124642619D01*
X287821726Y-124737857D01*
X287821726Y-124833095D01*
X287869345Y-124975952D01*
X288440773Y-125547380D01*
X287821726Y-125547380D01*
X286964583Y-124547380D02*
X287155059Y-124547380D01*
X287250297Y-124595000D01*
X287297916Y-124642619D01*
X287393154Y-124785476D01*
X287440773Y-124975952D01*
X287440773Y-125356904D01*
X287393154Y-125452142D01*
X287345535Y-125499761D01*
X287250297Y-125547380D01*
X287059821Y-125547380D01*
X286964583Y-125499761D01*
X286916964Y-125452142D01*
X286869345Y-125356904D01*
X286869345Y-125118809D01*
X286916964Y-125023571D01*
X286964583Y-124975952D01*
X287059821Y-124928333D01*
X287250297Y-124928333D01*
X287345535Y-124975952D01*
X287393154Y-125023571D01*
X287440773Y-125118809D01*
%TO.C,K27*%
X308395535Y-125547380D02*
X308395535Y-124547380D01*
X307824107Y-125547380D02*
X308252678Y-124975952D01*
X307824107Y-124547380D02*
X308395535Y-125118809D01*
X307443154Y-124642619D02*
X307395535Y-124595000D01*
X307300297Y-124547380D01*
X307062202Y-124547380D01*
X306966964Y-124595000D01*
X306919345Y-124642619D01*
X306871726Y-124737857D01*
X306871726Y-124833095D01*
X306919345Y-124975952D01*
X307490773Y-125547380D01*
X306871726Y-125547380D01*
X306538392Y-124547380D02*
X305871726Y-124547380D01*
X306300297Y-125547380D01*
%TO.C,K28*%
X332208035Y-125547380D02*
X332208035Y-124547380D01*
X331636607Y-125547380D02*
X332065178Y-124975952D01*
X331636607Y-124547380D02*
X332208035Y-125118809D01*
X331255654Y-124642619D02*
X331208035Y-124595000D01*
X331112797Y-124547380D01*
X330874702Y-124547380D01*
X330779464Y-124595000D01*
X330731845Y-124642619D01*
X330684226Y-124737857D01*
X330684226Y-124833095D01*
X330731845Y-124975952D01*
X331303273Y-125547380D01*
X330684226Y-125547380D01*
X330112797Y-124975952D02*
X330208035Y-124928333D01*
X330255654Y-124880714D01*
X330303273Y-124785476D01*
X330303273Y-124737857D01*
X330255654Y-124642619D01*
X330208035Y-124595000D01*
X330112797Y-124547380D01*
X329922321Y-124547380D01*
X329827083Y-124595000D01*
X329779464Y-124642619D01*
X329731845Y-124737857D01*
X329731845Y-124785476D01*
X329779464Y-124880714D01*
X329827083Y-124928333D01*
X329922321Y-124975952D01*
X330112797Y-124975952D01*
X330208035Y-125023571D01*
X330255654Y-125071190D01*
X330303273Y-125166428D01*
X330303273Y-125356904D01*
X330255654Y-125452142D01*
X330208035Y-125499761D01*
X330112797Y-125547380D01*
X329922321Y-125547380D01*
X329827083Y-125499761D01*
X329779464Y-125452142D01*
X329731845Y-125356904D01*
X329731845Y-125166428D01*
X329779464Y-125071190D01*
X329827083Y-125023571D01*
X329922321Y-124975952D01*
%TO.C,K30*%
X103608035Y-144597380D02*
X103608035Y-143597380D01*
X103036607Y-144597380D02*
X103465178Y-144025952D01*
X103036607Y-143597380D02*
X103608035Y-144168809D01*
X102703273Y-143597380D02*
X102084226Y-143597380D01*
X102417559Y-143978333D01*
X102274702Y-143978333D01*
X102179464Y-144025952D01*
X102131845Y-144073571D01*
X102084226Y-144168809D01*
X102084226Y-144406904D01*
X102131845Y-144502142D01*
X102179464Y-144549761D01*
X102274702Y-144597380D01*
X102560416Y-144597380D01*
X102655654Y-144549761D01*
X102703273Y-144502142D01*
X101465178Y-143597380D02*
X101369940Y-143597380D01*
X101274702Y-143645000D01*
X101227083Y-143692619D01*
X101179464Y-143787857D01*
X101131845Y-143978333D01*
X101131845Y-144216428D01*
X101179464Y-144406904D01*
X101227083Y-144502142D01*
X101274702Y-144549761D01*
X101369940Y-144597380D01*
X101465178Y-144597380D01*
X101560416Y-144549761D01*
X101608035Y-144502142D01*
X101655654Y-144406904D01*
X101703273Y-144216428D01*
X101703273Y-143978333D01*
X101655654Y-143787857D01*
X101608035Y-143692619D01*
X101560416Y-143645000D01*
X101465178Y-143597380D01*
%TO.C,K31*%
X122658035Y-144597380D02*
X122658035Y-143597380D01*
X122086607Y-144597380D02*
X122515178Y-144025952D01*
X122086607Y-143597380D02*
X122658035Y-144168809D01*
X121753273Y-143597380D02*
X121134226Y-143597380D01*
X121467559Y-143978333D01*
X121324702Y-143978333D01*
X121229464Y-144025952D01*
X121181845Y-144073571D01*
X121134226Y-144168809D01*
X121134226Y-144406904D01*
X121181845Y-144502142D01*
X121229464Y-144549761D01*
X121324702Y-144597380D01*
X121610416Y-144597380D01*
X121705654Y-144549761D01*
X121753273Y-144502142D01*
X120181845Y-144597380D02*
X120753273Y-144597380D01*
X120467559Y-144597380D02*
X120467559Y-143597380D01*
X120562797Y-143740238D01*
X120658035Y-143835476D01*
X120753273Y-143883095D01*
%TO.C,K32*%
X141708035Y-144597380D02*
X141708035Y-143597380D01*
X141136607Y-144597380D02*
X141565178Y-144025952D01*
X141136607Y-143597380D02*
X141708035Y-144168809D01*
X140803273Y-143597380D02*
X140184226Y-143597380D01*
X140517559Y-143978333D01*
X140374702Y-143978333D01*
X140279464Y-144025952D01*
X140231845Y-144073571D01*
X140184226Y-144168809D01*
X140184226Y-144406904D01*
X140231845Y-144502142D01*
X140279464Y-144549761D01*
X140374702Y-144597380D01*
X140660416Y-144597380D01*
X140755654Y-144549761D01*
X140803273Y-144502142D01*
X139803273Y-143692619D02*
X139755654Y-143645000D01*
X139660416Y-143597380D01*
X139422321Y-143597380D01*
X139327083Y-143645000D01*
X139279464Y-143692619D01*
X139231845Y-143787857D01*
X139231845Y-143883095D01*
X139279464Y-144025952D01*
X139850892Y-144597380D01*
X139231845Y-144597380D01*
%TO.C,K33*%
X160758035Y-144597380D02*
X160758035Y-143597380D01*
X160186607Y-144597380D02*
X160615178Y-144025952D01*
X160186607Y-143597380D02*
X160758035Y-144168809D01*
X159853273Y-143597380D02*
X159234226Y-143597380D01*
X159567559Y-143978333D01*
X159424702Y-143978333D01*
X159329464Y-144025952D01*
X159281845Y-144073571D01*
X159234226Y-144168809D01*
X159234226Y-144406904D01*
X159281845Y-144502142D01*
X159329464Y-144549761D01*
X159424702Y-144597380D01*
X159710416Y-144597380D01*
X159805654Y-144549761D01*
X159853273Y-144502142D01*
X158900892Y-143597380D02*
X158281845Y-143597380D01*
X158615178Y-143978333D01*
X158472321Y-143978333D01*
X158377083Y-144025952D01*
X158329464Y-144073571D01*
X158281845Y-144168809D01*
X158281845Y-144406904D01*
X158329464Y-144502142D01*
X158377083Y-144549761D01*
X158472321Y-144597380D01*
X158758035Y-144597380D01*
X158853273Y-144549761D01*
X158900892Y-144502142D01*
%TO.C,K34*%
X179808035Y-144597380D02*
X179808035Y-143597380D01*
X179236607Y-144597380D02*
X179665178Y-144025952D01*
X179236607Y-143597380D02*
X179808035Y-144168809D01*
X178903273Y-143597380D02*
X178284226Y-143597380D01*
X178617559Y-143978333D01*
X178474702Y-143978333D01*
X178379464Y-144025952D01*
X178331845Y-144073571D01*
X178284226Y-144168809D01*
X178284226Y-144406904D01*
X178331845Y-144502142D01*
X178379464Y-144549761D01*
X178474702Y-144597380D01*
X178760416Y-144597380D01*
X178855654Y-144549761D01*
X178903273Y-144502142D01*
X177427083Y-143930714D02*
X177427083Y-144597380D01*
X177665178Y-143549761D02*
X177903273Y-144264047D01*
X177284226Y-144264047D01*
%TO.C,K35*%
X198858035Y-144597380D02*
X198858035Y-143597380D01*
X198286607Y-144597380D02*
X198715178Y-144025952D01*
X198286607Y-143597380D02*
X198858035Y-144168809D01*
X197953273Y-143597380D02*
X197334226Y-143597380D01*
X197667559Y-143978333D01*
X197524702Y-143978333D01*
X197429464Y-144025952D01*
X197381845Y-144073571D01*
X197334226Y-144168809D01*
X197334226Y-144406904D01*
X197381845Y-144502142D01*
X197429464Y-144549761D01*
X197524702Y-144597380D01*
X197810416Y-144597380D01*
X197905654Y-144549761D01*
X197953273Y-144502142D01*
X196429464Y-143597380D02*
X196905654Y-143597380D01*
X196953273Y-144073571D01*
X196905654Y-144025952D01*
X196810416Y-143978333D01*
X196572321Y-143978333D01*
X196477083Y-144025952D01*
X196429464Y-144073571D01*
X196381845Y-144168809D01*
X196381845Y-144406904D01*
X196429464Y-144502142D01*
X196477083Y-144549761D01*
X196572321Y-144597380D01*
X196810416Y-144597380D01*
X196905654Y-144549761D01*
X196953273Y-144502142D01*
%TO.C,K36*%
X217908035Y-144597380D02*
X217908035Y-143597380D01*
X217336607Y-144597380D02*
X217765178Y-144025952D01*
X217336607Y-143597380D02*
X217908035Y-144168809D01*
X217003273Y-143597380D02*
X216384226Y-143597380D01*
X216717559Y-143978333D01*
X216574702Y-143978333D01*
X216479464Y-144025952D01*
X216431845Y-144073571D01*
X216384226Y-144168809D01*
X216384226Y-144406904D01*
X216431845Y-144502142D01*
X216479464Y-144549761D01*
X216574702Y-144597380D01*
X216860416Y-144597380D01*
X216955654Y-144549761D01*
X217003273Y-144502142D01*
X215527083Y-143597380D02*
X215717559Y-143597380D01*
X215812797Y-143645000D01*
X215860416Y-143692619D01*
X215955654Y-143835476D01*
X216003273Y-144025952D01*
X216003273Y-144406904D01*
X215955654Y-144502142D01*
X215908035Y-144549761D01*
X215812797Y-144597380D01*
X215622321Y-144597380D01*
X215527083Y-144549761D01*
X215479464Y-144502142D01*
X215431845Y-144406904D01*
X215431845Y-144168809D01*
X215479464Y-144073571D01*
X215527083Y-144025952D01*
X215622321Y-143978333D01*
X215812797Y-143978333D01*
X215908035Y-144025952D01*
X215955654Y-144073571D01*
X216003273Y-144168809D01*
%TO.C,K37*%
X236958035Y-144597380D02*
X236958035Y-143597380D01*
X236386607Y-144597380D02*
X236815178Y-144025952D01*
X236386607Y-143597380D02*
X236958035Y-144168809D01*
X236053273Y-143597380D02*
X235434226Y-143597380D01*
X235767559Y-143978333D01*
X235624702Y-143978333D01*
X235529464Y-144025952D01*
X235481845Y-144073571D01*
X235434226Y-144168809D01*
X235434226Y-144406904D01*
X235481845Y-144502142D01*
X235529464Y-144549761D01*
X235624702Y-144597380D01*
X235910416Y-144597380D01*
X236005654Y-144549761D01*
X236053273Y-144502142D01*
X235100892Y-143597380D02*
X234434226Y-143597380D01*
X234862797Y-144597380D01*
%TO.C,K38*%
X256008035Y-144597380D02*
X256008035Y-143597380D01*
X255436607Y-144597380D02*
X255865178Y-144025952D01*
X255436607Y-143597380D02*
X256008035Y-144168809D01*
X255103273Y-143597380D02*
X254484226Y-143597380D01*
X254817559Y-143978333D01*
X254674702Y-143978333D01*
X254579464Y-144025952D01*
X254531845Y-144073571D01*
X254484226Y-144168809D01*
X254484226Y-144406904D01*
X254531845Y-144502142D01*
X254579464Y-144549761D01*
X254674702Y-144597380D01*
X254960416Y-144597380D01*
X255055654Y-144549761D01*
X255103273Y-144502142D01*
X253912797Y-144025952D02*
X254008035Y-143978333D01*
X254055654Y-143930714D01*
X254103273Y-143835476D01*
X254103273Y-143787857D01*
X254055654Y-143692619D01*
X254008035Y-143645000D01*
X253912797Y-143597380D01*
X253722321Y-143597380D01*
X253627083Y-143645000D01*
X253579464Y-143692619D01*
X253531845Y-143787857D01*
X253531845Y-143835476D01*
X253579464Y-143930714D01*
X253627083Y-143978333D01*
X253722321Y-144025952D01*
X253912797Y-144025952D01*
X254008035Y-144073571D01*
X254055654Y-144121190D01*
X254103273Y-144216428D01*
X254103273Y-144406904D01*
X254055654Y-144502142D01*
X254008035Y-144549761D01*
X253912797Y-144597380D01*
X253722321Y-144597380D01*
X253627083Y-144549761D01*
X253579464Y-144502142D01*
X253531845Y-144406904D01*
X253531845Y-144216428D01*
X253579464Y-144121190D01*
X253627083Y-144073571D01*
X253722321Y-144025952D01*
%TO.C,K39*%
X275058035Y-144597380D02*
X275058035Y-143597380D01*
X274486607Y-144597380D02*
X274915178Y-144025952D01*
X274486607Y-143597380D02*
X275058035Y-144168809D01*
X274153273Y-143597380D02*
X273534226Y-143597380D01*
X273867559Y-143978333D01*
X273724702Y-143978333D01*
X273629464Y-144025952D01*
X273581845Y-144073571D01*
X273534226Y-144168809D01*
X273534226Y-144406904D01*
X273581845Y-144502142D01*
X273629464Y-144549761D01*
X273724702Y-144597380D01*
X274010416Y-144597380D01*
X274105654Y-144549761D01*
X274153273Y-144502142D01*
X273058035Y-144597380D02*
X272867559Y-144597380D01*
X272772321Y-144549761D01*
X272724702Y-144502142D01*
X272629464Y-144359285D01*
X272581845Y-144168809D01*
X272581845Y-143787857D01*
X272629464Y-143692619D01*
X272677083Y-143645000D01*
X272772321Y-143597380D01*
X272962797Y-143597380D01*
X273058035Y-143645000D01*
X273105654Y-143692619D01*
X273153273Y-143787857D01*
X273153273Y-144025952D01*
X273105654Y-144121190D01*
X273058035Y-144168809D01*
X272962797Y-144216428D01*
X272772321Y-144216428D01*
X272677083Y-144168809D01*
X272629464Y-144121190D01*
X272581845Y-144025952D01*
%TO.C,K40*%
X294108035Y-144597380D02*
X294108035Y-143597380D01*
X293536607Y-144597380D02*
X293965178Y-144025952D01*
X293536607Y-143597380D02*
X294108035Y-144168809D01*
X292679464Y-143930714D02*
X292679464Y-144597380D01*
X292917559Y-143549761D02*
X293155654Y-144264047D01*
X292536607Y-144264047D01*
X291965178Y-143597380D02*
X291869940Y-143597380D01*
X291774702Y-143645000D01*
X291727083Y-143692619D01*
X291679464Y-143787857D01*
X291631845Y-143978333D01*
X291631845Y-144216428D01*
X291679464Y-144406904D01*
X291727083Y-144502142D01*
X291774702Y-144549761D01*
X291869940Y-144597380D01*
X291965178Y-144597380D01*
X292060416Y-144549761D01*
X292108035Y-144502142D01*
X292155654Y-144406904D01*
X292203273Y-144216428D01*
X292203273Y-143978333D01*
X292155654Y-143787857D01*
X292108035Y-143692619D01*
X292060416Y-143645000D01*
X291965178Y-143597380D01*
%TO.C,K41*%
X325064285Y-144597380D02*
X325064285Y-143597380D01*
X324492857Y-144597380D02*
X324921428Y-144025952D01*
X324492857Y-143597380D02*
X325064285Y-144168809D01*
X323635714Y-143930714D02*
X323635714Y-144597380D01*
X323873809Y-143549761D02*
X324111904Y-144264047D01*
X323492857Y-144264047D01*
X322588095Y-144597380D02*
X323159523Y-144597380D01*
X322873809Y-144597380D02*
X322873809Y-143597380D01*
X322969047Y-143740238D01*
X323064285Y-143835476D01*
X323159523Y-143883095D01*
%TO.C,K43*%
X82176785Y-163647380D02*
X82176785Y-162647380D01*
X81605357Y-163647380D02*
X82033928Y-163075952D01*
X81605357Y-162647380D02*
X82176785Y-163218809D01*
X80748214Y-162980714D02*
X80748214Y-163647380D01*
X80986309Y-162599761D02*
X81224404Y-163314047D01*
X80605357Y-163314047D01*
X80319642Y-162647380D02*
X79700595Y-162647380D01*
X80033928Y-163028333D01*
X79891071Y-163028333D01*
X79795833Y-163075952D01*
X79748214Y-163123571D01*
X79700595Y-163218809D01*
X79700595Y-163456904D01*
X79748214Y-163552142D01*
X79795833Y-163599761D01*
X79891071Y-163647380D01*
X80176785Y-163647380D01*
X80272023Y-163599761D01*
X80319642Y-163552142D01*
%TO.C,K44*%
X113133035Y-163647380D02*
X113133035Y-162647380D01*
X112561607Y-163647380D02*
X112990178Y-163075952D01*
X112561607Y-162647380D02*
X113133035Y-163218809D01*
X111704464Y-162980714D02*
X111704464Y-163647380D01*
X111942559Y-162599761D02*
X112180654Y-163314047D01*
X111561607Y-163314047D01*
X110752083Y-162980714D02*
X110752083Y-163647380D01*
X110990178Y-162599761D02*
X111228273Y-163314047D01*
X110609226Y-163314047D01*
%TO.C,K45*%
X132183035Y-163647380D02*
X132183035Y-162647380D01*
X131611607Y-163647380D02*
X132040178Y-163075952D01*
X131611607Y-162647380D02*
X132183035Y-163218809D01*
X130754464Y-162980714D02*
X130754464Y-163647380D01*
X130992559Y-162599761D02*
X131230654Y-163314047D01*
X130611607Y-163314047D01*
X129754464Y-162647380D02*
X130230654Y-162647380D01*
X130278273Y-163123571D01*
X130230654Y-163075952D01*
X130135416Y-163028333D01*
X129897321Y-163028333D01*
X129802083Y-163075952D01*
X129754464Y-163123571D01*
X129706845Y-163218809D01*
X129706845Y-163456904D01*
X129754464Y-163552142D01*
X129802083Y-163599761D01*
X129897321Y-163647380D01*
X130135416Y-163647380D01*
X130230654Y-163599761D01*
X130278273Y-163552142D01*
%TO.C,K46*%
X151233035Y-163647380D02*
X151233035Y-162647380D01*
X150661607Y-163647380D02*
X151090178Y-163075952D01*
X150661607Y-162647380D02*
X151233035Y-163218809D01*
X149804464Y-162980714D02*
X149804464Y-163647380D01*
X150042559Y-162599761D02*
X150280654Y-163314047D01*
X149661607Y-163314047D01*
X148852083Y-162647380D02*
X149042559Y-162647380D01*
X149137797Y-162695000D01*
X149185416Y-162742619D01*
X149280654Y-162885476D01*
X149328273Y-163075952D01*
X149328273Y-163456904D01*
X149280654Y-163552142D01*
X149233035Y-163599761D01*
X149137797Y-163647380D01*
X148947321Y-163647380D01*
X148852083Y-163599761D01*
X148804464Y-163552142D01*
X148756845Y-163456904D01*
X148756845Y-163218809D01*
X148804464Y-163123571D01*
X148852083Y-163075952D01*
X148947321Y-163028333D01*
X149137797Y-163028333D01*
X149233035Y-163075952D01*
X149280654Y-163123571D01*
X149328273Y-163218809D01*
%TO.C,K47*%
X170283035Y-163647380D02*
X170283035Y-162647380D01*
X169711607Y-163647380D02*
X170140178Y-163075952D01*
X169711607Y-162647380D02*
X170283035Y-163218809D01*
X168854464Y-162980714D02*
X168854464Y-163647380D01*
X169092559Y-162599761D02*
X169330654Y-163314047D01*
X168711607Y-163314047D01*
X168425892Y-162647380D02*
X167759226Y-162647380D01*
X168187797Y-163647380D01*
%TO.C,K48*%
X189333035Y-163647380D02*
X189333035Y-162647380D01*
X188761607Y-163647380D02*
X189190178Y-163075952D01*
X188761607Y-162647380D02*
X189333035Y-163218809D01*
X187904464Y-162980714D02*
X187904464Y-163647380D01*
X188142559Y-162599761D02*
X188380654Y-163314047D01*
X187761607Y-163314047D01*
X187237797Y-163075952D02*
X187333035Y-163028333D01*
X187380654Y-162980714D01*
X187428273Y-162885476D01*
X187428273Y-162837857D01*
X187380654Y-162742619D01*
X187333035Y-162695000D01*
X187237797Y-162647380D01*
X187047321Y-162647380D01*
X186952083Y-162695000D01*
X186904464Y-162742619D01*
X186856845Y-162837857D01*
X186856845Y-162885476D01*
X186904464Y-162980714D01*
X186952083Y-163028333D01*
X187047321Y-163075952D01*
X187237797Y-163075952D01*
X187333035Y-163123571D01*
X187380654Y-163171190D01*
X187428273Y-163266428D01*
X187428273Y-163456904D01*
X187380654Y-163552142D01*
X187333035Y-163599761D01*
X187237797Y-163647380D01*
X187047321Y-163647380D01*
X186952083Y-163599761D01*
X186904464Y-163552142D01*
X186856845Y-163456904D01*
X186856845Y-163266428D01*
X186904464Y-163171190D01*
X186952083Y-163123571D01*
X187047321Y-163075952D01*
%TO.C,K49*%
X208383035Y-163647380D02*
X208383035Y-162647380D01*
X207811607Y-163647380D02*
X208240178Y-163075952D01*
X207811607Y-162647380D02*
X208383035Y-163218809D01*
X206954464Y-162980714D02*
X206954464Y-163647380D01*
X207192559Y-162599761D02*
X207430654Y-163314047D01*
X206811607Y-163314047D01*
X206383035Y-163647380D02*
X206192559Y-163647380D01*
X206097321Y-163599761D01*
X206049702Y-163552142D01*
X205954464Y-163409285D01*
X205906845Y-163218809D01*
X205906845Y-162837857D01*
X205954464Y-162742619D01*
X206002083Y-162695000D01*
X206097321Y-162647380D01*
X206287797Y-162647380D01*
X206383035Y-162695000D01*
X206430654Y-162742619D01*
X206478273Y-162837857D01*
X206478273Y-163075952D01*
X206430654Y-163171190D01*
X206383035Y-163218809D01*
X206287797Y-163266428D01*
X206097321Y-163266428D01*
X206002083Y-163218809D01*
X205954464Y-163171190D01*
X205906845Y-163075952D01*
%TO.C,K50*%
X227433035Y-163647380D02*
X227433035Y-162647380D01*
X226861607Y-163647380D02*
X227290178Y-163075952D01*
X226861607Y-162647380D02*
X227433035Y-163218809D01*
X225956845Y-162647380D02*
X226433035Y-162647380D01*
X226480654Y-163123571D01*
X226433035Y-163075952D01*
X226337797Y-163028333D01*
X226099702Y-163028333D01*
X226004464Y-163075952D01*
X225956845Y-163123571D01*
X225909226Y-163218809D01*
X225909226Y-163456904D01*
X225956845Y-163552142D01*
X226004464Y-163599761D01*
X226099702Y-163647380D01*
X226337797Y-163647380D01*
X226433035Y-163599761D01*
X226480654Y-163552142D01*
X225290178Y-162647380D02*
X225194940Y-162647380D01*
X225099702Y-162695000D01*
X225052083Y-162742619D01*
X225004464Y-162837857D01*
X224956845Y-163028333D01*
X224956845Y-163266428D01*
X225004464Y-163456904D01*
X225052083Y-163552142D01*
X225099702Y-163599761D01*
X225194940Y-163647380D01*
X225290178Y-163647380D01*
X225385416Y-163599761D01*
X225433035Y-163552142D01*
X225480654Y-163456904D01*
X225528273Y-163266428D01*
X225528273Y-163028333D01*
X225480654Y-162837857D01*
X225433035Y-162742619D01*
X225385416Y-162695000D01*
X225290178Y-162647380D01*
%TO.C,K51*%
X246483035Y-163647380D02*
X246483035Y-162647380D01*
X245911607Y-163647380D02*
X246340178Y-163075952D01*
X245911607Y-162647380D02*
X246483035Y-163218809D01*
X245006845Y-162647380D02*
X245483035Y-162647380D01*
X245530654Y-163123571D01*
X245483035Y-163075952D01*
X245387797Y-163028333D01*
X245149702Y-163028333D01*
X245054464Y-163075952D01*
X245006845Y-163123571D01*
X244959226Y-163218809D01*
X244959226Y-163456904D01*
X245006845Y-163552142D01*
X245054464Y-163599761D01*
X245149702Y-163647380D01*
X245387797Y-163647380D01*
X245483035Y-163599761D01*
X245530654Y-163552142D01*
X244006845Y-163647380D02*
X244578273Y-163647380D01*
X244292559Y-163647380D02*
X244292559Y-162647380D01*
X244387797Y-162790238D01*
X244483035Y-162885476D01*
X244578273Y-162933095D01*
%TO.C,K52*%
X265533035Y-163647380D02*
X265533035Y-162647380D01*
X264961607Y-163647380D02*
X265390178Y-163075952D01*
X264961607Y-162647380D02*
X265533035Y-163218809D01*
X264056845Y-162647380D02*
X264533035Y-162647380D01*
X264580654Y-163123571D01*
X264533035Y-163075952D01*
X264437797Y-163028333D01*
X264199702Y-163028333D01*
X264104464Y-163075952D01*
X264056845Y-163123571D01*
X264009226Y-163218809D01*
X264009226Y-163456904D01*
X264056845Y-163552142D01*
X264104464Y-163599761D01*
X264199702Y-163647380D01*
X264437797Y-163647380D01*
X264533035Y-163599761D01*
X264580654Y-163552142D01*
X263628273Y-162742619D02*
X263580654Y-162695000D01*
X263485416Y-162647380D01*
X263247321Y-162647380D01*
X263152083Y-162695000D01*
X263104464Y-162742619D01*
X263056845Y-162837857D01*
X263056845Y-162933095D01*
X263104464Y-163075952D01*
X263675892Y-163647380D01*
X263056845Y-163647380D01*
%TO.C,K53*%
X284583035Y-163647380D02*
X284583035Y-162647380D01*
X284011607Y-163647380D02*
X284440178Y-163075952D01*
X284011607Y-162647380D02*
X284583035Y-163218809D01*
X283106845Y-162647380D02*
X283583035Y-162647380D01*
X283630654Y-163123571D01*
X283583035Y-163075952D01*
X283487797Y-163028333D01*
X283249702Y-163028333D01*
X283154464Y-163075952D01*
X283106845Y-163123571D01*
X283059226Y-163218809D01*
X283059226Y-163456904D01*
X283106845Y-163552142D01*
X283154464Y-163599761D01*
X283249702Y-163647380D01*
X283487797Y-163647380D01*
X283583035Y-163599761D01*
X283630654Y-163552142D01*
X282725892Y-162647380D02*
X282106845Y-162647380D01*
X282440178Y-163028333D01*
X282297321Y-163028333D01*
X282202083Y-163075952D01*
X282154464Y-163123571D01*
X282106845Y-163218809D01*
X282106845Y-163456904D01*
X282154464Y-163552142D01*
X282202083Y-163599761D01*
X282297321Y-163647380D01*
X282583035Y-163647380D01*
X282678273Y-163599761D01*
X282725892Y-163552142D01*
%TO.C,K54*%
X310776785Y-163647380D02*
X310776785Y-162647380D01*
X310205357Y-163647380D02*
X310633928Y-163075952D01*
X310205357Y-162647380D02*
X310776785Y-163218809D01*
X309300595Y-162647380D02*
X309776785Y-162647380D01*
X309824404Y-163123571D01*
X309776785Y-163075952D01*
X309681547Y-163028333D01*
X309443452Y-163028333D01*
X309348214Y-163075952D01*
X309300595Y-163123571D01*
X309252976Y-163218809D01*
X309252976Y-163456904D01*
X309300595Y-163552142D01*
X309348214Y-163599761D01*
X309443452Y-163647380D01*
X309681547Y-163647380D01*
X309776785Y-163599761D01*
X309824404Y-163552142D01*
X308395833Y-162980714D02*
X308395833Y-163647380D01*
X308633928Y-162599761D02*
X308872023Y-163314047D01*
X308252976Y-163314047D01*
%TO.C,K57*%
X72651785Y-182697380D02*
X72651785Y-181697380D01*
X72080357Y-182697380D02*
X72508928Y-182125952D01*
X72080357Y-181697380D02*
X72651785Y-182268809D01*
X71175595Y-181697380D02*
X71651785Y-181697380D01*
X71699404Y-182173571D01*
X71651785Y-182125952D01*
X71556547Y-182078333D01*
X71318452Y-182078333D01*
X71223214Y-182125952D01*
X71175595Y-182173571D01*
X71127976Y-182268809D01*
X71127976Y-182506904D01*
X71175595Y-182602142D01*
X71223214Y-182649761D01*
X71318452Y-182697380D01*
X71556547Y-182697380D01*
X71651785Y-182649761D01*
X71699404Y-182602142D01*
X70794642Y-181697380D02*
X70127976Y-181697380D01*
X70556547Y-182697380D01*
%TO.C,K58*%
X96464285Y-182697380D02*
X96464285Y-181697380D01*
X95892857Y-182697380D02*
X96321428Y-182125952D01*
X95892857Y-181697380D02*
X96464285Y-182268809D01*
X94988095Y-181697380D02*
X95464285Y-181697380D01*
X95511904Y-182173571D01*
X95464285Y-182125952D01*
X95369047Y-182078333D01*
X95130952Y-182078333D01*
X95035714Y-182125952D01*
X94988095Y-182173571D01*
X94940476Y-182268809D01*
X94940476Y-182506904D01*
X94988095Y-182602142D01*
X95035714Y-182649761D01*
X95130952Y-182697380D01*
X95369047Y-182697380D01*
X95464285Y-182649761D01*
X95511904Y-182602142D01*
X94369047Y-182125952D02*
X94464285Y-182078333D01*
X94511904Y-182030714D01*
X94559523Y-181935476D01*
X94559523Y-181887857D01*
X94511904Y-181792619D01*
X94464285Y-181745000D01*
X94369047Y-181697380D01*
X94178571Y-181697380D01*
X94083333Y-181745000D01*
X94035714Y-181792619D01*
X93988095Y-181887857D01*
X93988095Y-181935476D01*
X94035714Y-182030714D01*
X94083333Y-182078333D01*
X94178571Y-182125952D01*
X94369047Y-182125952D01*
X94464285Y-182173571D01*
X94511904Y-182221190D01*
X94559523Y-182316428D01*
X94559523Y-182506904D01*
X94511904Y-182602142D01*
X94464285Y-182649761D01*
X94369047Y-182697380D01*
X94178571Y-182697380D01*
X94083333Y-182649761D01*
X94035714Y-182602142D01*
X93988095Y-182506904D01*
X93988095Y-182316428D01*
X94035714Y-182221190D01*
X94083333Y-182173571D01*
X94178571Y-182125952D01*
%TO.C,K59*%
X120276785Y-182697380D02*
X120276785Y-181697380D01*
X119705357Y-182697380D02*
X120133928Y-182125952D01*
X119705357Y-181697380D02*
X120276785Y-182268809D01*
X118800595Y-181697380D02*
X119276785Y-181697380D01*
X119324404Y-182173571D01*
X119276785Y-182125952D01*
X119181547Y-182078333D01*
X118943452Y-182078333D01*
X118848214Y-182125952D01*
X118800595Y-182173571D01*
X118752976Y-182268809D01*
X118752976Y-182506904D01*
X118800595Y-182602142D01*
X118848214Y-182649761D01*
X118943452Y-182697380D01*
X119181547Y-182697380D01*
X119276785Y-182649761D01*
X119324404Y-182602142D01*
X118276785Y-182697380D02*
X118086309Y-182697380D01*
X117991071Y-182649761D01*
X117943452Y-182602142D01*
X117848214Y-182459285D01*
X117800595Y-182268809D01*
X117800595Y-181887857D01*
X117848214Y-181792619D01*
X117895833Y-181745000D01*
X117991071Y-181697380D01*
X118181547Y-181697380D01*
X118276785Y-181745000D01*
X118324404Y-181792619D01*
X118372023Y-181887857D01*
X118372023Y-182125952D01*
X118324404Y-182221190D01*
X118276785Y-182268809D01*
X118181547Y-182316428D01*
X117991071Y-182316428D01*
X117895833Y-182268809D01*
X117848214Y-182221190D01*
X117800595Y-182125952D01*
%TO.C,K60*%
X191714285Y-182697380D02*
X191714285Y-181697380D01*
X191142857Y-182697380D02*
X191571428Y-182125952D01*
X191142857Y-181697380D02*
X191714285Y-182268809D01*
X190285714Y-181697380D02*
X190476190Y-181697380D01*
X190571428Y-181745000D01*
X190619047Y-181792619D01*
X190714285Y-181935476D01*
X190761904Y-182125952D01*
X190761904Y-182506904D01*
X190714285Y-182602142D01*
X190666666Y-182649761D01*
X190571428Y-182697380D01*
X190380952Y-182697380D01*
X190285714Y-182649761D01*
X190238095Y-182602142D01*
X190190476Y-182506904D01*
X190190476Y-182268809D01*
X190238095Y-182173571D01*
X190285714Y-182125952D01*
X190380952Y-182078333D01*
X190571428Y-182078333D01*
X190666666Y-182125952D01*
X190714285Y-182173571D01*
X190761904Y-182268809D01*
X189571428Y-181697380D02*
X189476190Y-181697380D01*
X189380952Y-181745000D01*
X189333333Y-181792619D01*
X189285714Y-181887857D01*
X189238095Y-182078333D01*
X189238095Y-182316428D01*
X189285714Y-182506904D01*
X189333333Y-182602142D01*
X189380952Y-182649761D01*
X189476190Y-182697380D01*
X189571428Y-182697380D01*
X189666666Y-182649761D01*
X189714285Y-182602142D01*
X189761904Y-182506904D01*
X189809523Y-182316428D01*
X189809523Y-182078333D01*
X189761904Y-181887857D01*
X189714285Y-181792619D01*
X189666666Y-181745000D01*
X189571428Y-181697380D01*
%TO.C,K61*%
X265533035Y-182697380D02*
X265533035Y-181697380D01*
X264961607Y-182697380D02*
X265390178Y-182125952D01*
X264961607Y-181697380D02*
X265533035Y-182268809D01*
X264104464Y-181697380D02*
X264294940Y-181697380D01*
X264390178Y-181745000D01*
X264437797Y-181792619D01*
X264533035Y-181935476D01*
X264580654Y-182125952D01*
X264580654Y-182506904D01*
X264533035Y-182602142D01*
X264485416Y-182649761D01*
X264390178Y-182697380D01*
X264199702Y-182697380D01*
X264104464Y-182649761D01*
X264056845Y-182602142D01*
X264009226Y-182506904D01*
X264009226Y-182268809D01*
X264056845Y-182173571D01*
X264104464Y-182125952D01*
X264199702Y-182078333D01*
X264390178Y-182078333D01*
X264485416Y-182125952D01*
X264533035Y-182173571D01*
X264580654Y-182268809D01*
X263056845Y-182697380D02*
X263628273Y-182697380D01*
X263342559Y-182697380D02*
X263342559Y-181697380D01*
X263437797Y-181840238D01*
X263533035Y-181935476D01*
X263628273Y-181983095D01*
%TO.C,K62*%
X294108035Y-182697380D02*
X294108035Y-181697380D01*
X293536607Y-182697380D02*
X293965178Y-182125952D01*
X293536607Y-181697380D02*
X294108035Y-182268809D01*
X292679464Y-181697380D02*
X292869940Y-181697380D01*
X292965178Y-181745000D01*
X293012797Y-181792619D01*
X293108035Y-181935476D01*
X293155654Y-182125952D01*
X293155654Y-182506904D01*
X293108035Y-182602142D01*
X293060416Y-182649761D01*
X292965178Y-182697380D01*
X292774702Y-182697380D01*
X292679464Y-182649761D01*
X292631845Y-182602142D01*
X292584226Y-182506904D01*
X292584226Y-182268809D01*
X292631845Y-182173571D01*
X292679464Y-182125952D01*
X292774702Y-182078333D01*
X292965178Y-182078333D01*
X293060416Y-182125952D01*
X293108035Y-182173571D01*
X293155654Y-182268809D01*
X292203273Y-181792619D02*
X292155654Y-181745000D01*
X292060416Y-181697380D01*
X291822321Y-181697380D01*
X291727083Y-181745000D01*
X291679464Y-181792619D01*
X291631845Y-181887857D01*
X291631845Y-181983095D01*
X291679464Y-182125952D01*
X292250892Y-182697380D01*
X291631845Y-182697380D01*
%TO.C,K63*%
X363064285Y-106497380D02*
X363064285Y-105497380D01*
X362492857Y-106497380D02*
X362921428Y-105925952D01*
X362492857Y-105497380D02*
X363064285Y-106068809D01*
X361635714Y-105497380D02*
X361826190Y-105497380D01*
X361921428Y-105545000D01*
X361969047Y-105592619D01*
X362064285Y-105735476D01*
X362111904Y-105925952D01*
X362111904Y-106306904D01*
X362064285Y-106402142D01*
X362016666Y-106449761D01*
X361921428Y-106497380D01*
X361730952Y-106497380D01*
X361635714Y-106449761D01*
X361588095Y-106402142D01*
X361540476Y-106306904D01*
X361540476Y-106068809D01*
X361588095Y-105973571D01*
X361635714Y-105925952D01*
X361730952Y-105878333D01*
X361921428Y-105878333D01*
X362016666Y-105925952D01*
X362064285Y-105973571D01*
X362111904Y-106068809D01*
X361207142Y-105497380D02*
X360588095Y-105497380D01*
X360921428Y-105878333D01*
X360778571Y-105878333D01*
X360683333Y-105925952D01*
X360635714Y-105973571D01*
X360588095Y-106068809D01*
X360588095Y-106306904D01*
X360635714Y-106402142D01*
X360683333Y-106449761D01*
X360778571Y-106497380D01*
X361064285Y-106497380D01*
X361159523Y-106449761D01*
X361207142Y-106402142D01*
%TO.C,K64*%
X325064285Y-187459880D02*
X325064285Y-186459880D01*
X324492857Y-187459880D02*
X324921428Y-186888452D01*
X324492857Y-186459880D02*
X325064285Y-187031309D01*
X323635714Y-186459880D02*
X323826190Y-186459880D01*
X323921428Y-186507500D01*
X323969047Y-186555119D01*
X324064285Y-186697976D01*
X324111904Y-186888452D01*
X324111904Y-187269404D01*
X324064285Y-187364642D01*
X324016666Y-187412261D01*
X323921428Y-187459880D01*
X323730952Y-187459880D01*
X323635714Y-187412261D01*
X323588095Y-187364642D01*
X323540476Y-187269404D01*
X323540476Y-187031309D01*
X323588095Y-186936071D01*
X323635714Y-186888452D01*
X323730952Y-186840833D01*
X323921428Y-186840833D01*
X324016666Y-186888452D01*
X324064285Y-186936071D01*
X324111904Y-187031309D01*
X322683333Y-186793214D02*
X322683333Y-187459880D01*
X322921428Y-186412261D02*
X323159523Y-187126547D01*
X322540476Y-187126547D01*
%TO.C,K65*%
X344114285Y-187459880D02*
X344114285Y-186459880D01*
X343542857Y-187459880D02*
X343971428Y-186888452D01*
X343542857Y-186459880D02*
X344114285Y-187031309D01*
X342685714Y-186459880D02*
X342876190Y-186459880D01*
X342971428Y-186507500D01*
X343019047Y-186555119D01*
X343114285Y-186697976D01*
X343161904Y-186888452D01*
X343161904Y-187269404D01*
X343114285Y-187364642D01*
X343066666Y-187412261D01*
X342971428Y-187459880D01*
X342780952Y-187459880D01*
X342685714Y-187412261D01*
X342638095Y-187364642D01*
X342590476Y-187269404D01*
X342590476Y-187031309D01*
X342638095Y-186936071D01*
X342685714Y-186888452D01*
X342780952Y-186840833D01*
X342971428Y-186840833D01*
X343066666Y-186888452D01*
X343114285Y-186936071D01*
X343161904Y-187031309D01*
X341685714Y-186459880D02*
X342161904Y-186459880D01*
X342209523Y-186936071D01*
X342161904Y-186888452D01*
X342066666Y-186840833D01*
X341828571Y-186840833D01*
X341733333Y-186888452D01*
X341685714Y-186936071D01*
X341638095Y-187031309D01*
X341638095Y-187269404D01*
X341685714Y-187364642D01*
X341733333Y-187412261D01*
X341828571Y-187459880D01*
X342066666Y-187459880D01*
X342161904Y-187412261D01*
X342209523Y-187364642D01*
%TO.C,K66*%
X363164285Y-187459880D02*
X363164285Y-186459880D01*
X362592857Y-187459880D02*
X363021428Y-186888452D01*
X362592857Y-186459880D02*
X363164285Y-187031309D01*
X361735714Y-186459880D02*
X361926190Y-186459880D01*
X362021428Y-186507500D01*
X362069047Y-186555119D01*
X362164285Y-186697976D01*
X362211904Y-186888452D01*
X362211904Y-187269404D01*
X362164285Y-187364642D01*
X362116666Y-187412261D01*
X362021428Y-187459880D01*
X361830952Y-187459880D01*
X361735714Y-187412261D01*
X361688095Y-187364642D01*
X361640476Y-187269404D01*
X361640476Y-187031309D01*
X361688095Y-186936071D01*
X361735714Y-186888452D01*
X361830952Y-186840833D01*
X362021428Y-186840833D01*
X362116666Y-186888452D01*
X362164285Y-186936071D01*
X362211904Y-187031309D01*
X360783333Y-186459880D02*
X360973809Y-186459880D01*
X361069047Y-186507500D01*
X361116666Y-186555119D01*
X361211904Y-186697976D01*
X361259523Y-186888452D01*
X361259523Y-187269404D01*
X361211904Y-187364642D01*
X361164285Y-187412261D01*
X361069047Y-187459880D01*
X360878571Y-187459880D01*
X360783333Y-187412261D01*
X360735714Y-187364642D01*
X360688095Y-187269404D01*
X360688095Y-187031309D01*
X360735714Y-186936071D01*
X360783333Y-186888452D01*
X360878571Y-186840833D01*
X361069047Y-186840833D01*
X361164285Y-186888452D01*
X361211904Y-186936071D01*
X361259523Y-187031309D01*
%TO.C,K67*%
X344114285Y-168409880D02*
X344114285Y-167409880D01*
X343542857Y-168409880D02*
X343971428Y-167838452D01*
X343542857Y-167409880D02*
X344114285Y-167981309D01*
X342685714Y-167409880D02*
X342876190Y-167409880D01*
X342971428Y-167457500D01*
X343019047Y-167505119D01*
X343114285Y-167647976D01*
X343161904Y-167838452D01*
X343161904Y-168219404D01*
X343114285Y-168314642D01*
X343066666Y-168362261D01*
X342971428Y-168409880D01*
X342780952Y-168409880D01*
X342685714Y-168362261D01*
X342638095Y-168314642D01*
X342590476Y-168219404D01*
X342590476Y-167981309D01*
X342638095Y-167886071D01*
X342685714Y-167838452D01*
X342780952Y-167790833D01*
X342971428Y-167790833D01*
X343066666Y-167838452D01*
X343114285Y-167886071D01*
X343161904Y-167981309D01*
X342257142Y-167409880D02*
X341590476Y-167409880D01*
X342019047Y-168409880D01*
%TO.C,K68*%
X363164285Y-125547380D02*
X363164285Y-124547380D01*
X362592857Y-125547380D02*
X363021428Y-124975952D01*
X362592857Y-124547380D02*
X363164285Y-125118809D01*
X361735714Y-124547380D02*
X361926190Y-124547380D01*
X362021428Y-124595000D01*
X362069047Y-124642619D01*
X362164285Y-124785476D01*
X362211904Y-124975952D01*
X362211904Y-125356904D01*
X362164285Y-125452142D01*
X362116666Y-125499761D01*
X362021428Y-125547380D01*
X361830952Y-125547380D01*
X361735714Y-125499761D01*
X361688095Y-125452142D01*
X361640476Y-125356904D01*
X361640476Y-125118809D01*
X361688095Y-125023571D01*
X361735714Y-124975952D01*
X361830952Y-124928333D01*
X362021428Y-124928333D01*
X362116666Y-124975952D01*
X362164285Y-125023571D01*
X362211904Y-125118809D01*
X361069047Y-124975952D02*
X361164285Y-124928333D01*
X361211904Y-124880714D01*
X361259523Y-124785476D01*
X361259523Y-124737857D01*
X361211904Y-124642619D01*
X361164285Y-124595000D01*
X361069047Y-124547380D01*
X360878571Y-124547380D01*
X360783333Y-124595000D01*
X360735714Y-124642619D01*
X360688095Y-124737857D01*
X360688095Y-124785476D01*
X360735714Y-124880714D01*
X360783333Y-124928333D01*
X360878571Y-124975952D01*
X361069047Y-124975952D01*
X361164285Y-125023571D01*
X361211904Y-125071190D01*
X361259523Y-125166428D01*
X361259523Y-125356904D01*
X361211904Y-125452142D01*
X361164285Y-125499761D01*
X361069047Y-125547380D01*
X360878571Y-125547380D01*
X360783333Y-125499761D01*
X360735714Y-125452142D01*
X360688095Y-125356904D01*
X360688095Y-125166428D01*
X360735714Y-125071190D01*
X360783333Y-125023571D01*
X360878571Y-124975952D01*
%TO.C,K69*%
X363164285Y-144597380D02*
X363164285Y-143597380D01*
X362592857Y-144597380D02*
X363021428Y-144025952D01*
X362592857Y-143597380D02*
X363164285Y-144168809D01*
X361735714Y-143597380D02*
X361926190Y-143597380D01*
X362021428Y-143645000D01*
X362069047Y-143692619D01*
X362164285Y-143835476D01*
X362211904Y-144025952D01*
X362211904Y-144406904D01*
X362164285Y-144502142D01*
X362116666Y-144549761D01*
X362021428Y-144597380D01*
X361830952Y-144597380D01*
X361735714Y-144549761D01*
X361688095Y-144502142D01*
X361640476Y-144406904D01*
X361640476Y-144168809D01*
X361688095Y-144073571D01*
X361735714Y-144025952D01*
X361830952Y-143978333D01*
X362021428Y-143978333D01*
X362116666Y-144025952D01*
X362164285Y-144073571D01*
X362211904Y-144168809D01*
X361164285Y-144597380D02*
X360973809Y-144597380D01*
X360878571Y-144549761D01*
X360830952Y-144502142D01*
X360735714Y-144359285D01*
X360688095Y-144168809D01*
X360688095Y-143787857D01*
X360735714Y-143692619D01*
X360783333Y-143645000D01*
X360878571Y-143597380D01*
X361069047Y-143597380D01*
X361164285Y-143645000D01*
X361211904Y-143692619D01*
X361259523Y-143787857D01*
X361259523Y-144025952D01*
X361211904Y-144121190D01*
X361164285Y-144168809D01*
X361069047Y-144216428D01*
X360878571Y-144216428D01*
X360783333Y-144168809D01*
X360735714Y-144121190D01*
X360688095Y-144025952D01*
%TD*%
M02*
