M48
; DRILL file {KiCad (5.1.6)-1} date 08/12/20 01:37:27
; FORMAT={-:-/ absolute / inch / decimal}
; #@! TF.CreationDate,2020-08-12T01:37:27-04:00
; #@! TF.GenerationSoftware,Kicad,Pcbnew,(5.1.6)-1
; #@! TF.FileFunction,NonPlated,1,2,NPTH
FMAT,2
INCH
T1C0.0670
T2C0.1181
T3C0.1570
%
G90
G05
T1
X5.5187Y-4.5
X5.9188Y-4.5
X8.1437Y-5.25
X8.5437Y-5.25
X6.2687Y-4.5
X6.6688Y-4.5
X11.8937Y-5.25
X12.2937Y-5.25
X6.8312Y-6.0
X7.2313Y-6.0
X10.2062Y-6.75
X10.6062Y-6.75
X11.3312Y-7.5
X11.7312Y-7.5
X5.1437Y-5.25
X5.5438Y-5.25
X13.3Y-7.6875
X13.7Y-7.6875
X9.6437Y-5.25
X10.0437Y-5.25
X2.7062Y-5.25
X3.1062Y-5.25
X4.2062Y-6.75
X4.6063Y-6.75
X9.0812Y-6.0
X9.4812Y-6.0
X3.8312Y-6.0
X4.2313Y-6.0
X9.4562Y-6.75
X9.8562Y-6.75
X4.4875Y-7.5
X4.8875Y-7.5
X2.5187Y-4.5
X2.9187Y-4.5
X14.05Y-6.0
X14.45Y-6.0
X8.8937Y-5.25
X9.2937Y-5.25
X10.7978Y-4.5
X11.1978Y-4.5
X11.3312Y-6.0
X11.7312Y-6.0
X12.8312Y-5.25
X13.2312Y-5.25
X7.2062Y-6.75
X7.6063Y-6.75
X14.05Y-7.6875
X14.45Y-7.6875
X4.7687Y-4.5
X5.1688Y-4.5
X10.3937Y-5.25
X10.7937Y-5.25
X7.3937Y-5.25
X7.7938Y-5.25
X10.0187Y-4.5
X10.4187Y-4.5
X9.8312Y-6.0
X10.2312Y-6.0
X12.55Y-6.0
X12.95Y-6.0
X6.4562Y-6.75
X6.8563Y-6.75
X10.2062Y-7.5
X10.6062Y-7.5
X7.0187Y-4.5
X7.4188Y-4.5
X12.55Y-7.6875
X12.95Y-7.6875
X3.6437Y-5.25
X4.0438Y-5.25
X12.6437Y-4.5
X13.0437Y-4.5
X8.5187Y-4.5
X8.9187Y-4.5
X11.1437Y-5.25
X11.5437Y-5.25
X4.9562Y-6.75
X5.3563Y-6.75
X10.5812Y-6.0
X10.9812Y-6.0
X7.9562Y-6.75
X8.3562Y-6.75
X14.0461Y-4.5
X14.4461Y-4.5
X7.3Y-7.5
X7.7Y-7.5
X13.3Y-6.9375
X13.7Y-6.9375
X4.0187Y-4.5
X4.4188Y-4.5
X4.3937Y-5.25
X4.7938Y-5.25
X5.8937Y-5.25
X6.2938Y-5.25
X11.5187Y-4.5
X11.9187Y-4.5
X7.5812Y-6.0
X7.9813Y-6.0
X2.9875Y-6.75
X3.3875Y-6.75
X8.3312Y-6.0
X8.7312Y-6.0
X11.9875Y-6.75
X12.3875Y-6.75
X8.7062Y-6.75
X9.1062Y-6.75
X3.55Y-7.5
X3.95Y-7.5
X14.05Y-5.25
X14.45Y-5.25
X2.8Y-6.0
X3.2Y-6.0
X6.6437Y-5.25
X7.0438Y-5.25
X7.7687Y-4.5
X8.1687Y-4.5
X9.2687Y-4.5
X9.6687Y-4.5
X5.3312Y-6.0
X5.7313Y-6.0
X6.0812Y-6.0
X6.4813Y-6.0
X4.5812Y-6.0
X4.9813Y-6.0
X5.7062Y-6.75
X6.1063Y-6.75
X10.9562Y-6.75
X11.3562Y-6.75
X2.6125Y-7.5
X3.0125Y-7.5
X3.2687Y-4.5
X3.6687Y-4.5
T2
X12.6937Y-4.4
X12.9437Y-4.3
X8.5687Y-4.4
X8.8187Y-4.3
X11.1937Y-5.15
X11.4437Y-5.05
X5.0062Y-6.65
X5.2562Y-6.55
X10.6312Y-5.9
X10.8812Y-5.8
X8.0062Y-6.65
X8.2562Y-6.55
X14.0961Y-4.4
X14.3461Y-4.3
X7.35Y-7.4
X7.6Y-7.3
X13.35Y-6.8375
X13.6Y-6.7375
X4.0687Y-4.4
X4.3187Y-4.3
X4.4437Y-5.15
X4.6937Y-5.05
X5.9437Y-5.15
X6.1937Y-5.05
X11.5687Y-4.4
X11.8187Y-4.3
X7.6312Y-5.9
X7.8812Y-5.8
X3.0375Y-6.65
X3.2875Y-6.55
X8.3812Y-5.9
X8.6312Y-5.8
X12.0375Y-6.65
X12.2875Y-6.55
X8.7562Y-6.65
X9.0062Y-6.55
X3.6Y-7.4
X3.85Y-7.3
X14.1Y-5.15
X14.35Y-5.05
X2.85Y-5.9
X3.1Y-5.8
X6.6937Y-5.15
X6.9437Y-5.05
X7.8187Y-4.4
X8.0687Y-4.3
X9.3187Y-4.4
X9.5687Y-4.3
X5.3812Y-5.9
X5.6312Y-5.8
X6.1312Y-5.9
X6.3812Y-5.8
X4.6312Y-5.9
X4.8812Y-5.8
X5.7562Y-6.65
X6.0062Y-6.55
X11.0062Y-6.65
X11.2562Y-6.55
X2.6625Y-7.4
X2.9125Y-7.3
X3.3188Y-4.4
X3.5688Y-4.3
X5.5687Y-4.4
X5.8187Y-4.3
X8.1937Y-5.15
X8.4437Y-5.05
X6.3187Y-4.4
X6.5687Y-4.3
X11.9437Y-5.15
X12.1937Y-5.05
X6.8812Y-5.9
X7.1312Y-5.8
X10.2562Y-6.65
X10.5062Y-6.55
X11.3812Y-7.4
X11.6312Y-7.3
X5.1937Y-5.15
X5.4437Y-5.05
X13.35Y-7.5875
X13.6Y-7.4875
X9.6937Y-5.15
X9.9437Y-5.05
X2.7563Y-5.15
X3.0063Y-5.05
X4.2562Y-6.65
X4.5062Y-6.55
X9.1312Y-5.9
X9.3812Y-5.8
X3.8813Y-5.9
X4.1312Y-5.8
X9.5062Y-6.65
X9.7562Y-6.55
X4.5375Y-7.4
X4.7875Y-7.3
X2.5688Y-4.4
X2.8188Y-4.3
X14.1Y-5.9
X14.35Y-5.8
X8.9437Y-5.15
X9.1937Y-5.05
X10.8478Y-4.4
X11.0978Y-4.3
X11.3812Y-5.9
X11.6312Y-5.8
X12.8812Y-5.15
X13.1312Y-5.05
X7.2562Y-6.65
X7.5062Y-6.55
X14.1Y-7.5875
X14.35Y-7.4875
X4.8187Y-4.4
X5.0687Y-4.3
X10.4437Y-5.15
X10.6937Y-5.05
X7.4437Y-5.15
X7.6937Y-5.05
X10.0687Y-4.4
X10.3187Y-4.3
X9.8812Y-5.9
X10.1312Y-5.8
X12.6Y-5.9
X12.85Y-5.8
X6.5062Y-6.65
X6.7562Y-6.55
X10.2562Y-7.4
X10.5062Y-7.3
X7.0687Y-4.4
X7.3187Y-4.3
X12.6Y-7.5875
X12.85Y-7.4875
X3.6938Y-5.15
X3.9438Y-5.05
T3
X8.1562Y-6.75
X14.2461Y-4.5
X7.5Y-7.5
X13.5Y-6.9375
X4.2188Y-4.5
X4.5938Y-5.25
X6.0938Y-5.25
X11.7188Y-4.5
X7.7812Y-6.0
X3.1875Y-6.75
X8.5312Y-6.0
X12.1875Y-6.75
X8.9062Y-6.75
X3.75Y-7.5
X14.25Y-5.25
X3.0Y-6.0
X6.8438Y-5.25
X7.9688Y-4.5
X9.4688Y-4.5
X5.5312Y-6.0
X6.2812Y-6.0
X4.7812Y-6.0
X5.9062Y-6.75
X11.1562Y-6.75
X2.8125Y-7.5
X3.4688Y-4.5
X5.7188Y-4.5
X8.3438Y-5.25
X6.4688Y-4.5
X12.0938Y-5.25
X7.0312Y-6.0
X10.4062Y-6.75
X11.5312Y-7.5
X5.3438Y-5.25
X13.5Y-7.6875
X9.8438Y-5.25
X2.9062Y-5.25
X4.4062Y-6.75
X9.2812Y-6.0
X4.0312Y-6.0
X9.6562Y-6.75
X4.6875Y-7.5
X2.7188Y-4.5
X14.25Y-6.0
X9.0938Y-5.25
X10.9978Y-4.5
X11.5312Y-6.0
X13.0312Y-5.25
X7.4062Y-6.75
X14.25Y-7.6875
X4.9688Y-4.5
X10.5938Y-5.25
X7.5938Y-5.25
X10.2188Y-4.5
X10.0312Y-6.0
X12.75Y-6.0
X6.6562Y-6.75
X10.4062Y-7.5
X7.2188Y-4.5
X12.75Y-7.6875
X3.8438Y-5.25
X12.8438Y-4.5
X8.7188Y-4.5
X11.3438Y-5.25
X5.1562Y-6.75
X10.7812Y-6.0
T0
M30
